<?xml version="1.0" encoding="UTF-8"?>
<svg version="1.1" viewBox="0 0 1252 1252" xmlns="http://www.w3.org/2000/svg">
 <path transform="translate(207)" d="m0 0h838l26 3 23 5 24 8 23 11 16 10 16 12 12 11 15 15 13 17 10 16 10 19 8 21 6 22 3 18 2 19v838l-3 26-5 23-8 24-11 23-10 16-12 16-11 12-15 15-17 13-16 10-19 10-21 8-22 6-18 3-19 2h-838l-26-3-23-5-24-8-23-11-16-10-16-12-12-11-15-15-13-17-10-16-10-19-8-21-6-22-3-18-2-19v-838l3-26 5-23 8-24 11-23 10-16 12-16 11-12 15-15 17-13 16-10 19-10 21-8 22-6 18-3z" fill="#9A20AA"/>
 <path transform="translate(616,28)" d="m0 0 26 1 15 2 30 7 28 8 30 10 16 6 20 8 25 5 29 8 21 9 9 4 11 8 11 7 10 8v2l4 1 8 7 10 9 20 20 6 8 4 4 3 5 8 11 12 19 14 28 10 25 8 25 6 27v7l-1 1-15 1-37-1-2-1 1 3 5 3v2l5 2 6 4v2l4 2 13 10v2l4 2 6 4 5 5 13 12 8 7 9 9 7 9 1 8-3 3h-9l-15-4-12-5 3 6v3h2v5h2l3 9v3h2l7 23 1 1 2 9 4 16 4 21 2 16 1 18 5 3 36 13 16 6 13 5 5 1v2l5 1 5 3-2 15-2 5-3 14-2 3h-2v2l-14 5-3 5-10 26-3 7h-2l-1 5-7 11-2 26-3 17-5 22-9 30-6 16-7 14-4 4-4 7-4 2-2 5-8 10h-2l-2 5-5 7-2 5-4 5-6 8h-2l-2 4-7 8-11 8-18 12-15 9h-2v2l-7 1v2l-4 1-1 3-13 5-10 5-1 12-3 4-5-2-1-2v-7l-12 5h-3l-3 11-4 7h-4l-1-2 1-9 1-3-23 6-25 4-18 2-15 1-4 14-2 6-7 24-2 7-6 19-5 18-8 25-9 29-11 35-5 15-5 17-6 18-3 8-3 12-3 7-2 6-2 1h-9l-13-2-7-2-17-4-72-14-31-6-48-10-69-15-12-2-6-2-15-3-26-6-1-1-18-3-32-7-10-1-8-3-21-4-1-1-10-2-1-1v-9l7-49 11-66 9-50 13-67 10-50 16-77 6-30 6-27 7-34v-6l-7-6v-2l-6-1-9-5-7-10-5-12-1-6h-2l-1-13v-17l-8 7-3 5h-2l-2 4-12 12-13 11-14 8-12 6-19 7-23 6-9 2-21 2-25 1-18-3-10-4-6-3-9-10-9-14-4-10v-2h-2l-2-7v-8l4-8 4-4 16-6 7-3 36-10 6-2 5-6 12-9 6-7 6-4 9-9 11-4 7-1h19l9-5 3-3 7-4 4-4h2v-2l8-7 8-9 2-1 3-5 5-5 5-4 2-3-2-13-8-21-6-20-5-21-3-22-1-27 2-27 7-34 7-21 3-10h2l3-9 5-12 1-3 3-3 8-14 3-4 2-5 7-10 8-8 2-5h2l1-4 3-3 4-5h2l2-4 12-12h2l1-3 8-7 7-5h2v-2l8-5 9-7 12-7 8-3 18-2 20 1 11-8 3-1 6-8 9-10 11-9 14-7 15-5 12-3 8-3 26-6 20-3z" fill="#060408"/>
 <path transform="translate(585,23)" d="m0 0h17l18 1v2l-12 1-3 1-12 1-1 1-15 2-22 5h-3v3l-5 2-16 4-15 6-10 5-11 9-11 12-4 6-9 5-5 4-20-1-18 2-12 5-11 7-10 8-4 1v2l-9 6-8 7-16 16-6 7-4 4-1 3-2 1-2 5-6 7-4 4-5 7-3 7-8 13-3 5h-2l-2 9-7 15h-2l-3 13-6 18-7 34-2 27 1 27 4 27 7 27 5 14 7 20 1 9-5 5-6 7-3 2-2 4-16 16h-2v2l-5 2-1 3-7 4h-2l-1 3-9 5h-19l-9 2-10 4-5 5h-2l-2 4-5 2-1 3h-2l-2 4-11 9-5 4-2 3-34 10-14 4-13 6-5 2-4 5-2 5v8l1 7h2l7 16 9 12 7 8 7 3 13 4 14 2 36-2 13-2 25-6 17-6 12-5 16-9 10-8 8-7h2l2-4 11-11 3-5 5-5h2l1 17v13h2l6 16 8 12 10 5 4 1v2l4 2 4 4-1 11-8 38-8 39-14 67-11 53-14 72-8 45-8 47-8 48-5 36v9l10 2 6 2 16 3 8 3 15 2 31 7 14 2 9 3 18 4 20 4 6 2 25 5 43 9 24 5 12 3 31 6 40 8 46 9 19 4 10 2 1 1 13 2h11l3-12 3-7 2-9 3-8 9-27 5-18 8-25 10-31 10-33 5-15 6-21 2-9 3-8 10-34 2-4 26-2 26-4 21-5 8-1-1 12v2l4-1 5-12 2-5 12-5h3l2 9 4 1 2-3 1-12 9-5 11-5 4-1 3-3h2v-2l7-1v-2l22-13 13-9 8-6 7-6 5-7h2l2-5 3-1 2-5 3-3 3-7 6-9 5-5 4-5 3-5 5-5 3-5h2l2-4 8-17 5-16 10-33 5-25 2-15 1-18 8-13 1-3h2l1-5 10-25 3-7 5-3 7-3h4v-2h2l2-9 2-1 3-10h2v-13l2 4 1 32v28l-1 12-2 12-1 10-1 1-2 17-3 10-2 7v5h-3l1 5h-2v5l-1 5h-2v5l-2 5h-2l1 5-5 10-4 10h-2l1 5-2 2-2 1-1 7h-2l-1 7-3 1 1 4-2 1v2h-2v3h-2l1 4-4 1-1 7-3 3-1 2h-2v3h-2l-3 9-3 1-2 5-1 2h-2v3h-2l-1 3h-2v4h-2l-2 5-6 5h-2l-1 5h-2l-1 3-4 3h-2l-2 4-3 5-3 1v2h-3v2h-3v2l-4 1v2h-2l-2 4-5 1-1 3h-2v2h-3v2l-3 3h-2v2l-5 1v2l-8 5h-4v2l-3 3-8 4-4 1-1 3-7 3-5 2h-3v2h-4l-1 3h-4v2l-7 3h-3v2h-3v2l-12 6h-3v2h-4l-2 4-4 3h-2v2l-7 2v3l-6 3h-2v2l-7 1 1 4-4-1v2h-2l-1 4-4 1-1 2h-2v2l-5 1v2h-2l-1 5-5 5h-2l-1 3h-2v2h-2v2h-2l-1 4h-2v2h-2v2l2 1-4 2-1 5h-2l-3 9h-2l-1 5h-2l-1 4-4 11h-2l-1 6h-2v5h-2v5h-2l1 5h-2l-1 5-3 14-1 5h-2l-1 6h-2v4h-2l1 5h-2v3h-2v5h-2l1 3h-2v5h-2v7h-2l-1 7h-2v3h-2l-1 5h-2l-1 4-2 4h-2v4l-3 3v2h-2v2h-2l-1 5h-2v5h-2l-1 5-4 1-1 4-4 1-1 4-4 1-1 3-4 4h-3l-1 3h-3l-1 3h-2v2h-3v2h-2l-1 3h-4v3h-2v2h-3v2l-7 1v2l-5 2h-3v2l-8 1v2l-14 4-1 1h-5v2l-12 2-13 2-12 2h-5v2l-32 1-5-1-1 3h-7v-2l-7 1h-36v-2l-10 2h-16l-1-1-12-1v2h-7l-11 2-10-1h-42v2h-2v-2h-10v2h-5l-1-1-7-1v2h-38v2h-10v-2h-5v2l-7 1h-8v2h-24v2h-10v-2h-7v2l-8 1h-15v2h-20v2l-10 1h-12v2h-21l-26-3-23-5-24-8-23-11-16-10-16-12-12-11-15-15-13-17-10-16-10-19-8-21-6-22-3-18-2-19v-768h3v2h-2v3h2v-2l2-1 1-4 2 1v-2h-3v-2h-2v-7l5-1h5v-8h2v-2h-4v-2h4v-2l8-1v-2h2l1-8h2v-2h2l1-3h2v-2h3v-2l4-1 1-7h5v-2l4-1 1-4 4-1 1-4 4-1v-4h3v-2h2l1-3v2h2v-2h2v-3h5l1-7 4-1v-2h3v-2l4-1v-2h6v-3h2l1-4h4l1-5 4-1v-2h3v-2h7v-3h2l1-3h4l1-4h4v-2l-4 1v-2h4v-2l6-1h4v-4l6-1-1-4-4-2h5v-2l26-9 14-6 16-5 13-5 20-7 24-8 8-3 14-5 37-13 16-6 34-10 30-7 34-6 25-3 1-1 11-1 9-4 25-5h7v-2l20-2 25-3z" fill="#AF79EE"/>
 <path transform="translate(608,39)" d="m0 0h30l27 4 36 9 28 9 20 6 18 6 17 5 26 8 17 5 15 7 10 5 20 13 16 12 10 9 2 1v2l4 2 16 16 10 11 13 17 9 14 8 14 8 16 7 16 6 16 7 22 4 14 1 5-1 5-44-1-36-2-27-3h-21l-14 3-14 5-11 6-13 9-5 5h-2l-2 4-3 1-1 3-11 9-13 11-10 6-14 9-15 9-24 11-25 9-18 5-19 4-20 3-16 2h-47l-23 2-11 1-21 3-30 6-16 5-17 6-8 5-13 5-10 6-10 7-9 7-26 26-7 8-12 12-7 8-12 12-7 8-7 7h-2l-2 4-16 17-10 9-8 8-21 13-15 7-21 7-14 4-6 1-26 3-20 1-16-2-10-4-10-10-10-19-2-6v-9l9-6 14-6 29-9 17-6 13-12 8-7 12-10 9-6 5-2 25-2 8-3 20-15 8-7 12-13 9-9 5-9v-10l-4-16-6-19-6-24-3-16-2-16v-36l3-23 6-31 2-6 3-11 12-24 4-6 6-11 5-10 3-5 5-5 8-11 8-10 9-10 5-6h2l1-3 8-7 12-11 22-18 5-3 12-2 12-1h19l11-4 12-9 7-9 10-9 9-7 13-6 11-4 31-8 9-2 18-3z" fill="#181818"/>
 <path transform="translate(207)" d="m0 0h560l7 4 10 3 12 4 5 2v2l7 1 8 4 20 8 15 7v2h5v2l5 2 12 6v2l3-1v2h3v2l6 1 3 3 5 3 7 5 7 4 6 4 1 2 4 1v2h2l1 2 4 1 3 3v2h3v2l4 1 1 4 6 2v2l4 2 7 5v2h2l1 4 4 1 1 4 4 1 1 4 3 1v2l3 1 4 4v3h2v2h2l6 7 2 1v2h2l6 9 2 4h2l5 9 5 7 1 3 2 1 3 7v3h2v4h2l1 6h2l7 12 3 5v3h2v6h2l1 6h2l3 5 3 10h2l2 5v3h2v6l3 6-1 2h2v3h2l2 7 2 5 3 10 3 5v3h2l-1 7h2l3 6 5 21 1 5h2l2 10 1 1v5h2l1 5 4 9v5l2 6-1 2h2v7h2l6 16v5h2v5h2l4 15 3 5 3 9 2 3 2 8v5h2v7h2v5h2l1 8h2l4 14 1 5h2l-1 5h2l2 8 1 3h2l2 10v6h2l3 15 3 8v5h2l3 17v13h2v27l-1 18-1 2 2 1h-2v14l-2 15-2 16-1 2h2v4h-2l-1 11h-2l-1 12-2 8h-2v7l-3 8-2 7h-2v8h-2l1 4h-2l-1 5-3 10-2 4-1 9-3 7h-2l-1 8h-2v3h-2l-1 7h-2v3h-2v7h-2l-1 4-2 4h-2l-1 8h-2l-3 9h-2v2h-2l-1 10-1-2h-4v3h-2v2h-2l-1 5h-2l-1 5h-2v2h-2v2l-3 3h-3l-1 3h-3l-1 4-4 4h-5v2h2v2l-4 1 1 4-11 3-1 3-5 2v2l-4 1-1 3h-2v3l-5 1v2h-2l-1 4h-2v2h-3v2l-5 3v2l-9 4-3 1v3h-2l-1 4-5 2-2 1v2h-3v2l-5 1v2h-2v2l-12 3v2l-6 1v2h-2v2l-3 3h-2v2l-7 1v2h-3v2l-7 1v2h-3v2l-7 1v2h-3v2l-4 1-1 4-7 1v2h2v2l-7 1v2h-2v2l-5 1v2h-3v2l-5 1v2h-2v2h-3v3h-2v3h-3v2h-2l-1 3h-2l-2 4-3 1v2h-2l-1 3h-2l-1 4-4 1-1 4h-2v3h-2l1 5-4 8h-2l-3 10v2h-2v3h-2l-1 7h2v2h-2v3h-2v3h-2l1 4h-2v3h-2v5h-2v3h2v4h-2l-1 13h-2l-1 7-2 6h-2v4h-2v3h2v3h-2v4h2v3h-2l1 3-2 9h-2v3h-2l-1 7h-2v3h-2v2h2v3h-2l-1 9h-2v3h-2l-1 5h-2v3h-2l-1 5h-2v2h-2l-1 5h-2v5h3l-1 3h-2v2h-2v5h2v3h-3v2h-4l-1 2-2-1v2l-5 3h-2l-1 4h-2v2l-3 3h-2v2h5l-2 1-1 4-5 1v2h-2v2l-5 1v2h-538v-2l12-1h10v-2h20v-2l23-1v-2h7v2l5-1 5 1v-2l15-1 9 1v-2l15-1v-2h5l10 2v-2h38v-2h8v2h5v-2h10v2h2v-2l10-1h32l12 1 11-2 5 1v-2h12l3 1h14l6-1h4v2l10-1h33v2l7-1 1-2h37v-2l17-3 13-2 3-1h9v-2l13-4 7-1v-2l8-1v-2l4-2h4v-2l5-2 2 1v-2h3v-2h2v-3l4-1 1-2h2v-2h3v-2l3-3 3-1 1-2h3l2-4 5-4h2l1-4 4-1 1-4 4-1 1-5h2v-5h2l1-5h2v-2h2l-1-3 4-2v-4l2-1 3-7h2l1-5h2v-3h2l1-7h2v-7h2v-5l1-3h2v-5h2v-3h2l-1-5h2v-4h2l1-6h2l1-9 2-10 2-5h2l-1-5 2-5h2v-5h2l1-6h2l3-11 2-4h2l1-5h2v-5h2l1-4h2l1-5 3-2-1-3h2v-2l2-1 1-3h2v-2h2v-2l3-3h2l2-4 3-1 1-5h2v-2h2l1-2 2 1v-2h2l2-4 3 1 1-4h2v-2h3v-3l7-1v-2l5-3h3v-3l4-2h3v-2l7-5 1-2h4v-2l10-4 1-2h4v-2h3v-2l7-3h3v-2l4-1 1-2h4v-2l15-6 1-2 9-5h3l1-3h2v-2l5-2 5-3h2v-2l5-1v-2h2l1-3h2v-2h3v-2l3-3 6-3 1-2h2v-2l4-1v-2h3v-2h3v-2l4-3 4-7 6-4 4-7 5-5h3l2-5h2v-4l3-3h2v-3h2l2-5 3-3 3-7 1-2h2v-3h2l2-5h2l-1-3h2v-4l4-1-1-4h2v-3h2l-1-3 2-1v-3l2-1v-3h2v-4h2l1-7 2-3h2l-1-5h2l1-5 6-14 1-3v-3h2l2-10h2l-1-4 2-6h2l-1-5 2-1 1-6 3-13 2-9 1-10 1-1 2-19 1-3 1-13v-34l-1-25-1 9h-2l-1 5-2 6-1-2 2-7 3-16v-3l-9-4v-2l-8-1-18-7-16-6-31-11-3-3-2-26-4-23-4-19-2-5-1-7-4-10-3-14h-2l-3-7v-5h-2v-5h-2l-3-6v-3l11 3 8 3 8 2h9l2-2-1-8-9-11-12-12-8-7-12-10-4-4-6-4-5-5-12-9-2-3-9-5v-2l-5-2-1-4 40 1 14-1v-7l-6-27-11-33-11-26-9-16-6-11-9-14-8-10-3-5-14-16-20-20-8-7-7-4-5-5-14-10-12-8-2-2-8-3-21-9-32-9-25-5-27-11-30-10-30-9-21-5-20-4-8-1-26-1-23 2-16 3-22 5h-3v-2l29-7 11-1 1-1 12-1 3-1h12v-2h-35l-36 2-30 4h-12v2l-32 6-9 4-11 1-1 1-25 3-39 7-32 8-27 8-39 14-23 8-12 4-10 4-24 8-26 10-14 4-14 6-22 8h-4v2l-3 1 3 3v2l-6 1 1 4-5 1h-6v2h-4v2l4-1v2h-4l-1 4-4 1-1 2h-2v3h-3l-1 2v-2h-3v2h-3v2l-4 1-1 5h-4l-1 4h-2v3h-6v2l-4 1v2h-3l1 3h-5l-1 7h-5v3h-2v2l-5 1v2h-3v4l-4 1-1 4-4 1-1 4-4 1v2h-5l-1 7-4 1v2h-3v2l-3 3h-2v2h-2l-1 8h-2v2l-8 1v2h-4v2h4v2h-2v8l-5 1h-5v4l2 1h-2v2h2v2h3v2l-2 1-1 3h-2v2h-2v-3h2v-2h-3v-70l3-26 5-23 8-24 11-23 10-16 12-16 11-12 15-15 17-13 16-10 19-10 21-8 22-6 18-3z" fill="#AF59E4"/>
 <path transform="translate(474,44)" d="m0 0h53l-2 3h-2v2l-10 5-7 3-11 9-11 12-4 6-9 5-5 4-20-1-18 2-12 5-11 7-10 8-4 1v2l-9 6-8 7-16 16-6 7-4 4-1 3-2 1-2 5-6 7-4 4-5 7-3 7-8 13-3 5h-2l-2 9-7 15h-2l-3 13-6 18-7 34-2 27 1 27 4 27 7 27 5 14 7 20 1 9-5 5-6 7-3 2-2 4-16 16h-2v2l-5 2-1 3-7 4h-2l-1 3-9 5h-19l-9 2-10 4-5 5h-2l-2 4-5 2-1 3h-2l-2 4-11 9-5 4-2 3-34 10-14 4-13 6-5 2-4 5-2 5v8l1 7h2l7 16 9 12 7 8 7 3 13 4 14 2 36-2 13-2 25-6 17-6 12-5 16-9 10-8 8-7h2l2-4 11-11 3-5 5-5h2l1 17v13h2l6 16 8 12 10 5 4 1v2l4 2 4 4-1 11-8 38-8 39-14 67-11 53-14 72-8 45-8 47-8 48-5 36v9l10 2 6 2 16 3 8 3 15 2 31 7 14 2 9 3 18 4 20 4 6 2 25 5 38 8v3h5v1l-13 3-25 8-30 9-9 1-5-1v-2h-7l-3-1h-5v-2l-5 1-10-3-4-3-18-4-1-2-10-2v-2h-4v-2h-3v-2l-5 1v-2h-2v-2l-12-2-1-2-7-1-1-3-5-2-6-3-1-4h-2v2l-3-1v-2l-5-1-2-1v-3l-6-2-4-3v-2h-2l-2-4-3 1v-2h-3v-3h-2l-1-5h-2v-2h-2v-2h-3v-5h-3v-3h-2v-2l-3-1v-2l-4-2-1-4h-2v-2h-2v-3l-3-1-3-10-2-1v-7h-2l-2-12-1-1v-10l-4 1-1-1-3-15v-4h-2v-13h-2v-3h2v-2h-3v-7h-3l-2-11v-4h-2v-10h2v-5h-5l1-11h-4l-1-7h2v-9h-2v2h-3v-3h-2l-1-2v-8l-1-5 1-2h-2v-5h-2v-5h-3v-5h-4l1-13h-4l-1-5v-7h2v-2l-6-1v-2h2v-2l-6-1 1-9-7-1-1-7h-4l-1-5 1-2h-3v-8h-2v-2l-3-1h2v-4l-5-1v-4h-5v-3h-5v-5h-2v-5h-3v-5h-4v2h-3v-4h-2v-6h-5v-4h2v-2l-3 1v-7h-2v2l-3-1 1-5-5 1-1-6-4-1v-3h-3v-4h2v-2l-5 1v-5h-2v-4h-4v-3h-3v-2h-3v-3h-4l-1-7-8-1-2-3v-6h-2v-5l-3-1v-2h-5v-2h3v-2h-3v-4l-5 1v-5h-2l-5-6v-2h2v-5h-2l-1-9h-4v-8h-3v-8h-2v-7h-2l-2-5-1-6h-2v-2h-2l2-7h2v-5h-3l1-7-3-1h2v-2h3v-3h-2l-1-5v-7h-2v-5l3-3v-2h4v-2h-2l1-15 1-3h3v-2h-2v-2l4-1 1-3h2l1-9 2-6h2v-5h2l1-9h2v-5h4v-2h-2v-3l6-1-1-2v-7h3v-3l4-3 1-6 2-1 1-3h2v-5l2-1-1-3h4v-5h3v-5h4v-2l-2-1h4l-1-5h2v-2h2v-7l8-6h3v-2h2l1-5h3l1-3h2v-2l5-3h2v-2l6-3h2v-4l5-1v-2h2l1-3h2v-2l4-1 2-4h4v2h2l6-7h2v-2l2-1 1-4 5-1v-2h4l1-5 4-2 1-3h2v-2l3-3h4l1-7h2l1-5 6-1-1-3 4-9h5v-7l4-1-1-4h2v-5l4-1 1-7h4l1-10h3v2h2v-4l2-1 1-7h2v-5h2v-7h3v-12l4-1 1-7h-3l1-3h2v-2h-2v-2h2v-5h2v-10h2l-1-8h2v-8h2v-7h2l-1-5h2v-6h-2v-2h2v-5h2v-15l1-5h2v-4h-2v2h-2l2-7h2v-3h2v-8l1-4h2v-9h2l1-7h2l1-5 1-2h-2v-5h2l-1-4 3-1v-3h-2v-2h3v-5h2l1-5h2v-3h2v-2h-2v-2h2l1-5 4-1 1-5h2v-2h2v-2h2v-8l1-3h2v-2h2l1-3h2v-2h2l2-4 2-3h2v-2l4-1 1-3h2v-2h2l1-4 4-1 1-4 5-1v-2h2v-2l3-3h2v-2l5-1 1-4h4v-2h6v-2l17-4 11-3 29-6 28-4 19-2z" fill="#AB93F7"/>
 <path transform="translate(801)" d="m0 0h244l26 3 23 5 24 8 23 11 16 10 16 12 12 11 15 15 13 17 10 16 10 19 8 21 6 22 3 18 2 19v838h-1v-124l-8-1v-2h-6v-2l-12-1v-2h-5v-2h-7l-5-1v-2h-6v-2l-12-1v-2h-5v-2h-7l-5-1v-2h-6v-2l-4 1v-2h2v-2h2l1-6h2v-2h-2v-2h-6v-2l-10-1 1-5h2v-4h2l1-5-3-1h2v-4h-2v-3h2l1-5h-5v-2h2v-3h2l1-13h2v-4h2l1-5h-3l1-10h2l2-12 2-4 1-10h2l-2-7 4-10 2-14 2-6 2-18h2v-8l1-9v-2h2l-1-5 1-8h2l-1-15 2-7-1-7 2-8 1-25-1-13v-22l-2-5-2-23-2-15-3-1v-3h-2l-2-13-3-13v-5h-3l-3-14v-5h-2v-5h-2v-3h-3l-1-12h-2l-3-13h-2l-3-10v-4h-2v-3h-2l-4-12-2-3v-5h-2v-3h-2v-5h-2l-4-14v-3h-2l-3-12v-3h-2l-2-9h-2l-3-12v-4h-2l-1-5-4-8-1-9h-2v-6h-2l-2-9-4-9-2-3-2-8-1-2v-6h-2v-7h-2l-1-4-4-8-4-12v-6h-2l-2-6-3-6v-5h-2l-5-10v-4h-2l-1-6h-2l-4-10-4-8v-3h-2v-4h-2l-3-7v-3h-2v-3h-2v-3h-2l-6-11v-3h-2l-3-6-1-4h-2l-3-5v-3h-2v-4l-3-1v-3h-2v-2h-2l-3-5v-2l-3-1-2-6-3-1v-2h-3l-2-4-7-6v-3h-2v-2l-3-1v-3l-5-2v-2h-2l-3-3v-2h-2l-1-4-4-1-1-4-4-2-3-1-7-8-3-2v-2l-5-2-2-1v-2l-5-2-1-3-6-2-1-3-5-2-6-5-8-4-3-3-10-6-2-1v-2l-4-1-14-7v-2h-3v-2l-7-1v-2l-6-1-4-2v-2h-3v-2l-3 1-9-5-3-1v-2l-7-1v-2l-4 1-4-3-7-2v-2l-4-1-11-4z" fill="#831DA5"/>
 <path transform="translate(367,660)" d="m0 0 2 1 6 28 9 36 7 19 5 11 13 27 13 21 14 20 12 16 9 10 8 10 9 10 14 10 11 6 21 10 18 7 37 12 33 8 24 3 48 3 7 1 20 1h22v16l5-1 4-6 2-8 6-1 31-1 1 2-8 26-5 18-8 24-23 75-9 30-9 28-5 15-9 28-2 5-12-1-61-12-60-12-34-7-32-7-42-9-23-5-42-9-39-8-32-7-34-7-3-2 3-23 7-44 14-82 8-43 5-25 18-89 10-49z" fill="#FEA996"/>
 <path transform="translate(514,508)" d="m0 0 4 2 19 38 14 19 2 4h2l9 11 12 12 11 9 9 8 14 10 16 10 18 10 19 9 28 10 24 5 13 1h32l25-5 20-7 23-12 11-8 11-9 12-11 9-8 14-8 10-3h12l7 3 9 8 5 9 8 16 10 15 13 16 7 7 13 10 12 6 11 3 7 1h10l11-2 10-4h3l4 11 2 10v10l-3 17-7 20-9 22-3 6-7 9-10 14-10 15-10 16-10 11-9 7-4 1 4-16 2-13v-33l-4-14-7-11-9-10-16-8-9-3-26-7-27-9-17-9-19-10-11-5-18-6-14-3-20-2h-10l-17 4-12 5-14 7-14 12-10 13-8 16-8 15-6 12-8 13-7 19-10 31-5 21-3 21-2 32-1 2h-8l-23-4-20-5-40-12-28-10-21-9-14-8-16-16-7-8-11-14-13-17-9-13-8-12-15-25-11-27-7-24-6-23-5-22-5-30-4-8-8-8-14-9-6-8-4-10-2-10-1-10v-18l1-9 4-4h3l3 10 6 9 1 3 1 18 2 8 3 6 6 5 4-1-3-9-4-10v-15l-3-9-3-5-2-10v-7h4l5 5 3 9 5-2-1-10-2-3v-3l2-1 19-1 1 14v38l2 6 3 4 7 3h16l12-5 5-5 4-6 1-4v-20l-3-15-3-13 1-4 16-3 15-2 21-4 20-4z" fill="#FDA996"/>
 <path transform="translate(1121,565)" d="m0 0 2 4 1 32v28l-1 12-2 12-1 10-1 1-2 17-3 10-2 7v5h-3l1 5h-2v5l-1 5h-2v5l-2 5h-2l1 5-5 10-4 10h-2l1 5-2 2-2 1-1 7h-2l-1 7-3 1 1 4-2 1v2h-2v3h-2l1 4-4 1-1 7-3 3-1 2h-2v3h-2l-3 9-3 1-2 5-1 2h-2v3h-2l-1 3h-2v4h-2l-2 5-6 5h-2l-1 5h-2l-1 3-4 3h-2l-2 4-3 5-3 1v2h-3v2h-3v2l-4 1v2h-2l-2 4-5 1-1 3h-2v2h-3v2l-3 3h-2v2l-5 1v2l-8 5h-4v2l-3 3-8 4-4 1-1 3-7 3-5 2h-3v2h-4l-1 3h-4v2l-7 3h-3v2h-3v2l-12 6h-3v2h-4l-2 4-4 3h-2v2l-7 2v3l-6 3h-2v2l-7 1 1 4-4-1v2h-2l-1 4-4 1-1 2h-2v2l-5 1v2h-2l-1 5-5 5h-2l-1 3h-2v2h-2v2h-2l-1 4h-2v2h-2v2l2 1-4 2-1 5h-2l-3 9h-2l-1 5h-2l-1 4-4 11h-2l-1 6h-2v5h-2v5h-2l1 5h-2l-1 5-3 14-1 5h-2l-1 6h-2v4h-2l1 5h-2v3h-2v5h-2l1 3h-2v5h-2v7h-2l-1 7h-2v3h-2l-1 5h-2l-1 4-2 4h-2v4l-3 3v2h-2v2h-2l-1 5h-2v5h-2l-1 5-4 1-1 4-4 1-1 4-4 1-1 3-4 4h-3l-1 3h-3l-1 3h-2v2h-3v2h-2l-1 3h-4v3h-2v2h-3v2l-7 1v2l-5 2h-3v2l-8 1v2l-14 4-1 1h-5v2l-12 2-13 2-12 2h-5v2l-32 1-5-1-1 3h-7v-2l-7 1h-36v-2l-10 2h-16l-1-1-12-1v2h-7l-11 2-10-1h-42v2h-2v-2h-10v2h-5l-1-1-7-1v2h-38v2h-10v-2h-5v2l-7 1h-8v2h-24v2h-10v-2h-7v2l-8 1h-15v2h-20v2l-10 1h-12v2h-21l-26-3-23-5-24-8-23-11-16-10-16-12-12-11-15-15-13-17-10-16-10-19-8-21-6-22-3-18-2-19v-142l3-1 3 3v6h2v7h2v5h-2v2l3 1-1 4h3v-2h2v3h-2v6h2l1 9-1 2 6-1v6h2v4h2l1 11h4l1 7v2h5v6l4-1 3 1v5h2l1 5v7h4l1-2v2h2v3l-5-1v5h2v3h3v-2h3v9h2v-2h2l1 3 5-1 4 1 1 10h4v2h-2v3h2v2h2v-2h3v2h-2v3l5-1 3 1v2h-3v2h5v5h2v7l1-2h7v3h2l1 3v7h4v3h3v2h4l1 3-1 2h3v-2h2l1 12h7v3h2l1 7h5v2l3 1v4h2l-1 5h3v-5h3v5h4l1 5h2v3h2v2h4v-2h2v2l2 1h-2v2h2l3 5v2h2v5h2l1 8h4l3 3 5 2v2h3v2h2l1-4 2 2v3h2v4l2 1 3 3 8 2v2h7v3l5 2v2l3 1v2h2v2l12 1 1 4 7 1v2h2l3 3v2l7 2v3l13 2 2 1v2h6v3h4v-2l6 2v2l7 1v2h3v2l7 1v2h3v2l9 1v-2l25-7 17-6 17-5 22-7 23-7 11-3h25l15 1h23l2 1h34l8 1h65v-2l15-1-7-3v-1l10 1 35 7 19 4 10 2 1 1 13 2h11l3-12 3-7 2-9 3-8 9-27 5-18 8-25 10-31 10-33 5-15 6-21 2-9 3-8 10-34 2-4 26-2 26-4 21-5 8-1-1 12v2l4-1 5-12 2-5 12-5h3l2 9 4 1 2-3 1-12 9-5 11-5 4-1 3-3h2v-2l7-1v-2l22-13 13-9 8-6 7-6 5-7h2l2-5 3-1 2-5 3-3 3-7 6-9 5-5 4-5 3-5 5-5 3-5h2l2-4 8-17 5-16 10-33 5-25 2-15 1-18 8-13 1-3h2l1-5 10-25 3-7 5-3 7-3h4v-2h2l2-9 2-1 3-10h2z" fill="#C25FE9"/>
 <path transform="translate(636)" d="m0 0h131l7 4 10 3 12 4 5 2v2l7 1 8 4 20 8 15 7v2h5v2l5 2 12 6v2l3-1v2h3v2l6 1 3 3 5 3 7 5 7 4 6 4 1 2 4 1v2h2l1 2 4 1 3 3v2h3v2l4 1 1 4 6 2v2l4 2 7 5v2h2l1 4 4 1 1 4 4 1 1 4 3 1v2l3 1 4 4v3h2v2h2l6 7 2 1v2h2l6 9 2 4h2l5 9 5 7 1 3 2 1 3 7v3h2v4h2l1 6h2l7 12 3 5v3h2v6h2l1 6h2l3 5 3 10h2l2 5v3h2v6l3 6-1 2h2v3h2l2 7 2 5 3 10 3 5v3h2l-1 7h2l3 6 5 21 1 5h2l2 10 1 1v5h2l1 5 4 9v5l2 6-1 2h2v7h2l6 16v5h2v5h2l4 15 3 5 3 9 2 3 2 8v5h2v7h2v5h2l1 8h2l4 14 1 5h2l-1 5h2l2 8 1 3h2l2 10v6h2l3 15 3 8v5h2l3 17v13h2v27l-1 18-1 2 2 1h-2v14l-2 15-2 16-1 2h2v4h-2l-1 11h-2l-1 12-2 8h-2v7l-3 8-2 7h-2v8h-2l1 4h-2l-1 5-3 10-2 4-1 9-3 7h-2l-1 8h-2v3h-2l-1 7h-2v3h-2v7h-2l-1 4-2 4h-2l-1 8h-2l-3 9h-2v2h-2l-1 10-1-2h-4v3h-2v2h-2l-1 5h-2l-1 5h-2v2h-2v2l-3 3h-3l-1 3h-3l-1 4-4 4h-5v2h2v2l-4 1 1 4-11 3-1 3-5 2v2l-4 1-1 3h-2v3l-5 1v2h-2l-1 4h-2v2h-3v2l-5 3v2l-9 4-3 1v3h-2l-1 4-5 2-2 1v2h-3v2l-5 1v2h-2v2l-12 3v2l-6 1v2h-2v2l-3 3h-2v2l-7 1v2h-3v2l-7 1v2h-3v2l-7 1v2h-3v2l-4 1-1 4-7 1v2h2v2l-7 1v2h-2v2l-5 1v2h-3v2l-5 1v2h-2v2h-3v3h-2v3h-3v2h-2l-1 3h-2l-2 4-3 1v2h-2l-1 3h-2l-1 4-4 1-1 4h-2v3h-2l1 5-4 8h-2l-3 10v2h-2v3h-2l-1 7h2v2h-2v3h-2v3h-2l1 4h-2v3h-2v5h-2v3h2v4h-2l-1 13h-2l-1 7-2 6h-2v4h-2v3h2v3h-2v4h2v3h-2l1 3-2 9h-2v3h-2l-1 7h-2v3h-2v2h2v3h-2l-1 9h-2v3h-2l-1 5h-2v3h-2l-1 5h-2v2h-2l-1 5h-2v5h3l-1 3h-2v2h-2v5h2v3h-3v2h-4l-1 2-2-1v2l-5 3h-2l-1 4h-2v2l-3 3h-2v2h5l-2 1-1 4-5 1v2h-2v2l-5 1v2h-538v-2l12-1h10v-2h20v-2l23-1v-2h7v2l5-1 5 1v-2l15-1 9 1v-2l15-1v-2h5l10 2v-2h38v-2h8v2h5v-2h10v2h2v-2l10-1h32l12 1 11-2 5 1v-2h12l3 1h14l6-1h4v2l10-1h33v2l7-1 1-2h37v-2l17-3 13-2 3-1h9v-2l13-4 7-1v-2l8-1v-2l4-2h4v-2l5-2 2 1v-2h3v-2h2v-3l4-1 1-2h2v-2h3v-2l3-3 3-1 1-2h3l2-4 5-4h2l1-4 4-1 1-4 4-1 1-5h2v-5h2l1-5h2v-2h2l-1-3 4-2v-4l2-1 3-7h2l1-5h2v-3h2l1-7h2v-7h2v-5l1-3h2v-5h2v-3h2l-1-5h2v-4h2l1-6h2l1-9 2-10 2-5h2l-1-5 2-5h2v-5h2l1-6h2l3-11 2-4h2l1-5h2v-5h2l1-4h2l1-5 3-2-1-3h2v-2l2-1 1-3h2v-2h2v-2l3-3h2l2-4 3-1 1-5h2v-2h2l1-2 2 1v-2h2l2-4 3 1 1-4h2v-2h3v-3l7-1v-2l5-3h3v-3l4-2h3v-2l7-5 1-2h4v-2l10-4 1-2h4v-2h3v-2l7-3h3v-2l4-1 1-2h4v-2l15-6 1-2 9-5h3l1-3h2v-2l5-2 5-3h2v-2l5-1v-2h2l1-3h2v-2h3v-2l3-3 6-3 1-2h2v-2l4-1v-2h3v-2h3v-2l4-3 4-7 6-4 4-7 5-5h3l2-5h2v-4l3-3h2v-3h2l2-5 3-3 3-7 1-2h2v-3h2l2-5h2l-1-3h2v-4l4-1-1-4h2v-3h2l-1-3 2-1v-3l2-1v-3h2v-4h2l1-7 2-3h2l-1-5h2l1-5 6-14 1-3v-3h2l2-10h2l-1-4 2-6h2l-1-5 2-1 1-6 3-13 2-9 1-10 1-1 2-19 1-3 1-13v-34l-1-25-1 9h-2l-1 5-2 6-1-2 2-7 3-16v-3l-9-4v-2l4 1 5 2-3-5-2-12-2-5v-5h-2l-1-9-3-10-2-5-3-10v-3h-2v-7h-2l-1-8h-2l-2-8v-4h-2l-4-13-1-5h-2l-2-11-4-9-2-7-3-5-2-10-2-5-3-10-3-7v-6h-2l-3-8-2-10-3-6v-6h-2v-5h-2l-4-17h-2l-3-12-4-9v-7h-2l-7-20-5-11-6-14-4-10-2-7h-2l-9-19-1-4h-2v-4h-2v-3h-2l-2-7h-2l-3-6-3-4v-3h-2l-10-15-2-5h-2l-8-11-5-5-5-6-3-3v-2h-2v-2l-3-1v-2l-4-2-8-8-2-1v-2l-5-2-5-5-5-4-8-6v-2l-5-2-2-1v-2l-5-2-7-4-2-3-11-6-18-11-7-3-13-7-7-3-12-6-8-3v-2l-10-3-3-2-7-2-13-5-11-4-7-3-16-5-8-3-16-4-11-3-19-5-8-1-6-2-6-1-21-3-8-1z" fill="#B337C6"/>
 <path transform="translate(585,23)" d="m0 0h17l18 1v2l-12 1-3 1-12 1-1 1-15 2-22 5h-3v3l-5 2-16 4-5 2-3-1 3-2h-52l-25 2-27 3-21 4-29 6-14 4h-5v2h-6v2l-5 2v2l-5 1v2h-2l-1 3h-2v2h-2v2l-5 1-1 4-4 1-1 4h-2v2l-5 4h-2v2h-2l-2 4-2 3h-2v2l-3 3h-2v2h-2v8l-1 3h-2v2h-2v2l-2 1-1 4-4 1-1 5h-2v2h2v2h-2v3h-2l-1 5h-2v5h-3v2h2v3l-2 1v4h-2v5h2l-2 7h-2l-1 7h-2v9h-2l-1 12h-2v3h-2l-1 5-1 2h2v-2h2v4h-2v15l-1 5h-2v5h-2v2h2v6h-2l1 5h-2v7h-2v8h-2l1 8h-2v10h-2v5h-2v2h2v2l-3 3h3l-1 7-3 1-1 12h-3v7h-2v5h-2v8h-3v4h-2v-2h-3v2h-3v2l-4-1-1 8-5-1v7l-4 1 2-1v-4h-2l-2 7h-3v-2h2v-3h-2l-1 3h-4l-3 3h-2l-1 4h-2v2h-2v-4h-2l-1 7h-2v3h-10v2h-3v2l-3 1v2h-4v-2h-2l-1 4-5 1v2h2v3h-5v2h-4v7l-10 3v2l-8 1v2h-7l-1 5h3v2l-7 1v2h-2v2h-3v3h2v2l-7 3h-3v2h-2v-2h-3l-4 8-5 2-5-1-3 1-1 4-4-1v2h-2l-1 3-6 3-1 6-9 2-4 4-4 2-3 3h-2l-1 5h-2v4h-2l-1-5 1-2h-6v2h-3v3h3v2h3v2l-7 1-1 3-4-1v5h-3v2l4-1v2h-2v2h-4l-1-7 1-2h2l-1-3h-2v3h-2v2h-2l-1 5-5 3h-2v4h2v2l-4 1-1 2h2v2l-4-1v2h-2l-1 2v-229h3v2h-2v3h2v-2l2-1 1-4 2 1v-2h-3v-2h-2v-7l5-1h5v-8h2v-2h-4v-2h4v-2l8-1v-2h2l1-8h2v-2h2l1-3h2v-2h3v-2l4-1 1-7h5v-2l4-1 1-4 4-1 1-4 4-1v-4h3v-2h2l1-3v2h2v-2h2v-3h5l1-7 4-1v-2h3v-2l4-1v-2h6v-3h2l1-4h4l1-5 4-1v-2h3v-2h7v-3h2l1-3h4l1-4h4v-2l-4 1v-2h4v-2l6-1h4v-4l6-1-1-4-4-2h5v-2l26-9 14-6 16-5 13-5 20-7 24-8 8-3 14-5 37-13 16-6 34-10 30-7 34-6 25-3 1-1 11-1 9-4 25-5h7v-2l20-2 25-3z" fill="#BB70F0"/>
 <path transform="translate(1090,848)" d="m0 0h4l-1 3h-2l-1 5h-2v2h-2l2 3v4l-3 3h-2v3h-2l-1 5h-2v2h-2l-1 3h-2v5h-2l-1 4-4 3-1 7-4 3h-3v2h-5v2l4-1v2h-2v2l-4 1-1 4h-2v3h-2l-1 3h-2v2h-2l-1 3h-2v4l-5 4-5 2v2h-2l-1 4-4 1v2l-5 1v2h2v4l-3 3h-4l-1 3h-2v2h-2l-1 3h-4l-1 4h-4v3h4v2l-4 1-1 2h-4l-1 3h-4v2l9 1-2 2h-3v2h-4v2l-5 1v2h-3v2l-6 1 1 4-7 1v2l7 1v2h-3v2h-4v2l-6 1v4h5l-2 1v2h-3v2l-9 1-1 4h-2v3h5v2l-7 1v2h-3v2l7 1v2h-2v2l-8 1v2h-4v2l4 1v2h-2v2l-7 1v2h-3l1 5h6v2l11 1v2h-3v2l-8 1v2h-4v3h7v2h5v2h7l5 1v2h6v2l12 1v2h5v2h7l5 1v2h6v2l12 1v2h5v2h7l5 1v2h6v2l12 1v2h5v2h7l5 1v2h6v2l12 1v2h5v2h7l5 1v2h6v2l12 1v2h5v2h7l5 1v2h6v2l12 1v2h5v2h7l5 1v2h7v2l11 1v2h5v2h7l5 1v2h7v2l11 1 1 3-12 17-11 13-19 19-17 13-16 10-19 10-21 8-22 6-18 3-19 2h-279v-2l5-1v-2h2v-2l5-1 1-4-3-1v-2h2l1-3h2v-2h2l1-4 5-3h2v-2l7-1v-2h3v-3h-2v-5h2v-2l3-3h-3v-2l-2-1h2v-2h2l1-5h2v-2h2l1-5h2v-3h2l1-5h2v-3h2l1-9h2v-3h-2v-2h2v-3h2l1-7h2v-3h2l1-12h2v-3h-2v-4h2v-3h-2v-3h2v-4h2v-5l2-3 1-5h2v-8l1-5h2v-4h-2v-3h2v-5h2v-3h2l-1-4h2v-3h2v-3h2v-2h-2l1-7h2v-3h2v-2l-2-1h2l3-9h2l1-5 2-5v-3h2v-3h2l1-4 4-1 1-4 3-3h2v-2l7-6 1-2h2v-2h3v-3h2v-3h3v-2h2v-2l5-1v-2h3v-2l5-1v-2h2v-2l7-1v-2h-2v-2l7-1 1-4 4-1v-2h3v-2h4l1-2 2 1v-2h3v-2l5-2 2 1v-2h3v-2l7-1v-2h2l1-3h2v-2h2v-2l6-1v-2l9-3h3v-2h2v-2l5-1v-2h3l1-4 6-1 1-4h2v-3l6-4 5-2 4-4h2v-2h3v-2l2-1 1-3h2v-2h2l1-2 2 1v-3l5-4h2v-2l5-3 1-2h2l1-2 8-1-1-4 4-1v-2h-2v-2l7-1 2-4 1-3 3-1 1-2h3l1-3h2v-2h2v-2h2l-1-3h2v-2h2l1-5h2v-2h2z" fill="#A823AE"/>
 <path transform="translate(879)" d="m0 0h166l26 3 23 5 24 8 23 11 16 10 16 12 12 11 15 15 13 17 10 16 10 19 8 21 6 22 3 18 2 19v838h-1v-616h-4v-2h-7l-5-1v-2h-7v-2l-12-1v-2h-3v-2l-5-1v-2h-3v-2l-3-1v-2h-2v-2l-3-1v-2h-2v-2h-2l-1-6h-2v-2h-2l-1-8h-4v-2h-5v-2h-5v-3h-2l-1-7h-2l-1-13h-2v-7h-2v-4l-5-2-1-7h-2v-8h-3v-2h-5v-5h-2v-9h-2l-1-10-2-1v-2h-2v-2h-2v-5l-5-1-2-12-4-5v-8h-2v-7l-5-1v-6h-2l-1-10-3 1-2-4v-7h-2v-5h-2v-3h-3v-3h-2l-1-7h-4l-1-10h-2v-5h-2v-5h-2l-1-5h-2l-3-6v-4h-2l-4-9-2-1v-3h-2l-2-5-1-2h-2v-2h-2l-1-6h-2v-4l-3-1v-4h-2v-3h-2l-1-5-7-2v-2h-2l-1-3-2-1v-4l-3-1v-4l-4-1-3-5-4-1-1-3-3-1v-2h-2v-2h-2l-1-5h-2v-2l-3-1v-2h-2v-3h-2l-3-3v-2h-2l-1-4-4-1-1-4-4-1-1-4-6-1-4-2v-2l-4-1v-2h-3v-2l-3-1v-2h-2v-2l-3-1v-2l-5-2-2-1v-2h-2l-1-2-4-1-1-4-5-1v-2h-4v-2l-5-2-2-1v-2l-5-1v-2h-3v-2l-7-1-1-4-7-1v-2l-5-2-3-1v-2h-4l-1-2-4-1v-2h-3v-2l-7-1-3-2-3-1v-2h-4z" fill="#620D98"/>
 <path transform="translate(686,470)" d="m0 0h12l43 5 1 1 9 1 11 3 12 2 1 1 22 3 40 6 7 2 9 12 7 7 13 9 14 6 15 3h25l18-5 8-6 8-8h6l34 12v2l10 1 8 4v2l12 2 26 10 20 7 1 5-9 11-10 13-11 14-10 12-10 13-14 17-10 13-9 10-7 10h-5l-11-9-4-4v-2l-3-1-8-10-5-8-3-1-2-6-4-4-2-4-4-4-3-5-1-5-3-3-2-5-11-9-8-3-8-1-13 2-14 6-10 7-4 4h-2v2l-8 7-10 9-16 10-19 10-24 8-17 3-11 1h-24l-18-2-13-3v-2h-9l-18-6-6-3v-3l-9-2-6-2v-2l-4-1v-2l-6-1-2-1v-2l-5-1-9-6-5-2-4-4-9-5-4-5-9-7-4-5 3-1 8-10h2l1-4h2l2-4 12-14 8-10 4-4 7-9 4-4 8-11 3-3h2l2-4 9-10 1-3 8-7 4-4 3-5 8-10z" fill="#19181D"/>
 <path transform="translate(769,704)" d="m0 0h21l25 6 16 6 16 8 9 5 13 8 18 7 41 11 13 5 10 9 9 13 3 9 1 7v23l-5 25-7 16-5 5-13 8-27 14-25 12-36 10-21 4-28 3-46 3h-42l-39-2-16-2-1-1v-22l3-22 5-24 7-25 9-27 6-10 7-11 9-19 8-15 10-13 8-8 8-5 11-5 19-5z" fill="#906F88"/>
 <path transform="translate(6,871)" d="m0 0h2v2h5v5h2l1 5h2v2h2v-4h5l1 4 2 1v5l2-1v-5h2l1-2v7h3v-2h4v2h-2v2l2-1h6l2 5 2 1v-2h3v5h2v-7h2l1 7 2 1v2h3v-2h-2v-3h4l3 3v4h2v3h2l-1 5h4v2h6l-1-2v-7h2v2h4l4 4 1 8h16l-2 1v2h5v2l10 1v2h-2v2h7v3h3v3l-5-1v7h2v-2h5v2l3 1v2h4v-2h3l1-3h2l-1-7 1 2h2v5h3v-2h4v2h-2v2l2 1-5-1-3 5h3v-2h5v2h-2v4l2 1v-2h3v2h2v6h3v-2h-2v-3l7-1v-2h3l-2 5h2v3l4-1v5l1 1v-6h2v-10l1-2h4v5h2v2h-2v8h2l1-8h4l1-2-1 10h3l2-12h3v12h2l1-7h2v10l3-1 1-4h-2l1-5h4v2h-2v2l3 1v2h2v-2l5-1 3 3-1 3h-2v10h2l2 10v5h3v7h3v2h-2v3h2v13h2l3 12 1 7h4v10l2 1 1 12h2v7l3 1 2 5v5l4 1-1 3h2v2h2l3 5 5 4v2h2v3h3v5h3v2h2v2h2l1 5h2v3h3v2h2l1-2 2 2v3h2v2l10 5v3l7 2 3 3v-2h2l1 4 6 2 5 3 1 2 9 2v1l11 3v2h2v2l5-1v2h3v2h4v2l11 1v3l9 1 11 3 5 3 10 2h2v2l7-1 1 1 7 1v2h2l1-2v2l11-1 40-12 22-7 1-3 8 1 26 5 14 3 34 7 30 6 2 2 6 2 11 1v1h-26v2l-20 1h-50l-8-1h-30l-4-1h-22l-13-1h-25l-28 8-18 6-17 5-27 9-20 6h-5v2l-9-1v-2h-3v-2l-7-1v-2h-3v-2l-3 1v-2h-4v-2l-4-1-2-1v2h-4v-3h-6v-2l-13-2-2-1v-3l-7-2v-2l-3-1v-2h-2v-2l-7-1-1-4h-10l-2-1v-2h-2l-3-3v-2l-5-1-2-2h2v-2h-7v-2l-8-1-5-5v-4h-2l-2-4-1 3h-2v-2h-3v-2l-5-1-3-2v-2h-4l-1-8h-2v-5h-2l-3-5v-2h-2v-5h-2v2h-4v-2h-2v-3h-2l-1-5h-4v-5h-3v5h-3l1-5h-2l-1-4-2-1v-2h-5l-1-7h-2v-3h-7l-1-5v-7h-2v2h-3v-5h-4v-2h-3v-3h-4l-1-10h-2v-3l-6 1-2 1v-7h-2v-5h-5v-2h3v-2h-8v-3h2v-2h-3v2h-2v-2h-2v-3h2v-2h-4l-1-10h-9l-1 2v-5h-2v2h-2l-1-7 1-2h-3v2h-3v-3h-2v-5l5 1v-3h-7l-1-12h-2v-5h-7v-6h-5l-1-7v-2h-4l-1-11h-2v-4h-2v-6l-6 1v-11h-2v-6h2v-3h-2v2h-3v-4l-2-1v-2h2v-5h-2v-7h-2l-1-8h-5v-3h6l1-4-2-1v-12h-4v-5h2v-2h3z" fill="#BB70F0"/>
 <path transform="translate(861,312)" d="m0 0h18l22 2 32 3 7 4 16 13 18 13 14 12 10 9 11 9 11 11 2 1v2l-5-1-30-10-37-9-7-2 5 5 12 6 14 5 14 7 10 22 4 8 10 28 6 23 4 18 2 13 2 20-5-1-32-11-12-13-7-8-9-9-8-7-13-12-10-7-8-6-10-7-12-7h-4v6l10 18 5 13 9 19 3 9 2 11-8-1-12-5-12-7-15-10-17-14-10-9-12-13-7-8-11-4-12-2h-12l-8 3-1 1v7l4 9v2l-9-2-16-8-12-7-25-10-15-5-15-3-21-2h-11l-22 1 5-5 13-3 22-5 30-11 28-13 19-11 12-8 13-10 10-8 12-11 11-9 12-9 10-6 11-3z" fill="#9A7995"/>
 <path transform="translate(207)" d="m0 0h335v1l-23 3-19 3-11 3-14 2-11 3-11 2-1 1-7 1-8 3-7 2-3-1v2l-12 3-15 3v2l-12 3-3 2-18 6-8 3h-4v2l-12 5-8 3-13 6h-5v2l-4 2-1 2-4-1v2l-8 3-5 2h-3v2h-5v2l-5 3h-2v2h-5v2l-19 8-19 7-21 7-20 8-30 10-28 10-48 17-62 22-20 7-5 1 3-17 6-21 8-20 11-21 11-16 8-10 9-10 16-16 17-13 16-10 19-10 21-8 22-6 18-3z" fill="#9136C8"/>
 <path transform="translate(636)" d="m0 0h131l7 4 10 3 12 4 5 2v2l7 1 8 4 20 8 15 7v2h5v2l5 2 12 6v2l3-1v2h3v2l6 1 3 3 5 3 7 5 7 4 6 4 1 2 4 1v2h2l1 2 4 1 3 3v2h3v2l4 1 1 4 6 2v2l4 2 7 5v2h2l1 4 4 1 1 4 4 1 1 4 3 1v2l3 1 4 4v3h2v2h2l6 7 2 1v2h2l6 9 2 4h2l5 9 5 7 1 3 2 1 3 7v3h2v4h2l1 6h2l7 12 3 5v3h2v6h2l1 6h2l3 5 3 10h2l2 5v3h2v6l3 6-1 2h2v3h2l2 7 2 5 3 10 3 5v3h2l-1 7h2l3 6 5 21 1 5h2l2 10 1 1v5h2l1 5 4 9v5l2 6-1 2h2v7h2l6 16v5h2v5h2l4 15 3 5 3 9 2 3 2 8v5h2v7h2v5h2l1 8h2l4 14 1 5h2l-1 5h2l2 8 1 3h2l2 10v6h2l3 15 3 8v5h2l3 17v13h2v27l-1 18-1 2 2 1h-2v14l-2 15-2 16-1 2h2v4h-2l-1 11h-2l-1 12-2 8h-2v7l-3 8-2 7h-2v8h-2l1 4h-2l-1 5-3 10-2 4-1 9-3 7h-2l-1 8h-2v3h-2l-1 7h-2v3h-2v7h-2l-1 4-2 4h-2l-1 8h-2l-3 9h-2v2h-2l-1 10-1-2h-4v3h-2v2h-2l-1 5h-2l-1 5h-2v2h-2v2l-3 3h-3l-1 3h-3l-1 4-4 4h-5v2h2v2l-4 1 1 4-11 3-1 3-5 2v2l-6 1 2-5 4-1v-2l5-2 1-5 4-1 1-4 3-3h-2v2h-2l1-4 4-1 1-3 4-1v-3-2l-2-1h2l1-5h2v-2l3-2 3-5 3-1-1-4 4-1v-2h-2v-2h2l1-5 4-1v-2h2l1-7h2v-10l3-4h2v-4h2l-1-3h2v-4h2v-3h2l-1-3h2l-1-4 1-3h2l1-5 5-14v-6h2v-3h2v-9l1-3h2v-5h2l-1-4 3-11h2l-1-7h2l1-13h2l1-9v-6l1-1 1-13h2v-11h2v-9h-2v-4h2l-1-14-1-2v-10h2v-5h1l1-6h-3l-2-29-2-6-1-10v-13h-2l-1 18h-2l-1 5-2 6-1-2 2-7 3-16v-3l-9-4v-2l4 1 5 2-3-5-2-12-2-5v-5h-2l-1-9-3-10-2-5-3-10v-3h-2v-7h-2l-1-8h-2l-2-8v-4h-2l-4-13-1-5h-2l-2-11-4-9-2-7-3-5-2-10-2-5-3-10-3-7v-6h-2l-3-8-2-10-3-6v-6h-2v-5h-2l-4-17h-2l-3-12-4-9v-7h-2l-7-20-5-11-6-14-4-10-2-7h-2l-9-19-1-4h-2v-4h-2v-3h-2l-2-7h-2l-3-6-3-4v-3h-2l-10-15-2-5h-2l-8-11-5-5-5-6-3-3v-2h-2v-2l-3-1v-2l-4-2-8-8-2-1v-2l-5-2-5-5-5-4-8-6v-2l-5-2-2-1v-2l-5-2-7-4-2-3-11-6-18-11-7-3-13-7-7-3-12-6-8-3v-2l-10-3-3-2-7-2-13-5-11-4-7-3-16-5-8-3-16-4-11-3-19-5-8-1-6-2-6-1-21-3-8-1z" fill="#9135C8"/>
 <path transform="translate(812)" d="m0 0h67v2h4v2l7 1 3 2 3 1v2h3v2l5 1v2h4v2l7 1 1 4 7 1v2l5 2 3 1v2h3v2l5 1v2l5 2 2 1v2h4v2l5 1 1 4 5 1v2h2v2l5 2 5 4v2h2l3 3v2h3v2l4 1v2h5l3 2 3 3v2l4 1 1 4 4 1 1 4h2v2l3 1v2h2v3h2l3 3v2h2l1 5h2v2h2l5 6 4 1 2 5 4 1 1 4 2 1v4l3 1v3h2v2l5 1 2 1 1 5h2v3h2l1 4 2 1v4h2l1 6h2v2l4 1 1 6h2v3l3 1 3 6v3h2l3 10h2l1 5h2l1 3-1 2h2v5h2l1 10h4l2 5-1 2h2v3h3v3h2v5h2l2 10h3l1 10h2v6l5 1v7h2l1 10 3 1 2 5v9l5 1v5h2v2h2v2l3 1v10h2v9h2v5h5v2h3v8h2l1 7 5 2v4h2v7h2l1 13h2l1 7h2v3h5v2h5v2h4l1 8h2v2h2l1 6h2v2h2l3 3v2h2l3 3v2h3v2l5 1v2h3v2h7l5 1v2h7v2l12 1v2h4v167h-4v-2h-7l-2-1-1-14-5-1v-2h-2v-14l-3 1v-2h-7v-2h-2l-1-3v-8h-2v-7h-2l-2-10-8-4-1-10h-2v-4l-9-2-3-5-1-12h-4l-1-5h-2v-3h-2l-1-9h-2v-3h-2v-3h-2l1-4h-2v-3h-2v-3h-2l1-4h-2l-3-8v-3h-4v-2h-2l1-7h-2l-1-8h-5l-1-5h-2l-3-11-2-2-3-9v-5h-2l-3-9v-7h-4l-2-7-4-10-3-7v-8h-3l-2-3-2-9v-5h-4l-1-2v-6h-2v-6l-1-3h-2l-2-8-3-7-1-5h-2l-2-7v-4h-2l-1-7h-2v-7h-2v-3h-3v-7l-2-1 1-4h-2v-5l-5-1v-5h-2v-5h-2l-2-6-4-6v-5h-2l-1-7h-2l-2-5-3-3v-3h-2l-1-7h-2l-7-13v-2h-2v-3l-3-2v-3h-2l-3-6v-3h-2l-3-5v-2h-2v-3l-3-1-4-6-1-3h-2v-3l-3-1v-2h-2l-3-5v-2h-2l-6-8v-2l-4-1-3-3-5-4v-2h-2l-3-3v-2h-2l-1-5h-2v-2h-2l-1-2-4-1-3-4-4-2-1-3-4-2-1-3-3-1v-2h-2v-2l-3 1v-2h-2v-2h-2l-1-2-7-3-5-4-2-1v-2l-5-2-5-4v-2l-5-1-2-3-3-1-1-2-4-1-1-2-14-5v-2l-6-1v-2l-6-1-4-3-4-1v-2h-3v-2l-5-1v-2l-5-1v-2l-5-1-4-2v-2l-8-2v-2l-7-1v-1l-5-1v-2l-11-2-6-3z" fill="#6E16A2"/>
 <path transform="translate(1121,565)" d="m0 0 2 4 1 32v28l-1 12-2 12-1 10-1 1-2 17-3 10-2 7v5h-3l1 5h-2v5l-1 5h-2v5l-2 5h-2l1 5-5 10-4 10h-2l1 5-2 2-2 1-1 7h-2l-1 7-3 1 1 4-2 1v2h-2v3h-2l1 4-4 1-1 7-3 3-1 2h-2v3h-2l-3 9-3 1-2 5-1 2h-2v3h-2l-1 3h-2v4h-2l-2 5-6 5h-2l-1 5h-2l-1 3-4 3h-2l-2 4-3 5-3 1v2h-3v2h-3v2l-4 1v2h-2l-2 4-5 1-1 3h-2v2h-3v2l-3 3h-2v2l-5 1v2l-8 5h-4v2l-3 3-8 4-4 1-1 3-7 3-5 2h-3v2h-4l-1 3h-4v2h-5l-3 1v-3h-2v3h-3l-1 3-3-1-1 3h-2v2l-3-1-5 2v2h-3l1 3h-2v-2h-3v2h-2v2h-6l-2-1v2l2 1-2 1-2-1v2h-3v2h-2l-1 2-2-1v2h-3v2h-4l-1 3h-4l-1 3-9 1-1 3h-2v2l-3 3-9 3-1 5h-2v2h-5v2l-3 1v2h-2v2l-5 1v2h-2l-1 5-3 5-3 2-3 5-3 1-1 7-2 2-2 1v2h-2l-1 7h-2v5h-2l-1 4-3 7v2h-2l-2 10-3 8-2 7h-2v3h-3v2h2v2l-2 1-1 4h-2v5l-3 1-2 9h-2v3h-2l1 3h-2v4h-2v3h-2l1 3h-2v4h-2l-1 6-2 4h-2v3h-2l-1 5h-2v4l-3 3-2 3h-2l-1 3h-2v2h-2l-1 7-5 5h-2v2l-8 7-2-3 2-7 2-8 2-10 7-23 9-29 11-34 10-33 5-15 6-21 2-9 3-8 10-34 2-4 26-2 26-4 21-5 8-1-1 12v2l4-1 5-12 2-5 12-5h3l2 9 4 1 2-3 1-12 9-5 11-5 4-1 3-3h2v-2l7-1v-2l22-13 13-9 8-6 7-6 5-7h2l2-5 3-1 2-5 3-3 3-7 6-9 5-5 4-5 3-5 5-5 3-5h2l2-4 8-17 5-16 10-33 5-25 2-15 1-18 8-13 1-3h2l1-5 10-25 3-7 5-3 7-3h4v-2h2l2-9 2-1 3-10h2z" fill="#C05EE7"/>
 <path transform="translate(474,44)" d="m0 0h53l-2 3h-2v2l-10 5-7 3-11 9-11 12-4 6-9 5-5 4-20-1-18 2-12 5-11 7-10 8-4 1v2l-9 6-8 7-16 16-6 7-4 4-1 3-2 1-2 5-6 7-4 4-5 7-3 7-8 13-3 5h-2l-2 9-7 15h-2l-3 13-6 18-7 34-2 27 1 27 4 27 7 27 1 7-1-3h-2l-2-5v-5l-4-1v5h-2v2l-3 1-2 2v-2h-2l1 5-2-1v-2l-3 3h-2l1 4-8 1v2h-4v2h-3l-1 2v-2h-2l-1 5-5 3-3 3h-3v2h-3l-1 5h-2v-3h-2l-1 5-6 1 1 5-5 2h-4v-2h2l1-5h2v-3h2l1-5h2v-5h2v-3h2l-2-5 1-7h2v-8h2v-5h2v-2h-4v-8h2v-2h-2v-2h2v-5h-2v-8h2v-3l-4 1v-3h2v-7l-3-1v-22l1-5h2v-5h2v-7h3v-12l4-1 1-7h-3l1-3h2v-2h-2v-2h2v-5h2v-10h2l-1-8h2v-8h2v-7h2l-1-5h2v-6h-2v-2h2v-5h2v-15l1-5h2v-4h-2v2h-2l2-7h2v-3h2v-8l1-4h2v-9h2l1-7h2l1-5 1-2h-2v-5h2l-1-4 3-1v-3h-2v-2h3v-5h2l1-5h2v-3h2v-2h-2v-2h2l1-5 4-1 1-5h2v-2h2v-2h2v-8l1-3h2v-2h2l1-3h2v-2h2l2-4 2-3h2v-2l4-1 1-3h2v-2h2l1-4 4-1 1-4 5-1v-2h2v-2l3-3h2v-2l5-1 1-4h4v-2h6v-2l17-4 11-3 29-6 28-4 19-2z" fill="#CF94EB"/>
 <path transform="translate(322,564)" d="m0 0h2l1 17v13h2l6 16 8 12 10 5 4 1v2l4 2 4 4-1 11-8 38-8 39-14 67-7 33-3 5-1 5h-1v-8h-3l2 7h-2v-3h-2v5l-9 1 1-5h-4v2h2v3h-2l-1 4h-2v-4h-2v5h-3l-2 4v-6l2-4h-2l-1-5h-2v3h-5v3l-5-1v-5h2l-1-8-3-2h2v-10h2v-7h-2v-3h2l-2-4v-3h2v-3h-2l-2-5h2v-7h-2l1-12 1-2h-2l-1-6h-2v-3h2v-5h-2v-2h-2l-1-8h-2v-2h-2l-1-7h-2v-2l-2-1 2-5h-5v-5h-2l-3-3v-4h-2l-3-3v-2h-2l-4-5v-2l-6-1-2-3-6-2v-2h-2v-2l-6-1v-2h-3l-1-2-5-1-1-5h-5v-2h-2v-3h-5v-2h-2l-1 2-2-3-7-2v-2l-6-1v-5l-7-2v-2h-3v-2l-9-1v-2h-3v-2l-5-1v-2l-5-1v2l-3-1v-8h-2l-1-2-5-1v-1l25 1 24-1 20-2 25-6h3v-2l17-6 12-5 16-9 10-8 8-7h2l2-4 11-11 3-5z" fill="#B5B1F6"/>
 <path transform="translate(767)" d="m0 0h34v2l4 1 11 4v2l7 1 5 3h3v2l7 1 1 2 4 1 8 4h2v2h3v2l4 1 6 2v2l7 1v2h3v2l4 1 14 7v2l9 3 3 3 3 2v2l4 1 15 10 3 3 4 2 4 4 2 1v2l5 2 2 1v2l4 2 1 3 4 2 1 3 4 1 4 4v2l4 1 1 4h2v2l3 1v2h2v2l5 2 1 3 2 1v2h2l2 4 3 2v2l4 2v3h3l4 5 2 4 5 5v3h2v2h2l1 3 2 1v4h2l3 5v3h2l4 7v3h2l6 12v2h2v3h2v3h2l3 7v3h2v4h2l4 10 4 7v4h2l1 6h2l3 8 2 6h2l3 9 2 3v5h2l2 8 3 10 5 10-1 2h2v7h2l2 8 3 10 3 4 3 9v6h2v6h2l2 9 5 11-1 2h2l3 10v6h2l2 9h2l3 10v5h2l4 13v4h2v5h2v3h2l2 7 4 10v3h2v3h2l2 9 1 5h2l3 10v3h2l1 3v9h3v3h2v5h2l3 12v7h3l3 16 2 9v6h2l2 3 2 1 3 23 1 15 2 5v28l1 9-1 23-2 10 1 5-2 8v14h-2v13h-2l1 7-2 12h-2v13l-2 10-2 7-2 10-3 10 1 5h-2v11l-2 3-3 12h-2l-1 10h3l-1 5h-2v4h-2v10l-1 3h-2v3h-2v2h5l-1 5h-2v3h2v4l-4 1-6-1v3h-2v3h-2l-1 5h-2v2h-2v2h-2l-1 5h-2v3h-2v-5h2v-2h2l1-5-2-1 1-7h-2v3h-2v2h-5v-3h2v-4h-2l-1 5-7-1v-2h-2l-1 2v-2h-4l-1 2v-4l-2-1h2l1-4h2v-3h-2l1-5h-2v3h-2l-1 5-4 2v-3l-3 3-5 2-2 3h-2l-2 4-2 3h-3l2-4 4-4h2l-1-6-5-1v-2h2v-2l2-1 1-4 4-1v-7l1-3h2v-2h2l1-5 2-4h2l1-8h2l1-4 2-4h2v-2l-2-1h2v-4h2v-3h2l1-7h2v-3h2l1-8h2l1-6 1-4 2-9 6-16h2l-1-4h2v-8h2l1-7 3-8 1-7h2l1-13 2-7h2l1-11h2v-4h-2l2-18 2-15 2-35v-17l1-10h-2l-2-20-1-2v-8h-2l-3-12-2-5-1-11h-2l-2-9v-7h-2l-3-5v-6h-2l1-5h-2l-5-15v-4h-2v-5l-2-1 1-2h-2v-5h-2v-7h-2l-4-15-2-2-6-18-2-5v-5h-2v-5h-2l-4-13-2-5v-3h-2v-7h-2l-1-7-1-5-3-9-2-4 1-2h-2l-2-6-1-10h-2l-4-12-3-14-2-3v-3h-2l1-7h-2l-4-8-3-10-2-5-1-7h-2v-3h-2l-1-4-2-4 1-6h-2l-2-5v-3h-2l-3-6-2-5-1-4h-2l-1-6h-2v-6h-2l-2-5-2-2-6-11v-2h-2l-1-6h-2v-4h-2l-3-6v-4l-3-1-5-9-5-8v-2h-2l-6-8-2-5h-2v-2l-4-2-1-3-3-1v-2h-2v-2h-2l-1-3-6-5-4-5v-2l-4-1-1-4-4-1-1-4h-2v-2l-5-2-6-5-1-2h-3v-2h-2l-1-4-4-1v-2h-3v-2l-3-1v-2l-5-1v-2h-2v-2l-5-1v-2l-5-2-5-4-9-5-3-3-7-3-1-2-4-1v-2l-6-1v-2l-9-3-8-5v-2h-5v-2l-5-1-14-7-16-6-11-5-4-1v-2l-5-1-15-5-8-3-6-3z" fill="#8C26AE"/>
 <path transform="translate(323,825)" d="m0 0h1l-1 10-16 81-8 45-8 47-8 48-5 36v9l10 2 6 2 16 3 8 3 15 2 31 7 14 2 9 3 18 4 20 4 6 2 25 5 38 8v3h5v1l-13 3-25 8-30 9-9 1-5-1v-2h-7l-3-1h-5v-2l-5 1-10-3-4-3-18-4-1-2-10-2v-2h-4v-2h-3v-2l-5 1v-2h-2v-2l-12-2-1-2-7-1-1-3-5-2-6-3-1-4h-2v2l-3-1v-2l-5-1-2-1v-3l-6-2-4-3v-2h-2l-2-4-3 1v-2h-3v-3h-2l-1-5h-2v-2h-2v-2h-3v-5h-3v-3h-2v-2l-3-1v-2l-4-2-1-4h-2v-2h-2v-3l-3-1-3-10-2-1v-7h-2l-2-12-1-1v-10l-4 1-1-1-3-15v-4h-2v-13h-2v-3h2v-2h-3v-7h-3l-2-11v-4h-2v-10h2v-5h-2v-3h5v-2h2v-8h3v-2h2v-8l1-2h5v-2h2v-4h-2v-2l4 1v-8h3v2h2l1-10h2v-2h2l1-10h3l2-12h4l1-10 2-1 2 1 1-11 2-2v2h2v-7h2l-1-5h4l1-5h2v-8h3v-2h2v-3l5 1v-3h2l1-2v2h2v-3h2l1 5h2v5 1h3v-5h2v4h2v-5l3 1v-3h-2v-2h4v4h8v-5h2v3h2l-2-7h3l1 3z" fill="#CF93EA"/>
 <path transform="translate(921,921)" d="m0 0h2v3l5-2v2l-4 2h-3v2h-3v2l-12 6h-3v2h-4l-2 4-4 3h-2v2l-7 2v3l-6 3h-2v2l-7 1 1 4-4-1v2h-2l-1 4-4 1-1 2h-2v2l-5 1v2h-2l-1 5-5 5h-2l-1 3h-2v2h-2v2h-2l-1 4h-2v2h-2v2l2 1-4 2-1 5h-2l-3 9h-2l-1 5h-2l-1 4-4 11h-2l-1 6h-2v5h-2v5h-2l1 5h-2l-1 5-3 14-1 5h-2l-1 6h-2v4h-2l1 5h-2v3h-2v5h-2l1 3h-2v5h-2v7h-2l-1 7h-2v3h-2l-1 5h-2l-1 4-2 4h-2v4l-3 3v2h-2v2h-2l-1 5h-2v5h-2l-1 5-4 1-1 4-4 1-1 4-4 1-1 3-4 4h-3l-1 3h-3l-1 3h-2v2h-3v2h-2l-1 3h-4v3h-2v2h-3v2l-7 1v2l-5 2h-3v2l-8 1v2l-14 4-1 1h-5v2l-12 2-13 2-12 2h-5v2l-32 1-5-1-1 3h-7v-2l-7 1h-36v-2l-10 2h-16l-1-1-12-1v2h-7l-11 2-10-1h-42v2h-2v-2h-10v2h-5l-1-1-7-1v2h-38v2h-10v-2h-5v2l-7 1h-8v2h-24v2h-10v-2h-7v2l-8 1h-15v2h-20v2l-10 1h-12v2h-21l-5-1 4-2 43-14 19-6 8-3 43-14 25-8 20-6h13l3-1v2l10-1 37 1 3 1v-2l9 1v2h3v-2l4-1 6 3v-3l13 1 27 1h25v2h2v-2h7v2h31v2l7-1h35l2-1 23-1 5-1h8v-2l7 1v-2l7-1 1-1h7v-2l7 1v-2l10-3 13-1 6 1h11l3-12 3-7 2-9 3-8 3-9 1 4-2 8-2 7 1 2 6-6h2v-2h2l2-4 3-1 1-7h2v-2l5-4 5-9 2-1 1-4h2v-3h2l3-10h2l1-7h2v-3h2l1-7h2v-3h2l1-7 3-3 1-5h2l1-4-2-1h4v-2h-2v-2l2-1 1-4v2h2l1-7 3-8 3-10h2l-1-3 5-10h2v-5h2l1-7h2l2-5h2l-1-3h2v-4l4-3 3-5h2l4-10h2v-2l5-1v-2h2v-2l-2-1h2l1-2v2h2v-2h2l1-2v2h2v-2l2-1 1-4 4-3h5l1-3h2v-2h2l1-4 9-1 1-2 4-1 1-2h4v-2h3v-2l5-1v-2h3v-2h3l-1-3 8 1v-2h2v-2h3v-2l4 1-1-3 7-2v2h2v-2l3-3h3l1-2h3z" fill="#C653CF"/>
 <path transform="translate(686,470)" d="m0 0h12l43 5 1 1 9 1 11 3 12 2 1 1 22 3 17 3v4l-9 8-18 22h-2l-2 4-9 11-11 12-6 8-9 11-7 8-14 17-5 6-3 5-5 5-10 11-8 10-9 10-1 2h-8l-6-2v-2l-7-1v-2l-9-2-6-2v-2l-4-1v-2l-6-1-2-1v-2l-5-1-9-6-5-2-4-4-9-5-4-5-9-7-4-5 3-1 8-10h2l1-4h2l2-4 12-14 8-10 4-4 7-9 4-4 8-11 3-3h2l2-4 9-10 1-3 8-7 4-4 3-5 8-10z" fill="#AC94F7"/>
 <path transform="translate(582,452)" d="m0 0h9l36 5 16 3 68 10 2 2-23-1-2 4-7 8-2 4h-2l-2 4-6 6h-2l-1 4-10 11-1 2h-2l-1 3h-2l-2 5-6 7-7 8-6 8-5 5-7 8-11 13-1 2h-2l-1 4-5 5-2 3h-2l-1 3h-2l3 5-4-2-13-12-8-7-9-11-8-9-9-15-8-14-9-16-2-6-10 1-41 7-19 3-33 5-33 4-21 3h-7l6-7 22-24 4-3 16-3 9-2 26-6 25-5 16-3 13-3 26-5 24-4 33-6z" fill="#19181C"/>
 <path transform="translate(214,957)" d="m0 0 3 1 1 3-1 2h-2v10h2l2 10v5h3v7h3v2h-2v3h2v13h2l3 12 1 7h4v10l2 1 1 12h2v7l3 1 2 5v5l4 1-1 3h2v2h2l3 5 5 4v2h2v3h3v5h3v2h2v2h2l1 5h2v3h3v2h2l1-2 2 2v3h2v2l10 5v3l7 2 3 3v-2h2l1 4 6 2 5 3 1 2 9 2v1l11 3v2h2v2l5-1v2h3v2h4v2l11 1v3l9 1 11 3 5 3 10 2h2v2l7-1 1 1 7 1v2h2l1-2v2l11-1 40-12 22-7 1-3 8 1 26 5 14 3 34 7 30 6 2 2 6 2 11 1v1h-26v2l-20 1h-50l-8-1h-30l-4-1h-22l-13-1h-25l-28 8-18 6-10 3-4-1-3 1-9-2v-2h-5v2l4 1v2l-9-1v-2h-3v-2l-8-1v-2h-4v-2h-6v3h3v2l-5-1-7-2v-2l-3 1v-2h-4v-2h-3v-2l-7-1-6 1-2-1v-2h-3v-2h-2v-2l-17-1-3-3v-2h-2l-1-4-7 1v-4l-3-1v-2h-2v-2l-10-1v-2h-2v-2l-3-1 5-1v2l2-1v-2h-2v-2h-2v2h-3v-2l-3-1-1-5h-4v-2h-2l-1-5h-2v-3h-2v-2l-7 1-1 2-3-3-2-4-2-1v-2h-2l-1-7h-2v-3h2v2h5l1 5h4v-4h-2v-3h-2l-1-6h-2v-6h-2v-3h-2l-1-7-2-1h2v-2h-3v-8l-1-7h3l1-5h-2v2h-3v-4h-2v-10h2v2h5v2h2v-5h-2v-5h2l-1-4 1-10h-2v10h-2l-1-5 1-10 2-1 1-9v-3h-3v-7l4-1 2-5 1 3h3l-1-2v-10h-2v-3h-2v-2l6-1v-2h-2v-7l1-3h-3l-1-5 1-2h2l1-7h2v-3z" fill="#CA76E9"/>
 <path transform="translate(585,23)" d="m0 0h17l18 1v2l-12 1-3 1-12 1-1 1-15 2-22 5h-3v3l-5 2-16 4-5 2-3-1 3-2h-52l-25 2-27 3-21 4-29 6-14 4h-5v2h-6v2l-5 2v2l-5 1v2h-2l-1 3h-2v2h-2v2l-5 1-1 4-4 1-1 4h-2v2l-5 4h-2v2h-2l-2 4-2 3h-2v2l-3 3h-2v2h-2v8l-1 3h-2v2h-2v2l-2 1-1 4-4 1-1 5h-2v2h2v2h-2v3h-2l-1 5h-2v5h-3v2h2v3l-2 1v4h-2v5h2l-2 7h-2l-1 7h-2v9h-2l-1 12h-2v3h-2l-1 5-1 2h2v-2h2v4h-2v15l-1 5h-2v5h-2v2h2v6h-2l1 5h-2v7h-2v8h-2l1 8h-2v10h-2v5h-2v2h2v2l-3 3h3l-1 7-3 1-1 12h-3v7h-2v5h-2v8h-5v-6h2v-9h2v-13h-2v2h-2v-6h2v-15h2l1-8h-3v-8h2v-7h-4v-3h2v-4h-5v-3h2v-8h-2v-7h2l1-7-3-1v-5h-3v-7l1-5h2v-2h-3v2h-4v-2h2v-3h2v-3l-5 1v2h-2v-5h2v-7l-5-1v-2h-2v-3l-3 3h-4v-2h2v-5h2v-3h-2v2l-8 1 1-11h2v-5l-8 1h-4v2h-3v-2h2v-3h-2v-2h-3v2h-2v-5h2v-2l-5 1 1-4h4l1-2v2h2v-2h3v-3h2v-2h-3v2h-4v-2l4-2 1-3h-3v-2h2v-3h-3v2h-3l1 3h-4l-1 2v-2h-9v-2l7-1v-2l-4-2 4-1v-2l3-3h2v-2h-3v2h-2v-2h-3l1-6h2v-3h2v-2h3v-2l-7 3-5-1 3-3 21-8 9-3 20-7 22-8 13-4 8-3 14-5 37-13 16-6 34-10 30-7 34-6 25-3 1-1 11-1 9-4 25-5h7v-2l20-2 25-3z" fill="#CA76EA"/>
 <path transform="translate(207)" d="m0 0h131l1 2-17 5h-3v2l-11 1v2l-6 2-12 5-6 3-7 1-5 2h-5v2l-4 1v2h-3v2l-2-1-1 1h-5v2l-9 1v2h-3v2l-5-1v2h-3v2l-10 1v2h-5v2l-9 2-3 1v2h-2v3l-8 2h-5v2l-5-1v2h-3v2h-4v2l-5 1h-8v2l-8 1v2h-4v2l-8 2-5 1v2l-7 2-5 1v2l-15 3v2h-3v2l-5-1v2h-4v2h-3v2l-10 3-8 1v2l-12 2v2l-5 1v-2h-2v2h-3v2l-7 3h-3v2h-7l-1 2-5 1v2l-3 2-9 1 8-16 11-16 8-10 9-10 16-16 17-13 16-10 19-10 21-8 22-6 18-3z" fill="#6E16A2"/>
 <path transform="translate(1002,527)" d="m0 0h9l8 4v2l12 2 26 10 20 7 1 5-9 11-10 13-11 14-10 12-10 13-14 17-10 13-9 10-7 10h-5l-11-9-4-4v-2l-3-1-8-10-5-8-3-1-2-6-4-4-3-7-4-6 1-5 9-10 8-11 9-11 2-3h2l1-4h2l2-4 13-16 11-13z" fill="#B5AFF6"/>
 <path transform="translate(686,470)" d="m0 0h12l43 5 1 1 9 1 11 3v1h-8l-2 4-9 10-2 3h-2l-2 5-4 2-2 4-6 7-7 9-3 3h-2l-2 4-8 10-7 8-10 12-9 11-12 14-11 13-4 5h-2l-2 4-7 8-4 5-6-2-5-4-5-2-4-4-9-5-4-5-9-7-4-5 3-1 8-10h2l1-4h2l2-4 12-14 8-10 4-4 7-9 4-4 8-11 3-3h2l2-4 9-10 1-3 8-7 4-4 3-5 8-10z" fill="#3E1968"/>
 <path transform="translate(1121,565)" d="m0 0 2 4 1 32v28l-1 12-2 12-1 10-1 1-2 17-3 10-2 7v5h-3l1 5h-2v5l-1 5h-2v5l-2 5h-2l1 5-5 10-4 10h-2l1 5-2 2-2 1-1 7h-2l-1 7-3 1 1 4-2 1v2h-2v3h-2l1 4-4 1-1 7-3 3-1 2h-2v3h-2l-3 9-3 1-2 5-1 2h-2v3h-2l-1 3h-2v4h-2l-2 5-6 5h-2l-1 5h-2l-1 3-4 3h-2l-2 4-3 5-3 1v2h-3v2h-3v2l-4 1v2h-2l-2 4-5 1-1 3h-2v2h-3v2l-3 3h-2v2l-5 1v2l-8 5h-4v2l-3 3-8 4-4 1-1 3-7 3-5 2h-3v2h-4l-1 3h-4v2h-5l-3 1v-3h-2v3h-3l-1 3-3-1-1 3h-2v2l-3-1-5 2v2h-3l1 3h-2v-2h-3v2h-2v2h-6l-2-1v2l2 1-2 1-2-1v2h-3v2h-2l-1 2-2-1v2h-3v2h-4l-1 3h-4l-1 3-9 1-1 3h-2v2l-3 3-9 3-1 5h-2v2h-5v-2h-2v-2l4-1 2-4 4-2v-3l4-1 3-3 5-2v-2l-2-1h2v-2h3v-2l5-2 2-1v-2l4-1 4-4h2v-2l4-1 1-2h3v-2l4-1 7-3 1-3 5-2h5v-2l7-2 1-4 2 1v-2l10-3h3l-1-4 5-1 1-2h6v-2h3v-3l10-5 5-1v-3l12-6 1-2h2v-2l6-2 3-3 3-1 1-2h2v-2l5-1 2-4 3-1v-2l3-3h2l1-3h2v-2h2l1-3h2v-2l8-7 2-5 4-1 1-4h2v-3h3v-2h2l2-5 3-3h2l-1-4 4-1v-2h2l1-6 4-2 2-4 1-3h2v-5l6-8v-3h2v-4h2l1-5h2v-5h2v-3h2l1-8h2l1-7h2l1-8h2v-4h2l1-5 4-13v-5h2l1-7 2-10h2l1-15h2v-7l3-20 1-10 1-25 1-3v-9l1-1-6 1 2-3 10-4h4v-2h2l2-9 2-1 3-10h2z" fill="#B059E5"/>
 <path transform="translate(338)" d="m0 0h52l-3 2-7 3-16 4-12 4-2-1v2h-5l-6 4h-4v2l-10 4h-5l-13 6-4 2h-5v2l-6 2-7 4h-7v2l-8 3h-3v2l-6 2-4 3-9 3-10 3-8 5h-3v2h-5v2l-7 1v2h-5v2l-8 1v2l-9 3h-3v2l-4 1-4 4h-4v2l-6 1v2l-9 3h-3v2l-8 3h-5v2h-5v2l-7 1v2h-3v2l-10 3h-4v2h-5v2l-6 1v2h-6v2l-6 1v2h-4v2l-9 4-9 2v2l-8 3h-4v2h-3v2l-3-1-4 2h-3v2l-7 3h-3v2l-7 3h-3v2l-10 3h-3v2l-5 3h-2l3-12 6-16 6-12 12-3v-2l6-3h7v-2l7-3h3v-2h3v-2h2v2l5-1v-2l5-2h7v-2l10-3h5l1-2 2 1v-2h3v-2h4v-2l5 1v-2h3v-2h4l1-2 10-1v-2l7-3h5v-2l7-3h6v-2h4v-2l8-1v-2l13-1v-2h4v-2h3v-2l5 1v-2l8-2h5v-3h2v-2l7-3h5v-2h5v-2l3-1h7v-2h3v-2l5 1v-2h3v-2l9-1v-2h5v-2l2 1 1-1h3v-2l4-1v-2l10-3 10-2 4-3 11-4 1-1h5v-2l11-1v-2l19-6z" fill="#8C27AF"/>
 <path transform="translate(287,399)" d="m0 0 4 1 2 10h2v3h2l6 15 4 12 1 9-5 5-6 7-3 2-2 4-16 16h-2v2l-5 2-1 3-7 4h-2l-1 3-9 5h-19l-9 2-10 4-5 5h-2l-2 4-5 2-1 3h-2l-2 4-11 9-6 5-15 4-11 3-9 2-1 1h-6v-1h5v-2l4-4 1-4 2-2 3 1v-5l4-1 1-3h2v-3h2l1-3h2v-4h2l1-3h2v-2h2l1-5h2v-3h5v-2l-2-1h2v-2h2l1-3h2v-4h3v-3h2v-2l5-1v-4h2l1-4 4-2 1-2h2v-2h2l-1-3 6-5 1-4 5-1v-2l4-2v-3l3-1 5-6 3-1v-4l6-1 1-5h2l1-2 1 3h-2v2l2-1 1-4h3l-1-3h6l2-4 3-1 2-5h6v-2h4v-2l8-1-1-4h2l1-3h2 1v-2l7-1v-2h2v-2l-3-1h3z" fill="#B4B0F5"/>
 <path transform="translate(670,431)" d="m0 0 18 1 21 3 18 5 13 5 19 10 17 10 11 4h10l3-3v-9l-4-8v-3l19 1 12 3 5 4 8 11 14 15 8 8 14 11 13 9 19 10 12 3 10-2 2-2v-11l-2-11-5-12-8-17-6-11v-3l4 2 12 9 13 11 8 7 14 14 6 8v2h-9l-7 8-9 6-11 4-4 1h-26l-10-2-13-5-11-7-10-9-8-9-4-4-18-4-56-10-13-3-29-5-39-6-44-7-32-4 1-4 11-8 20-4z" fill="#FDA997"/>
 <path transform="translate(814,489)" d="m0 0 16 4 4 2-4 1-1 11-2 9-4 10-6 11-9 14-5 5-8 10-7 9-5 5-5 6-1 3-3 3h-2l-1 3h-2l-2 4-2 3h-2l-2 4-8 11-5 5-10 12-7 8-5 5-3 5-20-1-5-1v-2h-9l-18-6-6-3 4-1 3 1v2l14 2 2-4 10-11 8-10 10-12 4-3 3-5 14-17 7-8 11-14 6-7 7-8 12-14 5-7 5-5 13-15 7-8 4-3z" fill="#3E1868"/>
 <path transform="translate(696,408)" d="m0 0 2 1-1 2 3-1h10l35 3 52 9 18 4 15 4 25 8 27 11 15 8 7 4 1-2 5 12 10 21 3 9 2 11-8-1-12-5-12-7-15-10-17-14-10-9-12-13-7-8-11-4-12-2h-12l-8 3-1 1v7l4 9v2l-9-2-16-8-12-7-25-10-15-5-15-3-21-2h-11l-22 1 5-5 13-3 22-5z" fill="#825889"/>
 <path transform="translate(307)" d="m0 0h31l1 2-17 5h-3v2l-11 1v2l-6 2-12 5-6 3-7 1-5 2h-5v2l-4 1v2h-3v2l-2-1-1 1h-5v2l-9 1v2h-3v2l-5-1v2h-3v2l-10 1v2h-5v2l-9 2-3 1v2h-2v3l-8 2h-5v2l-5-1v2h-3v2h-4v2l-5 1h-8v2l-8 1v2h-4v2l-8 2-5 1v2l-7 2-5 1v2l-15 3v2h-3v2l-5-1v2h-4v2h-3v2l-10 3-8 1v2l-12 2v2l-5 1v-2h-2v2h-3v2l-7 3h-3v2h-7l-1 2-5 1v2l-3 2-9 1 8-16 11-16 2-3h6v-2l8-1v-2h3v-2l9-1h5v-2h3v-2l5-1h7v-2h8v-2l9-1v-2h3v-2l7-1 5 1 1-1h5v-2h4v-2l8-1v-2h3v2h2v-2h3v-2l9-1v-2h3v-2l5-1h12v-2l8-3h3v-2l7-2 2 1v-2h5l1-2h7v-2l10-1v-2l3-1v-2h4v-2l10-2 1-1h5v-2h4v-2h5v-2l5 1v-2h2v2h8v-2h5v-2l8-1v-2l9-3h3v-2h5v-2l5 1v-2h5z" fill="#821CA4"/>
 <path transform="translate(1077,553)" d="m0 0 5 1 12 5 13 6-3 2h-2l-1 6-14 28-6 10-4 2-3 5-5 5-5 7h-2l-1 4-9 11h-2l-2 4-12 16h-2l-2 4-4 4-1 4-8 2h-14l-14-4-7-3v-2h4l2-5 12-14 10-12 11-14 13-16 10-13 9-11 10-13 9-11 3-4z" fill="#3E1868"/>
 <path transform="translate(961,512)" d="m0 0h6l34 12v2l4 1-3 1-11 14-12 14-9 12-2 1-1 3h-2l-2 4-11 14-8 10-7 9 1 4 3 5v3l-4-4-3-5-1-5-3-3-2-5-11-9-4-2v-2l-12-2-15 1 4-4 4-1-1-4 3-3h4l-1-4h2v-3h3v-2l4-1 1-5h2l3-9 4-1 1-4 4-1 1-4h4v-3h-10l1-2 14-2 13-5 8-6 3-3 3-5z" fill="#291F2F"/>
 <path transform="translate(773,294)" d="m0 0h6l2 5-2 2-30 7-22 5-15 4-33 9-30 8-18 5-34 7-21 4-38 6-27 6-32 9-29 11-22 10-10 6-10 5-22 14-12 8-14 10-8 5h-6l-1-4 6-7 13-10 11-8 15-10 13-8 11-6 15-8 28-12 27-9 21-6 17-4 46-8 33-6 23-5 18-5 30-8 9-3 12-3 21-6 40-8z"/>
 <path transform="translate(621,422)" d="m0 0h7l-5 5-16 12-9 7h-17l-33 5-57 10-28 6-33 7-19 4-6 2h-4l1-3 14-11 18-10 19-9 19-7 26-7 25-5 46-5h32z" fill="#987694"/>
 <path transform="translate(816,489)" d="m0 0 21 3 7 2 2 2 3 7 6 7v2l4 2 2 3-8-4v9h-2v2h-2l-1 7-2 5h-2v2l2 1h-3v4h-2v3l-4 1-1 2h2v2h-2v3h-5v3h2v2h-2v2l-6 1 1 2h-2l-1 5h-2v4l-3 3h-2v2l-5 2v3h-2v3h-3v2l-5 5-3 4h-2l-3 6h-3l1 4-5 2v4l-8 6v4h-4v5l-3 1v2h-2l-1 3h-2v2h-2v3h-3v2h-2l-3 6h-2l1 2 3 1v2l-22 2-25-1-3-2h15l3-5h2l2-4 5-6h2l2-4 12-15h2l2-4 8-11h2l2-4 5-6h2l1-3h2l1-4 8-10h2l2-4 10-12 4-5h2l2-4 6-9 6-11 4-9 3-8 3-17 3-1-16-4z" fill="#291F2F"/>
 <path transform="translate(649,464)" d="m0 0 17 1 17 2 20 2 10 2v1l-23-1-2 4-7 8-2 4h-2l-2 4-6 6h-2l-1 4-10 11-1 2h-2l-1 3h-2l-2 5-6 7-7 8-6 8-5 5-7 8-11 13-1 2h-2l-1 4-5 5-2 3h-2l-1 3h-2l3 5-4-2-13-12-6-6-3-5v-2l6 3 2-5 3-3h3l1-3h4l1-7h2v-3h2l1-4 4-1 1-4 4-1 3-9 5-5h2l1-3 4-1 1-4h2v-2h2v-5h3v-3h2l1-4 4-1 1-4 4-1 3-10h4l1-4 3-3h2v-2h2v-3h3v-3h3v-2h2v-2l-10-2z" fill="#291F2F"/>
 <path transform="translate(1003,397)" d="m0 0 11 3 8 3 3 1v3l15 1-1 8h2l2 8 1 5 1 3-1 2h2l3 12 3 6 2 10 2 6 2 3v6l2 2h-2v2h3v7l3 1 1 5h-2v2h2v2h2l1 9h1l2 12 2 7v2l2 1 2 7v4h2v2l3 1h-7l-37-13-3-3-2-26-4-23-4-19-2-5-1-7-4-10-3-14h-2l-3-7v-5h-2v-5h-2l-3-6z" fill="#C674E5"/>
 <path transform="translate(837,797)" d="m0 0h7l9 3 1 2v8l-4 14-9 17-10 13-7 8-9 8-12 6h-8l-7-3-4-5-3-10v-8l3-12 6-10 9-10 10-9 12-7z" fill="#D15D6A"/>
 <path transform="translate(367,660)" d="m0 0 2 1 6 28 9 36 4 11-1 3-1-5h-2v6l-9 17-6 14-7 15-11 25-5 11-11 28-5 14-3 7-5 22-1 6h-1v-7l21-104 10-49z" fill="#F57370"/>
 <path transform="translate(136,138)" d="m0 0 6 2 1 4-6 1 1 4-5 1h-6v2h-4v2l4-1v2h-4l-1 4-4 1-1 2h-2v3h-3l-1 2v-2h-3v2h-3v2l-4 1-1 5h-4l-1 4h-2v3h-6v2l-4 1v2h-3l1 3h-5l-1 7h-5v3h-2v2l-5 1v2h-3v4l-4 1-1 4-4 1-1 4-4 1v2h-5l-1 7-4 1v2h-3v2l-3 3h-2v2h-2l-1 8h-2v2l-8 1v2h-4v2h4v2h-2v8l-5 1h-5v4l2 1h-2v2h2v2h3v2l-2 1-1 3h-2v2h-2v-3h2v-2h-3v-30l1-2h4v-3h-4v-2h5v-3h2v-2l5-1v-4h2v-3h5l1-3h2v-2h-2v-2l4-1 1-2h2v-2l5-1v-2h2v-2l-2-1h2l1-4 4-1 1-5h4l1-4 6-1 1-4-3-1v-2h3v-2l2-1v-5h3v-2h3v-2l2-2-2-1v-2l7-1v-2h3v-6l4 1v-2l13-5 8-3 20-7 15-5z" fill="#C260EA"/>
 <path transform="translate(838,785)" d="m0 0 13 1 6 3 5 6 2 6v11l-6 20-8 16-8 12-11 12-9 8-14 7-4 1h-12l-8-3-8-7-5-10-1-4-1-16 3-12 6-12 12-15 10-8 14-9 13-5zm-1 12-16 5-13 8-10 9-9 10-6 12-2 9v8l3 10 5 6 6 2h8l12-6 12-11 8-10 7-10 8-15 4-14v-8l-3-3-7-2z" fill="#08060A"/>
 <path transform="translate(1002,527)" d="m0 0h9l8 4v2l12 2 5 2-4 1-4-1-5 6-3 2-1 3-2 1-3 5-10 13-8 9-9 12-14 17-8 10-11 14-3 2v4h-2l-2-6-4-4-3-7-4-6 1-5 9-10 8-11 9-11 2-3h2l1-4h2l2-4 13-16 11-13z" fill="#6F17A3"/>
 <path transform="translate(807,498)" d="m0 0 1 2-3 5h2l-2 11-5 13-11 17-7 9-9 9-8 11-11 12-8 10-9 11-10 11-9 11-14 14-2 1 2 2-4 1-20-4v-1h6l2-4 10-11 8-10 10-12 4-3 3-5 14-17 7-8 11-14 6-7 7-8 12-14 5-7 5-5 13-15z" fill="#630D99"/>
 <path transform="translate(725,475)" d="m0 0 14 2v3l-12 14-9 11h-2l-2 4-9 11-6 9-7 6-11 14-9 10-4 6h-2l-2 4-6 8-4 5-5 5-13 15-9 10-2 3-6-1-4-4-2-1 1-4 11-12 4-5 1-3 6-5 9-11 7-8 2-4 5-5 11-12 11-14 10-11 11-14 7-7 2-4 5-5z" fill="#AD94F7"/>
 <path transform="translate(565,912)" d="m0 0 7 1 28 7 15 3 17 2 48 3 7 1 20 1h22v16l5-1 4-6 2-8 6-1 31-1 1 2-8 26-5 18-2 2 2-9 2-11-5-1-9-5-20-2h-9l-36-4-35-6-17-4-20-6-3-2 5-1h-8v-2l-7-1-18-4-20-6z" fill="#FC756F"/>
 <path transform="translate(739,477)" d="m0 0 19 2 4 2h-8l-2 4-9 10-2 3h-2l-2 5-4 2-2 4-6 7-7 9-3 3h-2l-2 4-8 10-7 8-10 12-9 11-12 14-11 13-4 5h-2l-2 4-7 8-4 5-6-2-5-5 9-11 12-13 7-9 5-5 9-12h2l2-4 9-11 11-13 6-7 5-5 4-6 10-12 1-2h2l2-4 10-11 8-10z" fill="#8E34C6"/>
 <path transform="translate(911,452)" d="m0 0 4 2 12 9 13 11 8 7 14 14 6 8v2h-9l-7 8-9 6-11 4-4 1h-26l-10-2-13-5-11-7-10-9-8-9-4-4-18-4-22-4v-1l12 1 22 4h10v-2l-1-3h-2l-3-4v-2l4 1 14 14 14 11 13 9 19 10 12 3 10-2 2-2v-11l-2-11-5-12-8-17-6-11z" fill="#FFAB97"/>
 <path transform="translate(774,532)" d="m0 0 1 3h-2l-2 4-6 9-8 10-9 11-7 8-14 17-5 6-3 5-5 5-10 11-8 10-9 10-1 2h-8l-6-2v-2l-7-1v-2l-9-2-6-2v-2l-4-1v-2l-6-1-2-1v-2h-3l1-4 8-8 4-6 5-5 12-14 9-10 7-9 10-12 7-8 6-5 6-7v3l-11 14-8 9-1 2h-2l-2 4-8 11h-2l-2 4-7 7-2 4h-2v3h-2l-2 4-4 5h-2l-2 4-6 8-1 1h10v-2h7v-2l8-1h8v-2h2v-2h2v2h2v-2l13-1v-2h11v-2h2v2l5-3 9-11 11-13 8-10h2l2-4 4-6h2v-2h2l2-4 12-14 4-5h2z" fill="#B3ABF5"/>
 <path transform="translate(979,519)" d="m0 0 16 4 10 3-5 5-11 13-14 17-5 7-2 1-1 3h-2l-2 4-11 14-8 10-7 9 1 4 3 5v3l-4-4-3-5-1-5-3-3-2-5-7-9 5-4 4-6 4-4h2l2-5 3-1 2-5 9-11 4-5 5-5 1-3 5-5 6-7h2l1-4 2-4z" fill="#431A6D"/>
 <path transform="translate(1077,553)" d="m0 0 4 2 5 3-2 1h-3l1 2-4 15-8 15-5 9-8 10-11 14-12 14-8 10-7 8-5 5h-2l-1 3-8 6-4 2-2 3-5-1-8-2v-2h4l2-5 12-14 10-12 11-14 13-16 10-13 9-11 10-13 9-11 3-4z" fill="#640E99"/>
 <path transform="translate(585,23)" d="m0 0h17l18 1v2l-12 1-3 1-12 1-1 1-15 2-22 5h-3v3l-5 2-16 4-5 2-3-1 3-2h-52l-17 1h-18l4-2 11-1 1-1 11-1 9-4 25-5h7v-2l20-2 25-3z" fill="#BA6CEC"/>
 <path transform="translate(960,320)" d="m0 0h51l2 8 3 9 1 7 2 1 1 5 3 8 1 9 4 8 2 1-1 3-5-2-15-14-10-8-4-4-6-4-5-5-12-9-2-3-9-5z" fill="#B96EEE"/>
 <path transform="translate(1028,407)" d="m0 0 12 1-1 8h2l2 8 1 5 1 3-1 2h2l3 12 3 6 2 10 2 6 2 3v6l2 2h-2v2h3v7l3 1 1 5h-2v2h2v2h2l1 9h1l2 12 2 7v2l2 1 2 7v4h2v2l3 1h-7l-17-6 4-1 5 1-4-8-2-8 1-2-3-1-1-5-3-13-2-6v-5h-2l1-5h-2v-3l-2-1-2-9-1-5h-2l-1-7-3-7-2-9-3-7-5-16-3-9z" fill="#BA6FF0"/>
 <path transform="translate(939,459)" d="m0 0 5 1v2l5 1 23 11 15 9 15 10 18 13 3 2 1-4 2 20-5-1-32-11-12-13-7-8-9-9-8-7-13-12-3-3z" fill="#825889"/>
 <path transform="translate(1094,559)" d="m0 0 8 2 9 3 1 1-1 11-3 15-4 4-13 6-4 4-4 8-5 13-6 12-6 10-8 11-9 9-12 8-13 4-10 1-12-1-2-2h19l8-1 1-5 5-5 1-2h2l2-4 7-9 5-7h2l2-4 7-8 1-3h2l2-5 6-7h2l1-4 4-4 3-1 3-7 3-3 1-4 10-19 3-9 3-2-11-5z" fill="#271E2D"/>
 <path transform="translate(414,526)" d="m0 0h7l3 9 4 15 1 8v17l-5 5-9 2-9-1-5-4v-48l5-2z" fill="#906F89"/>
 <path transform="translate(718,474)" d="m0 0 7 1-6 8-6 7h-2l-2 5-8 8-11 14-10 11-11 14-10 11-5 5-3 5-11 13-8 9h-2l-1 4-12 14-5 5-5-5v-3l4 1 2-5 7-10 3-4h2l2-4 8-11h2l2-4 4-5 5-5 11-13 6-8 5-5 9-11 9-10 12-14 3-4h2v-2l10-10z" fill="#67119D"/>
 <path transform="translate(1044,397)" d="m0 0h1v9l4 15 1 1v5h2l4 14v3h2l4 14 5 15 1 1v7h2l3 10 2 1-1 7h2l4 13v4h2l2 8-1 2h2l2 9 1 1v7h2v2h2v2l-11-2-4-2 2-1v-2h-2l-2-6v-5l-3-1-1-7-3-13-2-4 1-6h-2v-2h-2v-2h2l-1-5-4-1 1-7h-3l-1-10-3-5-2-10-2-7-3-5-1-10h-2l-1-5-2-7v-6h-2v-7l-14-2v-2h16l3-1z" fill="#C15FE9"/>
 <path transform="translate(670,431)" d="m0 0 18 1 21 3 18 5 13 5 19 10 17 10 11 4h12l-1 2-6 1-7-1v2l-11-1v-3l-6-4v-3l-5 1-8-5v-2l-7-1-15-8-10-2-6-2v-2h-9l-7-2-17-1-1-1h-24l-2 1-13 1-7 2-9 1-5 2 1 1h10l10 2 10 1 6 2h2l9 1 1 1 14 1 8 3 5 2 6 2 33 5 27 5 2 2-14-2-23-4-39-6-44-7-32-4 1-4 11-8 20-4z" fill="#E99F93"/>
 <path transform="translate(796,446)" d="m0 0 19 1 12 3 5 4 8 11 6 7-2 1 3 4v2h2l3 5-4 1-6-1v-2h-6l-2-1-16-2-1-1-12-1-8-3 3-1-1-5 1-2v-9l-4-8z" fill="#FDA996"/>
 <path transform="translate(1,902)" d="m0 0 4 1 1 2v6h2v7h2v5h-2v2l3 1-1 4h3v-2h2v3h-2v6h2l1 9-1 2 6-1v11h2v7h-3v-2h-4v2h2v7h2l1 6-8-1v-2h-2v5h2v3h-2l-1 2v-3h-2v-2h-2v7h-3v-2h-2v8h2v7h2v7h-4l-1-5v-99z" fill="#B05AE6"/>
 <path transform="translate(789,519)" d="m0 0 1 2v2l2 1-5 11h-2l-2 5-7 8-1 2h-2l-2 5-13 14-6 8-8 9-7 9-9 10-10 13-5 5-5 4-6 7h-2l-2 4-5 4-1 2 2 1h-9l-5-1v-1h6l2-4 10-11 8-10 10-12 4-3 3-5 14-17 7-8 11-14 6-7 7-8 12-14 5-7z" fill="#721AA6"/>
 <path transform="translate(829,493)" d="m0 0 5 2-4 1-1 11-2 9-4 10-6 11-9 14-5 5-8 10-7 9-5 5-5 6-1 3-3 3h-2l-1 3h-2l-2 4-2 3h-2l-2 4-8 11-5 5-10 12-7 8-5 5-3 5-20-1v-1h15l2 1v-2h-2l2-4 8-10 7-6 6-8 7-9 4-5 2-1 3-5h2l2-4 6-8h2l1-4h2l2-5h3l2-4 8-10 5-7h2l2-4 6-8h2l9-18 4-9 3-7 2-15 1-4z" fill="#360957"/>
 <path transform="translate(686,470)" d="m0 0h12l-1 2 2 2h-2v2h-2l-2 5-5 5-3 1-2 4-6 7-5 7-10 10-7 9-9 10-1 2h-2l-1 4-8 8-7 9-11 12-4 6h-2l-1 4-2 3h-2v2l-8 8-4 1-4-5 3-1 8-10h2l1-4h2l2-4 12-14 8-10 4-4 7-9 4-4 8-11 3-3h2l2-4 9-10 1-3 8-7 4-4 3-5 8-10z" fill="#370958"/>
 <path transform="translate(844,473)" d="m0 0 4 1 14 14 14 11 13 9 19 10 12 3 10-2 2-2 1-11 4 4v8l8-1-2 2-11 4-4 1h-26l-10-2-13-5-11-7-10-9-8-9-4-4-18-4-22-4v-1l12 1 22 4h10v-2l-1-3h-2l-3-4z" fill="#EF9F93"/>
 <path transform="translate(652,927)" d="m0 0 28 1 7 1 20 1h22v16l5-1 4-6 2-8 6-1 31-1 1 2-8 26-5 18-2 2 2-9 2-11-5-1-9-5-20-2-5-2-1-2v-10l1-3h-37l-19-2-20-1z" fill="#EB7070"/>
 <path transform="translate(739,477)" d="m0 0 19 2 4 2h-8l-2 4-9 10-2 3h-2l-2 5-4 2-2 4-6 7-7 9-3 3h-2l-2 4-8 10-7 8-10 12-9 11-8 9-8 7v-3l7-9 2-3h2v-2h2l3-6h2l2-4 6-8h2l1-4 5-5 12-14h2l1-4 5-5 2-3h2l2-5 9-10h2v-2h2l2-4 9-12h2v-2l3-3-3 1-1 2-8 3-13 14-8 10-10 11-4 6h-2l-2 5-3 1-2 4-6 8h-2l-1 4h-2l-1 3h-2v3h-2l-2 4-9 10-6 8-1 2h-2v2h-2l-2 4-5 5-1-2 2-5 6-5 4-6 6-8h2l2-4 9-11 11-13 6-7 5-5 4-6 10-12 1-2h2l2-4 10-11 8-10z" fill="#761EAB"/>
 <path transform="translate(718,398)" d="m0 0 4 1-12 5-14 5-10 4-22 5-13 3-4 3 32-1 21 2 15 3 21 7 15 7 8 3 10 6 16 8 7 2-5-11v-7l3-3 7-2h12l16 3 8 4 12 13 7 8 12 11 14 11 15 10 16 9 16 5-5-17-6-14-7-15-4-9-8-15v-6l5-1 17 10 5 4 4 4-5-2-10-7-12-7h-2l3 9 8 15 5 13 8 16 4 11 2 8-1 5-10-1-16-8-12-7-16-12-10-8-12-11-8-8-9-11-2-2-13-4-23-2v2l-5 1-1 3 3 8 2 7-1 2-8-1-14-7-13-7v-2l-9-2-13-6-21-7-16-3-2-1-29-1-14 1h-12v-3l8-6 12-3 21-5 16-5 10-4z" fill="#271B33"/>
 <path transform="translate(1102,563)" d="m0 0 5 2-3 2h-2l-1 6-14 28-6 10-4 2-3 5-5 5-5 7h-2l-1 4-9 11h-2l-2 4-12 16h-2l-2 4-4 4-1 4-8 2-4-1 2-4h2l2-4 7-6 7-9 2-3h2l2-4 7-9 1-2h2l1-3h2l2-4 7-9 6-9h2l2-5 8-9 5-9 4-10 4-8 2-7z" fill="#360957"/>
 <path transform="translate(381,530)" d="m0 0h8l1 14v42l-2-2-1-10v-14l1-11-8 7-7 8-5 5-2 1-1-8-3-4 2 4v18l1 7-2-2-1-3v-15l-3-9-3-5-2-10v-7h4l5 5 3 9 5-2-1-10-2-3v-3l2-1z" fill="#EA7675"/>
 <path transform="translate(1002,527)" d="m0 0 7 1-1 4-10 12-11 14-11 13-9 12-10 12-13 17-3 4h-3l-2-4 1-5 9-10 8-11 9-11 2-3h2l1-4h2l2-4 13-16 11-13z" fill="#B2A5F6"/>
 <path transform="translate(960,320)" d="m0 0h26l7 2v5l3 1v3h2v3h2l1 7h2l2 4 3 12 1 3 2 1-6-1-6-5-4-4-6-4-5-5-12-9-2-3-9-5z" fill="#C674E7"/>
 <path transform="translate(895,595)" d="m0 0h12l7 3 9 8 5 9 8 16 4 6-1 2-2-4-5-2-16-11-17-12-12-8v-2l-4-1 7-3z" fill="#F66F6C"/>
 <path transform="translate(1061,577)" d="m0 0 1 3-1 2 4-2-5 11-6 9-9 12-7 8-11 14-5 6h-2v2l-11 11h-2v2h-2v2l-5 3h-2l-5 5-2-1 11-13 10-12 11-14 13-16 10-13 9-11z" fill="#721AA6"/>
 <path transform="translate(687,520)" d="m0 0 2 1zm-1 1m-1 1 1 3-9 12-9 11h-2l-2 4-11 14h-2l-2 4-4 6h-2v2h-2l-3 6h-2l-2 4-8 10-1 2h-2l-2 4-2 3 2 2 4 1 2-5 3-1 2-4 11-12 7-9 11-12 4-6h2l2-4 6-8h2l2-4 6-5-2 7-11 12-4 6h-2l-2 4-6 8-4 5-5 5-13 15-9 10-2 3-6-1-4-4-2-1 1-4 11-12 4-5 1-3 6-5 9-11 7-8 2-4 5-5 11-12 11-14z" fill="#B09BF5"/>
 <path transform="translate(340,543)" d="m0 0h3l3 10 6 9 1 3 1 24-3-4-8 10h-2l1 7-2-2-4-16-1-10v-18l1-9z" fill="#F77C76"/>
 <path transform="translate(514,508)" d="m0 0 4 2 19 38 9 12-1 2-10-9-2-1v-2h-2l-19-19-8-7-8-9-15 1v-1l23-4z" fill="#F36E6D"/>
 <path transform="translate(979,519)" d="m0 0 10 2-3 6h-2l-1 3-5 5-4 5h-2l-1 4-3 2-2 4h-2l-2 4-3 1-2 5-4 5-6 8-4 4-8 10-2 3h-2l-1 5-6-2-3-3 5-4 4-6 4-4h2l2-5 3-1 2-5 9-11 4-5 5-5 1-3 5-5 6-7h2l1-4 2-4z" fill="#370958"/>
 <path transform="translate(668,820)" d="m0 0 1 3-7 25-6 29-2 17v22l16 2 39 2h42l46-3 28-3 25-5 32-9 25-12h2v2l-16 7-9 5-14 4-13 4-27 6-24 3-41 3-21 1h-17l-42-1-32-3-2-3v-17l1-14 5-29 8-29z" fill="#291B36"/>
 <path transform="translate(630,419)" d="m0 0 2 1-2 4h-2v2l-3-1 2-2-34 1h-24l-46 5-30 6-23 7-19 7-25 12-14 9-10 8-1 2 16-4 22-5h5l-2 2-15 3-7 2-14 3-2 1h-6l2-5 10-9 21-13 14-6 8-4 33-11 14-3 1-1 21-4 48-5h30l23-1z" fill="#271B31"/>
 <path transform="translate(1082,640)" d="m0 0h2v6h-2l-2 22h-2v8l-3 10-3 8-2 7v7h-2l-1 2-1-3-2 12h-2l-1 5-1-4 5-21 3-22 1-18 8-13 1-3 4-1z" fill="#B669E3"/>
 <path transform="translate(911,452)" d="m0 0 4 2 12 9 13 11 8 7 14 14 6 8v2h-9l-7 8-7 4 1-4 7-7 6-7v-2h-2l-7-8-13-12-3-2v-2l-5-2-2-1v-2l-4-1 2 6h2l3 8v8l3 9v8h-1l-2-11-5-12-8-17-6-11z" fill="#E29991"/>
 <path transform="translate(753,480)" d="m0 0h9v1h-8l-2 4-9 10-2 3h-2l-2 5-4 2-2 4-6 7-7 9-3 3h-2l-2 4-8 10-7 8-10 12-9 11-8 9-8 7v-3l7-9 2-3h2v-2h2l3-6h2l2-4 6-8h2l1-4 5-5 12-14h2l1-4 5-5 2-3h2l2-5 9-10h2v-2h2l2-4 9-12h2v-2l5-2z" fill="#7C24B1"/>
 <path transform="translate(409,788)" d="m0 0 5 2 8 13 14 20 12 16 9 10 8 10 9 10 14 10 11 6 2 2-6 1-3-1v-2l-4-1-11-7v-2l-4-2-3-2v-2h-2l-8-10v-2h-2v-2h-2l-9-11v-2h-2l-6-8-8-11-1-5-4-1-6-9v-3h-2l-4-7-5-8z" fill="#E19791"/>
 <path transform="translate(1012,315)" d="m0 0 2 1 3 5v5l6 16v5h2l2 5 1 1v6h2l1 7 2 3 4 13 3 6-1 3-5-3-7-8-1-2h3l1-2-3-1-4-8-1-9-2-6-2-4 1-3-3-1-3-14-2-4v-7z" fill="#C05FE7"/>
 <path transform="translate(853,311)" d="m0 0h40l25 3 15 1 6 3v2l4 2 1 2-4-2-7-4-32-3-22-2h-18l-14 3-7 3-14 9-14 12-11 9-11 10-11 8-10 7-18 11-17 9-9 4-3-1 22-11 19-11 16-11 18-14 5-5h2l1-3 5-4h2v-2l11-9 18-12z" fill="#281B34"/>
 <path transform="translate(844,473)" d="m0 0 4 1 14 14 14 11 13 9 19 10 12 3 10-2 2-2 1-11 4 4v8l8-1-2 2-11 4-4 1h-26l-10-2 4-1 8 1v-2l-6-2v-2l-6-1-9-6-2-2v-3l-7-1-10-8-1-4-5-1-9-9v-2h-2l-3-4z" fill="#E39890"/>
 <path transform="translate(951,376)" d="m0 0 13 5 23 10 7 14 3 9-5-2-5-5-18-14-5-4-5-2-6-7v-2h-2z" fill="#835A89"/>
 <path transform="translate(1007,436)" d="m0 0 2 1 7 21 6 24 5 31v13l-9-2-12-4-8-3-10-4-4-4v-2h-2l-7-8-1-3-3-1v-2l-3-1-7-8-8-7-12-11-9-6v-2l5 2 10 9 11 9 1 3 4 2 14 14 7 8 5 6 37 13-2-8-2-18-3-17-8-31-4-11z" fill="#281B34"/>
 <path transform="translate(684,540)" d="m0 0v3l-2 5-10 11-4 6h-2l-2 4-6 8-4 5-5 5-13 15-9 10-3 3-4-3v-2l-4-1 1-2 4 2 4 1 2-5 3-1 2-4 11-12 7-9 11-12 4-6h2l2-4 6-8h2l2-4z" fill="#B2A0F5"/>
 <path transform="translate(752,736)" d="m0 0 5 1 1 5-11 21-4 4-4-2v-8l4-10 7-10z"/>
 <path transform="translate(943,369)" d="m0 0 7 1 44 11 23 8 5 2 1-2 2 4-8-1-16-6-19-6-25-6-11-3 16 8 9 3 16 7 6 9 5 11 3 7 4 9v5l-2-3-5-12-6-12-5-11-23-10-10-4-10-6z" fill="#281B34"/>
 <path transform="translate(931,770)" d="m0 0 5 1 2 2 5 14 1 11-2 3-5-1-3-5-5-17v-6z" fill="#0F0A14"/>
 <path transform="translate(1007,527)" d="m0 0 5 1 7 3v1l-5 1 2 1-1 3h-3l-1 3-5 3h-2v2h-2v2l-3 3h-2v2h-2l-2 4-9 11-8 7-1-3 12-14 8-10 11-14 3-5z" fill="#67149B"/>
 <path transform="translate(789,736)" d="m0 0 4 1 2 2-1 7-7 12-5 5-4-1-1-1 1-9 7-13z" fill="#0E0A13"/>
 <path transform="translate(668,820)" d="m0 0 1 3-7 25-6 29-2 17v22l16 2 38 3v1h-23l-32-3-2-3v-17l1-14 5-29 8-29z" fill="#261B30"/>
 <path transform="translate(903,765)" d="m0 0 5 2 4 10 2 7v12h-5l-3-4-5-16-1-8z" fill="#0F0A14"/>
 <path transform="translate(663,450)" d="m0 0 8 1 1 1 14 1 8 3 5 2 6 2 33 5 27 5 2 2-14-2-23-4-39-6-31-5-1-2z" fill="#D48C8C"/>
 <path transform="translate(864,752)" d="m0 0h5l2 2-1 25-3 3-4-1-2-5v-11l1-10z" fill="#100B15"/>
 <path transform="translate(366,657)" d="m0 0h3l4 13 2 13 6 24 4 17 7 19-1 2-5-12-5-16-9-37-4-19-13 64-1 5h-1v-9l5-24 6-30z" fill="#241C29"/>
 <path transform="translate(729,864)" d="m0 0 5 1 2 3v14l-2 6-1 1h-5l-2-2-1-4v-9l1-7z" fill="#110B18"/>
 <path transform="translate(625,440)" d="m0 0m-1 1m-4 1 4 1v2h10l10 2 10 1 6 2 1 3-7 1-39-5 1-4z" fill="#EC9F92"/>
 <path transform="translate(693,883)" d="m0 0h6l1 1v6l-8 12h-2v2l-6 1-2-3 1-5 4-7z" fill="#0E0A12"/>
 <path transform="translate(834,742)" d="m0 0 4 2 1 5-6 15-3 4-5-1-1-1 1-9 4-10z" fill="#100B14"/>
 <path transform="translate(593,1156)" d="m0 0 6 1 5 1v2h12l7 2 10 1 8 2 18 3 1 1 13 2 11 2v2l-20-2-36-7-35-7z" fill="#FFB09B"/>
 <path transform="translate(970,776)" d="m0 0 2 2 3 11 1 11v12l-2 19-2 12 4-2 8-7 4-5 1-3 5-1-2 5-9 11-13 11h-3l4-16 2-13v-33l-3-11z" fill="#C78289"/>
 <path transform="translate(465,840)" d="m0 0 7 6 7 9 5 4 5 5 12 7v2l7 1 7 6-3 1-16-8-10-6-15-15-7-8v-3z" fill="#E49990"/>
 <path transform="translate(933,506)" d="m0 0 4 4v8l8-1-2 2-11 4-4 1h-26l-10-2 4-1 8 1v-2l-6-2v-2l-2-1h6l12 5 9 1 8-3 1-1z" fill="#D68B8A"/>
 <path transform="translate(690,662)" d="m0 0 10 1 3 1 25 2 32 1v1l-14 1-2 2h-15l-15-1-19-4-5-3z" fill="#E49991"/>
 <path transform="translate(630,419)" d="m0 0 2 1-2 4h-2v2l-3-1 2-2-34 1h-24l-19 2h-18v-1l38-4h30l23-1z" fill="#251B2C"/>
 <path transform="translate(796,446)" d="m0 0 19 1 12 3 5 4 8 11 4 4-1 2-2-2h-3l-2-4h-2l-5-8v-2l-7-2-1-2-4 1-16-2v7l-2-1-3-7z" fill="#DC948F"/>
 <path transform="translate(376,642)" d="m0 0h1l4 20h2l5 25 1 2v10h2l1 7v8l-2-2-6-23-5-22-3-18z" fill="#DA908D"/>
 <path transform="translate(718,398)" d="m0 0 4 1-12 5-14 5-10 4-22 5-13 3-4 3v3h-5v-3l8-6 12-3 21-5 16-5 10-4z" fill="#291B36"/>
 <path transform="translate(429,46)" d="m0 0h20v1l-27 3-21 4-29 6-14 4h-5v2h-8l4-2 24-7 22-5z" fill="#C473EC"/>
 <path transform="translate(896,435)" d="m0 0 6 1 16 10 8 6h-3l-6-4-14-9-6-2 3 9 8 15 5 13 8 16 4 11 2 8-1 4-3-7-3-11-6-14-7-15-4-9-8-15v-6z" fill="#271B31"/>
 <path transform="translate(699,407)" d="m0 0 13 2 34 3 49 8 22 5 6 2 11 3-4 1-28-7-39-7-20-3-36-3h-10z" fill="#906F88"/>
 <path transform="translate(298,1027)" d="m0 0h2l-1 11h-2v15l-2 7-1 12-1 2-2 19h5l-1 2-7-1-1-2 6-38 4-26z" fill="#FFB09B"/>
 <path transform="translate(767,688)" d="m0 0 25 1 7 2 16 3 4 3h-8l-20-4-9-1h-17l-16 3v-3l11-3z" fill="#FFB09B"/>
 <path transform="translate(1001,562)" d="m0 0 1 2-9 11-2 3h-2l-2 5-4 6h-2l-2 5-5 5-8 10 6-4-2 4-5 6h-3l-3 1v-2h2l1-4 3-5 6-8 7-8 1-3 5-5 3-4h2l2-4 3-4h2l2-4z" fill="#8F34C7"/>
 <path transform="translate(785,470)" d="m0 0 10 1 6-1-1 3-2 1 7 2 12 1 7 2 10 1 8 2v2l4-1 2 2h-8l-44-8-17-3v-1l5-1z" fill="#FFB09A"/>
 <path transform="translate(1041,684)" d="m0 0 3 3 3 11 1 12-3-1-2-12-2-9-13 5-20 1-10-2-2-2h24l12-2z" fill="#FFB09A"/>
 <path transform="translate(501,1137)" d="m0 0 9 1 7 2 9 1 12 3 13 3 10 1 7 2v2l-13-1-44-9-9-2z" fill="#FFB09B"/>
 <path transform="translate(777,826)" d="m0 0 1 3-5 12-1 6v13l2 9 4 8 7 6 8 3h10l10-4 10-6 5-4 2 1-11 9-11 5-4 1h-12l-8-3-8-7-5-10-1-4-1-16 3-12z" fill="#291C36"/>
 <path transform="translate(752,59)" d="m0 0 9 3 20 8 25 5 29 8 12 5-4 1-16-6-24-6-25-5-11-5-13-5-2-1z" fill="#2D1942"/>
 <path transform="translate(401,529)" d="m0 0 5 1-2 1 1 5v39l1 2 10 2v1h-12l-3-3z" fill="#937090"/>
 <path transform="translate(682,547)" d="m0 0v3l-2 6h-2l-2 4-9 10-6 8-1 2h-2v2h-2l-2 4-5 5-1-2 2-5 6-5 4-6 6-8h2l2-4 9-11z" fill="#7C23B1"/>
 <path transform="translate(522,884)" d="m0 0 6 1 9 1 2 2 5 2 7 3h7l13 3v2h5v2l5 1v2l7 1 2 2-10-2-30-9-28-10z" fill="#D48B8B"/>
 <path transform="translate(974,783)" d="m0 0h2l1 2 1 10v28l-3 18-4 3 2-13 2-20v-11z" fill="#FFB09B"/>
 <path transform="translate(507,30)" d="m0 0h12l1 2h-10l-1 2-7 2-10 2h-7v2l-13 2-8 1 3-3 8-3 25-5h7z" fill="#C360EA"/>
 <path transform="translate(501,887)" d="m0 0 6 2 16 7 15 6 12 4-4 1-7-2-9-1-14-6-13-6 1-3-3-1z" fill="#DF9690"/>
 <path transform="translate(753,453)" d="m0 0 6 2 17 10 11 4h12l-1 2-6 1-7-1v2l-11-1v-3l-6-4v-3l-5 1-8-5v-2l-2-1z" fill="#E09690"/>
 <path transform="translate(374,1110)" d="m0 0 10 1v2h10l18 4 1 3 21 4 2 2h-6l-13-3-33-7v-2l-5-1-5-2z" fill="#D9918E"/>
 <path transform="translate(780,915)" d="m0 0h10l2 2-28 2-64 1-10-1v-3l9 1h62l2-1z" fill="#9A7995"/>
 <path transform="translate(1e3 568)" d="m0 0 2 1-12 15-11 14-6 7-6 5-2-1 12-15h2l2-5h2l2-5 4-6 7-5z" fill="#7C23B2"/>
 <path transform="translate(699,456)" d="m0 0 9 1 7 2 11 1 1 1 26 4 1 2-6 1-35-6-13-2-2-3z" fill="#FFB19B"/>
 <path transform="translate(598,613)" d="m0 0 5 3 10 7 18 11 5 3-3 1-6-1-11-8-8-4-10-8-2-3z" fill="#E39A92"/>
 <path transform="translate(396,730)" d="m0 0 5 3 5 12 2 6 5 12 1 8-4-4-12-28z" fill="#E29790"/>
 <path transform="translate(720,706)" d="m0 0m-1 1m-1 1 4 2-13 11-10 13-5 9-2-4 5-10h2l1-4h2l2-4 12-12z" fill="#E49890"/>
 <path transform="translate(298,1094)" d="m0 0 10 1 6 2 11 1 7 2 16 3 7 2v1h-12l-39-8-7-2z" fill="#FFB09B"/>
 <path transform="translate(442,479)" d="m0 0h7l-4 2-7 2-11 2-22 5-14 3-22 22v-3l9-9 7-8 6-5 16-3 9-2z" fill="#181817"/>
 <path transform="translate(943,369)" d="m0 0 7 1 44 11 23 8 5 2 1-2 2 4-8-1-16-6-19-6-25-6-11-3 2 2-4-1z" fill="#261B31"/>
 <path transform="translate(413,1118)" d="m0 0h5l6 2 10 1 8 3 11 1 11 3-1 2-11-1-16-3-13-3-15-3v-1z" fill="#FFB09A"/>
 <path transform="translate(710,535)" d="m0 0v3l-11 14-8 9-1 2h-2l-2 4-8 7-3 2 2-4 18-22 9-8z" fill="#B29EF5"/>
 <path transform="translate(321,895)" d="m0 0h1v12l-2 7-1 11-2 8-3 18h-2v-9l7-39z" fill="#FFB09A"/>
 <path transform="translate(436,806)" d="m0 0h5l5 7 3 5v3l4 2 8 11v5l-5-5-13-17-7-10z" fill="#E39890"/>
 <path transform="translate(643,595)" d="m0 0 1 3-7 8-3 4v7l-5-1 1 2 5 3-2 1-9-6 4-6 9-10 4-3h2z" fill="#721DA6"/>
 <path transform="translate(835,637)" d="m0 0h2l-2 4-4 4-10 6-14 7-4-1 4-1v-3l21-11z" fill="#E39991"/>
 <path transform="translate(957,516)" d="m0 0v3l-9 8-15 6-29 1-15-3-5-2 3-1 15 3h25l18-5 8-6z" fill="#181818"/>
 <path transform="translate(565,912)" d="m0 0 7 1 28 7 15 3 17 2 18 1v1h-29l-8-1h-3v-2l-7-1-18-4-20-6z" fill="#BC6677"/>
 <path transform="translate(287,374)" d="m0 0 2 2 4 18 7 23 8 20 1 6v8l-3 1 1-6-3-12-7-19-6-20-4-16z" fill="#281B35"/>
 <path transform="translate(0,875)" d="m0 0 3 1v2h-2v2l2 1h-2v2h4l1 5v7l1 5-4 1-3-1z" fill="#B05AE6"/>
 <path transform="translate(635,584)" d="m0 0v3l-6 7-4 6h-2l-2 4-4 5 3 1 4 5-5-1-4-4-2-1 1-4 11-12 2-3 5-3z" fill="#AC9CE9"/>
 <path transform="translate(867,609)" d="m0 0 3 1-6 8-4 2-2 4-10 8-4 1-2-1 10-9 8-7z" fill="#E69D92"/>
 <path transform="translate(884,311)" d="m0 0h9l25 3 15 1 6 3v2l4 2 1 2-4-2-7-4-32-3-15-2z" fill="#261B2F"/>
 <path transform="translate(736,50)" d="m0 0h8l7 4 5 1 9 4-4 2v-2h-10l-14-5z" fill="#B25FE1"/>
 <path transform="translate(752,736)" d="m0 0 5 1 1 5-11 21-4 4-4-2v-8l4-10 7-10zm-1 2-8 12-3 9v5h4l6-10 6-12-1-4z" fill="#281B34"/>
 <path transform="translate(340,543)" d="m0 0h3l1 7-2-1-1-3-3 3v25l1 10v10h-1l-2-10-1-10v-18l1-9z" fill="#C36575"/>
 <path transform="translate(409,788)" d="m0 0 5 2 8 13 5 7 1 7h-2l-6-9v-3h-2l-4-7-5-8z" fill="#E89D93"/>
 <path transform="translate(657,558)" d="m0 0v3l-4 5h-2l-2 4-4 6h-2v2h-2l-3 6-5 3-3 3-2-1 2-4 6-5 9-11z" fill="#B2A4F6"/>
 <path transform="translate(636,638)" d="m0 0 6 2 21 10 14 5 5 2-3 1-11-3h-6v-2l-6-1-5-3v-3l-6-2-9-5z" fill="#CF878A"/>
 <path transform="translate(351,587)" d="m0 0h2v2h2l4 8 6 5 4-1-2-9 3 4 1 6-2 2v3l-6-1-8-7v-2h-2l-2-6z" fill="#DE938E"/>
 <path transform="translate(952,315)" d="m0 0 11 1h29l17 1v1l-15 1-37-1-2-1 1 3 3 3-5-2-2-2z" fill="#281936"/>
 <path transform="translate(695,41)" d="m0 0 9 2 23 7 24 8v1l-9-1-27-9-11-3-9-3z" fill="#2E1842"/>
 <path transform="translate(712,1166)" d="m0 0 1 4-5 13-2 6-2 1h-9l-13-2-7-2-4-2 22 2v2h12l1-7 4-12h2z" fill="#531D6F"/>
 <path transform="translate(797,438)" d="m0 0h12l16 3 8 4 11 12h-3l-10-11-13-4-7-1h-21l3-2z" fill="#2A1C37"/>
 <path transform="translate(506,56)" d="m0 0 2 1-5 4-7 8-7 7h-2v2h-2l-1 4-7 6-4-1 7-4 6-8 9-10z" fill="#553C5D"/>
</svg>
