<?xml version="1.0" encoding="UTF-8"?>
<svg version="1.1" viewBox="0 0 1252 1252" xmlns="http://www.w3.org/2000/svg">
 <path transform="translate(207)" d="m0 0h838l26 3 23 5 24.1 7.8 22.4 12.1 16.9 8.4 15.6 12.7 12 11 15 15 13.8 16.6 9 16.5 8.9 19.5 10 20.1 5.3 22.3 3 18 2 19v838l-3 26-5 23-7.8 24.1-12.1 22.4-8.4 16.9-12.7 15.6-11 12-15 15-16.6 13.8-16.5 9-19.5 8.9-20.1 10-22.3 5.3-18 3-19 2h-838l-26-3-23-5-24.1-7.8-22.4-12.1-16.9-8.4-15.6-12.7-12-11-15-15-13.8-16.6-9-16.5-8.9-19.5-10-20.1-5.3-22.3-3-18-2-19v-838l3-26 5-23 7.8-24.1 12.1-22.4 8.4-16.9 12.7-15.6 11-12 15-15 16.6-13.8 16.5-9 19.5-8.9 20.1-10 22.3-5.3 18-3z" fill="#955E3F"/>
 <path transform="translate(207)" d="m0 0h838l26 3 23 5 24.1 7.8 22.4 12.1 16.9 8.4 15.6 12.7 12 11 15 15 13.8 16.6 9 16.5 8.9 19.5 10 20.1 5.3 22.3 3 18 2 19v838l-3 26-5 23-7.8 24.1-12.1 22.4-8.4 16.9-12.7 15.6-11 12-15 15-16.6 13.8-16.5 9-19.5 8.9-20.1 10-22.3 5.3-18 3-19 2h-838l-26-3-23-5-24.1-7.8-22.4-12.1-16.9-8.4-15.6-12.7-12-11-15-15-13.8-16.6-9-16.5-8.9-19.5-10-20.1-5.3-22.3-3-18-2-19v-838l3-26 5-23 7.8-24.1 12.1-22.4 8.4-16.9 12.7-15.6 11-12 15-15 16.6-13.8 16.5-9 19.5-8.9 20.1-10 22.3-5.3 18-3zm525 68-26 6-15 2-79 17-13 2-1 1-177 37-19 3-82 18-9 1-84 18-17 3-51 11-9 3-1 2v376l7 9 8.2 7.9 3.6 7.2 1.7 3.9v237l6.5 9 42 50 7 10 13 14 9 12 9 10 6 8 9 10 9 11 9 10 7 9 13 15 11 14 9 10 17 21 13 15 10 13 9 10 18 22 9 10 45 55 12 13 10-2 58-16 29-9 18.2-4.6 7.6-3.8 13.2-3.6 6.5-2 1.6-219 343.9-97v-2l8 1 5 5 5 3 2 3h2v2l4 1v2l4.5 2-0.7 18-0.4 169 6.9 0.6 12.4-6.2 27.3-7.4 9-3 14-4 28-10 2.5-3v-476l3.5-3 12-4 8-2 2-4 0.2-180.1-3.4-6.8-173.8-124.1-9-6-139-99-32-22-5-3z" fill="#040404"/>
 <path transform="translate(167,388)" d="m-0.8-0h3.8l8 8 3 5 24 24v2l4 1 7 8 8 8 7 8 13 13 2 1 3 5 10 9 4 4-0.2 204 7.2 8 5 5 15 17 13 13v2h2l6 8 8 8 28 31 3 2v3h2v2l23-6h2.5l0.7-177 7.8 6 18 18 4 3 3 5 11 10 3 5 6 5 13 15 9 9 9-1 237-58 16-3 45-12 5-1 270-68 10-2 9-3 15-4 8-1 1 2v470l-3 3-26 9-61 19-2 1h-7l1.2-187-4.2-2v-2l-4-1v-2l-3-1-3-3-8-7-8-1v2l-341 96-2.5 1-1.6 219-14.9 5-12.2 2.6-7.6 3.8-102.2 28.6-6 1-15-16-10-13-7-8-26-32-11-12-10-13-11-12-11-14-30-36-9-10-10-13-77-92-12-13-7-10-40-48-6.5-9 0.2-237.1-3.9-7.8-0.3-1.1z" fill="#FCBA9C"/>
 <path transform="translate(207)" d="m0 0h838l26 3 23 5 24.1 7.8 22.4 12.1 16.9 8.4 15.6 12.7 12 11 15 15 6 8-3 2-3 1 1 5h-3v3l-2-1 1-2-4 1-1 3-2-2-4 1-6 2-1 2-6-1v-4l-4 2-3 3 2 2-7 2-4 1v-2l-4 1-1 2-1-3-1 4h-4v-3l-3-2 1 6-2 1-3-3-1 2-9-1-2 4h-2l-2 6h-2l-4-4-5-1-3 4h-5l-1.2-0.4-7.6 3.8-1.2-2.4-1 2h-4l-1-2-2 2-4-2 1 5h-6l-1 2-1-4-2 1-0.2 2.6-7.6 3.8-0.2 1.6-4-1h-2l-4 4-1-5-4 1-1 3h-4v2l-5-2-2 2-2-1 1 5h-3l-2-2h-2v-2h-2l-1 2-5-1-2 4h-7l-2 5h-7l-4-2-2 1v2l-3-1v-3h-2l-1 4 2 1-4 1v-2l-4 1v2l-3 3-2-4-2 4-3 1v-2l-6 1-1-1-2 3-1-2-5-1v2h-2v-3l-2-1 1 3-1 3h2l-1 3h-2v-2l-3 1 1 2h-7l-1-3 3-3-5 1 1 3-3 2-5 1-2 1v-2h-3l-1 5-4-2-5-2v-2h-2v-2h-2l3 3 2 3 1 3-3 2-3-3-9 3v2h-3l-1 2h-4l-3-1v-2h-2v-2h-2v2h-5l-3 1 1 4-5-2-102-73-32-22-5-3h-11l-26 6-15 2-79 17-13 2-1 1-177 37-19 3-82 18-9 1-84 18-17 3-51 11-8 2-1 2v376l7 9 8.2 7.9 3.6 7.2 1.2 3.9v237h-1.5l-0.8-237 0.3-2-4 1v-3l-1-4-2 8h-2l-1 2-3-3 3-2h-2l-4 1 1 2-6-1 1 4h-4l-1-3-4 2v2l-4-1v-2l-1 1-5 3h-4l-1 3h-1v-5l-1 2-3 1 3 1-1 2-4 1-2 2-2-4-3-2 3-1-4-1v4l3 1-2 4-4 1v-2h2l-1-4h-3l1 3h-2l1 3-5 1-3-2-1 1-3-1-1 2v-2l-2-1-1-2-2 3-2-1v2l2 1h-3l-1-2-1 2h-3l-1 2-3 1-2 1v-2l-5 2-4 4-4-3-3 5h-3l-2-2-2-1h-2l-2 5h-2l-2-4-1 4v-2h-2v3l-2-1v-4l-5 1 1 4-4-1-3 1-1 3-3-2-1 5-3-1v-2h-2l-1 5-3-2 1-4h4l-4-1-4 1 2 1-1 6h-3l-6 1v-427l3-26 5-23 7.8-24.1 12.1-22.4 8.4-16.9 12.7-15.6 11-12 15-15 16.6-13.8 16.5-9 19.5-8.9 20.1-10 22.3-5.3 18-3z" fill="#2E2F2F"/>
 <path transform="translate(167,388)" d="m-0.8-0h3.8l8 8 3 5 24 24v2l4 1 7 8 8 8 7 8 13 13 2 1 3 5 10 9 4 4-0.2 204 7.2 8 5 5 15 17 13 13v2h2l6 8 8 8 28 31 3 2v3h2v2l23-6h2.5l0.7-177 7.8 6 18 18 4 3 3 5 11 10 3 5 6 5 13 15 9 9 9-1 237-58 16-3 45-12 5-1 270-68 10-2 9-3 15-4 8-1 1 5-15 3-27 8-38 9-14 4-520 130h-2l-0.5 494h-3.5l-11-12-10-13-7-8-26-32-11-12-10-13-11-12-11-14-30-36-9-10-10-13-77-92-12-13-7-10-40-48-6.5-9 0.2-237.1-3.9-7.8-0.3-1.1z" fill="#C8887D"/>
 <path transform="translate(163,587)" d="m0 0 2 2-1 3 2 1v1h2.5l0.3 239h2.2l6 9 42 50 7 10 13 14 9 12 9 10 6 8 9 10 9 11 9 10 7 9 13 15 11 14 9 10 9 11 6 9-8 1-2-1-1 2v-3l-4 1-2-2v-5h-2l2 8-5 1h-4l-3 1v-3l-3 6h-3v-2l-6 2-2 2h-2l-3 1-1 2-1-2-2 1-3-1-2 3-4 1h-3l-3-3v3l-4 2-2 3-3-1-1.1-3.2-6.8 3.4 0.9 3.8-4-2h-5v-3l-2 1-1 2-2-2-3 2-1 1 2 2v5l-2-2-3-1-2-1v-3l-3 2v5l-2-2h-4l-3 2-1-3-4 2h2l-2 5-2-4-3-2v3l2 1-3 3-2-4-2 2h-3l-1 2-3-1-2 3-5-2v3h-3l-1 2h-4l-6 1-2-1-1-4v2l1 5-5 2-2-1-2 2-5 1v-2l-2-1h2l-2-2-4 2-1-2-4 1-2 5-2-3v6l-2-2h-3l-2-3-2 2h-2l-2 2h-4l-3 2v-2l-6 3-4-1-1 2-3 1-3-2 1 3h-2v5h-3l1-3 1-1-3-1v3h-4l-2-3v3l-2 2-3-2-1 5-6-4-4 4h-2v2h-3l-2 1-2-2 1-1-2-1-1 3v-2h-3v2l-5 2-1-1v4h-2v-3h-2l1 4-4.2-2.1 3.4-6.8-2.2 1.9-1 4h-4l1-4-2 1-2 4h-2v-2l-3 2 4 2-1 3-1-2-6 3 2 1-4-1-4-2h-2l2 1-1 2-3 1v2h-2l-3-3-4 2-2 2-5-1-4-4-8-24-5-23-3-26v-411l3-1h3l1-2 1 1 1-4-1-2 6-2h2v2l-4 1 1 2 4-2h2l2-3 3 2 4-4 4 2-2-4 1-1h5l2 5v-3l3-1-3-1 4-1 1 5h2l2-6h3l3 2v2l3-1 2-5 6 3 2-4 6-1 1 1 4-2 5-4 1 3 1-3h2l2-3 3 3 3 1 2-3 2 4 1-2h2v2l2-1v-4l-1-3 2-1v3h3l1 4 2-1 1-2-2-1v-4l5 1-1 2 3 3 4-3-1-1v-5l1 4 1-2h2l1 4 3-3h3l2-2 5-3-1 4 2-1 5-3 2 4h2l-1-4 4-1v2l2-1-1-2 6-2 2 2-2 2 1 1h3v-5z" fill="#121111"/>
 <path transform="translate(1203,83)" d="m0 0 5 2 14.2 20.9 9.7 21.6 10 20.1 5.1 22.4 3 18 2 19v389l-3-1 1 7h-6l-1 2h-5l1-2 2-3-5 3h-2v-3l-2 3-1 1 3 1-2 2-5 1-2-2-4 2-1 3-2 1-3-3v2h-2l-1 2-3-1 1-5h-3v-4l-1 4 2 4-3 1-1 2-4 1v-2l-8 4-2 2v-2l-2-1v-1l-2 2-5-2-3-3 1 3-1 5-4-1-5 1 6 1-2 2-4-1-1 2-3-2-4 2-1-4-2-1-3 2 2 2h-3l-1 3-4-2v3l-6-2-4-1 1 5h-4l1 2-4-1-1-2h2l-0.8-1.9-3.4 6.8-2.8-2.9v-3l-2-1-2 6h-2l-2-3-5 2-2 2-2-1-1-1v2l4 2-5 1v2l-4-1-1-1-2 3-4-4-2.1 4.8-6.8 3.4-4.1-0.2-1-4-2 3-0.5 3v35h-1.5v-157l4-4 12-4 8-2 1-3 0.2-180.1-3.4-6.8-172.8-123.1-9-6-32-23-1-5 4-2 4 1v-2h2v2h2l3 3 1-2h7v-2l2-2 5-1 2-3v3l4 2v-3l-3-2-1-5h2v2h2v2l5-1 2 4 2-1 1-3 4 1 2-2h5l1-4 5-1v-2l2 1-4 5v2h3l1-3h5v2l3-3h-2l-1-3 1-3 3 1-1 3h2v-2h15v2l2-1 2-5 4 3v-4h3l4 1 2-5h2l1 3 2 1-1-4 5 1 7 1 4-4 7-1 1-4 5-1 1 2h7l2 3-1-6h4l2-2v3l4 1v-2l4-1 1-4 5 1 1 4 5-5 1 2 2-1 5-3 4-1v-3l3-1 1 3h3l1-2 1-1-2-3h3l3 2 4-2-1 3 6-3h7v-3l6 3 1-2 3-3 5 1 4 3v2h2v-4h2v-2l-4-1 3-1 3 1 1-4h7l2 2 1-2 4 1v-2l1-5 1 3 3 1 1 3h2l-1-4h3l6-1 1.1 2.2 6.8-3.4-0.9-4.8 2 1 3-2h3v4l6 1 1-4h2l7-1h3l3-2h2l1 3-1-5h3l-1-4h4z" fill="#262626"/>
 <path transform="translate(950,825)" d="m0 0h8l5 4 3 3 6 5v2l4 1v2l4.5 2-0.9 187 2.3 0.8-8.4 4.2v16l-2.5 8-5 3-36 12-301 91-5-5-10-11-5-5-8-1 3-1 1.2-219 3.8-2 31-8 307-87h3z" fill="#6A392A"/>
 <path transform="translate(150,190)" d="m0 0 5 5 4 2 7 9 12 10 15 15 3 1 7 8 9 9 11 9 8 7 7 8 15 13 11 11 8 7 13 13 41 37 10 10 9 7 15 15 8 7 10 10 10 8v2l4 2 7 8 26 22 8 8 8 7 11 11 4.5 5-0.7 16-1.1 183-7.7-6-8-8-7-8-6-6-6-2-12-11-2-4-8-7-18.5-18-0.7 171-1.8 5-16 5-9 1v-2h-2l-1-3-8-7-7-8-7-7-22-25v-2h-2l-7-8-4-5-8-7-9-11-3-3v-2l-4-2-6.5-7 0.4-204-9.9-10-6-5v-3l-4-2-18-18-7-8-8-8-1-2-3-1v-2l-4-2-9-10-14-14-3-5-5-4v-2h-3l-0.5 194-2.5 3-11-11-4-6v-376z" fill="#734132"/>
 <path transform="translate(1249,595)" d="m0 0 3 1v416l-2-1v-2l-2 2 3 2v3h-6l-7 2-6-1-4 1h-2l-2 2-4 1-2-3-2 1-1 2h-2l-1 2-2-3-1 6h-3l-2 1-4 1 1 4-2 1-3-4-4-1 1 3h-2l-2-3-6 1-5-1 1 6-3 2 1 3-8 4-1-4 3-1-1-4 1-5-4 8-2-1-2-2-3 2-1-2-2 4-5-1 1 5-2 1-2-3-7 2-2 2 1 1-3 1v2h-2v-2l-3 1v-3h2l-1-1-3 2-2 3-2-4.5h-11v2.5h-3l1 6-5 1-6-3v-2l5-1 1-2h-3l1 2h-6l1 4-4-1-3-2-2 6-4 3-2-1-2-2-1 2h-7l-2 1-1 1-1 3 1 2-5 1-2-2-4 2-3 2-1-1-1 2h-2v-3l-2-1v-2l-2 1-2.1 2.2-6.8-3.4-1.1 5.2h2l-1 3-5-2 1 2h-3l-1 3-1-5h-5v-3l-2 4 1 1v3l-8 1-2-2-1 2-3-1h-3l-2-1-1 6-2-1-3-2h-4v-2h-2v3h-2l2 2-1 2-3 1-8 1-1-2h-5l-2 3 3 1-5 1-1-5-1 3 1 3h2l-1 2-3-1-1 2-1-3-6-1 1-2-3-1-2 4h-2l-1 4-4-1-2-2-2 2-3-1v2h-6l-1 2v-3l-3 1v-2l-3 1h2l2 4-7 2-1 2-2-5h-4l1 2h-2l-1 2-1-2h-2l2 4-2 1 2 2-6 2v-4l-6 2h-3l-3 2-2-6-1 6-3 3-6 1v-4l4 1 1-1-3-1-1-1-3 2h-3l-1 2 4 2-1 2-2 1-4 1-3-2-2 3-4 2-4-1-3-1-1 2-2-1-1-3h-3l-3 2 3 1-7 1-4 2v-2l-3 1v-2h-4l1 3-3 2h-5l-5 2-1 4h-2l-3-4v5l-5 7h-1l1-7h-9v-2l-2-1-2 3h-3l-1 6-4 1v-3l-6-2h-4l1 1 3 1 3 3h-3l-1 2-1-3h-4v-2l-5 3-1-5-1 5v3h-3l-1-5-6 1 1 6 3 3-5-1-3 2-2 3h-3l1-6-4 4-4-2h-3l-3 1h-3l-2 2-2-4h-2v2l-4 4-3 1v3l-5-2 3-4 3 1-1-2h-3l-4 5v3l-5-4-2 4-1-1-3 1v-4l-3 1-2 2-2-1-2 2h-6l-1 1h3l-1 2h-4l-2 2v-3l-3-1-3 1 2 4-4-1 1 4-2 2v2l-7-1v-2l5 1-4-4-5-1-2 1-2-2 302-93 2-3 1.5-6v-16l3.5-3 59-19 14-4 26-9h2l1.5-3 0.7-354 0.8-3 2-1 1-3 2 2h-2l2 3 4-2 6-2 1-5 4 3 2-1h3l1 2 3-4-3-2 4-2v2l4-2h4l1-2 2 4h2v-4h2v-2l3 1 1 4 4-6 2 1-2 3h2l3-2v2h2l-2-5h7l4 3v-3l4 1 2-3-1-5 2 2 3-1 3 3v2l5-2 1 2 5-1-5-1 2-2 6-1h2l-1-3 1-3 3 1v2l5 1 3-5 1 4 1 1 4-2v-1h9l3-3v-2l-3-1h2l-1-4h2v4h3l1 4h2l3-3 4 2 5-5 2 2 5-1 1-1-2-1 1-4h2v3h2l1-2 4-1-1 4 6-1 1-2h2z" fill="#0B0B0A"/>
 <path transform="translate(207)" d="m0 0h621v5l-1-3-5 2-1 3-1 2-3-1v-1l-2-1-2 2-1-4h-2l-1 2v1h3v2l-3 1-2-1 1 4-6-2-1-1-3 1h-2l-5 1-2-1-1-1v3h-3l-1 2-1-4 2-1v2h2l-1-2h-5v2h-2v2l-11 3h-3l2 1-1 2-2-1-2 4-3-2v-2l-4 1-2 3-3-1-2 2-1-5v3l-4 2-1-3-4 4-1-1-1 2-6 1-2-2-5 2 1 5-1 1-3 1-3-3 2-2 2 1-1-4h-2l-2 5-7-1v-2l-6 2-1 4h3l-1 3-6 1-1-2-5 1v-2h-5l-1 3-3-1-3 1 3 3-12 2-2-1v-2l-3 1 4 3-5 3-2 2h-3l1-4-3-1v-2l-2 2-2 1 1 2 2-1-1 4h-3l-1-4h-2l-1 2-4 1-2-4h-2l-1 2-4 1-5 2h-3l-1-1-1 5-6 2-3-1-3 2-4-1-3 3-4 1-4-1 1 4-3-1-2 2-5 1v-2l3-1h-4l-8 4-5-1h-5l-2 1-1-2-4 4h-5l-4 4h-2l-3-1-1 2-3 2-3-2h-1l1 3-4 1-4-3-4 3h-2l-4 1-1 2-2-1-1-1-4-1-1 2-4 2-3 3-2-1-1-4h-2v3l-3 3h-3l-1 2-2-1-1 3h-3l-4 1-2-3-1 2-3-1-2 1-2 4v-3l-4-1-5 2 4 1-1 2h-2l-1 2-5 1 1-3h2l1-4-3 1-5 1-2 1 3 2-1 2-5-1-1-1-3 3-3-1-1 2-5-3-3 2 1 2-4 1v-2l-4 4-2-2-4 2-1 2h-9l-2-1-1 3h-2l-6-1-1 2-2 1-3-2v3l-7 2v-4l-1 2h-2v2l2 1h-3v-2l-4 3-4-2v5l-2 1 1-5-1 1-4 2-4-1-2 3-3 3v-2l-2-1 1-3-2 5-1 3-4-1-2-3-4 2-2 2h-3l-4 4-6-1-3-1v3l-5-1-4 4 2 2-3 1-2-2-4-2h-3l-1 2h-2v-2h-3l-1 4-4 2-4-2h-3l-7 2-3 6-3-1-1-3h-3l2 3-6-1v-2l-3 1-1 2h-2l-6 3-1-1-2 2v-3l-1 4-2 1 1 2h-3l-1-3-3 3-4-2-3 3-2-1-1 2-3-2-1 4-3 1-2-3-2-1v2l-4-1-1 3h-2l-1-1-5 3h-3l1 2-4-1-6 3-2-3-4 2h-3l1 6-4-2-1-5h-5l3 3-9 3-2 3h-4l-6-3v3l2 1-1 1h-5l-4-1 1 1-1 2h-7l-2 1-2-2-1 2-6-1-1 2h-2l-2 4v-2l-6 1v2l-5 1 3-5-6 2 1 4-1 2-3-1-3 1-1-2-3 3-1-2-6-2 1 3-5 2-2 2-1-6-2 3 2 1h-3l1 4-4 1-1-4-2 1v-3l-1 1-2 1v2l2 1 1 2-3 1-3-5-2 2v3l-4 1-2 1v-3l-3 1-1-2-2 3 5 1-2 2h-9l-1-4-2-1-2 4-6 2 1-3-4 1-2-1v6l-4-2v2h-10l-3-1-1 5-1-4-5 1v3h2v2.5h-10v-2.5h-2l-1 3-3-1v2l-3-1-5 2-1-1v-9l3-23 6-24 6.8-19.1 11.1-20.4 8.4-16.9 12.7-15.6 11-12 15-15 16.6-13.8 16.5-9 19.5-8.9 20.1-10 22.3-5.3 18-3z" fill="#343434"/>
 <path transform="translate(326,1038)" d="m0 0h2v2l2 1 1 3 8 1 4-1 5 3 12 14 10 13 9 10 18 22 9 10 45 55 11 12 10-2 58-16 29-9 18.2-4.6 7.6-3.8 13.2-3.6h11l5 4 7 8 6 8 3 1 33-10 4 1-3 6v5l-3-1-2 3-7-1-2-4-7 1-3 2-2-3v4l-3 3-4 2 1-4 2-1.5h-10l-1-1.5-3 2-2 3h-5l1 3-3 2-4-3-2 1 2 4-1 5-1-3h-2l2-4-6 1v-3l-2-2v2l-3 1-1-1-2 5-4 1 1 4h-2l-1-2h-3l-1 2-5-3h-1l-2 2-4-2 2-1 2 1v-3l-5.8 0.9 3.6 7.2 0.2 4.9-2-1-1-3-3 3-5-3-1 4-2-4 2-2-4-1-1-2 1 9-5 2h-4l-4 3v-2l-2-1 3-2v-1l-3 1-2 1-1-3-2 3h-4l-5 2v3l-4-1-5 3 2-8-5 2 2 3v3l-5-1 1 4h-5l1 3h-3l-1-2 1-3h-5l-1 1h3l-1 3h-2l-5 1-1-2h-4v-3l-2 3h-2l-4 4-3-1-4 1v-3l-1 2-2.2-0.1-3.6 7.2-4.2 1.9-2-1 1-3 2-2-5 2v3l-7-2 1 1 3 1-1 2-6-3 2 5h-3l-4-2-3 1-1 3-3-2v-2l1-1-5 1-2 2-3-3-1 4h-2l-1 5-4-2-2-2-4 1h-1v2l2 1h-2v3l-3 1v-2h2l-1-2-3 2-4-2v3l-2-1 1-5 1 2 1-3-5 2-3 2-5-2v3l1 7h-4v-2l-4-1v-3l-2-2-5 1 4 4-4 2-2 2-8-1v2l3 1-2 2-2 3-1-4-4-2-2-4v4l1 2-5 1-2 2v3l-3-1-3-3-4-1v2l3 1-4 4 2 3-4 1v-2l-4-1v-2h-3v-4l-1 2h-2v2l2 1-5 3-3 1-1-3 2-2-2-2-1 6-1-2-2-1-4 4-3-2-1 5-3-2-1-5-5-1-1-2h-2l-2 4v1l3-2 1 3 3 3-3 2h-95l-26-3-23-5-24.1-7.8-22.4-12.1-16.9-8.4-15.6-12.7-12-11-15-15-13.8-16.6-9-16.5-9.6-19.2-1.6-4.7 6 2 3-1 1-2 3-1 3 2v2h2l-1-3 5-2-3-1 4-1 4 1 1 2 1-2 5-1v-1l-3-1 1-3h3v2h2l-1-3 2-1 3-1-1 4h4l1-4-3-1 5-1 1 4-2 2 1 1v-2h2v3l1-5 4 1 3-1v-2l6-1 2 3 1-3 1 3v-3l3-1h2l4-3 5 4 1-4h3v-3l3-1 1 4 3-1v-3l3 1v3l-1 2h3v-5h2l-2-5 5 3 3-2h5l2-2 4 1 3-3h4l2-3 1 2 3-2 2 4h3l1-4 2 1 1-5 8 2 3-3 2 6 5-2h3l4-2v-4l-2-1 3-2 2 6 1-2 3 1 4-2v2l2-1-2-3 5 1-1-2 5-1v2h2l2-3 2 1 1-1 5-2h3l1 3v-3l-1-3 2-4 2 5 2 3 2-3h-2l1-2 5-1v2l2-2 1 2h2l3-3-2-1 5-1 2 1v2l2 1 1-1v-1l-1-4h3l2-2 2 1 1-2 2 1v3l5-1 3 1 0.1-2.8 6.8-3.4 2.1 2.2v2l2 1 2-4 3-1-1-2 2-2 4 3h3l4-2 1-3 4 2 5-1 2-2h2l7-2v2l3-1-1-2h3l-1-3 3-1-1 4h2l1-2h3l1-2v3l4-2-2-5zm325 124m-262 67m234-61m-235 64 3 2h-3z" fill="#0B0B0B"/>
 <path transform="translate(163,587)" d="m0 0 2 2-1 3 2 1v1h2.5l0.3 239h2.2l6 9 21 25-1 2-4-2-1-4-3-1-1-1-1 4-2 2v-2h-4l-1 2-1-2 1-3-4-1 3 3-3 3-2-3v2h-4l1 3-5 2-2-1-4 4-3-1v-2h-2l-1 4v-3h-2l-1 2-4 3-2-4-2 1-2 4v-3l-3 1-3-3-4 1-1 2 2 1v2l-3 1-2 1-1-6-3 4h-1v3h-6l-1-1-2 2-3-3-2 1-2-1v2h-2v5h-3l-1-2h-4l-2-3v2l1 2-3 1-3-2 2 5-2 1-1-2-5 2-4 3-2-3h-5l-1 4-3-2-6 1v4l-4 1-1-4-4 2v-2l-7 1-2-1v3h-2v2l-4.1 0.8-6.8 3.4-4.1-1.2v2h-2l-1 2-2-4-2-1 1-2-2 1-2 4h-6l1 5-2-4-3 1v3l-5-1-2-5v-270l3-1h3l1-2 1 1 1-4-1-2 6-2h2v2l-4 1 1 2 4-2h2l2-3 3 2 4-4 4 2-2-4 1-1h5l2 5v-3l3-1-3-1 4-1 1 5h2l2-6h3l3 2v2l3-1 2-5 6 3 2-4 6-1 1 1 4-2 5-4 1 3 1-3h2l2-3 3 3 3 1 2-3 2 4 1-2h2v2l2-1v-4l-1-3 2-1v3h3l1 4 2-1 1-2-2-1v-4l5 1-1 2 3 3 4-3-1-1v-5l1 4 1-2h2l1 4 3-3h3l2-2 5-3-1 4 2-1 5-3 2 4h2l-1-4 4-1v2l2-1-1-2 6-2 2 2-2 2 1 1h3v-5z" fill="#1B1A1A"/>
 <path transform="translate(1244,316)" d="m0 0 1 4 2 2 2-1 2-3 1 1v277l-3-1 1 7h-6l-1 2h-5l1-2 2-3-5 3h-2v-3l-2 3-1 1 3 1-2 2-5 1-2-2-4 2-1 3-2 1-3-3v2h-2l-1 2-3-1 1-5h-3v-4l-1 4 2 4-3 1-1 2-4 1v-2l-8 4-2 2v-2l-2-1v-1l-2 2-5-2-3-3 1 3-1 5-4-1-5 1 6 1-2 2-4-1-1 2-3-2-4 2-1-4-2-1-3 2 2 2h-3l-1 3-4-2v3l-6-2-4-1 1 5h-4l1 2-4-1-1-2h2l-0.8-1.9-3.4 6.8-2.8-2.9v-3l-2-1-2 6h-2l-2-3-5 2-2 2-2-1-1-1v2l4 2-5 1v2l-4-1-1-1-2 3-4-4-2.1 4.8-6.8 3.4-4.1-0.2-1-4-2 3-0.5 3v35h-1.5v-157l4-4 12-4 8-2 1.5-3v-149h2.5l-1-4 2-3 1-2 3-1 2 1-1 2 1 1 6-3 3-4h3l1 5h3l2 5 2-8h-5v-3h6l3-2 1 4 2 1 0.2-5.4 7.6 3.8 0.2-5.4 3-3v2h15l1-6 3 3 3 1-1 3 3 1-1-6 4-1v-2l5-1 3-1 2 7h2l-1-4h2l-1-1-0.9-2.8 6.8-3.4 1.1 4.2v1l2-2h3l-1-2 3-1 4 4v-4h3l4-4 4 1 2-4 1 3-2 3 4-2 1 2h6l2-3h2v-3l6-1z" fill="#1B1A1A"/>
 <path transform="translate(726,655)" d="m0 0 4 1 5 3 3 3 6 5v2l4 1v62l-18 6-6 1h5.5l0.2 15-1.3 37v53l-3.4 4-34 9-19 6-45 12-16 5-66 17-4.5-1 0.2-131 4.3 2-5-4 0.4-59.1 5.7-2.8z" fill="#FAE9E1"/>
 <path transform="translate(1249,595)" d="m0 0 3 1v219l-10 5-2-2-5 4-4.9-2.8-7.2 3.6-1.9 2.2h-2l-4 2h-4l-2 1-3-1-1 2-1-3-3 1h2l-2 5h-3l-3-2-5 2v-3l-1 3-5-1-1 2h-3l-1 3-4 1-3-2-1 3-2-2-1 3-5-2-3-1-1 4-4 1h-1l-2 3-5-1h-1l-2 4-2-2-5 1 3-1v-3h-3l-2 4-4-1-2 1-1-1 3 4-6-1-3 2v-2h-3v3l-8-1-2 5-4-3-6 2-1-1-1 2h-2v-2l-3 2h-3l-2 4-2-1v-3l-1 3 1 3-5-1 0.5 3v60h-1.5l0.5-279 0.5-3 2-1 1-3 2 2h-2l2 3 4-2 6-2 1-5 4 3 2-1h3l1 2 3-4-3-2 4-2v2l4-2h4l1-2 2 4h2v-4h2v-2l3 1 1 4 4-6 2 1-2 3h2l3-2v2h2l-2-5h7l4 3v-3l4 1 2-3-1-5 2 2 3-1 3 3v2l5-2 1 2 5-1-5-1 2-2 6-1h2l-1-3 1-3 3 1v2l5 1 3-5 1 4 1 1 4-2v-1h9l3-3v-2l-3-1h2l-1-4h2v4h3l1 4h2l3-3 4 2 5-5 2 2 5-1 1-1-2-1 1-4h2v3h2l1-2 4-1-1 4 6-1 1-2h2z" fill="#111010"/>
 <path transform="translate(139,349)" d="m0 0 2 3-3 3 4-1 2 1-1-3h2l3.5 3v208l2.5 7 11 12 6 8 2 6v237h-1.5l-0.8-237 0.3-2-4 1v-3l-1-4-2 8h-2l-1 2-3-3 3-2h-2l-4 1 1 2-6-1 1 4h-4l-1-3-4 2v2l-4-1v-2l-1 1-5 3h-4l-1 3h-1v-5l-1 2-3 1 3 1-1 2-4 1-2 2-2-4-3-2 3-1-4-1v4l3 1-2 4-4 1v-2h2l-1-4h-3l1 3h-2l1 3-5 1-3-2-1 1-3-1-1 2v-2l-2-1-1-2-2 3-2-1v2l2 1h-3l-1-2-1 2h-3l-1 2-3 1-2 1v-2l-5 2-4 4-4-3-3 5h-3l-2-2-2-1h-2l-2 5h-2l-2-4-1 4v-2h-2v3l-2-1v-4l-5 1 1 4-4-1-3 1-1 3-3-2-1 5-3-1v-2h-2l-1 5-3-2 1-4h4l-4-1-4 1 2 1-1 6h-3l-6 1v-248h3v3l3-1 4-4 5 1 4-4h3l1 6 4-2v-3l4-1 2-3 6 3-1-5h2l1-2h2l1 3 7-1v2h2l1-4 4 1v2h3l-2-3 7-2 4 1-1 3 2-3h2v-5l7-2 2 1v3h3l-1 2 6-5v3l2-4 6 1v-4h3l2-2 2 2 3-4 5 2v2l4-1 2-6 7-1v3l2-2-1-2 2-3 2 1 1 4 2-1v-2l5-2z" fill="#262626"/>
 <path transform="translate(1017,580)" d="m0 0h7l4 2v2l5 2 10 8v60l-18 5-0.5 1-0.7 81-2.8 23-25 8-44 12-15 5-79 22h-3l-2-2-0.5-95 1.5-6 1-6h1v7l25-6 30-9 22-5 18-5 9-3-7 1.5h-11l2-1.5-5 1-40 10-23 7-4-1-7-5-5-5-7-5v-60l9-3z" fill="#FAE8E0"/>
 <path transform="translate(726,655)" d="m0 0 4 1 5 3 3 3 6 5v2l4 1v62l-18 6-14 3h-5v2l-12 4-8 2-12 2-22 5-7.1 0.8-6.8 3.4-35.1 8.8h-4v2l-30 8-15 2-17-17-2-1 0.4-59.1 5.7-2.8z" fill="#6A392A"/>
 <path transform="translate(901,917)" d="m0 0h4v5l-9 4-0.2 41.6-13.6 6.8-2.2-0.4v2l5 1 33 11 1 3-18 6-41 11-165 49h-4.5l-0.3-68 2.8-3 8.2-0.6 9.6-4.8 23.2-4.6v-2h2v-2l-24 6-17 5h-3v-6l6-2 7.2-0.6 7.6-3.8 10.2-1.6 9-3 20.2-4.6 7.6-3.8 22.2-5.6 4-2 17.1-3.8 6.8-3.4 14.1-2.8 6-2h3v-2l23-5 12-4 8-4z" fill="#703F30"/>
 <path transform="translate(1017,580)" d="m0 0h7l4 2v2l5 2 10 8v60l-35 9-3 2-19 4-11 3h-3v2l-19 5-10 2-44 11-23 7-4-1-7-5-5-5-7-5v-60l9-3z" fill="#6A392A"/>
 <path transform="translate(950,825)" d="m0 0h8l5 4 3 3 6 5v2l4 1v2l4.5 2v83h-2v-80l-1.5 9h-1v-10l-25 7-8 1-2-1v2l-5-1-1-5h-2l1 4-3-1 1 3-1 3-65 20h-3v2l-30 7-17 5h-5v-2h-6l-4-4v-2l2-1-4 1-4 2v3h2v2h-3v-2h-2v-3l-3 1-5-1-1-5-2 1 1 4 2 1v2h-2v2l7-2-2 4h-8v2l2 1v2l-1 3-1-2-2 1-7-2v-3l-2-1 1 3v4h6l-3 3-9 1h-7l-4 1-3-2v-2h-2l2 4 1 1h6l-2 2-8 2h-4l-1-4-5 1-2 1v3l3-1 1 2-15 5-12 3-3-1 2-2-5 1-2 4-18 6-21 6-11 2v2l-21 6-5-1-18-18v-2l-2-1 340-96h3z" fill="#7E4D38"/>
 <path transform="translate(695,762)" d="m0 0h6l2 2 2 12-1 66-4 3-17 6-14 4-16 4-6 2-9 2-11 2h-8l-2-3-2-19v-31l3-28 8-4 24-8 16-3 12-3 15-3z" fill="#5C3428"/>
 <path transform="translate(883,923)" d="m0 0 4 1-1 3-15 5-3 2-89 25-13 3-1 2-3 1 3 1 16-5 16.3-3.4 12.4-5.9h10.3l5.8 7.4 6.4 12.8 2.8 10.1v5l-140 41h-4v-38l3-3 21-7 16-4h3v-2h2v-2l-24 6-17 5h-3v-6l6-2 7.2-0.6 7.6-3.8 10.2-1.6 9-3 20.2-4.6 7.6-3.8 22.2-5.6 4-2 17.1-3.8 6.8-3.4 14.1-2.8 6-2h3v-2l23-5 21-7z" fill="#B0533E"/>
 <path transform="translate(946,695)" d="m0 0h10l0.1 76.8-7 3.5-11.1 3.7-1 1h-5v2l-20 6-12 4h-22l-3-20 1-33v-21l3.2-4.6 9.6-4.8 22.2-7.1h13v-2.5l13-3z" fill="#5D3428"/>
 <path transform="translate(605,924)" d="m0 0h1l-1.2 219-14.8 5-7 2h-5l0.5-188 20.7-27.9 3.6-7.2z" fill="#C8887C"/>
 <path transform="translate(606,924)" d="m-0.8-0h3.8l7 8 13.5 14-1.3 31-0.6 187-5.6-5-7-8-6-6-8-1 3-1z" fill="#5B3226"/>
 <path transform="translate(726,655)" d="m0 0 4 1 5 3 3 3 6 5v2l4 1v62h-1v-61h-2v3.5h-11l-54 14.5-17 4-14 4-87 22-4-1-4-3v-2l-4-2-5-4v-3l-2.9-0.8 6.8-3.4z" fill="#744232"/>
 <path transform="translate(1017,580)" d="m0 0h7l4 2v2l5 2 9 7-2 1v6h-2v-2l-12 2-24 5-13 4-55 14-34 10-14 3-10.9 2.8-7.2-3.6-11.9-10.2h-1.5v58h-1.5v-60l9-3z" fill="#744232"/>
 <path transform="translate(354,579)" d="m-0.2-0 4.2 2 5 5v2l3 1v2l4 2 8 8v25l-3 2-1-2-2 4 1 3h-2l1 7v2h-2v3h4.5v-12l2.5 4-0.5 123h-2l-0.3-74-3.2 3h-2v2l4 1v4l-1 5-2-1v-2l-3 3-1 6-6 1-1 4-3 5h3l-1 5h-2v3l3-1 1 3-2 5 4 1 2 2 2-2 2 4h-2v5l-1-4h-2l-1 4-4-1v6l1 3-2.5 1v12l0.5 3-1 2h-2l-0.5-7-0.4-48z" fill="#69382A"/>
 <path transform="translate(852,623)" d="m0 0h1v60l4 2 8 6v2l4 2 4 3 9-2 17-5 21-5 13-4 12-3h5l-3 2-1 1 9-2h7l-2 2-23 7-36 9-23 7-17 4h-5l-1-1-1 4-19 6-3.5-1 0.3-61 19.2-29z" fill="#CA897D"/>
 <path transform="translate(683,903)" d="m0 0m-9 1h9v2l4 1 6 5 8-1 1 4-5-1 1 7-2 1-2 4-38 11h-3v2l-21 6-5-1-18-18v-2l-2-1z" fill="#7D4D38"/>
 <path transform="translate(917,911)" d="m0 0h5v78l-7-1-30-10-5-2 0.2-1.6 14.7-6.8v-41.6l6.1-3 3-1 1-6h-5l4-3h7z" fill="#583026"/>
 <path transform="translate(540,704)" d="m0 0h1l-0.5 59 3.5 2 3 4-4-2h-1v13l-2 14-17 5h-6.5l-0.3-61 17.8-26z" fill="#C8887D"/>
 <path transform="translate(855,624)" d="m0 0 8 6 11 9 1 1v47l1 7 9-2h5l-4 4-10 3-4-1-7-5-5-5-6-5v-58z" fill="#5A3126"/>
 <path transform="translate(541,704)" d="m-0.5-0h4.5v3l4 2 5 4 6 6 0.5 53 2.5 2.5h15l-1 1.5-11 4-7 1-17-17-2-1z" fill="#5C3428"/>
 <path transform="translate(883,923)" d="m0 0 4 1-1 3-15 5-3 2-89 25-13 3-1 1-10 2h-4v2l-11 3-9 2-15 5-21 6h-3v-6l6-2 7.2-0.6 7.6-3.8 10.2-1.6 9-3 20.2-4.6 7.6-3.8 22.2-5.6 4-2 17.1-3.8 6.8-3.4 14.1-2.8 6-2h3v-2l23-5 21-7z" fill="#F3D7CC"/>
 <path transform="translate(945,679)" d="m0 0h5l-3 2-1 1 9-2h7l-2 2-23 7-36 9-23 7-17 4h-5l-1-1-2 4-0.5-4v-17l1.2-5.4 11.6 5.8 7.7 6.6 9-2 17-5 21-5 13-4z" fill="#F0B8A3"/>
 <path transform="translate(782,880)" d="m0 0 3 3-1 3h8v3h2v2h3v-2h-2v-3l5-4 4 1-3 1 3 3 3 2 5 1 4 1 15-4 6-2h5l-4 2-13 4-104 29-17 4-3-1 4-5 6-1-2 3 17-4 10-3h-3v-5l5-1 1-2v2h2l1 4 12-3h-7l1-3-1-3h2v2l5 1 4-2v2l5-2v2l11-3-7-1 1-7 4 2-1 2 6 1 3-1-1-5 8-1 2-3-7 2v-2h2v-2l-3-1-1-5z" fill="#734232"/>
 <path transform="translate(693,774)" d="m0 0 2 1v21l-1 1.5h-11v2.5l-7 2h-6l-1-2v-19l3-3 13-3z" fill="#F4DED4"/>
 <path transform="translate(683,903)" d="m0 0m-9 1h9v2l4 1 6 5 8-1 1 4-5-1 1 7-2 1-1 2h-5l1-4-1-1-4 5h2v2l-6-1v1.5h-12v-2.5h-2l-2-3v-6l-4-1-2-3h3l1-4z" fill="#744232"/>
 <path transform="translate(691,748)" d="m0 0m-9 1h9l8 1-2 2-28 8-24 5-15 5-18 4h-6l3-2h2v-2h-7l4-2 24-6 17-5 1-1 21-4z" fill="#E8BFB1"/>
 <path transform="translate(946,705)" d="m0 0h3v21l-6 3-11 3h-5l-1-1v-19l2-2 12-3h6z" fill="#FAE7DF"/>
 <path transform="translate(541,765)" d="m-0.3-0 9.3 6 9 8.5h11v1.5l23-5 9-1-2 2-50 13h-6l1-3-3 1-1 5h-0.5z" fill="#FBBFA4"/>
 <path transform="translate(621,919)" d="m0 0h8l-3 3-4 2 2 1-1 4 2 2 2 1v2l6 3-1-4-2-1 1.1-2.2 10.8 5.4 1.1 0.8 1-2 5 2 4 3-21 6-5-1-18-18v-2l-2-1z" fill="#744232"/>
 <path transform="translate(854,685)" d="m0 0 5 5 13 11 8-1 12-3h6v2l-37 10h-5l-1-1-2 4-0.5-4v-17z" fill="#EAA68E"/>
 <path transform="translate(378,603)" d="m-0.5-0h3.5l-1.5 5-0.7 168h-2.3v-139l-1.5 8-5 1-1-2 1-2h2l-1-7 1-3-1-3h2l1-4 2 2 1.5-1z" fill="#8D5740"/>
 <path transform="translate(901,917)" d="m0 0h4v5l-8 4-2 7-5 4-1-3-5-1-1 3h-10l2-2 6-1-1-2-9 1 2-2 13-4v-2l-9 1-4 1 3-3z" fill="#7B4838"/>
 <path transform="translate(958,595)" d="m0 0 4 1-1 1h5v2l-5 2v4l2 1v2l-5 2-1-1-2 3-7-2-7 1-2-1-1-5 6-3-4-2z" fill="#7E4D38"/>
 <path transform="translate(905,609)" d="m0 0 3 1-4 1v2l3 1-1 3h5v3l-4 3h-10l-3-1v3h-3l-1-2-7-2-1-2 5-2h3v-2l-4-1z" fill="#7D4C38"/>
 <path transform="translate(156,378)" d="m0 0 5.2 1.6 7.6 3.8 6.2 6.6-1 2-4-2-4-4v13l-1 8-2-4v-2l-5-1-3-9v-3l-1-3 1-3 2-2z" fill="#69392A"/>
 <path transform="translate(726,655)" d="m0 0 4 1 5 3 3 3 6 5v2l2 1h-2v2h-9l-2-1-1-6-5 1-3-3-5-1v-1.5h-13l4-1.5z" fill="#82503A"/>
 <path transform="translate(945,679)" d="m0 0h5l-3 2-1 1 9-2h7l-2 2-34 10h-9l3-3h-8l2-2 14-3 5-2z" fill="#E4A08A"/>
 <path transform="translate(962,984)" d="m0 0h3v2l4-1 2 1-2 4h-2l1 8h7v11h-4v2l-7-2 3-3v-2l-3 1h-3l-3-9 8 2v-2h-4l-3-4 5-1v-3l-4-1h3z" fill="#724031"/>
 <path transform="translate(973,846)" d="m0 0 3 1-9 3-99 29h-5l3-2 53-16 12-3v-6l2-1v-2h2l1 5 5 1v-2.5h10z" fill="#734132"/>
 <path transform="translate(418,621)" d="m0 0 1 2h-2l2 3 4 18 2 1-6-1-10-9-3-5-5-4v-3l8 4 4-1h2v-4z" fill="#6F3E2D"/>
 <path transform="translate(1017,580)" d="m0 0h7l-2 2 1 3-5 5-3 2v5l-7-1v-4h-3v-2h-5l1-2h2v-2h-5l4-2z" fill="#7E4D38"/>
 <path transform="translate(813,948)" d="m0 0 4 1-3 2-4.4 1.2-15.2 7.6-24.4 5.2-6 2-3-2 4-1 1-3 16-4 28-8z" fill="#7B4837"/>
 <path transform="translate(519,734)" d="m0 0v3l-1 7v54l14-4-1-1h-2v-2l3-1 1-2h3l1-2v3h2.5v-17l1.5-5h1v13l-2 14-17 5h-6.5l-0.3-61z" fill="#E09A86"/>
 <path transform="translate(984,658)" d="m0 0h3l-1 4h4l1-2 2 2 6 1-3 2-5 3-13 3.5h-12l3-1.5 4-1 1-6h6v-2h2v2h2l-2-4z" fill="#5D3327"/>
 <path transform="translate(553,775)" d="m0 0 6 4.5h11v1.5l23-5 9-1-2 2-41 11h-7l3.1-1.8 8.8-4.4-5.9 0.2-5-5z" fill="#ECAB92"/>
 <path transform="translate(999,665)" d="m0 0 3 1-12 4-5 1 8-1 7-2h2l-1 3-17 5-9 2h-6l3.1-1.8 6.8-3.3h-6.9l3-1.9z" fill="#E3A08A"/>
 <path transform="translate(691,750)" d="m0 0h8l-2 2-28 8-11 2h-5l2-2 16-5 9-2 5-2z" fill="#EEAA91"/>
 <path transform="translate(874,617)" d="m0 0h3v2l-6 2h-2l-1 2-11 3-2.5-1v58h-1.5v-60l9-3z" fill="#8E5841"/>
 <path transform="translate(732,972)" d="m0 0h4v2h-2v2l-13 4-13 2-2-1-4-1 21-6z" fill="#754332"/>
 <path transform="translate(415,438)" d="m0 0 4 2 25 23 13 13v6h-2l-1-6-7-7-4-3v-2l-4-2v-2l-4-2-4-3v-2l-4-2-12-12z" fill="#7D4D38"/>
 <path transform="translate(901,917)" d="m0 0h4l-1.2 3.6-9.6 4.8-8.2 1.6v-3l-9 1-4 1 3-3z" fill="#BD7F70"/>
 <path transform="translate(977,672)" d="m0 0h5l-3.1 1.8-6.8 3.4-3.1-0.2v2l-14 2-9 2-4-1 18-6z" fill="#FBE4D9"/>
 <path transform="translate(224,441)" d="m0 0 24 24 4 8-4-2-2-2v-3l-4-2-18-18z" fill="#804C38"/>
 <path transform="translate(644,763)" d="m0 0h5l-4 2-15 5-18 4h-6l3-2 9-3h7v-2l6-2z" fill="#F2AF94"/>
</svg>
