<?xml version="1.0" encoding="UTF-8"?>
<svg version="1.1" viewBox="0 0 1252 1252" xmlns="http://www.w3.org/2000/svg">
 <path transform="translate(211 -.263)" d="m0 0c1.82 0.00431 3.63-0.00321 5.45-0.00906 3.18-0.00869 6.37-0.0101 9.55-0.00657 4.77 0.00527 9.53-0.00107 14.3-0.00951 8.13-0.0141 16.3-0.0187 24.4-0.018 8.23 6.23e-4 16.5-0.00308 24.7-0.012 0.26-2.8e-4 0.26-2.8e-4 1.58-0.0017 2.12-0.00229 4.24-0.00461 6.36-0.00696 22.1-0.0245 44.2-0.0347 66.3-0.0395 2.38-5.24e-4 4.76-0.00105 7.13-0.00158 0.59-1.29e-4 1.18-2.58e-4 1.79-3.91e-4 13.1-0.00291 26.2-0.00907 39.3-0.0157 5.4-0.00272 10.8-0.00535 16.2-0.00799 0.596-2.91e-4 1.19-5.82e-4 1.81-8.82e-4 34.2-0.0166 68.3-0.0285 102-0.0309 1.28-9.46e-5 2.56-1.9e-4 3.83-2.85e-4 5.77-4.28e-4 11.5-8.33e-4 17.3-0.00124 2.57-1.82e-4 5.15-3.66e-4 7.72-5.52e-4 1.29-9.2e-5 2.58-1.82e-4 3.86-2.71e-4 40.7-0.00281 81.4-0.0245 122-0.0614 30.3-0.0275 60.7-0.0534 91-0.0599 0.612-1.33e-4 1.22-2.67e-4 1.85-4.04e-4 13.4-0.00287 26.9-0.00429 40.3-0.00436 4.81-3.97e-5 9.62-1.97e-4 14.4-4.15e-4 1.2-5.36e-5 2.39-1.02e-4 3.59-1.44e-4 19-7.41e-4 38-0.0164 57-0.0396 19.2-0.0233 38.3-0.0304 57.5-0.0158 2.66 0.00203 5.32 0.00388 7.97 0.00563 0.261 1.75e-4 0.261 1.75e-4 1.58 0.00106 8.19 0.00505 16.4-0.00652 24.6-0.0253 8.09-0.0182 16.2-0.018 24.3 5.62e-4 4.31 0.00945 8.63 0.0115 12.9-0.00997 42.3-0.201 84.5 7.31 152 51.6 0.477 0.423 0.954 0.847 1.45 1.28 3.57 3.18 7.08 6.43 10.6 9.72l1.32 1.24c7.13 6.7 13.2 14.1 19 21.9 0.652 0.867 1.31 1.73 1.97 2.59 7.26 9.54 13.2 19.7 18.7 30.3 0.182 0.347 0.364 0.694 0.551 1.05 10.2 19.4 16.3 40.2 19.9 61.8 0.341 2.01 0.697 4.02 1.06 6.03 1.41 8.03 1.77 15.8 1.74 24-0.00431 1.82 0.00321 3.63 0.00906 5.45 0.00869 3.18 0.0101 6.37 0.00657 9.55-0.00527 4.77 0.00107 9.53 0.00951 14.3 0.0141 8.13 0.0187 16.3 0.018 24.4-6.23e-4 8.23 0.00308 16.5 0.012 24.7 5.6e-4 0.521 0.00112 1.04 0.0017 1.58 0.00229 2.12 0.00461 4.24 0.00696 6.36 0.0245 22.1 0.0347 44.2 0.0395 66.3 5.24e-4 2.38 0.00105 4.76 0.00158 7.13 6.45e-5 0.295 6.45e-5 0.295 3.91e-4 1.79 0.00291 13.1 0.00907 26.2 0.0157 39.3 0.00272 5.4 0.00535 10.8 0.00799 16.2 2.91e-4 0.596 5.82e-4 1.19 8.82e-4 1.81 0.0166 34.2 0.0285 68.3 0.0309 102 9.46e-5 1.28 1.9e-4 2.56 2.85e-4 3.83 4.28e-4 5.77 8.33e-4 11.5 0.00124 17.3 1.82e-4 2.57 3.66e-4 5.15 5.52e-4 7.72 9.2e-5 1.29 1.82e-4 2.58 2.71e-4 3.86 0.00281 40.7 0.0245 81.4 0.0614 122 0.0275 30.3 0.0534 60.7 0.0599 91 1.33e-4 0.612 2.67e-4 1.22 4.04e-4 1.85 0.00287 13.4 0.00429 26.9 0.00436 40.3 3.97e-5 4.81 1.97e-4 9.62 4.15e-4 14.4 5.36e-5 1.2 1.02e-4 2.39 1.44e-4 3.59 7.41e-4 19 0.0164 38 0.0396 57 0.0233 19.2 0.0304 38.3 0.0158 57.5-0.00203 2.66-0.00388 5.32-0.00563 7.97-3.5e-4 0.521-7e-4 1.04-0.00106 1.58-0.00505 8.19 0.00652 16.4 0.0253 24.6 0.0182 8.09 0.018 16.2-5.62e-4 24.3-0.00945 4.31-0.0115 8.63 0.00997 12.9 0.212 44.8-8.64 87.7-43 141-0.588 0.765-1.17 1.53-1.75 2.3-5.48 7.25-11.6 13.9-17.9 20.5-0.426 0.449-0.851 0.898-1.29 1.36-31.1 32.5-73.6 52.7-118 60.1-2.01 0.341-4.02 0.697-6.03 1.06-8.03 1.41-15.8 1.77-24 1.74-1.82-0.00431-3.63 0.00321-5.45 0.00906-3.18 0.00869-6.37 0.0101-9.55 0.00657-4.77-0.00527-9.53 0.00107-14.3 0.00951-8.13 0.0141-16.3 0.0187-24.4 0.018-8.23-6.23e-4 -16.5 0.00308-24.7 0.012-0.521 5.6e-4 -1.04 0.00112-1.58 0.0017-2.12 0.00229-4.24 0.00461-6.36 0.00696-22.1 0.0245-44.2 0.0347-66.3 0.0395-2.38 5.24e-4 -4.76 0.00105-7.13 0.00158-0.59 1.29e-4 -1.18 2.58e-4 -1.79 3.91e-4 -13.1 0.00291-26.2 0.00907-39.3 0.0157-5.4 0.00272-10.8 0.00535-16.2 0.00799-0.596 2.91e-4 -1.19 5.82e-4 -1.81 8.82e-4 -34.2 0.0166-68.3 0.0285-102 0.0309-1.28 9.46e-5 -2.56 1.9e-4 -3.83 2.85e-4 -5.77 4.28e-4 -11.5 8.33e-4 -17.3 0.00124-2.57 1.82e-4 -5.15 3.66e-4 -7.72 5.52e-4 -1.29 9.2e-5 -2.58 1.82e-4 -3.86 2.71e-4 -40.7 0.00281-81.4 0.0245-122 0.0614-30.3 0.0275-60.7 0.0534-91 0.0599-0.306 6.67e-5 -0.306 6.67e-5 -1.85 4.04e-4 -13.4 0.00287-26.9 0.00429-40.3 0.00436-4.81 3.97e-5 -9.62 1.97e-4 -14.4 4.15e-4 -1.2 5.36e-5 -2.39 1.02e-4 -3.59 1.44e-4 -19 7.41e-4 -38 0.0164-57 0.0396-19.2 0.0233-38.3 0.0304-57.5 0.0158-2.66-0.00203-5.32-0.00388-7.97-0.00563-0.521-3.5e-4 -1.04-7e-4 -1.58-0.00106-8.19-0.00505-16.4 0.00652-24.6 0.0253-8.09 0.0182-16.2 0.018-24.3-5.62e-4 -4.31-0.00945-8.63-0.0115-12.9 0.00997-42.3 0.201-84.5-7.31-152-51.6-0.477-0.423-0.954-0.847-1.45-1.28-3.57-3.18-7.08-6.43-10.6-9.72-0.437-0.408-0.874-0.817-1.32-1.24-7.13-6.7-13.2-14.1-19-21.9-0.652-0.867-1.31-1.73-1.97-2.59-7.26-9.54-13.2-19.7-18.7-30.3-0.0909-0.173-0.0909-0.173-0.551-1.05-10.2-19.4-16.3-40.2-19.9-61.8-0.341-2.01-0.697-4.02-1.06-6.03-1.41-8.03-1.77-15.8-1.74-24 0.00431-1.82-0.00321-3.63-0.00906-5.45-0.00869-3.18-0.0101-6.37-0.00657-9.55 0.00527-4.77-0.00107-9.53-0.00951-14.3-0.0141-8.13-0.0187-16.3-0.018-24.4 6.23e-4 -8.23-0.00308-16.5-0.012-24.7-5.6e-4 -0.521-0.00112-1.04-0.0017-1.58-0.00229-2.12-0.00461-4.24-0.00696-6.36-0.0245-22.1-0.0347-44.2-0.0395-66.3-5.24e-4 -2.38-0.00105-4.76-0.00158-7.13-1.29e-4 -0.59-2.58e-4 -1.18-3.91e-4 -1.79-0.00291-13.1-0.00907-26.2-0.0157-39.3-0.00272-5.4-0.00535-10.8-0.00799-16.2-2.91e-4 -0.596-5.82e-4 -1.19-8.82e-4 -1.81-0.0166-34.2-0.0285-68.3-0.0309-102-9.46e-5 -1.28-1.9e-4 -2.56-2.85e-4 -3.83-4.28e-4 -5.77-8.33e-4 -11.5-0.00124-17.3-1.82e-4 -2.57-3.66e-4 -5.15-5.52e-4 -7.72-9.2e-5 -1.29-1.82e-4 -2.58-2.71e-4 -3.86-0.00281-40.7-0.0245-81.4-0.0614-122-0.0275-30.3-0.0534-60.7-0.0599-91-6.67e-5 -0.306-6.67e-5 -0.306-4.04e-4 -1.85-0.00287-13.4-0.00429-26.9-0.00436-40.3-3.97e-5 -4.81-1.97e-4 -9.62-4.15e-4 -14.4-5.36e-5 -1.2-1.02e-4 -2.39-1.44e-4 -3.59-7.41e-4 -19-0.0164-38-0.0396-57-0.0233-19.2-0.0304-38.3-0.0158-57.5 0.00203-2.66 0.00388-5.32 0.00563-7.97 1.75e-4 -0.261 1.75e-4 -0.261 0.00106-1.58 0.00505-8.19-0.00652-16.4-0.0253-24.6-0.0182-8.09-0.018-16.2 5.62e-4 -24.3 0.00945-4.31 0.0115-8.63-0.00997-12.9-0.212-44.8 8.64-87.7 43-141 0.588-0.765 1.17-1.53 1.75-2.3 5.48-7.25 11.6-13.9 17.9-20.5 0.426-0.449 0.851-0.898 1.29-1.36 31.1-32.5 73.6-52.7 118-60.1 2.01-0.341 4.02-0.697 6.03-1.06 8.03-1.41 15.8-1.77 24-1.74z" fill="#0A0A0B"/>
 <path transform="translate(127,395)" d="m0 0h107c1.76 11.2 3.44 21.9 4.12 33.1 0.109 1.71 0.22 3.41 0.337 5.12 0.0703 1.04 0.136 2.08 0.197 3.12 0.0303 0.459 0.0606 0.918 0.0918 1.39 0.0243 0.4 0.0485 0.8 0.0735 1.21 0.192 1.2 0.629 2.02 1.18 3.1 0.0841 1.32 0.117 2.59 0.0977 3.91-0.00141 0.375-0.00283 0.749-0.00429 1.13-0.00558 1.19-0.0181 2.38-0.0309 3.58-0.00502 0.81-0.00958 1.62-0.0137 2.43-0.011 1.98-0.0283 3.96-0.0488 5.95h2c0.971 3.33 1.23 6.49 1.39 9.94 0.0656 1.22 0.132 2.44 0.199 3.65 0.0346 0.645 0.0692 1.29 0.105 1.95 0.672 12.3 1.76 24.6 3.25 36.9 0.0219 0.18 0.0219 0.18 0.133 1.09 0.577 4.74 1.17 9.49 1.77 14.2 0.704 5.59 1.4 11.2 2.08 16.8 0.213 1.74 0.429 3.47 0.65 5.21 1.74 13.6 1.74 13.6 1.42 20.3h2c0.0154-0.19 0.0154-0.19 0.0935-1.15 0.582-5.31 2.19-10.1 3.94-15.1 3.29-9.45 6.28-19 9.09-28.6 0.661-2.26 1.32-4.52 1.98-6.79 0.159-0.544 0.319-1.09 0.483-1.65 1.75-5.95 3.61-11.9 5.51-17.8 0.225-0.702 0.45-1.4 0.675-2.11 0.105-0.328 0.21-0.657 0.319-0.995 1.04-3.28 1.99-6.58 2.91-9.9h2c0.0344-0.285 0.0688-0.57 0.104-0.864 0.834-6.54 2.23-12.7 4.33-18.9 0.103-0.305 0.103-0.305 0.622-1.85 0.995-2.87 2.07-5.64 3.35-8.39 2.57-5.88 3.95-12.2 5.59-18.4 3.97-14.9 3.97-14.9 6.37-20.9 0.915-2.33 1.63-4.71 2.32-7.12 0.433-1.49 0.866-2.97 1.31-4.5h19c2.24 4.48 2.24 4.48 2.46 7.04 0.029 0.286 0.029 0.286 0.176 1.73 0.0594 0.612 0.119 1.22 0.18 1.85 0.701 6.1 1.96 11.9 3.62 17.8 0.103 0.37 0.207 0.74 0.313 1.12 1.3 4.62 2.83 9.11 4.55 13.6 2.08 5.47 3.63 11.1 5.12 16.7 0.931 3.39 2.06 6.08 3.97 9.03 0.886 1.57 0.954 2.94 0.993 4.72 0.257 3.47 1.3 6.19 2.81 9.31 2.25 4.64 4.07 9.33 5.75 14.2 0.125 0.359 0.25 0.718 0.379 1.09 1.16 3.33 2.3 6.66 3.44 10 0.742 2.18 1.49 4.36 2.25 6.53 0.124 0.359 0.249 0.718 0.377 1.09 1.59 4.55 3.36 8.9 5.5 13.2 3.26 6.62 5.38 13.6 7.64 20.6 2.53 7.84 5.29 15.2 9.49 22.3 0.132-0.267 0.264-0.534 0.4-0.809 0.176-0.354 0.352-0.709 0.533-1.07 0.173-0.349 0.347-0.699 0.525-1.06 0.509-0.995 1.05-1.96 1.6-2.93 1.3-2.55 1.58-5.32 1.94-8.12h2c-0.0174-0.304-0.0174-0.304-0.105-1.84-0.283-7.35 0.897-14.2 2.35-21.4 1.15-5.73 2.16-11.5 3.19-17.2 0.106-0.593 0.213-1.19 0.323-1.8 1.8-10 3.45-20.1 4.98-30.1 0.0778-0.502 0.156-1 0.236-1.52 0.144-0.932 0.286-1.87 0.425-2.8 0.0641-0.411 0.128-0.822 0.194-1.25 0.0538-0.355 0.108-0.71 0.163-1.08 0.238-1 0.238-1 0.737-1.95 0.634-1.33 0.763-2.5 0.931-3.97 0.0357-0.294 0.0357-0.294 0.217-1.78 0.0755-0.637 0.151-1.27 0.229-1.93 0.681-5.47 1.52-10.9 2.56-16.3 0.0631-0.33 0.126-0.66 0.191-1 0.516-2.69 1.04-5.38 1.57-8.07 0.46-2.35 0.915-4.7 1.36-7.05 0.0314-0.163 0.0314-0.163 0.19-0.991 1.09-5.72 1.92-11.5 2.6-17.3 0.0715-0.588 0.143-1.18 0.217-1.78 0.0595-0.516 0.119-1.03 0.18-1.56 0.25-1.35 0.25-1.35 1.25-3.35h27v2c0.589-0.00524 1.18-0.0105 1.78-0.0159 2.23-0.0184 4.46-0.0297 6.69-0.0391 0.957-0.00496 1.91-0.0117 2.87-0.0205 6.3-0.0562 12.4 0.22 18.7 1.08-0.423 8.39-1.44 16.6-2.81 24.9-0.843 5.22-1.45 10.4-1.98 15.7-0.747 7.43-1.63 14.8-2.69 22.2-0.0644 0.453-0.129 0.907-0.195 1.37-0.527 3.7-1.06 7.4-1.6 11.1-0.469 3.24-0.934 6.47-1.39 9.71-0.0629 0.442-0.126 0.884-0.191 1.34-0.831 5.87-1.52 11.7-1.82 17.6-0.18 3.29-0.811 6.25-1.77 9.39-2.04 6.74-2.77 13.6-3.56 20.6h-2c0.00113 0.388 0.00226 0.776 0.00342 1.18-0.0737 11.2-1.78 21.9-4 32.9-0.139 0.688-0.278 1.38-0.417 2.06-0.395 1.95-0.8 3.9-1.21 5.85-0.123 0.594-0.246 1.19-0.373 1.8-0.117 0.543-0.234 1.09-0.354 1.65-0.101 0.476-0.203 0.953-0.307 1.44-0.341 1.14-0.341 1.14-1.34 2.14-0.234 1.11-0.234 1.11-0.395 2.53-0.0664 0.536-0.133 1.07-0.201 1.62-0.0358 0.295-0.0358 0.295-0.217 1.79-0.758 5.79-1.87 11.4-3.19 17.1-1.56 6.77-2.81 13.5-3.78 20.4-0.383 2.7-0.793 5.4-1.22 8.1-0.0355 0.245-0.0355 0.245-0.215 1.48-0.0367 0.231-0.0367 0.231-0.222 1.4-0.0606 0.399-0.121 0.798-0.184 1.21-0.34 1.21-0.75 2.1-1.34 3.21-1.17 2.26-1.74 4.52-2.3 6.99-0.106 0.451-0.212 0.902-0.321 1.37-0.334 1.43-0.661 2.86-0.988 4.29-0.223 0.96-0.446 1.92-0.67 2.88-0.495 2.12-0.985 4.25-1.47 6.37-0.416 1.75-0.857 3.5-1.3 5.25-5.55 0.0468-11.1 0.0821-16.6 0.104-2.58 0.0103-5.15 0.0243-7.73 0.0473-2.5 0.0221-4.99 0.0338-7.49 0.0389-0.943 0.00364-1.89 0.0107-2.83 0.0217-5.18 0.0578-10.2-0.198-15.3-1.04-0.231-0.0352-0.231-0.0352-1.4-0.214-2.11-0.391-3.63-0.726-5.1-2.35-1.07-1.59-1.79-3.13-2.49-4.91-0.52-1.14-1.04-2.28-1.56-3.43-0.24-0.558-0.479-1.12-0.726-1.69-0.836-1.85-1.83-3.52-2.9-5.24-1.7-2.79-3.21-5.7-4.75-8.58-0.176-0.33-0.353-0.661-0.535-1-2.91-5.46-5.56-11-7.91-16.7-1.44-3.5-2.98-6.77-4.92-10-1.78-3.06-3.22-6.26-4.69-9.48-0.13-0.284-0.13-0.284-0.786-1.72-0.255-0.558-0.51-1.12-0.772-1.69-4.4-9.64-4.4-9.64-7.35-14-2.22-3.33-3.76-6.52-4.91-10.4-0.124-0.412-0.248-0.825-0.375-1.25-0.709-2.57-0.928-4.83-0.812-7.5h-4c-0.0374 0.34-0.0748 0.681-0.113 1.03-0.771 5.69-2.42 11.6-6.2 16-1.08 1.47-1.6 3.14-2.22 4.84-0.575 1.34-1.45 2.07-2.47 3.09-0.46 1.33-0.723 2.62-1 4h-2c-0.0632 0.389-0.126 0.779-0.191 1.18-0.975 4.45-2.84 7.58-5.51 11.2-3.36 4.6-6.45 9.37-9.54 14.2-0.564 0.87-1.13 1.74-1.69 2.61-1.13 1.75-2.27 3.5-3.4 5.25-1.59 2.46-3.18 4.91-4.77 7.36-0.732 1.13-1.46 2.26-2.2 3.39-0.453 0.699-0.906 1.4-1.36 2.1-1.45 2.24-2.9 4.48-4.34 6.73-0.222 0.346-0.443 0.691-0.672 1.05-0.679 1.06-1.35 2.12-2.03 3.19-0.102 0.159-0.102 0.159-0.618 0.964-1.96 3.11-3.37 6.38-4.68 9.8h-2c-0.121 0.482-0.242 0.964-0.367 1.46l-0.508 1.91c-0.0812 0.313-0.0812 0.313-0.492 1.9-0.674 1.84-1.1 2.54-2.63 3.73-1.58 0.247-1.58 0.247-3.47 0.243-0.347 0.00188-0.695 0.00375-1.05 0.00568-1.15 0.00366-2.31-0.0071-3.46-0.0181-0.815-8.57e-4 -1.63-9.38e-4 -2.45-2.9e-4 -2.18-0.00115-4.35-0.0155-6.53-0.0329-1.34-0.00971-2.68-0.0156-4.03-0.02-13-0.0432-26-0.266-39-1.18-2.17-6.24-4.05-12.5-5.73-18.9-0.389-1.47-0.79-2.93-1.19-4.4-1.75-6.55-2.7-12.9-3.07-19.7h-2c-2.12-8-3.87-16-5.36-24.2-0.329-1.8-0.668-3.59-1.01-5.38-0.215-1.16-0.429-2.32-0.643-3.48-0.1-0.527-0.2-1.05-0.303-1.6-0.57-3.16-0.812-6.16-0.685-9.38h-2c-0.0402-0.211-0.0402-0.211-0.244-1.28-0.306-1.6-0.616-3.2-0.928-4.8-0.133-0.686-0.265-1.37-0.396-2.06-0.639-3.36-1.3-6.65-2.44-9.89-1.08-3.08-1.69-6.19-2.25-9.41-0.181-1.03-0.368-2.06-0.557-3.09-0.263-1.44-0.526-2.87-0.786-4.31-0.577-3.17-1.16-6.34-1.77-9.5-0.183-0.96-0.359-1.92-0.535-2.88-0.596-3.08-1.18-5.24-3.09-7.79-0.562-1.62-0.562-1.62-1-3.44-0.0827-0.343-0.165-0.686-0.25-1.04-0.69-2.99-1.16-6-1.62-9.02-1.09-6.98-2.85-13.8-4.63-20.6-0.573-2.22-1.13-4.44-1.68-6.66-0.612-2.46-1.23-4.91-1.85-7.36-0.636-2.53-1.27-5.06-1.91-7.59-0.133-0.529-0.266-1.06-0.403-1.6-1.66-6.6-3.31-13.2-4.72-19.9-0.479-2.18-1.04-4.19-1.92-6.25-1.28-3.06-1.87-6.23-2.52-9.47-0.776-3.79-1.55-7.55-2.69-11.2-0.737-2.4-1.01-4.37-0.812-6.88h-2c-0.0374-0.424-0.0748-0.848-0.113-1.29-0.369-3.3-0.827-5.81-2.32-8.78-1.85-3.99-2.25-8.04-2.79-12.4-0.621-4.86-1.6-9.55-2.81-14.3-0.125-0.502-0.25-1-0.379-1.52-0.113-0.435-0.226-0.869-0.342-1.32-0.244-1.43-0.244-1.43-0.244-5.43z" fill="#ABDFFB"/>
 <path transform="translate(848,420)" d="m0 0c29.9-0.209 59.7 0.0802 89.5 2.27 7.86 0.576 15.7 0.968 23.6 1.23 8.26 0.282 16.4 0.834 24.7 1.7 5.33 0.553 10.7 0.989 16 1.34 0.332 0.0221 0.665 0.0442 1.01 0.0669 3.65 0.242 7.29 0.473 10.9 0.697 1.21 0.0775 2.42 0.155 3.63 0.233 0.562 0.0322 1.12 0.0645 1.7 0.0977 0.514 0.0336 1.03 0.0672 1.56 0.102 0.45 0.0273 0.899 0.0546 1.36 0.0827 1.08 0.183 1.08 0.183 2.08 1.18 1.29 0.17 2.55 0.281 3.85 0.359 0.829 0.0603 1.66 0.122 2.49 0.184 0.222 0.0164 0.222 0.0164 1.34 0.0992 20.7 1.61 44.3 4.31 59.3 20.4 0.25 0.261 0.5 0.522 0.758 0.791 1.87 1.98 3.58 4.06 5.24 6.21 0.257 0.323 0.513 0.646 0.778 0.979 17 21.8 13.6 59.7 14.2 85.8 0.0171 0.802 0.0344 1.6 0.0521 2.41 0.927 42.3 0.927 42.3-3.74 59.7-0.293 1.12-0.563 2.24-0.826 3.37-2.59 11-6.6 20.6-16.5 26.8-12 7.14-25 11.8-38.4 15.5-1.61 0.47-3.18 1.01-4.75 1.59-5.77 2.11-11.7 3-17.8 3.86v2c-0.601 0.0856-1.2 0.171-1.82 0.26-2.22 0.318-4.45 0.642-6.67 0.967-0.963 0.14-1.93 0.279-2.89 0.416-1.38 0.197-2.77 0.4-4.15 0.603-0.432 0.0605-0.865 0.121-1.31 0.183-3.05 0.457-3.05 0.457-4.16 1.57-1.37 0.0725-2.69 0.0933-4.06 0.0625-0.377-0.00451-0.754-0.00902-1.14-0.0137-0.932-0.0118-1.86-0.0297-2.79-0.0488v2c-3.57 0.618-7.15 1.24-10.7 1.85-1.66 0.287-3.32 0.574-4.98 0.861-1.93 0.333-3.85 0.666-5.78 0.998-0.318 0.0549-0.318 0.0549-1.93 0.333-3.52 0.607-7.05 1.2-10.6 1.77-4.64 0.756-9.2 1.6-13.8 2.75-4.28 1.04-8.47 1.84-12.9 2.23-1.39 0.211-1.39 0.211-2.39 1.21-1.09 0.25-1.09 0.25-2.44 0.43-0.251 0.0367-0.251 0.0367-1.52 0.223-1.04 0.145-2.08 0.285-3.12 0.422-2.68 0.399-5.06 0.935-7.56 2-6.41 2.72-13.2 2.96-20.1 3.58-6.21 0.577-11.9 1.15-17.6 3.67-4.42 1.83-9.15 1.72-13.8 1.69-0.461-0.00141-0.921-0.00282-1.4-0.00427-1.13-0.00365-2.25-0.00877-3.38-0.0153-2.7-25.7-5.35-51.4-6.73-77.2-0.21-3.86-0.46-7.71-0.757-11.6-0.0364-0.512-0.0729-1.02-0.11-1.55-0.038-0.467-0.076-0.935-0.115-1.42-0.0319-0.411-0.0638-0.822-0.0966-1.24-0.193-0.999-0.193-0.999-1.19-2-0.169-1.09-0.169-1.09-0.234-2.48-0.0272-0.527-0.0544-1.05-0.0825-1.6-0.0129-0.292-0.0129-0.292-0.0784-1.77-0.0667-1.28-0.134-2.56-0.201-3.85-0.0353-0.697-0.0706-1.39-0.106-2.09-0.7-13.7-1.81-27.4-3.16-41.1-0.4-4.04-0.795-8.08-1.19-12.1-0.0422-0.434-0.0844-0.868-0.128-1.32-1.04-10.8-1.83-21.5-2.48-32.3-0.209-3.45-0.435-6.89-0.678-10.3-1.53-21.7-1.91-43.3-1.65-65z" fill="#AADFFB"/>
 <path transform="translate(773 405)" d="m0 0c0.446 0.102 0.892 0.204 1.35 0.309 0.338 0.0838 0.675 0.168 1.02 0.254 7.94 43.2 7.94 43.2 8.71 59 0.0261 0.519 0.0522 1.04 0.0791 1.57 0.0176 0.448 0.0351 0.895 0.0532 1.36 0.158 1.07 0.158 1.07 1.16 2.07 0.206 1.2 0.353 2.36 0.465 3.57 0.0376 0.368 0.0751 0.735 0.114 1.11 0.0811 0.799 0.16 1.6 0.237 2.4 0.122 1.27 0.25 2.53 0.379 3.8 0.273 2.69 0.539 5.37 0.805 8.06 0.308 3.11 0.618 6.22 0.935 9.33 0.126 1.25 0.247 2.49 0.367 3.74 0.0773 0.765 0.155 1.53 0.233 2.3 0.0322 0.347 0.0645 0.693 0.0977 1.05 0.137 1.31 0.259 2.44 0.864 3.62 0.903 1.84 0.888 3.85 1.05 5.88 0.0419 0.52 0.0838 1.04 0.127 1.58 0.617 8.65 0.533 17.3 0.564 26 0.00407 0.986 0.00818 1.97 0.0124 2.96 0.019 4.65 0.0332 9.31 0.0416 14 0.00872 4.75 0.0278 9.49 0.0644 14.2 0.308 40.8 0.308 40.8-2.25 59.5-0.0433 0.318-0.0433 0.318-0.262 1.93-0.248 1.76-0.511 3.52-0.784 5.28-0.0762 0.496-0.152 0.991-0.231 1.5-1.59 9.42-1.59 9.42-4.52 11.8-0.663 0.441-1.34 0.866-2.02 1.27-0.364 0.236-0.728 0.472-1.1 0.715-1.18 0.759-2.37 1.49-3.56 2.23-0.825 0.527-1.65 1.06-2.47 1.59-1.63 1.05-3.27 2.09-4.91 3.12-2.86 1.8-5.68 3.66-8.49 5.54l-1.42 0.937c-2.6 1.73-5.16 3.52-7.69 5.37-7.49 5.47-15.1 10.3-23.2 14.8-1.4 0.803-1.4 0.803-3.01 1.89-1.98 1.29-3.09 1.07-5.39 0.913v2c-8.1 2.72-15.5 3.43-24 3.39-1.26 0.00408-2.53 0.00942-3.79 0.0159-3.05 0.0121-6.09 0.0105-9.14 0.00176-2.48-0.00683-4.96-0.00767-7.43-0.00443-0.178 2.3e-4 -0.178 2.3e-4 -1.08 0.00139-0.722 9.59e-4 -1.44 0.00193-2.17 0.00292-6.73 0.00851-13.5-0.00121-20.2-0.0174-5.77-0.0134-11.5-0.011-17.3 0.00276-6.72 0.0161-13.4 0.0224-20.2 0.0132-0.717-9.56e-4 -1.43-0.0019-2.15-0.00283-0.353-4.63e-4 -0.705-9.26e-4 -1.07-0.0014-2.48-0.00258-4.95 0.00176-7.43 0.00884-3.33 0.00932-6.66 0.00264-9.99-0.0147-1.22-0.00396-2.44-0.00284-3.66 0.00379-1.67 0.00823-3.34-0.00212-5-0.017-0.48 0.00669-0.96 0.0134-1.45 0.0203-3.89-0.0673-6.99-1.46-9.79-4.2-0.205-0.231-0.411-0.462-0.622-0.699-1.27-1.38-2.56-2.03-4.25-2.81-3.52-1.72-6.65-3.89-9.81-6.19-0.297-0.214-0.594-0.428-0.9-0.648-6.23-4.48-12.3-9.21-18.3-14-1.94-1.54-3.9-3.06-5.88-4.55-1.07-0.819-2.11-1.66-3.16-2.5-1.57-1.26-3.17-2.41-4.83-3.53-4.69-3.4-7.87-6.6-8.88-12.5-0.374-3.31-0.558-6.61-0.668-9.94-0.0476-1.28-0.114-2.55-0.185-3.83-2.4-42.9-1.65-86.4 1.6-157 0.136-1.58 0.266-3.16 0.397-4.74 0.728-8.8 1.49-17.6 2.39-26.4 0.0383-0.386 0.0767-0.771 0.116-1.17 0.104-1.03 0.215-2.07 0.329-3.1 0.0595-0.549 0.119-1.1 0.18-1.66 0.25-1.25 0.25-1.25 1.25-2.25 0.189-1.47 0.189-1.47 0.281-3.34 0.0184-0.329 0.0368-0.658 0.0558-0.997 0.0588-1.05 0.112-2.11 0.163-3.16 0.0676-1.39 0.141-2.77 0.219-4.16 0.0303-0.617 0.0606-1.23 0.0918-1.87 0.189-1.47 0.189-1.47 1.19-2.47 2.38-0.376 4.8-0.434 7.21-0.559 0.385-0.0211 0.77-0.0421 1.17-0.0638 12.4-0.659 24.9-0.489 37.3-0.446 3.32 0.0104 6.64 0.0148 9.96 0.0198 6.46 0.0106 12.9 0.0273 19.4 0.0488-0.654 10.1-1.6 20.2-2.7 30.3-1.4 13-2.38 26-2.86 39.1-0.0208 0.561-0.0417 1.12-0.0632 1.7-0.54 15-0.558 29.9-0.374 44.9 0.00624 0.584 0.0125 1.17 0.0189 1.77 0.135 12.1 0.792 23.9 2.73 35.8 0.0726 0.475 0.145 0.949 0.22 1.44 1.08 6.85 2.99 13.4 8.37 18.2 2.27 1.12 4.3 1.26 6.8 1.41 0.26 0.0185 0.26 0.0185 1.57 0.112 7.33 0.484 14.7 0.62 22 0.794 2.89 0.0691 5.78 0.141 8.67 0.219 0.357 0.00947 0.713 0.0189 1.08 0.0287 5.27 0.144 10.5 0.414 15.8 0.768 6.3 0.423 12.6 0.7 18.9 0.725 1.02 0.00664 2.04 0.0206 3.06 0.041 10.3 0.206 10.3 0.206 14-2.44 0.84-0.892 1.31-1.72 1.79-2.84h2c4.02-17.1 4.02-17.1 5.19-25.4 0.0357-0.252 0.0357-0.252 0.216-1.53 0.221-1.68 0.41-3.35 0.596-5.03 0.0408-0.358 0.0816-0.717 0.124-1.09 0.896-8.05 1.01-16 0.99-24.1-8.44e-4 -1.39-1.66e-4 -2.78 4.43e-4 -4.17 5.19e-4 -2.97-0.00257-5.94-0.00824-8.91-0.00819-4.29-0.0107-8.59-0.012-12.9-0.00218-6.97-0.0088-13.9-0.0183-20.9-0.00921-6.76-0.0163-13.5-0.0205-20.3-2.63e-4 -0.418-5.25e-4 -0.837-7.96e-4 -1.27-0.00131-2.1-0.00257-4.2-0.00381-6.3-0.0103-17.4-0.0279-34.7-0.0503-52.1 0.287 0.00111 0.287 0.00111 1.74 0.00673 5.47 0.0205 10.9 0.0353 16.4 0.0451 2.81 0.00517 5.62 0.0122 8.43 0.0236 2.72 0.011 5.45 0.0169 8.17 0.0194 1.03 0.00182 2.06 0.00537 3.09 0.0109 5.61 0.0287 11.2-0.108 16.8-0.549 0.511-0.0389 1.02-0.0777 1.55-0.118 0.475-0.0415 0.949-0.0829 1.44-0.126 0.418-0.036 0.836-0.0721 1.27-0.109 5.14-0.916 5.14-0.916 5.77-0.766z" fill="#AAE2FB"/>
 <path transform="translate(281,723)" d="m0 0h63c4.64 9.29 4.64 9.29 5 15h2c2.23 5.11 4.17 9.79 4.73 15.4 0.405 2.47 1.41 4.57 2.45 6.83 1.99 4.37 3.64 8.81 4.7 13.5 0.822 3.64 2.13 7.03 3.5 10.5 1.83 4.62 3.48 9.25 4.94 14 0.171 0.553 0.343 1.11 0.519 1.67 1.17 3.87 1.17 3.87 1.17 6.14h2c-0.0125-0.294-0.0251-0.589-0.038-0.892-0.169-4.04-0.321-8.07-0.462-12.1-0.0119-0.339-0.0238-0.678-0.036-1.03-0.507-14.7-0.55-29.3-0.527-44 8.56e-4 -0.547 0.00171-1.09 0.00259-1.66 0.0114-6.78 0.0315-13.6 0.0599-20.3 11.8-0.134 11.8-0.134 16.9 0.656 0.421 0.059 0.843 0.118 1.28 0.179 1.51 0.213 3.02 0.44 4.52 0.665 1.84 0.269 3.68 0.536 5.52 0.803 0.914 0.133 1.83 0.266 2.74 0.399 0.395 0.0575 0.79 0.115 1.2 0.174 0.282 0.041 0.564 0.082 0.855 0.124 0.817 27.3 1.14 54.5 1.07 81.8-0.0138 5.76-0.0188 11.5-0.0245 17.3-0.00915 8.97-0.0291 17.9-0.0475 26.9-13.5 0.33-27.1 0.66-41 1-6.65-13.3-6.65-13.3-8.65-19-1.04-2.91-2.24-5.76-3.4-8.62-0.301-0.742-0.599-1.48-0.896-2.23-3.02-7.57-3.02-7.57-5.52-10.3-0.533-0.78-0.533-0.78-0.533-2.78h-2c-0.0699-0.291-0.14-0.583-0.212-0.883-1.31-5.36-2.69-10.4-5.31-15.3-1.18-2.19-2.1-4.37-2.92-6.72-1.11-3.13-2.48-6.05-4-9-1.79-3.48-3.41-6.99-4.88-10.6-0.171-0.421-0.343-0.843-0.519-1.28-0.0774-0.197-0.0774-0.197-0.469-1.19-0.136-0.345-0.272-0.69-0.411-1.04-0.288-0.986-0.288-0.986-0.288-2.99h-2c0.00524 0.594 0.0105 1.19 0.0159 1.8 0.0184 2.24 0.0297 4.49 0.0391 6.73 0.00497 0.964 0.0118 1.93 0.0205 2.89 0.0465 5.26-0.0738 10.3-0.824 15.5-0.32 2.38-0.429 4.77-0.533 7.17-0.019 0.435-0.038 0.871-0.0576 1.32-0.0754 1.79-0.146 3.59-0.213 5.38-0.0515 1.33-0.109 2.66-0.167 3.99-0.0136 0.407-0.0272 0.814-0.0411 1.23-0.127 2.84-0.127 2.84-1.24 3.96-0.158 1.52-0.158 1.52-0.205 3.51-0.0099 0.361-0.0198 0.722-0.03 1.09-0.0316 1.2-0.0564 2.39-0.0811 3.59-0.0206 0.828-0.0416 1.66-0.063 2.48-0.0552 2.18-0.105 4.36-0.153 6.54-0.0502 2.23-0.106 4.45-0.161 6.68-0.108 4.37-0.209 8.74-0.307 13.1-4.81 0.0231-9.61 0.0409-14.4 0.0518-2.23 0.00523-4.46 0.0123-6.7 0.0236-2.15 0.0108-4.31 0.0168-6.46 0.0194-0.823 0.00185-1.65 0.00547-2.47 0.0109-1.15 0.00723-2.3 0.00826-3.45 0.0078-0.328 0.00111-0.328 0.00111-1.99 0.00673-1.52-0.12-1.52-0.12-2.52-1.12-0.136-1.3-0.136-1.3-0.151-2.98-0.00834-0.636-0.0167-1.27-0.0253-1.93-0.00431-0.711-0.00854-1.42-0.0127-2.13-0.00796-0.747-0.0164-1.49-0.0252-2.24-0.0182-1.62-0.0332-3.24-0.0458-4.86-0.0203-2.6-0.0475-5.2-0.0756-7.8-0.0394-3.7-0.0757-7.41-0.11-11.1-0.0836-9.06-0.184-18.1-0.285-27.2-0.0157-1.42-0.0312-2.83-0.0467-4.25-0.229-20.9-0.68-41.7-1.22-62.5z" fill="#BBE4F9"/>
 <path transform="translate(812 728)" d="m0 0c1.24-0.00889 2.47-0.0256 3.71-0.0447 9.03-0.128 17.7 0.415 26.6 2.15 0.392 0.0708 0.785 0.142 1.19 0.215 8.16 1.52 13.3 5.87 18.8 11.9 0.8 1.17 0.8 1.17 0.8 3.17h2c0.632 1.04 1.26 2.08 1.88 3.12 0.174 0.284 0.348 0.567 0.527 0.859 4.13 7.03 5.53 16.1 3.6 24-3.05 8.84-9.78 15.9-18 20-0.736 0.409-1.47 0.82-2.2 1.23-0.702 0.383-1.4 0.763-2.11 1.14-0.313 0.168-0.627 0.337-0.949 0.51-2.38 1.17-4.15 1.26-6.74 1.11 0.913 1.86 1.83 3.71 2.75 5.56 0.253 0.514 0.505 1.03 0.766 1.56 1.7 3.43 3.53 6.76 5.44 10.1 1.61 2.78 3.17 5.59 4.7 8.41 0.35 0.641 0.704 1.28 1.06 1.92 2.28 4.07 3.89 7.75 4.27 12.5h2c0.141 0.389 0.282 0.777 0.427 1.18 0.642 1.76 1.29 3.51 1.95 5.26 0.222 0.612 0.443 1.22 0.672 1.85 0.219 0.583 0.438 1.17 0.664 1.77 0.199 0.539 0.398 1.08 0.603 1.63 0.747 1.42 1.19 1.79 2.69 2.31v4h-48c-1.32-7.26-2.64-14.5-4-22-0.66-1.65-1.32-3.3-2-5-0.316-1.47-0.58-2.87-0.781-4.36-0.121-0.795-0.242-1.59-0.363-2.38-0.18-1.23-0.358-2.46-0.533-3.69-0.174-1.2-0.357-2.41-0.542-3.61-0.0245-0.184-0.0245-0.184-0.149-1.11-0.236-1.52-0.569-2.74-1.35-4.06-2.05-1.25-4.14-1.14-6.5-1.19-0.45-0.0176-0.9-0.0353-1.36-0.0535-1.68-0.063-3.36-0.109-5.03-0.157-3.75-0.124-7.51-0.247-11.4-0.375v39h-36c0.144-4.89 0.289-9.78 0.438-14.8 0.451-15.7 0.772-31.5 1.06-47.2 0.326-17.7 0.738-35.3 1.5-53 19.3-1.87 38.5-3.33 57.9-3.43z" fill="#BCE4F9"/>
 <path transform="translate(951,447)" d="m0 0c3.07 0.554 4.38 1.01 6.25 3.62 2.74 3.55 5.96 6.31 9.37 9.2 2.64 2.25 5.26 4.53 7.88 6.81 0.996 0.864 1.99 1.73 2.99 2.59 5.42 4.68 5.42 4.68 7.97 6.96 0.34 0.302 0.679 0.604 1.03 0.915 0.615 0.547 1.23 1.09 1.84 1.64 1.58 1.39 3.2 2.67 4.92 3.9 0.375 0.27 0.75 0.54 1.14 0.819 0.718 0.509 1.44 1.01 2.17 1.5 0.319 0.224 0.638 0.449 0.967 0.68 0.284 0.191 0.568 0.382 0.861 0.579 0.607 0.78 0.607 0.78 0.607 3.78-4.95 0.33-9.9 0.66-15 1v3c0.534 0.215 1.07 0.431 1.62 0.652 2.98 1.5 5.27 3.84 7.67 6.11 1.14 1.09 2.3 2.16 3.45 3.24 0.584 0.546 1.17 1.09 1.75 1.64 2.6 2.44 5.24 4.84 7.89 7.23 0.401 0.362 0.802 0.723 1.21 1.1 1.83 1.65 3.68 3.27 5.58 4.85 0.332 0.277 0.664 0.553 1.01 0.838 0.61 0.504 1.22 1 1.84 1.5 0.799 0.659 0.799 0.659 1.98 1.85v2h-19c8.43 11.5 16.9 22 27 32 0.528 0.527 1.06 1.05 1.58 1.58 0.406 0.406 0.812 0.812 1.23 1.23 0.729 0.729 1.46 1.46 2.19 2.19-0.165 0.495-0.165 0.495-1 3-4.33 0.876-8.46 1.13-12.9 1.06-0.593-0.00451-1.19-0.00902-1.8-0.0137-1.44-0.0116-2.89-0.028-4.33-0.0488v3c0.562 0.233 1.12 0.467 1.7 0.707 2.87 1.44 4.86 3.68 7.05 5.98 3.9 4 7.91 7.73 12.2 11.4 2.23 1.93 4.41 3.91 6.6 5.89 0.446 0.402 0.892 0.805 1.35 1.22 1.05 0.947 2.1 1.9 3.15 2.84-1.86 2.17-2.98 3.31-5.95 3.62-0.365 0.0222-0.73 0.0445-1.11 0.0674-0.195 0.0166-0.195 0.0166-1.18 0.101-4.6 0.353-9.21 0.325-13.8 0.278-0.874-0.00504-1.75-0.00959-2.62-0.0137-2.1-0.0108-4.21-0.028-6.31-0.0488v6c-7.78-0.047-14.2-3.58-21-7v-2h-3v42h-21c-0.0803-13.4-0.0258-26.6 1-40-4.93 2.25-9.19 5.13-13.5 8.32-0.837 0.612-1.68 1.21-2.53 1.82-0.491 0.358-0.981 0.716-1.49 1.08-1.44 0.779-1.44 0.779-4.44 0.779v-6c-2.97 0.33-5.94 0.66-9 1v2c-4.65 0.972-9.14 1.12-13.9 1.06-0.695-0.00503-1.39-0.00959-2.09-0.0137-1.68-0.0117-3.36-0.028-5.04-0.0488-0.269-2.02-0.39-3.33 0.653-5.12 0.953-1.23 1.95-2.4 2.97-3.56 2.63-3.13 5.07-6.23 7.25-9.69 3.8-5.97 8.53-11.3 13.1-16.6-0.261 0.0384-0.261 0.0384-1.58 0.233-5.17 0.745-10.2 0.876-15.4 0.767 0.534-3.61 1.53-6.51 3.31-9.69 0.249-0.454 0.499-0.908 0.755-1.38 1.82-3.21 3.8-6.28 5.86-9.34 0.261-0.387 0.522-0.775 0.791-1.17 1.31-1.94 2.63-3.87 3.97-5.79 3.44-4.99 6.05-10 8.32-15.6-0.318 0.151-0.635 0.303-0.962 0.459-1.45 0.686-2.9 1.36-4.35 2.04-0.25 0.119-0.25 0.119-1.51 0.723-0.487 0.226-0.973 0.451-1.47 0.684l-1.35 0.635c-1.52 0.517-2.75 0.541-4.35 0.459v2h-5c1.87-8.32 6.9-16.3 13.1-22.1 1.44-1.58 1.73-3.57 2.29-5.59 0.562-1.34 0.562-1.34 1.53-1.78 1.36-0.739 1.56-1.41 2.1-2.84 0.174-0.448 0.348-0.896 0.527-1.36 0.087-0.234 0.087-0.234 0.527-1.42 0.182-0.472 0.364-0.945 0.551-1.43 0.448-1.17 0.889-2.33 1.32-3.51-0.348 0.151-0.696 0.303-1.05 0.459-1.58 0.686-3.17 1.36-4.76 2.04-0.547 0.238-1.09 0.477-1.66 0.723l-1.61 0.684c-0.487 0.209-0.974 0.419-1.48 0.635-1.56 0.496-2.82 0.543-4.44 0.459 0.45-5.51 1.55-10.1 3.75-15.2 0.27-0.65 0.539-1.3 0.808-1.95 0.675-1.63 1.36-3.25 2.05-4.88 1.83-4.29 3.64-8.6 5.39-12.9 0.156-0.383 0.312-0.766 0.473-1.16 2.8-7.03 3.64-14.4 4.53-21.8z" fill="#0D0D0E"/>
 <path transform="translate(951 719)" d="m0 0c0.516-0.00167 1.03-0.00334 1.56-0.00507 11.6-0.00221 22.8 1.36 34.2 3.07 1.54 0.228 3.07 0.443 4.61 0.656 1.53 0.213 3.06 0.433 4.59 0.656 0.26 0.0376 0.26 0.0376 1.57 0.228 0.229 0.0359 0.229 0.0359 1.39 0.217 0.387 0.0595 0.773 0.119 1.17 0.18 0.926 0.25 0.926 0.25 1.93 1.25 0.0938 1.22 0.126 2.38 0.114 3.6 1.46e-4 0.371 2.92e-4 0.742 4.43e-4 1.12-6.98e-4 1.23-0.00848 2.46-0.0163 3.68-0.00186 0.851-0.00329 1.7-0.00429 2.55-0.00382 2.24-0.0136 4.48-0.0247 6.72-0.0102 2.29-0.0148 4.57-0.0198 6.86-0.0107 4.49-0.0278 8.97-0.0488 13.5-0.386 0.00939-0.772 0.0188-1.17 0.0284-9.42 0.229-18.8 0.463-28.2 0.702-4.55 0.115-9.11 0.229-13.7 0.34-3.97 0.0961-7.94 0.195-11.9 0.298-2.1 0.0542-4.2 0.107-6.3 0.156-1.98 0.0464-3.96 0.0968-5.94 0.15-0.723 0.0188-1.45 0.0362-2.17 0.052-4.28 0.0944-8.39 0.434-12.6 1.27-0.0277 1.98-0.0468 3.96-0.0625 5.94-0.00838 0.564-0.0168 1.13-0.0254 1.71-0.00322 0.538-0.00645 1.08-0.00977 1.63-0.00524 0.497-0.0105 0.995-0.0159 1.51 0.114 1.22 0.114 1.22 1.11 2.22 1.88 0.495 3.82 0.74 5.74 1.03 0.291 0.0443 0.291 0.0443 1.76 0.268 5.64 0.805 11.2 1.05 16.9 1.16 47.3 1.04 47.3 1.04 62.6 16.6 1.23 1.48 2.2 2.95 3.16 4.62 0.832 1.35 0.832 1.35 1.82 1.71 1.31 0.822 1.5 1.68 1.87 3.14 0.0763 0.341 0.153 0.681 0.231 1.03 0.0831 0.356 0.166 0.711 0.252 1.08 0.859 3.92 1.18 7.82 1.22 11.8 0.00198 0.185 0.00198 0.185 0.012 1.12-1.48e-4 5.48-0.794 9.57-4.59 13.7-0.961 0.949-1.95 1.83-2.98 2.7-0.299 0.262-0.598 0.524-0.906 0.794-6.15 5.26-13.5 7.73-21.4 8.88-0.213 0.0316-0.213 0.0316-1.29 0.191-16.1 2.28-32.7 1.47-49 1.35-5.64-0.0406-11.3-0.0562-16.9-0.0735-8.83-0.0278-17.7-0.0877-26.5-0.143-0.165-5.77-0.165-5.77-1-35h28v2c6.17-0.0846 12.3-0.18 18.5-0.288 2.87-0.0498 5.73-0.0962 8.6-0.134 2.77-0.037 5.54-0.0834 8.31-0.136 1.05-0.0185 2.11-0.0336 3.16-0.0453 1.48-0.017 2.96-0.0461 4.44-0.0778 0.431-0.00216 0.862-0.00432 1.31-0.00655 3.51-0.0954 5.11-0.888 8.67-2.31v-12c-0.443 0.00471-0.443 0.00471-2.68 0.0286-9.07 0.066-18.1-0.192-27.2-0.718-1.44-0.0834-2.89-0.16-4.33-0.229-7.75-0.376-15.4-0.989-23-2.49-0.594-0.116-1.19-0.232-1.8-0.351-7.16-1.52-15.9-4.3-20.1-10.7-5.76-10.4-7.07-26.9-4.33-38.5 0.936-3.21 1.96-5.62 4.39-7.99 0.352-1.04 0.352-1.04 0.625-2.19 2.21-5.84 9.11-10.1 14.5-12.7 2.94-1.29 5.69-1.51 8.88-1.07v-2c2.01-0.412 4.02-0.82 6.02-1.23 0.68-0.138 1.36-0.277 2.04-0.416 8.34-1.71 16.4-2.59 24.9-2.61z" fill="#BBE5FA"/>
 <path transform="translate(249,724)" d="m0 0c0.0198 0.194 0.0198 0.194 0.12 1.18 0.166 1.6 0.335 3.2 0.506 4.79 0.0835 0.781 0.166 1.56 0.247 2.34 0.564 5.38 1.27 10.7 2.15 16.1 2.4 14.9 3.41 29.6 3.47 44.7 0.00726 1.4 0.0218 2.8 0.0382 4.2 0.263 25.6 0.263 25.6-5.3 32.7-0.71 0.709-1.47 1.37-2.23 2.02-0.674 0.938-1.32 1.9-1.94 2.88-3.06 4.84-6.2 8.62-11.1 11.6-0.414 0.269-0.829 0.539-1.26 0.816-1.23 0.77-2.48 1.47-3.76 2.16-0.642 0.363-1.27 0.749-1.89 1.15-9.12 5.91-19.4 5.14-29.9 5.02-2.59-0.0282-5.17-0.0118-7.76 0.0172-10.3 0.0972-20-0.316-30-2.97-0.388-0.102-0.776-0.204-1.18-0.31-6.68-1.81-11.8-4.72-17-9.38-1.55-1.32-3.21-2.39-4.93-3.46-3.81-3.05-5.67-5.62-6.3-10.5-0.0613-0.641-0.123-1.28-0.186-1.94-0.0761-0.699-0.152-1.4-0.228-2.1-0.925-9.1-0.849-18.3-0.799-27.4 0.00743-1.48 0.0111-2.96 0.0137-4.45 0.026-12 0.213-23.9 1.18-35.9 0.0434-0.539 0.0868-1.08 0.131-1.63 0.123-1.47 0.256-2.94 0.396-4.41 0.0386-0.421 0.0772-0.841 0.117-1.27 0.298-2.81 0.298-2.81 1.42-3.93 0.189-1.28 0.189-1.28 0.281-2.87 0.0187-0.287 0.0187-0.287 0.113-1.74 0.0348-0.603 0.0696-1.21 0.105-1.83 0.069-1.19 0.142-2.37 0.219-3.56 0.0303-0.528 0.0606-1.06 0.0918-1.6 0.189-1.4 0.189-1.4 1.19-3.4h34c-1.23 11-1.23 11-1.35 12.1-0.0838 0.757-0.167 1.51-0.249 2.27-0.209 1.91-0.427 3.82-0.685 5.72-0.914 6.96-0.961 13.9-0.969 21-0.00134 0.64-0.00268 1.28-0.00406 1.94 0.00344 7.58 0.106 15 1.57 22.5 0.118 0.609 0.235 1.22 0.356 1.84 0.796 3.52 1.82 6.97 4.33 9.66 1.92 0.756 3.75 0.764 5.79 0.777 0.569 0.0233 1.14 0.0466 1.73 0.0705 1.21 0.047 2.42 0.0834 3.63 0.11 1.82 0.0415 3.63 0.115 5.44 0.199 3.57 0.163 7.15 0.287 10.7 0.406 1.24 0.0434 2.48 0.087 3.72 0.131 2.99 0.105 5.98 0.207 8.96 0.307 0.33-0.66 0.33-0.66 2-4h2c0.855-11.5 1.1-23.1 1.1-34.6-3.22e-5 -0.172-3.22e-5 -0.172-1.95e-4 -1.04-0.00164-4.25-0.012-8.5-0.0254-12.7-0.0114-3.67-0.0167-7.34-0.0217-11-0.0103-7.52-0.0278-15-0.0503-22.6 3.91-0.169 7.83-0.329 11.7-0.482 1.33-0.0526 2.66-0.109 3.99-0.166 1.92-0.0823 3.83-0.157 5.75-0.231 0.592-0.027 1.18-0.0541 1.79-0.0819 3.13-0.112 5.74 0.0089 8.72 0.961z" fill="#BEE5FA"/>
 <path transform="translate(1033,728)" d="m0 0h94v23c-43 3.23-43 3.23-64 3v12c1.08-0.0606 2.17-0.121 3.29-0.184 3.61-0.201 7.22-0.401 10.8-0.599 2.18-0.12 4.37-0.241 6.55-0.363 2.11-0.118 4.23-0.235 6.34-0.35 0.801-0.044 1.6-0.0886 2.4-0.134 1.13-0.0641 2.27-0.126 3.4-0.187 0.642-0.0355 1.28-0.0711 1.94-0.108 3.08-0.104 6.16-0.0759 9.25-0.0759v33c-2.47 0.33-2.47 0.33-15 2-0.33 0.33-0.66 0.66-1 1-1.1 0.211-2.2 0.369-3.31 0.5-0.327 0.0406-0.654 0.0812-0.99 0.123-1.05 0.13-2.09 0.254-3.14 0.377-1.04 0.123-2.09 0.248-3.13 0.377-0.948 0.117-1.9 0.23-2.85 0.342-1.43 0.254-2.33 0.611-3.59 1.28-1.73 0.0977-1.73 0.0977-3.62 0.0625-0.632-0.00902-1.26-0.018-1.91-0.0273-0.482-0.0116-0.964-0.0232-1.46-0.0352 0.158 0.575 0.317 1.15 0.48 1.74 0.531 2.13 0.732 4.18 0.836 6.37 0.0208 0.372 0.0416 0.743 0.063 1.13 0.0647 1.17 0.124 2.34 0.183 3.51 0.0433 0.801 0.0869 1.6 0.131 2.4 0.106 1.95 0.208 3.9 0.307 5.85 0.46-0.0501 0.919-0.1 1.39-0.152 4.4-0.478 8.79-0.949 13.2-1.41 2.26-0.239 4.52-0.479 6.78-0.726 10.2-1.12 20.3-2.09 30.6-1.71 0.0224 0.198 0.0224 0.198 0.136 1.2 1.65 14.3 1.65 14.3 3.9 21 1.23 3.91 0.966 6.22 0.966 10.8h-95c0-12.1 0.00612-23.6 0.757-35.5 0.477-7.84 0.474-15.7 0.547-23.5 0.0201-2.1 0.0448-4.21 0.069-6.31 0.0675-6.09 0.128-12.2 0.19-18.3 0.144-13.7 0.289-27.3 0.438-41.4z" fill="#BDE6FB"/>
 <path transform="translate(640,727)" d="m0 0c12-0.0233 24-0.041 35.9-0.0518 5.56-0.00516 11.1-0.0122 16.7-0.0236 4.85-0.00995 9.69-0.0164 14.5-0.0186 2.57-0.00131 5.13-0.00439 7.7-0.0116 2.41-0.00676 4.83-0.00889 7.24-0.00738 0.888-2.76e-4 1.78-0.00228 2.66-0.0061 1.21-0.00494 2.42-0.00379 3.62-0.00105 0.178-0.00146 0.178-0.00146 1.08-0.00883 2.42 0.015 2.42 0.015 3.54 1.13 0.12 0.955 0.12 0.955 0.114 2.13-3.78e-5 0.22-3.78e-5 0.22-2.29e-4 1.33-0.00516 0.476-0.0103 0.952-0.0156 1.44-0.00141 0.487-0.00283 0.974-0.00429 1.48-0.00561 1.56-0.0182 3.12-0.0309 4.68-0.00501 1.06-0.00958 2.11-0.0137 3.17-0.011 2.59-0.0278 5.18-0.0488 7.77-21 2.71-41.8 4.24-63 4v13c0.33-0.165 0.33-0.165 2-1 1.35-0.118 2.64-0.185 3.99-0.205 0.4-0.0099 0.8-0.0198 1.21-0.03 1.32-0.0315 2.64-0.0563 3.96-0.0811 0.916-0.0206 1.83-0.0416 2.75-0.063 2.41-0.0552 4.82-0.105 7.23-0.153 2.46-0.0503 4.92-0.106 7.38-0.161 4.83-0.107 9.65-0.209 14.5-0.307 0.144 2.41 0.285 4.83 0.424 7.24 0.0473 0.818 0.0954 1.64 0.144 2.45 0.444 7.44 0.55 14.8 0.432 22.3-13 2.65-25.8 4.71-39 6 0.66 6.93 1.32 13.9 2 21 3.96 0.33 7.92 0.66 12 1v-2c3.46-0.438 6.93-0.864 10.4-1.28 1.17-0.143 2.34-0.288 3.52-0.437 8.4-1.06 16.6-1.49 25.1-1.28 1.24 3.41 2.29 6.56 2.38 10.2 0.017 0.362 0.034 0.723 0.0515 1.1 0.0521 1.13 0.093 2.26 0.132 3.39 0.0443 1.14 0.0911 2.28 0.143 3.42 0.0459 1.03 0.0838 2.05 0.121 3.08 0.174 1.81 0.174 1.81 1.17 4.81v7h-93c0-41.5 0-41.5 0.202-57.8 0.0296-2.43 0.0567-4.85 0.0841-7.28 0.0515-4.52 0.105-9.05 0.159-13.6 0.0622-5.18 0.122-10.4 0.181-15.5 0.122-10.6 0.246-21.2 0.373-31.8z" fill="#B9E1F6"/>
 <path transform="translate(600,722)" d="m0 0h25c0 4.98-0.105 8.39-1.5 12.9-0.143 0.493-0.286 0.986-0.434 1.49-0.347 1.19-0.703 2.38-1.07 3.57h-2c-0.00411 0.405-0.00822 0.81-0.0125 1.23-0.263 15.1-3.7 29.1-7.96 43.6-0.803 2.9-1.31 5.81-1.77 8.78-0.0317 0.208-0.0317 0.208-0.192 1.26-0.313 2.08-0.611 4.16-0.888 6.24-0.59 4.25-1.48 7.99-3.1 12-1.42 3.58-1.85 7.12-2.27 10.9-0.0818 0.686-0.164 1.37-0.248 2.06-0.197 1.65-0.385 3.29-0.564 4.94h-2c-0.0245 0.273-0.0245 0.273-0.148 1.65-0.399 4.14-0.931 8.22-1.79 12.3-0.0746 0.377-0.149 0.754-0.226 1.14-0.5 2.25-0.938 3.59-2.84 4.92-1.7 0.292-3.37 0.252-5.09 0.227-0.259 1.46e-4 -0.259 1.46e-4 -1.57 8.85e-4 -1.71-0.00139-3.42-0.017-5.13-0.0326-1.19-0.00373-2.37-0.00658-3.56-0.00858-3.12-0.00764-6.24-0.0273-9.36-0.0494-3.18-0.0205-6.37-0.0296-9.55-0.0397-6.25-0.0215-12.5-0.0556-18.7-0.0977-0.421-2.05-0.839-4.09-1.25-6.14-0.141-0.694-0.283-1.39-0.426-2.08-0.797-3.87-1.52-7.71-1.82-11.7-0.383-4.19-1.62-7.86-3.04-11.8-2.27-6.48-4.47-13-5.19-19.8-0.421-2.39-1.44-4.46-2.45-6.66-3.8-8.41-5.81-17.5-6.48-26.7-0.241-3.09-0.241-3.09-1.34-4.19-0.0977-1.19-0.0977-1.19-0.0625-2.56 0.00902-0.455 0.018-0.91 0.0273-1.38 0.0116-0.349 0.0232-0.699 0.0352-1.06h-2c-1.47-2.72-2.39-5.13-2.96-8.15-0.162-0.785-0.324-1.57-0.486-2.35-0.245-1.21-0.486-2.43-0.723-3.65-1.63-8.29-1.63-8.29-4.24-11.8-0.767-1.4-0.682-2.5-0.584-4.07 9.41-0.14 18.6 0.19 28 1 0.508 1.41 1.01 2.83 1.5 4.25 0.143 0.396 0.286 0.791 0.434 1.2 0.906 2.63 1.22 4.77 1.07 7.55h2c0.105 0.387 0.211 0.775 0.32 1.17 3.57 13 3.57 13 5.97 18.2 1 2.28 1.75 4.62 2.51 6.99 1.2 3.71 2.55 7.36 3.93 11 0.165 0.444 0.33 0.888 0.5 1.34 0.148 0.393 0.297 0.786 0.45 1.19 0.32 1.09 0.32 1.09 0.32 3.09h2c0.0752 0.357 0.15 0.714 0.228 1.08 2.54 11.9 2.54 11.9 5.21 17.5 0.847 2.16 0.846 4.16 0.562 6.43h2c0.098-0.389 0.196-0.779 0.297-1.18 1.46-5.46 3.54-10.6 5.7-15.8h2c0.0403-0.333 0.0806-0.666 0.122-1.01 0.672-4.73 2.1-9.11 3.63-13.6 0.134-0.399 0.268-0.799 0.407-1.21 1.74-5.16 3.62-10.2 5.81-15.2 1.47-3.43 2.74-6.9 3.95-10.4 0.171-0.497 0.342-0.993 0.518-1.51 0.856-2.5 1.7-5 2.54-7.5 0.322-0.95 0.645-1.9 0.967-2.85 0.133-0.408 0.267-0.816 0.404-1.24 1.83-5.36 4.29-10.2 6.66-15.4z" fill="#BBE4F9"/>
 <path transform="translate(499,729)" d="m0 0v41h-18v49h16c1 1 1 1 1.12 2.52-0.00222 0.655-0.00444 1.31-0.00673 1.99 1.21e-4 0.367 2.41e-4 0.734 3.65e-4 1.11-7.48e-4 1.19-0.00837 2.38-0.0162 3.57-0.00147 0.734-0.00249 1.47-0.00305 2.2-0.00525 2.72-0.0192 5.45-0.0321 8.17-0.0206 6.08-0.0412 12.2-0.0625 18.4h-60v-32h10c-0.0856-1.14-0.171-2.27-0.26-3.45-0.29-3.85-0.576-7.7-0.862-11.6-0.172-2.32-0.346-4.65-0.521-6.97-0.204-2.7-0.405-5.4-0.603-8.1-0.033-0.447-0.0661-0.894-0.1-1.35-0.375-5.12-0.702-10.2-0.939-15.4-0.0109-0.233-0.0109-0.233-0.066-1.41-0.103-2.24-0.199-4.47-0.284-6.71-0.0341-0.795-0.0682-1.59-0.102-2.38-0.0117-0.363-0.0235-0.726-0.0356-1.1-0.113-2.49-0.113-2.49-1.23-3.61-1.37-0.174-1.37-0.174-3.09-0.246-0.619-0.0329-1.24-0.0657-1.88-0.0996-1.31-0.061-2.62-0.118-3.93-0.172-0.621-0.0342-1.24-0.0683-1.88-0.104-0.285-0.0125-0.285-0.0125-1.73-0.0759-1.83-0.37-2.34-0.857-3.5-2.3-0.241-1.3-0.241-1.3-0.227-2.8 1.51e-4 -0.56 3.02e-4 -1.12 4.58e-4 -1.7 0.0103-0.602 0.0206-1.2 0.0313-1.82 0.00283-0.619 0.00566-1.24 0.00858-1.87 0.0093-1.64 0.0272-3.28 0.0494-4.92 0.0205-1.68 0.0294-3.35 0.0397-5.03 0.0221-3.29 0.0555-6.57 0.0977-9.86 12.7-1.54 25.4-2.27 38.2-2.62 1.02-0.0295 2.04-0.0589 3.05-0.0885 10.2-0.281 20.5-0.286 30.7-0.286z" fill="#BDE5FA"/>
 <path transform="translate(815 747)" d="m0 0c1.24 0.0101 2.48 0.0192 3.72 0.0273 2.99 0.0216 5.98 0.0548 8.96 0.0977 4.17 5.47 4.66 10.3 4.58 17.1-0.014 1.55 0.0204 3.1 0.0583 4.65 0.0671 8.23 0.0671 8.23-2.84 11.4-2.55 1.99-4.93 2.82-8.11 3.18-0.252 0.035-0.252 0.035-1.53 0.212-4.5 0.549-9.01 0.681-13.5 0.726-0.336 0.00545-0.673 0.0109-1.02 0.0165-9.2 0.111-9.2 0.111-12.6-2.27-1.18-2.03-1.52-4.07-1.88-6.38-0.114-0.618-0.228-1.24-0.345-1.87-1-5.91-1.1-11.8-0.78-17.8h-2v-7c9.18-1.7 18-2.26 27.3-2.12z" fill="#090A0A"/>
 <path transform="translate(499,729)" d="m0 0v41h-18v49h16c1 1 1 1 1.12 2.52-0.00222 0.655-0.00444 1.31-0.00673 1.99 1.46e-4 0.361 2.92e-4 0.722 4.43e-4 1.09-6.98e-4 1.2-0.00848 2.39-0.0163 3.59-0.00186 0.828-0.00329 1.66-0.00429 2.48-0.00382 2.18-0.0136 4.36-0.0247 6.54-0.012 2.62-0.0166 5.23-0.0225 7.85-0.0097 3.98-0.0289 7.95-0.0462 11.9h-27v-2h26c-0.33-0.99-0.66-1.98-1-3-0.12-1.54-0.12-1.54-0.114-3.19 3.78e-5 -0.31 3.78e-5 -0.31 2.29e-4 -1.88 0.00511-0.669 0.0103-1.34 0.0156-2.01 0.00187-0.691 0.00329-1.38 0.00429-2.07 0.0038-1.81 0.0136-3.62 0.0247-5.43 0.0103-1.85 0.0149-3.7 0.0198-5.55 0.0102-3.62 0.0297-7.25 0.0488-10.9h-17c-0.0226-6.76-0.0409-13.5-0.0518-20.3-0.00523-3.14-0.0123-6.28-0.0236-9.42-0.0108-3.03-0.0168-6.06-0.0194-9.08-0.00185-1.16-0.00547-2.31-0.0109-3.47-0.00722-1.62-0.00826-3.23-0.0078-4.85-0.0036-0.483-0.00719-0.965-0.0109-1.46 0.00137-0.439 0.00275-0.878 0.00417-1.33-9.22e-4 -0.383-0.00184-0.765-0.00279-1.16 0.123-0.935 0.123-0.935 1.12-1.94h18v-38c-5.05 0.309-10.1 0.619-15.3 0.938-3.05 0.184-6.1 0.368-9.15 0.551-1.49 0.0893-2.99 0.179-4.48 0.268-0.177 0.0106-0.177 0.0106-1.07 0.0643-2.03 0.122-4.07 0.246-6.1 0.372-11.6 0.722-23.2 0.935-34.9 0.807v-1c12.7-1.54 25.4-2.27 38.2-2.62 1.02-0.0295 2.04-0.0589 3.05-0.0885 10.2-0.281 20.5-0.286 30.7-0.286z" fill="#677C87"/>
 <path transform="translate(1126,728)" d="m0 0h1v23c-43 3.23-43 3.23-64 3v12c1.08-0.0606 2.17-0.121 3.29-0.184 3.61-0.201 7.22-0.401 10.8-0.599 2.18-0.12 4.37-0.241 6.55-0.363 2.11-0.118 4.23-0.235 6.34-0.35 0.801-0.044 1.6-0.0886 2.4-0.134 1.13-0.0641 2.27-0.126 3.4-0.187 0.642-0.0355 1.28-0.0711 1.94-0.108 3.08-0.104 6.16-0.0759 9.25-0.0759v33h-1c-0.71-10.4-1.16-20.6-1-31-0.337 0.0664-0.673 0.133-1.02 0.201-4.78 0.876-9.55 1.12-14.4 1.35-1.07 0.0516-2.13 0.109-3.2 0.167-0.627 0.0303-1.25 0.0606-1.9 0.0918-1.49 0.189-1.49 0.189-2.49 1.19-0.917 0.12-0.917 0.12-2.04 0.114-0.42-7.55e-5 -0.841-1.51e-4 -1.27-2.29e-4 -0.454-0.00516-0.908-0.0103-1.38-0.0156-0.232-7.07e-4 -0.232-7.07e-4 -1.41-0.00429-1.49-0.00561-2.98-0.0182-4.46-0.0309-1.01-0.00501-2.01-0.00958-3.02-0.0137-2.47-0.011-4.94-0.0283-7.42-0.0488-0.965-1.78-1.12-3-1.1-5.04 0.00322-0.58 0.00645-1.16 0.00977-1.76 0.00838-0.603 0.0168-1.21 0.0254-1.83 0.00451-0.611 0.00902-1.22 0.0137-1.85 0.0118-1.51 0.0282-3.02 0.0488-4.52 6.22-1.65 12.1-2.31 18.6-2.46 2.62-0.0627 5.23-0.155 7.85-0.251 0.539-0.0196 1.08-0.0392 1.63-0.0594 6.97-0.276 13.9-0.913 20.8-1.57 0.476-0.0434 0.952-0.0868 1.44-0.132 0.866-0.0793 1.73-0.162 2.6-0.249 4.39-0.401 8.59-0.279 13.1-0.279v-21z" fill="#7896A3"/>
 <path transform="translate(814 728)" d="m0 0c0.223 0.00128 0.223 0.00128 1.35 0.00778 5.43 0.0336 10.8 0.093 16.3 0.18v1c1.65 0.33 3.3 0.66 5 1v1c-6.87 0.133-13.7 0.264-20.6 0.391-3.19 0.0593-6.39 0.119-9.58 0.182-16.9 0.329-33.9 0.477-50.8 0.427v29h-2v39h-1c-0.0307-6.25-0.051-12.5-0.0625-18.8-8.56e-4 -0.463-0.00171-0.926-0.00259-1.4-0.0266-16.3 0.286-32.6 1.07-48.8 5.5-0.534 11-1.03 16.5-1.5 0.417-0.0356 0.834-0.0713 1.26-0.108 14.2-1.2 28.3-1.66 42.6-1.58z" fill="#92BCCA"/>
 <path transform="translate(788,508)" d="m0 0c2.25 2.25 2.25 2.25 2.41 4.1 0.0375 0.429 0.075 0.857 0.114 1.3 0.0299 0.478 0.0599 0.955 0.0907 1.45 0.0374 0.52 0.0748 1.04 0.113 1.58 0.548 8.65 0.484 17.3 0.515 26 0.00407 0.986 0.00818 1.97 0.0124 2.96 0.019 4.65 0.0332 9.31 0.0416 14 0.00872 4.75 0.0278 9.49 0.0644 14.2 0.185 24.4-0.134 48.3-4.36 72.4h-1c0.33-10.2 0.66-20.5 1-31h2c-0.165-17.7-0.165-17.7-1-107z" fill="#6C919F"/>
 <path transform="translate(516,510)" d="m0 0h1c-0.00184 0.483-0.00369 0.967-0.00559 1.47-0.045 11.9-0.0775 23.8-0.098 35.8-0.0102 5.76-0.0241 11.5-0.0473 17.3-0.185 46.8-0.185 46.8 1.85 69.2 0.457 5.42 0.398 10.8 0.304 16.3h-1c-1.78-9.74-2.36-19.4-2.66-29.3-0.0163-0.489-0.0326-0.977-0.0494-1.48-0.0302-0.921-0.0564-1.84-0.0779-2.76-0.0136-0.416-0.0271-0.831-0.0411-1.26-0.00476-0.18-0.00476-0.18-0.0288-1.09-0.145-1.14-0.145-1.14-0.645-2.47-0.557-1.86-0.642-3.55-0.633-5.47-0.00227-0.373-0.00453-0.745-0.00687-1.13-0.00631-1.24-0.00551-2.49-0.00469-3.73-0.00299-0.894-0.0064-1.79-0.0102-2.68-0.00883-2.43-0.0112-4.85-0.0118-7.28-7.12e-4 -1.52-0.00285-3.04-0.0055-4.56-0.00925-5.31-0.0133-10.6-0.0125-15.9 5.99e-4 -4.93-0.00992-9.86-0.0257-14.8-0.0131-4.24-0.0184-8.49-0.0178-12.7 2.54e-4 -2.53-0.00253-5.06-0.0132-7.59-0.00977-2.38-0.0097-4.77-0.00248-7.15 0.00104-0.869-0.00126-1.74-0.00736-2.61-0.037-5.64 0.621-10.6 2.25-16z" fill="#36474D"/>
 <path transform="translate(127,395)" d="m0 0h107v2c-0.494 0.00423-0.989 0.00846-1.5 0.0128-12 0.103-24.1 0.212-36.1 0.327-5.82 0.0552-11.6 0.109-17.5 0.158-5.08 0.043-10.2 0.0893-15.2 0.14-2.69 0.0265-5.37 0.0513-8.06 0.0722-2.53 0.0197-5.07 0.0439-7.6 0.0714-0.926 0.00929-1.85 0.017-2.78 0.0229-4.85 0.032-9.44 0.227-14.2 1.2-0.33 3.63-0.66 7.26-1 11h-1c-0.339-1.75-0.67-3.5-1-5.25-0.0954-0.491-0.191-0.982-0.289-1.49-0.0902-0.483-0.18-0.967-0.273-1.46-0.0838-0.44-0.168-0.88-0.254-1.33-0.227-1.81-0.184-3.64-0.184-5.46z" fill="#90A4CB"/>
 <path transform="translate(249,724)" d="m0 0c0.291 2.42 0.575 4.83 0.854 7.25 0.0954 0.819 0.192 1.64 0.291 2.46 0.658 5.46 0.991 10.8 0.854 16.3h-1c-1.72-8.41-2.26-16.4-2-25-0.292 0.0711-0.584 0.142-0.884 0.215-3.39 0.761-6.6 0.917-10.1 0.882-0.274-7.07e-4 -0.274-7.07e-4 -1.66-0.00429-1.73-0.00555-3.46-0.0181-5.2-0.0309-1.18-0.00502-2.36-0.00958-3.54-0.0137-2.88-0.011-5.76-0.0277-8.64-0.0488v2h2c0.0469 7.83 0.0821 15.7 0.104 23.5 0.0103 3.64 0.0243 7.27 0.0473 10.9 0.02 3.17 0.0329 6.35 0.0373 9.52 0.00259 1.68 0.00967 3.35 0.0233 5.03 0.105 13.5 0.105 13.5-2.21 19h-1v-72c28-1 28-1 32 0z" fill="#83A6B4"/>
 <path transform="translate(893,825)" d="m0 0h1c1.06 7.34 1.11 14.6 1 22 7.82 0.825 15.6 1.2 23.4 1.32 1.15 0.0206 2.3 0.0416 3.45 0.063 2.99 0.0545 5.97 0.104 8.96 0.153 3.06 0.0508 6.13 0.106 9.19 0.161 5.98 0.107 12 0.208 17.9 0.307v-2c0.357-0.0184 0.715-0.0368 1.08-0.0557 3.44-0.179 6.88-0.369 10.3-0.571 1.77-0.103 3.53-0.203 5.3-0.292 9.71-0.496 18.8-1.71 28.3-4.08-0.516 1.51-0.944 1.97-2.34 2.79-4.57 1.95-9.07 3.17-14 3.88-0.425 0.0632-0.851 0.126-1.29 0.191-16.1 2.28-32.7 1.47-49 1.35-4.75-0.0341-9.49-0.0502-14.2-0.0651-9.73-0.031-19.5-0.0858-29.2-0.151v-25z" fill="#657380"/>
 <path transform="translate(1e3 756)" d="m0 0h1v8c-14.1 1.1-28.1 1.12-42.3 1.07-3.02-0.0104-6.05-0.0148-9.07-0.0198-5.88-0.0106-11.8-0.0275-17.7-0.0488v2h-13v11c1.14 0.0606 2.29 0.121 3.46 0.184 1.11 0.0618 2.21 0.125 3.32 0.189 0.769 0.0434 1.54 0.085 2.31 0.125 1.1 0.0577 2.21 0.121 3.31 0.186 0.172 0.00836 0.172 0.00836 1.04 0.0506 2.44 0.152 2.44 0.152 3.55 1.27 1.22 0.205 1.22 0.205 2.72 0.316 0.538 0.0419 1.08 0.0838 1.63 0.127 0.564 0.0393 1.13 0.0786 1.71 0.119 0.568 0.0432 1.14 0.0864 1.72 0.131 1.41 0.106 2.81 0.208 4.22 0.307v1c-7.85 0.197-15.6 0.304-23.4-0.875-0.54-0.0785-1.08-0.157-1.64-0.238-4.36-0.735-4.36-0.735-5.99-2.89-0.227-1.33-0.227-1.33-0.195-2.82 0.00645-0.535 0.0129-1.07 0.0195-1.62 0.0168-0.556 0.0335-1.11 0.0508-1.68 0.00902-0.563 0.018-1.13 0.0273-1.71 0.0236-1.39 0.0582-2.78 0.0977-4.17 4.62-1.51 8.76-2.32 13.6-2.41 0.316-0.00971 0.316-0.00971 1.91-0.0588 1.72-0.0519 3.45-0.0916 5.17-0.128 1.09-0.0241 2.17-0.0517 3.26-0.0805 19.7-0.518 39.3-0.413 59-0.318v-7z" fill="#596E77"/>
 <path transform="translate(281 721)" d="m0 0c0.486 9.22e-4 0.972 0.00184 1.47 0.00279 0.557-0.00137 1.11-0.00275 1.69-0.00417 0.614 0.0036 1.23 0.00719 1.86 0.0109 0.322-7.3e-5 0.322-7.3e-5 1.95-4.43e-4 1.77-2.88e-4 3.54 0.0056 5.31 0.0126 1.85 0.00624 3.69 0.00684 5.54 0.00803 3.5 0.00311 7 0.0113 10.5 0.0213 3.98 0.0112 7.97 0.0167 11.9 0.0217 8.19 0.0105 16.4 0.0283 24.6 0.0503 0.165 1.32 0.165 1.32 1 8-2-3-2-3-3-5-20.8-0.33-41.6-0.66-63-1 0.33 3.96 0.66 7.92 1 12 0.0722 2.73 0.12 5.44 0.0977 8.17-0.00188 0.7-0.0033 1.4-0.00429 2.1-0.00372 1.8-0.0135 3.59-0.0247 5.39-0.0104 1.85-0.0148 3.7-0.0198 5.55-0.0105 3.6-0.0275 7.19-0.0488 10.8h-1v-29h-2c-0.0247-2.26-0.0429-4.52-0.0549-6.78-0.00503-0.769-0.0119-1.54-0.0205-2.31-0.0121-1.1-0.0178-2.21-0.0222-3.31-0.00516-0.345-0.0103-0.69-0.0156-1.04-2.01e-4 -0.852 0.0523-1.7 0.113-2.55 1-1 1-1 2.15-1.12z" fill="#4B6068"/>
 <path transform="translate(1108,496)" d="m0 0h1c2.29 15.9 2.71 31.8 2.98 47.8 0.0136 0.8 0.0275 1.6 0.0417 2.4 0.0998 5.66 0.171 11.3 0.209 17 0.0116 1.7 0.0296 3.4 0.0538 5.11 0.161 11.9-0.94 23-3.28 34.7h-1c0.0303-0.487 0.0606-0.975 0.0918-1.48 0.805-13.4 1.03-26.8 1.03-40.2v-1.26c-0.00826-21.4-0.547-42.7-1.12-64.1z" fill="#8CBACF"/>
 <path transform="translate(595,462)" d="m0 0h1c-9.22e-4 0.42-0.00184 0.84-0.00279 1.27-0.0222 10.3-0.0387 20.6-0.049 30.9-0.00513 4.97-0.0121 9.95-0.0236 14.9-0.0101 4.34-0.0164 8.69-0.0186 13-0.00129 2.29-0.00425 4.59-0.0116 6.88-0.0309 9.95 0.15 19.8 1.01 29.7 0.218 2.9 0.211 5.8 0.163 8.71-0.00451 0.557-0.00902 1.11-0.0137 1.69-0.0113 1.31-0.0274 2.62-0.0488 3.94h-1c-7.33-34.8-4.12-75.8-1-111z" fill="#3F4F59"/>
 <path transform="translate(1121,820)" d="m0 0c0.0224 0.198 0.0224 0.198 0.136 1.2 1.65 14.3 1.65 14.3 3.9 21 1.23 3.91 0.966 6.22 0.966 10.8h-95v-22h1v21h93c-0.33-0.99-0.33-0.99-2-6-0.381-1.61-0.742-3.2-1.06-4.81-0.803-4.05-0.803-4.05-1.94-5.19-0.114-1.49-0.114-1.49-0.0977-3.38 0.00141-0.332 0.00283-0.663 0.00429-1 0.0056-1.06 0.0182-2.12 0.0309-3.18 0.00501-0.718 0.00958-1.44 0.0137-2.15 0.011-1.76 0.0283-3.52 0.0488-5.28-0.348 0.0715-0.695 0.143-1.05 0.217-4.14 0.779-8.12 0.903-12.3 0.846-0.641-0.00451-1.28-0.00902-1.94-0.0137-1.56-0.0117-3.12-0.028-4.68-0.0488v-1c6.99-1.18 13.9-1.11 21-1z" fill="#788A98"/>
 <path transform="translate(787,807)" d="m0 0c3.73-0.0619 7.47-0.124 11.3-0.188 0.587-0.0137 0.587-0.0137 3.56-0.0828 0.936-0.00877 1.87-0.0164 2.81-0.0227 0.481-0.0153 0.963-0.0307 1.46-0.0465 2.34-0.00182 3.89 0.0599 5.65 1.71 1.04 1.25 1.66 2.35 1.98 3.97 0.0851 0.423 0.17 0.847 0.258 1.28 0.0374 0.217 0.0374 0.217 0.227 1.31 0.0902 0.43 0.18 0.86 0.273 1.3 0.546 2.9 0.389 4.95-0.523 7.76-0.653-1.56-1.3-3.12-1.94-4.69-0.0912-0.218-0.0912-0.218-0.553-1.32-0.177-0.435-0.354-0.87-0.537-1.32-0.162-0.393-0.325-0.786-0.492-1.19-0.683-2.11-1.05-4.31-1.48-6.49h-21v38h-38c0-20.9 0-20.9 1-29h1c0.0256 2.06 0.0432 4.12 0.0549 6.18 0.00489 0.694 0.0116 1.39 0.0205 2.08 0.0831 6.66-0.517 13-1.08 19.7h36v-39z" fill="#55626C"/>
 <path transform="translate(524,421)" d="m0 0h1c0.193 2.77 0.372 5.55 0.537 8.33 0.0582 0.943 0.12 1.89 0.187 2.83 0.0949 1.36 0.175 2.72 0.253 4.08 0.0322 0.417 0.0644 0.834 0.0976 1.26 0.106 2.11 0.0437 3.51-1.04 5.35-1.64 2.91-1.49 6.18-1.64 9.44-0.0387 0.705-0.0783 1.41-0.119 2.11-0.104 1.84-0.198 3.69-0.29 5.53-0.148 2.96-0.308 5.91-0.472 8.87-0.0555 1.03-0.105 2.05-0.154 3.08-0.0335 0.628-0.067 1.26-0.102 1.9-0.0273 0.55-0.0546 1.1-0.0827 1.67-0.193 1.63-0.655 3-1.18 4.55-0.16 1.03-0.288 2.06-0.389 3.09-0.06 0.6-0.12 1.2-0.182 1.82-0.0605 0.641-0.121 1.28-0.183 1.94-0.0655 0.668-0.131 1.34-0.197 2-0.172 1.75-0.341 3.5-0.508 5.25-0.172 1.79-0.348 3.58-0.523 5.37-0.343 3.51-0.682 7.01-1.02 10.5h-1c-0.21-11.3 0.318-22.4 1.27-33.6 0.141-1.67 0.277-3.34 0.414-5.01 0.744-9.08 1.51-18.2 2.44-27.2 0.0382-0.384 0.0765-0.769 0.116-1.16 0.105-1.04 0.215-2.07 0.329-3.11 0.0297-0.274 0.0297-0.274 0.18-1.66 0.25-1.25 0.25-1.25 1.25-2.25 0.205-1.49 0.205-1.49 0.316-3.38 0.0208-0.332 0.0416-0.663 0.063-1 0.0654-1.06 0.124-2.12 0.183-3.18 0.0432-0.718 0.0868-1.44 0.131-2.15 0.107-1.76 0.208-3.52 0.307-5.28z" fill="#62778B"/>
 <path transform="translate(897,846)" d="m0 0h75v1h-14v2c-6.62 0.0466-13.2 0.082-19.9 0.104-3.08 0.0104-6.15 0.0244-9.23 0.0473-2.98 0.0219-5.95 0.0337-8.93 0.0389-1.13 0.00366-2.26 0.0108-3.39 0.0217-6.81 0.0631-13-0.37-19.6-2.21v-1z" fill="#C4E0F7"/>
 <path transform="translate(132,747)" d="m0 0h1v87h-1c-1.95-12.2-2.32-24.1-2.26-36.4 0.00722-1.48 0.0104-2.96 0.0125-4.45 0.0274-15.5 0.557-30.8 2.24-46.1z" fill="#7B95A3"/>
 <path transform="translate(603,820)" d="m0 0h1c0.0968 3.83 0.174 7.33-1 11h-2c-0.049 0.545-0.098 1.09-0.148 1.65-0.399 4.14-0.931 8.22-1.79 12.3-0.0746 0.377-0.149 0.754-0.226 1.14-0.5 2.25-0.938 3.59-2.84 4.92-1.7 0.292-3.37 0.252-5.09 0.227-0.517 2.92e-4 -1.03 5.84e-4 -1.57 8.85e-4 -1.71-0.00139-3.42-0.017-5.13-0.0326-1.19-0.00373-2.37-0.00658-3.56-0.00858-3.12-0.00764-6.24-0.0273-9.36-0.0494-3.18-0.0205-6.37-0.0296-9.55-0.0397-6.25-0.0215-12.5-0.0556-18.7-0.0977-0.33-2.64-0.66-5.28-1-8 1.43 2.59 2.06 4.01 2 7 0.474-0.0303 0.948-0.0606 1.44-0.0918 12.1-0.755 24.2-1 36.4-0.971 0.353 8.56e-4 0.705 0.00171 1.07 0.00259 4.37 0.0114 8.75 0.0315 13.1 0.0599 0.0251-0.292 0.0501-0.585 0.0759-0.886 0.116-1.33 0.239-2.66 0.362-3.99 0.0393-0.46 0.0786-0.92 0.119-1.39 0.0209-0.222 0.0209-0.222 0.127-1.35 0.0367-0.408 0.0733-0.817 0.111-1.24 0.217-1.21 0.653-2.06 1.21-3.15 0.0977-1.73 0.0977-1.73 0.0625-3.62-0.00902-0.632-0.018-1.26-0.0273-1.91-0.0116-0.482-0.0232-0.964-0.0352-1.46h3c0.66-3.3 1.32-6.6 2-10z" fill="#9AB0C3"/>
 <path transform="translate(732,728)" d="m0 0h1v22c-21 2.67-41.8 4.37-63 4v-1c7.61-1.36 15.3-1.1 23-1v-2c12.9-0.33 25.7-0.66 39-1v-21z" fill="#7696A3"/>
 <path transform="translate(325,764)" d="m0 0h2c0.7 1.45 1.38 2.91 2.06 4.38 0.199 0.413 0.398 0.825 0.604 1.25 0.184 0.4 0.367 0.799 0.557 1.21 0.0864 0.183 0.0864 0.183 0.524 1.11 0.254 1.05 0.254 1.05-0.746 3.05-0.99-1.32-1.98-2.64-3-4-0.0228 0.536-0.0457 1.07-0.0692 1.63-0.215 5.05-0.436 10.1-0.661 15.1-0.116 2.59-0.23 5.19-0.34 7.79-0.106 2.5-0.217 5.01-0.331 7.51-0.0427 0.956-0.0838 1.91-0.123 2.87-0.0553 1.34-0.116 2.67-0.179 4.01-0.0151 0.398-0.0302 0.797-0.0458 1.21-0.137 2.74-0.137 2.74-1.25 3.85-0.205 1.49-0.205 1.49-0.316 3.38-0.0208 0.332-0.0416 0.663-0.063 1-0.0654 1.06-0.124 2.12-0.183 3.18-0.0432 0.718-0.0868 1.44-0.131 2.15-0.107 1.76-0.208 3.52-0.307 5.28h-2c-0.0247-2.26-0.0429-4.52-0.0549-6.78-0.00503-0.769-0.0119-1.54-0.0205-2.31-0.0121-1.1-0.0178-2.21-0.0222-3.31-0.00516-0.345-0.0103-0.69-0.0156-1.04-2.01e-4 -0.852 0.0523-1.7 0.113-2.55 0.165-0.165 0.165-0.165 1-1 0.147-1.41 0.234-2.78 0.281-4.19 0.0184-0.424 0.0368-0.847 0.0558-1.28 0.0588-1.36 0.111-2.72 0.163-4.09 0.387-9.95 0.387-9.95 0.996-14.4 0.681-4.99 0.855-10 1.07-15 0.0433-0.975 0.0869-1.95 0.131-2.93 0.106-2.36 0.207-4.72 0.307-7.07z" fill="#313A3F"/>
 <path transform="translate(498,730)" d="m0 0v38h-18v-1h17c-0.0722-1.45-0.144-2.9-0.219-4.39-0.0702-1.45-0.139-2.9-0.208-4.35-0.0475-0.985-0.0959-1.97-0.146-2.96-0.374-7.45-0.427-14.8-0.427-22.3-10.2-0.33-20.5-0.66-31-1v-1c2.77-0.146 5.54-0.289 8.31-0.427 0.937-0.0474 1.87-0.0959 2.81-0.146 7.31-0.386 14.5-0.427 21.9-0.427z" fill="#ABDBEC"/>
 <path transform="translate(906,795)" d="m0 0c1.19-0.0556 2.37-0.0943 3.56-0.125 0.161-0.00838 0.161-0.00838 0.979-0.0508 2.4-0.0457 4.37 0.419 6.65 1.15 3.74 1.09 7.3 1.44 11.2 1.62 0.694 0.0389 1.39 0.0785 2.08 0.119 1.82 0.104 3.63 0.198 5.45 0.29 1.8 0.0923 3.59 0.193 5.39 0.293 0.713 0.0394 1.43 0.0789 2.14 0.118 1.42 0.0784 2.83 0.157 4.25 0.236 0.704 0.039 1.41 0.078 2.11 0.117 0.346 0.0193 0.693 0.0386 1.05 0.0585 2.13 0.118 4.26 0.226 6.39 0.329 1.05 0.052 2.1 0.108 3.14 0.166 1.3 0.0714 2.59 0.136 3.89 0.193 3.16 0.185 5.32 0.344 7.73 2.48-9.61 0.122-19.2-0.136-28.8-0.69-1.45-0.0833-2.9-0.16-4.35-0.229-7.85-0.38-15.5-1-23.3-2.53-0.624-0.122-1.25-0.243-1.89-0.368-2.99-0.634-5.36-1.21-7.73-3.18z" fill="#6B7F8B"/>
 <path transform="translate(373,725)" d="m0 0c15.1 0 15.1 0 21 1v1c-4.98 0.111-9.87-0.0178-14.8-0.504-0.251-0.0237-0.251-0.0237-1.52-0.144-1.22-0.116-2.44-0.233-3.66-0.352 0.0125 0.53 0.0251 1.06 0.038 1.61 0.16 6.8 0.313 13.6 0.462 20.4 0.0119 0.543 0.0238 1.09 0.036 1.64 0.315 14.5 0.563 28.9 0.527 43.4-4.28e-4 0.171-4.28e-4 0.171-0.00259 1.04-0.0108 3.99-0.0298 7.98-0.0599 12h-2c-0.165-0.99-0.165-0.99-1-6h1v-75z" fill="#495B62"/>
 <path transform="translate(852,519)" d="m0 0h1c0.663 6.69 1.32 13.4 1.96 20.1 0.298 3.11 0.599 6.22 0.908 9.33 1.48 14.9 2.56 29.6 2.14 44.6h-1c-0.0251-0.479-0.0501-0.959-0.0759-1.45-0.0941-1.78-0.194-3.55-0.296-5.33-0.0434-0.769-0.085-1.54-0.125-2.31-0.0577-1.1-0.121-2.21-0.186-3.31-0.0167-0.345-0.0334-0.69-0.0506-1.04-0.152-2.44-0.152-2.44-1.27-3.55-0.189-1.36-0.189-1.36-0.281-3.11-0.0367-0.654-0.0735-1.31-0.111-1.98-0.0175-0.351-0.035-0.701-0.053-1.06-0.0548-1.1-0.115-2.19-0.177-3.29-0.131-2.33-0.254-4.66-0.377-6.99-0.142-2.7-0.287-5.39-0.44-8.09-0.0595-1.08-0.114-2.16-0.168-3.24-0.0184-0.329-0.0184-0.329-0.111-1.99-0.0303-0.579-0.0606-1.16-0.0918-1.75-0.183-1.43-0.533-2.23-1.19-3.49-0.12-1.08-0.12-1.08-0.114-2.25 7.55e-5 -0.44 1.51e-4 -0.881 2.29e-4 -1.33 0.00516-0.471 0.0103-0.942 0.0156-1.43 0.00141-0.485 0.00283-0.971 0.00429-1.47 0.00559-1.55 0.0181-3.1 0.0309-4.65 0.00502-1.05 0.00958-2.1 0.0137-3.15 0.011-2.57 0.0283-5.15 0.0488-7.72z" fill="#313F45"/>
 <path transform="translate(892,815)" d="m0 0h28v2c8.41-0.165 8.41-0.165 51-1-2.25 2.25-2.25 2.25-4.19 2.25-0.218 0.00282-0.218 0.00282-1.32 0.0171-0.474-0.00405-0.948-0.0081-1.44-0.0123-0.503 0.0035-1.01 0.00701-1.52 0.0106-1.67 0.00884-3.35 0.00294-5.02-0.00378-1.18 0.00135-2.36 0.00329-3.54 0.0058-2.49 0.00296-4.98-0.00135-7.47-0.0107-3.12-0.0112-6.25-0.00481-9.37 0.0069-14.8 0.0468-29.4-0.506-44.1-2.27v8h-1v-9z" fill="#859CAC"/>
 <path transform="translate(241,459)" d="m0 0c1.26 2.29 2.24 4.21 2.36 6.87 0.0152 0.267 0.0152 0.267 0.0919 1.62 0.0239 0.572 0.0478 1.14 0.0724 1.73 0.0335 0.61 0.0669 1.22 0.101 1.85 0.072 1.31 0.141 2.63 0.206 3.94 0.173 3.49 0.379 6.98 0.591 10.5 0.0214 0.355 0.0428 0.709 0.0649 1.07 0.529 8.64 1.49 17.2 2.54 25.8 0.636 5.25 1.2 10.3 0.965 15.6h-2v-12h-2c-0.395-6.1-0.786-12.2-1.17-18.3-0.18-2.83-0.361-5.67-0.545-8.5-0.178-2.74-0.352-5.49-0.525-8.23-0.066-1.04-0.133-2.08-0.201-3.12-0.411-6.29-0.648-12.5-0.556-18.8z" fill="#7594A9"/>
 <path transform="translate(846,417)" d="m0 0c1.26 0.0662 2.44 0.189 3.69 0.375 0.178 0.0245 0.178 0.0245 1.08 0.148 3.09 0.432 6.16 0.93 9.23 1.48v1h-12c0.33 15.5 0.66 31 1 47h-1c-1.17-12.6-2.16-25.3-2.69-37.9-0.0246-0.551-0.0493-1.1-0.0747-1.67-0.0683-1.56-0.129-3.11-0.187-4.67-0.0207-0.466-0.0414-0.931-0.0627-1.41-0.0137-0.424-0.0274-0.848-0.0416-1.28-0.014-0.37-0.0279-0.739-0.0423-1.12 0.0957-0.908 0.0957-0.908 1.1-1.91z" fill="#3F4856"/>
 <path transform="translate(415,416)" d="m0 0h27v1c-0.514 0.0198-1.03 0.0396-1.56 0.0601-1.94 0.077-3.87 0.166-5.8 0.257-0.832 0.0379-1.66 0.0728-2.5 0.104-5.07 0.195-9.36 0.676-14.1 2.58-0.33 2.64-0.66 5.28-1 8-0.99 0.33-1.98 0.66-3 1 0.0232 0.652 0.0464 1.3 0.0703 1.98 0.125 5.08 0.071 9.32-2.07 14h-1c0.468-6.73 1.13-13.4 2-20.1 0.083-0.651 0.166-1.3 0.251-1.97 0.041-0.305 0.041-0.305 0.249-1.85 0.0722-0.542 0.144-1.08 0.219-1.64 0.281-1.41 0.281-1.41 1.28-3.41z" fill="#8FA7C9"/>
 <path transform="translate(168,731)" d="m0 0c0.954 3.08 1.01 5.26 0.441 8.4-0.142 0.885-0.282 1.77-0.421 2.66-0.0752 0.468-0.15 0.935-0.228 1.42-1.56 9.92-2.09 19.7-2.04 29.7 0.00114 0.602 0.00228 1.2 0.00345 1.82 0.0295 8.04 0.458 16 1.25 24-2.62-2.87-3.44-4.91-3.34-8.77-4.38e-4 -0.459-8.76e-4 -0.918-0.00133-1.39 0.00208-1.5 0.0253-3.01 0.0489-4.51 0.0056-1.05 0.00987-2.1 0.0129-3.14 0.0114-2.75 0.0409-5.5 0.0741-8.25 0.0308-2.81 0.0444-5.62 0.0595-8.43 0.0321-5.5 0.0833-11 0.146-16.5h2c-0.0105-0.408-0.0209-0.817-0.0317-1.24-0.0417-1.86-0.0676-3.72-0.0933-5.57-0.0168-0.643-0.0335-1.29-0.0508-1.95-0.0608-5.87-0.0608-5.87 2.18-8.24z" fill="#92B4C5"/>
 <path transform="translate(1042,599)" d="m0 0c-1.87 1.16-3.85 1.33-6 1.56-0.394 0.0423-0.788 0.0845-1.19 0.128-4.62 0.452-9.23 0.423-13.9 0.376-0.874-0.00504-1.75-0.00959-2.62-0.0137-2.1-0.0108-4.21-0.028-6.31-0.0488v6c-6.15-0.327-10.7-1.95-16-5 1.22-0.768 1.84-1.02 3.29-0.879 0.22 0.0522 0.22 0.0522 1.34 0.316 0.223 0.0509 0.223 0.0509 1.35 0.309 0.169 0.0419 0.169 0.0419 1.02 0.254v2c2.31 0.33 4.62 0.66 7 1v-6c3.73-0.154 7.46-0.302 11.2-0.443 1.73-0.0655 3.46-0.133 5.2-0.205 1.99-0.0831 3.99-0.157 5.98-0.231 0.619-0.027 1.24-0.0541 1.88-0.0819 0.58-0.0201 1.16-0.0402 1.76-0.0609 0.509-0.02 1.02-0.04 1.54-0.0606 1.63 0.0918 2.94 0.504 4.46 1.08z" fill="#42595F"/>
 <path transform="translate(326 761)" d="m0 0c0.474 0.0206 0.949 0.0412 1.44 0.0625v3h-2c0.00524 0.594 0.0105 1.19 0.0159 1.8 0.0184 2.24 0.0297 4.49 0.0391 6.73 0.00497 0.964 0.0118 1.93 0.0205 2.89 0.0465 5.25-0.0709 10.3-0.819 15.5-0.563 4.15-0.633 8.37-0.819 12.6-0.0433 0.927-0.087 1.85-0.131 2.78-0.105 2.24-0.207 4.48-0.307 6.72h-1c-0.107-13.4-0.0791-26.7 0.438-40.1 0.0196-0.548 0.0393-1.1 0.0595-1.66 0.0566-1.54 0.12-3.08 0.187-4.63 0.0167-0.459 0.0334-0.918 0.0507-1.39 0.0199-0.417 0.0399-0.835 0.0604-1.26 0.0155-0.363 0.0311-0.727 0.0471-1.1 0.31-1.75 1.05-1.89 2.72-1.96z" fill="#8FAFC0"/>
 <path transform="translate(968,600)" d="m0 0c0.177 13.4-0.36 26.6-1 40h21v1h-22v-39c-1.65 0.66-3.3 1.32-5 2 0.594-0.676 1.2-1.34 1.81-2 0.336-0.371 0.673-0.742 1.02-1.12 1.48-1.11 2.36-0.944 4.17-0.875z" fill="#678D98"/>
 <path transform="translate(464,471)" d="m0 0h1c0.128 5.06-0.116 9.92-0.895 14.9-0.17 1.09-0.332 2.18-0.492 3.28-0.344 2.33-0.696 4.65-1.05 6.98-0.463 3.06-0.92 6.11-1.37 9.17-0.0552 0.371-0.11 0.742-0.167 1.12-0.809 5.47-1.4 10.9-1.62 16.5-0.168 3.19-0.773 5.3-2.4 8.07 0.452-9.68 1.05-19.3 1.87-29 0.0874-1.04 0.173-2.07 0.258-3.11 0.12-1.46 0.245-2.92 0.373-4.38 0.0177-0.22 0.0177-0.22 0.107-1.34 0.278-3.05 0.278-3.05 1.39-4.16 0.188-1.34 0.327-2.65 0.438-4 0.451-4.77 1.43-9.35 2.56-14z" fill="#7E9FB7"/>
 <path transform="translate(815 747)" d="m0 0c1.24 0.0101 2.48 0.0192 3.72 0.0273 2.99 0.0216 5.98 0.0548 8.96 0.0977 0.165 0.495 0.165 0.495 1 3h-40v6h-1v-7c9.18-1.7 18-2.26 27.3-2.12z" fill="#37444A"/>
 <path transform="translate(598,424)" d="m0 0h1c0.268 7.81-0.572 15.4-1.44 23.2-0.273 2.47-0.542 4.94-0.809 7.42-0.0651 0.604-0.13 1.21-0.197 1.83-0.684 6.51-1.14 13-1.56 19.6h-1c-0.0231-3.89-0.0409-7.79-0.0518-11.7-0.00522-1.81-0.0123-3.62-0.0236-5.42-0.0108-1.74-0.0168-3.49-0.0194-5.23-0.00275-0.991-0.0106-1.98-0.0184-2.97-7.55e-5 -0.601-1.51e-4 -1.2-2.29e-4 -1.82-0.00222-0.531-0.00444-1.06-0.00673-1.61 0.12-1.26 0.12-1.26 1.12-2.26 0.205-1.31 0.205-1.31 0.316-2.94 0.0419-0.583 0.0838-1.17 0.127-1.77 0.0393-0.612 0.0786-1.22 0.119-1.85 0.0216-0.308 0.0216-0.308 0.131-1.87 0.106-1.52 0.208-3.05 0.307-4.57h2v-8z" fill="#91AED0"/>
 <path transform="translate(247,725)" d="m0 0v5h-2v-3c-0.197 0.0815-0.197 0.0815-1.19 0.494-2.28 0.639-4.34 0.631-6.69 0.604-0.462-0.00141-0.924-0.00283-1.4-0.00429-1.47-0.00557-2.93-0.0181-4.4-0.0309-0.998-0.00502-2-0.00958-2.99-0.0137-2.44-0.0101-4.88-0.0297-7.32-0.0488v17h-1v-17h-2v-2c3.49-0.144 6.97-0.286 10.5-0.427 1.19-0.0482 2.37-0.0967 3.56-0.146 1.71-0.0703 3.42-0.139 5.12-0.208 0.526-0.0219 1.05-0.0437 1.59-0.0663 2.76-0.11 5.5-0.176 8.26-0.152z" fill="#B5EBFB"/>
 <path transform="translate(392,540)" d="m0 0h1c0.0272 1.27 0.0469 2.54 0.0625 3.81 0.00838 0.356 0.0168 0.713 0.0254 1.08 0.0209 2.28-0.362 3.93-1.09 6.11-0.263 1.89-0.413 3.79-0.562 5.69-0.0432 0.511-0.0864 1.02-0.131 1.55-0.106 1.25-0.208 2.51-0.307 3.76h-2c0.0464 0.329 0.0928 0.657 0.141 0.996 0.402 5.3-1.84 9.38-4.14 14-3.89-3.04-4.99-6.26-6-11 0.93 0.309 0.93 0.309 2 1 0.633 1.41 0.633 1.41 1.12 3.06 0.168 0.548 0.335 1.1 0.508 1.66 0.121 0.422 0.242 0.843 0.367 1.28h2c0.125-0.634 0.25-1.27 0.379-1.92 0.74-3.7 1.52-7.39 2.3-11.1 0.259-1.23 0.518-2.47 0.777-3.7 1.14-5.44 2.33-10.9 3.55-16.3z" fill="#648593"/>
 <path transform="translate(1e3 843)" d="m0 0c-1.18 0.66-2.37 1.3-3.56 1.94-0.323 0.182-0.646 0.365-0.979 0.553-5.89 3.08-13.2 2.76-19.7 3.07-0.415 0.0212-0.829 0.0424-1.26 0.0642-6.5 0.331-13 0.505-19.5 0.373v-2c0.362-0.0184 0.723-0.0368 1.1-0.0557 3.47-0.179 6.94-0.369 10.4-0.571 1.78-0.104 3.56-0.203 5.35-0.292 7.7-0.388 15.1-0.948 22.5-3.16 0.451-0.133 0.902-0.265 1.37-0.402 0.194-0.0617 0.194-0.0617 1.18-0.374 1.33-0.178 1.95 0.16 3.07 0.857z" fill="#B3CCE2"/>
 <path transform="translate(516,510)" d="m0 0h1c0.423 14.1-0.791 28-2 42h-1c-0.0467-4.29-0.0821-8.59-0.104-12.9-0.0104-2-0.0244-3.99-0.0473-5.99-0.022-1.93-0.0338-3.86-0.0389-5.8-0.00364-0.73-0.0108-1.46-0.0217-2.19-0.077-5.35 0.703-10 2.21-15.1z" fill="#242C31"/>
 <path transform="translate(1107,764)" d="m0 0v33h-1c-0.711-10.4-1.11-20.6-1-31h-19v-1c2.19-0.171 4.37-0.336 6.56-0.5 0.305-0.0238 0.305-0.0238 1.85-0.145 0.305-0.0226 0.305-0.0226 1.85-0.137 0.275-0.0209 0.275-0.0209 1.67-0.127 3.02-0.133 6.05-0.0918 9.08-0.0918z" fill="#5A6F79"/>
 <path transform="translate(533,808)" d="m0 0c1.99 1.99 2.47 3.07 3.04 5.66 0.0836 0.35 0.167 0.7 0.253 1.06 0.265 1.11 0.52 2.23 0.774 3.34 0.259 1.12 0.52 2.24 0.785 3.35 0.164 0.694 0.325 1.39 0.481 2.08 0.56 2.39 0.56 2.39 1.67 3.5 0.234 1.03 0.234 1.03 0.389 2.32 0.06 0.48 0.12 0.961 0.182 1.46 0.0605 0.52 0.121 1.04 0.183 1.58 0.0652 0.531 0.13 1.06 0.197 1.61 0.208 1.7 0.409 3.4 0.611 5.1 0.14 1.15 0.28 2.3 0.42 3.46 0.344 2.83 0.682 5.65 1.02 8.48-1.95-0.877-1.95-0.877-2.41-1.98-0.0733-0.398-0.147-0.797-0.222-1.21-0.084-0.448-0.168-0.895-0.254-1.36-0.0785-0.481-0.157-0.961-0.238-1.46-0.0849-0.489-0.17-0.978-0.257-1.48-0.729-4.53-0.821-8.95-0.618-13.5h-2c-0.33-2.97-0.66-5.94-1-9h-2c-0.33-4.29-0.66-8.58-1-13z" fill="#49555D"/>
 <path transform="translate(416,415)" d="m0 0c3.8-0.0236 7.6-0.0412 11.4-0.0518 1.77-0.00512 3.53-0.012 5.3-0.0236 7.43-0.0473 14.8 0.00375 22.3 0.454 0.298 0.0153 0.298 0.0153 1.81 0.0928 0.544 0.0384 1.09 0.0769 1.65 0.116 0.239 0.0155 0.239 0.0155 1.45 0.094 0.376 0.105 0.752 0.21 1.14 0.318 0.165 0.33 0.165 0.33 1 2h-20v-2h-26v-1z" fill="#323843"/>
 <path transform="translate(168,735)" d="m0 0h1c0.0247 2.26 0.0429 4.52 0.0549 6.78 0.00503 0.769 0.0119 1.54 0.0205 2.31 0.0121 1.1 0.0178 2.21 0.0222 3.31 0.00516 0.345 0.0103 0.69 0.0156 1.04 2.01e-4 0.852-0.0523 1.7-0.113 2.55-0.33 0.33-0.66 0.66-1 1-0.995 4.53-1.18 9.19-1.32 13.8-0.0208 0.612-0.0416 1.22-0.063 1.85-0.0646 1.93-0.124 3.85-0.183 5.78-0.0433 1.32-0.0869 2.63-0.131 3.95-0.106 3.2-0.208 6.41-0.307 9.61h-1c-0.376-17.6 0.0929-34.6 3-52z" fill="#38454A"/>
 <path transform="translate(953,782)" d="m0 0c19 0.719 19 0.719 25 1.94 0.189 0.0373 0.189 0.0373 1.14 0.226 2.47 0.566 3.61 1.34 5.86 2.84-6.93-0.33-13.9-0.66-21-1v-1c-0.626-0.049-1.25-0.098-1.9-0.148-0.826-0.0751-1.65-0.151-2.48-0.227-0.413-0.0309-0.825-0.0619-1.25-0.0938-0.4-0.0387-0.799-0.0773-1.21-0.117-0.367-0.0314-0.733-0.0628-1.11-0.0952-1.41-0.427-2.09-1.23-3.05-2.32z" fill="#85A2B0"/>
 <path transform="translate(827,779)" d="m0 0c0.99 0.33 1.98 0.66 3 1-2.57 2.04-4.98 2.61-8.19 3.12-0.257 0.0417-0.257 0.0417-1.56 0.253-4.54 0.658-9.05 0.84-13.6 0.872-0.336 0.00518-0.672 0.0104-1.02 0.0157-4.57 0.0556-8.37-0.527-12.6-2.27 1.82-1.15 3.31-1.1 5.42-1.06 0.697 0.00867 1.39 0.0172 2.09 0.0256 0.183 0.00311 0.183 0.00311 1.11 0.0188 6.15 0.098 12.2 0.0141 18.4-0.419 0.296-0.0197 0.296-0.0197 1.8-0.119 4.08-0.315 4.08-0.315 5.2-1.44z" fill="#48585F"/>
 <path transform="translate(789,609)" d="m0 0h1c0.228 8.54-0.389 16.8-1.5 25.2-0.145 1.15-0.29 2.3-0.434 3.45-0.348 2.77-0.704 5.53-1.07 8.3h-1c0.33-10.2 0.66-20.5 1-31h2v-6z" fill="#83B5C2"/>
 <path transform="translate(131,415)" d="m0 0h2c0.33 4.29 0.66 8.58 1 13h4v11h2c0.33 3.96 0.66 7.92 1 12-2.25-2.25-2.25-2.25-2.41-4.16-0.0387-0.4-0.0773-0.799-0.117-1.21-0.0309-0.413-0.0619-0.825-0.0938-1.25-0.0387-0.42-0.0773-0.84-0.117-1.27-0.0939-1.03-0.177-2.07-0.258-3.1h-2c-0.0374-0.424-0.0748-0.848-0.113-1.29-0.378-3.37-0.876-5.92-2.39-8.96-2.19-4.66-2.25-9.67-2.5-14.8z" fill="#778CA9"/>
 <path transform="translate(456,533)" d="m0 0h1c0.138 7.07-0.242 14-1 21h-2c0.0232 0.496 0.0464 0.993 0.0703 1.5 0.155 4.89-0.44 8.84-2.07 13.5h-1c-0.191-10.8-0.191-10.8 1-16h2c0.0251-0.428 0.0501-0.856 0.0759-1.3 0.096-1.61 0.195-3.22 0.296-4.84 0.0429-0.693 0.0846-1.39 0.125-2.08 0.234-3.99 0.556-7.89 1.5-11.8z" fill="#303D44"/>
 <path transform="translate(802 807)" d="m0 0c1.23-0.0712 2.45-0.119 3.67-0.154 0.177-0.0106 0.177-0.0106 1.07-0.0645 1.88-0.0257 3.07 0.313 4.47 1.52 1.74 1.99 2.15 4.19 2.59 6.73 0.0902 0.43 0.18 0.86 0.273 1.3 0.546 2.9 0.389 4.95-0.523 7.76-0.653-1.56-1.3-3.12-1.94-4.69-0.182-0.435-0.365-0.87-0.553-1.32-0.177-0.435-0.354-0.87-0.537-1.32-0.0812-0.196-0.0812-0.196-0.492-1.19-0.683-2.11-1.05-4.31-1.48-6.49h-21v-1c4.81-0.421 9.63-0.778 14.5-1.1z" fill="#343C41"/>
 <path transform="translate(1068,821)" d="m0 0c0.33 0.99 0.66 1.98 1 3 0.625-0.0606 1.25-0.121 1.89-0.184 2.36-0.227 4.71-0.45 7.07-0.671 1.01-0.0957 2.02-0.193 3.04-0.291 6.02-0.584 11.9-1.01 18-0.854-1.06 1.25-1.69 1.93-3.31 2.3-0.486 0.0251-0.972 0.0501-1.47 0.0759-0.53 0.0342-1.06 0.0683-1.61 0.104-0.551 0.0264-1.1 0.0529-1.67 0.0801-1.1 0.0598-2.19 0.123-3.29 0.191-0.485 0.0239-0.97 0.0479-1.47 0.0725-1.18 0.174-1.18 0.174-2.18 1.17-1.49 0.114-1.49 0.114-3.38 0.0977-0.332-0.00141-0.663-0.00283-1-0.00429-1.06-0.0056-2.12-0.0182-3.18-0.0309-0.718-0.00501-1.44-0.00958-2.15-0.0137-1.76-0.011-3.52-0.0283-5.28-0.0488-0.33-1.65-0.66-3.3-1-5z" fill="#93ACBD"/>
 <path transform="translate(946,533)" d="m0 0c-0.429 4.65-2.59 8.12-5 12-1.16-1.89-1-2.51-1-5-2.64-0.33-5.28-0.66-8-1 3.85-3.23 8.81-6.33 14-6z" fill="#82ABBE"/>
 <path transform="translate(464,479)" d="m0 0h1c0.33 4.62 0.66 9.24 1 14-0.99 0.33-1.98 0.66-3 1-0.33 6.6-0.66 13.2-1 20h-2c0.493-11.8 2.11-23.3 4-35z" fill="#303A42"/>
 <path transform="translate(786,470)" d="m0 0h1c0.0251 0.353 0.0501 0.706 0.0759 1.07 0.116 1.6 0.239 3.2 0.362 4.81 0.0393 0.556 0.0786 1.11 0.119 1.68 0.0419 0.535 0.0838 1.07 0.127 1.62 0.0183 0.246 0.0183 0.246 0.111 1.49 0.205 1.33 0.205 1.33 0.711 2.26 0.581 1.26 0.615 2.12 0.608 3.5-7.55e-5 0.48-1.51e-4 0.961-2.29e-4 1.46-0.00516 0.515-0.0103 1.03-0.0156 1.56-0.00141 0.53-0.00283 1.06-0.00429 1.61-0.00559 1.69-0.0181 3.38-0.0309 5.07-0.00502 1.15-0.00958 2.29-0.0137 3.44-0.011 2.81-0.0278 5.62-0.0488 8.43h-1c-1.41-12.7-2.33-25.2-2-38z" fill="#262C32"/>
 <path transform="translate(713,765)" d="m0 0h1c1.49 10.7 2.31 21.2 2 32h-2c-0.982-10.7-1.12-21.3-1-32z" fill="#46555C"/>
 <path transform="translate(252,553)" d="m0 0c0.825 0.33 0.825 0.33 5 2 0.283 5.17-0.332 9.1-2 14h-2c-0.33-5.28-0.66-10.6-1-16z" fill="#101314"/>
 <path transform="translate(524,421)" d="m0 0h1c0.193 2.77 0.372 5.55 0.537 8.33 0.0582 0.943 0.12 1.89 0.187 2.83 0.0949 1.36 0.175 2.72 0.253 4.08 0.0322 0.417 0.0644 0.834 0.0976 1.26 0.134 2.66-0.294 4.28-1.6 6.59-0.672 1.29-0.793 2.48-0.887 3.93-0.0387 0.529-0.0773 1.06-0.117 1.6-0.0155 0.269-0.0155 0.269-0.0938 1.63-0.0387 0.554-0.0773 1.11-0.117 1.68-0.0935 1.36-0.179 2.71-0.258 4.07h-1c-0.0247-2.83-0.0428-5.66-0.0549-8.49-0.00504-0.963-0.0119-1.93-0.0205-2.89-0.0121-1.38-0.0178-2.77-0.0222-4.15-0.00516-0.432-0.0103-0.865-0.0156-1.31-1.99e-4 -1.05 0.052-2.11 0.113-3.16 0.33-0.33 0.66-0.66 1-1 0.205-1.49 0.205-1.49 0.316-3.38 0.0208-0.332 0.0416-0.663 0.063-1 0.0654-1.06 0.124-2.12 0.183-3.18 0.0432-0.718 0.0868-1.44 0.131-2.15 0.107-1.76 0.208-3.52 0.307-5.28z" fill="#89A3C4"/>
 <path transform="translate(855,420)" d="m0 0c11.3 0.616 22.7 1.27 34 2v1c-3.99 0.0696-7.98 0.123-12 0.155-1.85 0.0156-3.71 0.0368-5.56 0.0709-1.79 0.0327-3.58 0.0506-5.37 0.0583-0.681 0.00553-1.36 0.0163-2.04 0.0326-5.35 0.122-5.35 0.122-7.16-1.01-0.838-0.83-0.838-0.83-1.9-2.31z" fill="#B1CFF9"/>
 <path transform="translate(893,825)" d="m0 0h1c1.06 7.34 1.1 14.6 1 22 3.63 0.33 7.26 0.66 11 1v1c-1.98 0.0289-3.96 0.0468-5.94 0.0625-0.564 0.00838-1.13 0.0168-1.71 0.0254-0.269 0.00161-0.269 0.00161-1.63 0.00977-0.249 0.00262-0.249 0.00262-1.51 0.0159-1.22-0.114-1.22-0.114-2.22-1.11-0.12-0.993-0.12-0.993-0.114-2.22 7.55e-5 -0.46 1.51e-4 -0.921 2.29e-4 -1.4 0.00516-0.498 0.0103-0.996 0.0156-1.51 0.00141-0.509 0.00283-1.02 0.00429-1.54 0.00561-1.63 0.0182-3.26 0.0309-4.89 0.00501-1.1 0.00958-2.21 0.0137-3.31 0.011-2.71 0.0278-5.42 0.0488-8.13z" fill="#8FA4B6"/>
 <path transform="translate(181,618)" d="m0 0h2c0.33 4.29 0.66 8.58 1 13h2c0.66 6.27 1.32 12.5 2 19-2.25-2.25-2.25-2.25-2.69-4.44-0.1-0.484-0.2-0.968-0.303-1.47-0.099-0.521-0.198-1.04-0.3-1.58-0.108-0.54-0.216-1.08-0.328-1.64-0.227-1.14-0.45-2.29-0.67-3.43-0.335-1.74-0.683-3.48-1.03-5.21-0.22-1.11-0.438-2.23-0.656-3.34-0.103-0.515-0.206-1.03-0.312-1.56-0.597-3.15-0.841-6.12-0.711-9.33z" fill="#77A4B0"/>
 <path transform="translate(756,732)" d="m0 0h23v1c-6.6 0.33-13.2 0.66-20 1-0.635 3.17-1.14 5.84-1.32 8.99-0.0208 0.348-0.0416 0.696-0.063 1.05-0.0643 1.09-0.124 2.18-0.183 3.27-0.0433 0.748-0.0869 1.5-0.131 2.24-0.106 1.81-0.207 3.63-0.307 5.44h-1v-23z" fill="#BBF1FF"/>
 <path transform="translate(1105,797)" d="m0 0c-2.22 1.66-3.88 2.33-6.66 2.78-0.173 0.0292-0.173 0.0292-1.05 0.177-1.12 0.187-2.23 0.365-3.35 0.542-1.54 0.254-3.08 0.512-4.62 0.77-0.377 0.0622-0.754 0.124-1.14 0.189-2.93 0.488-5.83 1.09-8.73 1.73-4.18 0.9-8.16 1.03-12.4 0.812v-1c2.31-0.486 4.62-0.965 6.94-1.44 0.341-0.0698 0.682-0.14 1.03-0.211 4.48-0.91 8.94-1.71 13.5-2.06 2.43-0.198 2.43-0.198 3.53-1.29 1.26-0.238 2.48-0.421 3.75-0.562 0.358-0.0425 0.717-0.0849 1.09-0.129 2.73-0.305 5.42-0.428 8.16-0.309z" fill="#56666F"/>
 <path transform="translate(920,601)" d="m0 0c0.33 0.66 0.66 1.32 1 2-0.66 1.32-1.32 2.64-2 4 5.94 0.33 11.9 0.66 18 1v1c-4.65 0.972-9.14 1.12-13.9 1.06-0.695-0.00503-1.39-0.00959-2.09-0.0137-1.68-0.0117-3.36-0.028-5.04-0.0488-0.245-3.58-0.245-3.58 0.875-5.48 0.371-0.418 0.742-0.835 1.12-1.27 0.371-0.428 0.742-0.856 1.12-1.3 0.289-0.315 0.577-0.629 0.875-0.953z" fill="#3F555C"/>
 <path transform="translate(569,420)" d="m0 0v1c-0.146 0.0125-0.146 0.0125-0.886 0.0759-1.33 0.116-2.66 0.239-3.99 0.362-0.46 0.0393-0.92 0.0786-1.39 0.119-0.222 0.0209-0.222 0.0209-1.35 0.127-0.204 0.0183-0.204 0.0183-1.24 0.111-1.15 0.205-1.15 0.205-2.02 0.717-1.47 0.642-2.59 0.569-4.19 0.51-0.62-0.0201-1.24-0.0402-1.88-0.0609-0.675-0.0272-1.35-0.0545-2.02-0.0819-0.692-0.0243-1.38-0.0482-2.08-0.0715-1.82-0.0627-3.64-0.132-5.45-0.202-1.86-0.0708-3.71-0.136-5.57-0.201-3.64-0.129-7.28-0.264-10.9-0.404-0.33 0.99-0.66 1.98-1 3v-4c3.96-0.133 7.93-0.263 11.9-0.391 1.84-0.0595 3.69-0.12 5.53-0.182 8.86-0.297 17.7-0.511 26.6-0.427z" fill="#ABC8F4"/>
 <path transform="translate(1010,803)" d="m0 0c1.82 0.484 2.65 0.747 4 2 0.485 1.22 0.822 2.28 1.11 3.55 0.0831 0.352 0.166 0.705 0.252 1.07 0.8 3.66 1.01 7.29 1.01 11 0.00445 1.12 0.0412 2.23 0.0786 3.35 0.0786 5.2 0.0786 5.2-1.37 7.41-0.979 0.984-1.94 1.82-3.08 2.6-0.227-0.598-0.454-1.2-0.688-1.81-0.128-0.336-0.255-0.673-0.387-1.02 0.0742-1.17 0.0742-1.17 1.56-2.49 1.34-1.3 1.5-1.62 1.85-3.58-4.69e-4 -0.704-0.0171-1.41-0.0476-2.11-0.00424-0.373-0.00849-0.746-0.0129-1.13-0.0167-1.18-0.0543-2.36-0.0926-3.55-0.0151-0.805-0.0287-1.61-0.041-2.42-0.0329-1.97-0.0846-3.93-0.146-5.9h-2c-0.66-2.31-1.32-4.62-2-7z" fill="#758996"/>
 <path transform="translate(320,587)" d="m0 0h4c0.575 1.94 1.14 3.88 1.71 5.82 0.193 0.659 0.387 1.32 0.582 1.98 0.282 0.95 0.558 1.9 0.834 2.85 0.0838 0.285 0.0838 0.285 0.508 1.73 0.362 1.6 0.436 2.99 0.367 4.63-0.974-0.371-0.974-0.371-2-1-0.319-0.94-0.319-0.94-0.414-2.07-0.0387-0.403-0.0773-0.806-0.117-1.22-0.0309-0.421-0.0619-0.842-0.0938-1.28-0.0387-0.425-0.0773-0.849-0.117-1.29-0.0943-1.05-0.177-2.1-0.258-3.15h-2l-1-2c-0.289 0.495-0.577 0.99-0.875 1.5-0.371 0.495-0.743 0.99-1.12 1.5h-2c0.66-2.64 1.32-5.28 2-8z" fill="#34454B"/>
 <path transform="translate(526,422)" d="m0 0h27v1c-0.296 0.00809-0.592 0.0162-0.898 0.0245-3.08 0.086-6.16 0.186-9.25 0.293-1.15 0.0383-2.3 0.0731-3.45 0.104-1.65 0.0457-3.31 0.104-4.96 0.164-0.257 0.00578-0.257 0.00578-1.56 0.035-3.53 0.146-3.53 0.146-5.2 1.24-0.796 1.32-0.993 2.2-1.1 3.74-0.0387 0.49-0.0773 0.98-0.117 1.48-0.0155 0.254-0.0155 0.254-0.0938 1.54-0.0387 0.516-0.0773 1.03-0.117 1.56-0.0941 1.27-0.18 2.54-0.258 3.81h-1c-0.0292-1.94-0.0469-3.87-0.0625-5.81-0.00838-0.547-0.0168-1.09-0.0254-1.66-0.00161-0.266-0.00161-0.266-0.00977-1.61-0.00524-0.487-0.0105-0.974-0.0159-1.48 0.114-1.44 0.114-1.44 1.11-4.44z" fill="#B6D5FE"/>
 <path transform="translate(609,790)" d="m0 0h1c-0.265 9.22-1.91 17.3-5 26h-1c0.116-1.4 0.242-2.79 0.375-4.19 0.0309-0.387 0.0619-0.775 0.0938-1.17 0.22-2.22 0.639-4.04 1.54-6.08 1.18-2.75 1.4-5.35 1.56-8.31 0.0598-0.974 0.123-1.95 0.191-2.92 0.0239-0.424 0.0479-0.848 0.0725-1.28 0.174-1.04 0.174-1.04 1.17-2.04z" fill="#8099A7"/>
 <path transform="translate(999,487)" d="m0 0c0.33 1.32 0.66 2.64 1 4-3.3 0.33-6.6 0.66-10 1v6c-1.01-0.591-2.01-1.2-3-1.81-0.278-0.168-0.278-0.168-1.69-1.02-1.31-1.17-1.31-1.17-1.5-2.8 0.0619-0.45 0.124-0.9 0.188-1.36 3.31-1 6.31-1.12 9.75-1.06 0.507 0.00451 1.01 0.00902 1.54 0.0137 1.24 0.0117 2.48 0.0281 3.71 0.0488v-3z" fill="#87A9C3"/>
 <path transform="translate(447,585)" d="m0 0h1v11h-2v9h-2v6h-1c-0.203-4.98-0.158-9.31 1.42-14.1 0.734-2.42 1.22-4.86 1.7-7.34 0.0875-0.45 0.175-0.9 0.265-1.36 0.206-1.07 0.408-2.13 0.61-3.2z" fill="#4D6971"/>
 <path transform="translate(411,433)" d="m0 0h1c-0.449 7.17-1.19 14-3 21h-1c-0.139-6.41 0.256-12.6 1-19h2v-2z" fill="#3B4551"/>
 <path transform="translate(612,768)" d="m0 0c0.99 0.33 1.98 0.66 3 1-0.497 6.94-2.01 13.3-4 20h-1c0.33-4.62 0.66-9.24 1-14h2c-0.33-2.31-0.66-4.62-1-7z" fill="#9ABECF"/>
 <path transform="translate(921,767)" d="m0 0h23v1c-6.6 0.33-13.2 0.66-20 1-1.12 4.5-1.12 4.5-1.56 6.75-0.0838 0.428-0.168 0.856-0.254 1.3-0.0606 0.315-0.121 0.629-0.184 0.953h-1v-11z" fill="#020101"/>
 <path transform="translate(926,679)" d="m0 0c-7.28 3.7-15 3.72-23 4 2.2-1.63 3.92-2.36 6.65-2.89 0.341-0.0661 0.683-0.132 1.03-0.2 0.718-0.137 1.44-0.27 2.16-0.4 1.09-0.199 2.18-0.415 3.26-0.632 3.5-0.668 6.47-1.21 9.89 0.119z" fill="#5A7A83"/>
 <path transform="translate(400,497)" d="m0 0h1c-0.613 8.8-2.29 17.4-4 26h-1c0.118-2.4 0.242-4.81 0.372-7.21 0.0434-0.818 0.085-1.64 0.125-2.45 0.0577-1.17 0.121-2.35 0.186-3.52 0.0167-0.367 0.0334-0.733 0.0506-1.11 0.152-2.59 0.152-2.59 1.27-3.71 0.205-1.16 0.366-2.33 0.5-3.5 0.389-3.39 0.389-3.39 1.5-4.5z" fill="#323D45"/>
 <path transform="translate(287,463)" d="m0 0c0.737 1.16 1.06 1.72 0.778 3.09-0.16 0.393-0.32 0.786-0.485 1.19-0.174 0.444-0.347 0.889-0.526 1.35-0.191 0.472-0.382 0.944-0.579 1.43-1.9 4.92-3.22 9.76-4.19 14.9h-1v-10h2c0.0374-0.531 0.0748-1.06 0.113-1.61 0.364-4.17 0.707-7.35 3.89-10.4z" fill="#323B44"/>
 <path transform="translate(562,797)" d="m0 0h3c1.12 1.5 1.12 1.5 2 3h1c0.0271 1.12 0.0464 2.25 0.0625 3.38 0.0116 0.626 0.0232 1.25 0.0352 1.9-0.09 1.59-0.253 2.41-1.1 3.73h-2c-0.99-3.96-1.98-7.92-3-12z" fill="#121416"/>
 <path transform="translate(1030,565)" d="m0 0v2c-4.62 0.33-9.24 0.66-14 1-0.33 1.32-0.66 2.64-1 4-0.675-0.425-1.34-0.865-2-1.31-0.371-0.244-0.742-0.487-1.12-0.738-1.21-1.31-0.94-2.22-0.875-3.95 2.04-0.171 4.08-0.336 6.12-0.5 0.285-0.0238 0.285-0.0238 1.73-0.145 3.73-0.296 7.41-0.417 11.1-0.355z" fill="#97CCE0"/>
 <path transform="translate(1e3 843)" d="m0 0c-7.66 4.28-14.3 5.2-23 5v-1c0.51-0.11 1.02-0.219 1.55-0.332 0.734-0.16 1.47-0.32 2.2-0.48 0.393-0.0855 0.786-0.171 1.19-0.259 2.43-0.539 4.85-1.13 7.26-1.76 0.537-0.141 1.07-0.281 1.63-0.427 1.06-0.281 2.13-0.567 3.19-0.86 0.245-0.0643 0.245-0.0643 1.48-0.389 0.435-0.118 0.87-0.236 1.32-0.358 1.4-0.153 2.01 0.133 3.19 0.87z" fill="#748492"/>
 <path transform="translate(271,672)" d="m0 0c1.11 3.69 1.11 3.69 0.562 5.25-0.186 0.247-0.371 0.495-0.562 0.75h-2c-0.049 0.315-0.098 0.629-0.148 0.953-0.527 3.02-1.36 5.37-2.85 8.05h-2v2h-2c0.33-1.32 0.66-2.64 1-4h2c0.182-0.603 0.364-1.21 0.551-1.83 2.46-7.89 2.46-7.89 5.45-11.2z" fill="#324146"/>
 <path transform="translate(971,670)" d="m0 0c0.33 0.66 0.66 1.32 1 2h-6v2h-13c5.79-3.86 11.3-4.31 18-4z" fill="#2A373A"/>
 <path transform="translate(769,663)" d="m0 0v2c-1.57 1.21-3.2 2.17-5 3v2c-1.65 0.495-1.65 0.495-10 3 2.58-2.91 5.41-5.09 8.62-7.25 0.396-0.27 0.793-0.54 1.2-0.819 0.38-0.251 0.759-0.501 1.15-0.759 0.171-0.113 0.171-0.113 1.03-0.685 0.99-0.487 0.99-0.487 2.99-0.487z" fill="#2F3F43"/>
 <path transform="translate(471,425)" d="m0 0c0.443 6.77-0.872 13.4-2 20h-1v-19c2-1 2-1 3-1z" fill="#A3C0E9"/>
 <path transform="translate(404,480)" d="m0 0h1v11h-2v5c-0.66 0.33-1.32 0.66-2 1 0.451-5.9 1.08-11.4 3-17z" fill="#84A5C0"/>
 <path transform="translate(941 675)" d="m0 0c0.738 0.00665 1.48 0.0186 2.21 0.0352 0.377 0.00451 0.754 0.00902 1.14 0.0137 0.932 0.0118 1.86 0.0297 2.79 0.0488v1h-6v2c-0.471 0.0606-0.941 0.121-1.43 0.184-0.311 0.0419-0.311 0.0419-1.89 0.254-0.307 0.0406-0.307 0.0406-1.86 0.246-1.82 0.316-1.82 0.316-3.39 0.879-1.62 0.493-2.5 0.396-4.12 0-0.437-0.102-0.874-0.204-1.32-0.309-0.326-0.0838-0.652-0.168-0.988-0.254 3.04-1.9 5.77-2.35 9.27-2.66 2.29-0.214 3.4-1.32 5.58-1.44z" fill="#242E31"/>
 <path transform="translate(943,572)" d="m0 0v4c-0.309 0.103-0.619 0.206-0.938 0.312-1.49 0.961-1.63 2.02-2.06 3.69h-3c0.31-0.647 0.623-1.29 0.938-1.94 0.174-0.36 0.348-0.719 0.527-1.09 0.535-0.973 0.535-0.973 1.54-1.97h-8c3.63-2.42 6.64-3.23 11-3z" fill="#37494F"/>
 <path transform="translate(452,553)" d="m0 0h2c0.235 5.75-0.0273 10.5-2 16h-1c-0.191-10.8-0.191-10.8 1-16z" fill="#465C66"/>
 <path transform="translate(1014,520)" d="m0 0c0.672 0.45 1.34 0.91 2 1.38 0.186 0.128 0.186 0.128 1.12 0.773 0.144 0.141 0.144 0.141 0.875 0.852v2h-19c-0.33 0.66-0.66 1.32-1 2v-3c2.64-0.165 2.64-0.165 16-1v-3z" fill="#303D43"/>
 <path transform="translate(234,395)" d="m0 0 1 2h2v17h-1c-0.66-6.27-1.32-12.5-2-19z" fill="#333A45"/>
 <path transform="translate(890,769)" d="m0 0c2 1.63 2.3 2.85 2.56 5.38 0.0748 0.619 0.15 1.24 0.227 1.88 0.0696 0.577 0.139 1.15 0.211 1.75 0.231 1.43 0.522 2.62 1 4 0.66 0.33 1.32 0.66 2 1-0.66 1.32-1.32 2.64-2 4-3.16-5.83-3.68-11.5-4-18z" fill="#95B7C7"/>
 <path transform="translate(327,770)" d="m0 0c1.96 2.45 2.22 3.87 2 7h-2v13h-1c-0.0247-2.69-0.0428-5.38-0.0549-8.06-0.00504-0.915-0.0119-1.83-0.0205-2.74-0.0121-1.31-0.0178-2.63-0.0222-3.94-0.00516-0.41-0.0103-0.821-0.0156-1.24-1.99e-4 -1 0.052-2.01 0.113-3.01 0.33-0.33 0.66-0.66 1-1z" fill="#010101"/>
 <path transform="translate(993,485)" d="m0 0c4.29 1 4.29 1 6 2v3h-8v-3h2v-2z" fill="#1A1E21"/>
 <path transform="translate(1082,443)" d="m0 0c6.4 0.342 6.4 0.342 7.84 1.92 0.473 1.08 0.473 1.08 0.773 2.14 0.387 0.938 0.387 0.938 1.39 1.4 0.996 0.535 0.996 0.535 1.41 1.73 0.0696 0.452 0.139 0.905 0.211 1.37 0.0748 0.455 0.15 0.91 0.227 1.38 0.049 0.349 0.098 0.699 0.148 1.06-0.28-0.303-0.559-0.606-0.848-0.918-2.77-2.89-5.6-5.24-8.92-7.47-0.761-0.516-1.5-1.06-2.24-1.61v-1z" fill="#3C4652"/>
 <path transform="translate(318,405)" d="m0 0h6c2.56 3.84 2.19 7.56 2 12-1.33-0.995-2.13-1.62-3-3-0.263-2.02-0.177-3.97 0-6-0.825-0.33-0.825-0.33-5-2v-1z" fill="#A7C1ED"/>
 <path transform="translate(585,762)" d="m0 0c1.01 3.14 0.997 5.11 0.0625 8.25-0.05 0.182-0.05 0.182-0.303 1.1-0.245 0.885-0.501 1.77-0.76 2.65h-2c-0.33 0.99-0.66 1.98-1 3-0.788-1.21-1.05-1.76-0.762-3.21 0.0832-0.219 0.0832-0.219 0.504-1.33 0.179-0.481 0.358-0.962 0.543-1.46 0.195-0.499 0.389-0.998 0.59-1.51 0.187-0.499 0.374-0.998 0.566-1.51 0.773-2.05 1.55-4.05 2.56-5.99z" fill="#8EB1C0"/>
 <path transform="translate(325,764)" d="m0 0h2c0.7 1.45 1.38 2.91 2.06 4.38 0.199 0.413 0.398 0.825 0.604 1.25 0.184 0.4 0.367 0.799 0.557 1.21 0.173 0.367 0.346 0.733 0.524 1.11 0.254 1.05 0.254 1.05-0.746 3.05-0.99-1.32-1.98-2.64-3-4-0.33 0.165-0.33 0.165-2 1v-8z" fill="#3F4D53"/>
 <path transform="translate(585,756)" d="m0 0h2c-0.466 4.53-1.77 8.04-4 12h-2c0.33-2.31 0.66-4.62 1-7h3v-5z" fill="#181C1F"/>
 <path transform="translate(173,587)" d="m0 0c1.51 2.8 2.5 5.4 3.19 8.5 0.0947 0.378 0.189 0.755 0.287 1.14 0.624 2.77 0.392 4.65-0.475 7.36-2.27-5.83-3.46-10.7-3-17z" fill="#476068"/>
 <path transform="translate(145,470)" d="m0 0c1.51 2.8 2.5 5.4 3.19 8.5 0.0947 0.378 0.189 0.755 0.287 1.14 0.624 2.77 0.392 4.65-0.475 7.36-2.27-5.83-3.46-10.7-3-17z" fill="#414E5A"/>
 <path transform="translate(439,627)" d="m0 0h1c0.407 5.8-0.278 9.82-3 15-1.31-3.65-0.684-6.11 0.438-9.75 0.0738-0.253 0.0738-0.253 0.447-1.54 0.363-1.24 0.735-2.48 1.12-3.71z" fill="#506D75"/>
 <path transform="translate(959,604)" d="m0 0c0.66 0.33 1.32 0.66 2 1 0.312 1.31 0.312 1.31 0 3-2.29 2.11-4.7 3.19-7.81 3.19-0.73-0.0472-1.46-0.104-2.19-0.188 2.49-2.61 5.04-4.92 8-7z" fill="#8BC0CD"/>
 <path transform="translate(464,479)" d="m0 0h1c0.33 4.62 0.66 9.24 1 14-0.99 0.33-1.98 0.66-3 1-0.102-5.11-0.103-9.98 1-15z" fill="#22282E"/>
 <path transform="translate(168,731)" d="m0 0c1.4 3.87 0.716 7.26 0.0625 11.2-0.0999 0.65-0.2 1.3-0.303 1.97-0.246 1.59-0.5 3.19-0.76 4.78h-1c-0.0497-2.08-0.0859-4.16-0.11-6.24-0.01-0.707-0.0236-1.41-0.041-2.12-0.0244-1.02-0.0356-2.04-0.0444-3.06-0.0105-0.613-0.0209-1.23-0.0317-1.86 0.268-2.03 0.987-3.11 2.23-4.72z" fill="#87AEBC"/>
 <path transform="translate(789,621)" d="m0 0h1c0.218 2.22 0.415 4.45 0.592 6.67 0.0632 0.756 0.132 1.51 0.207 2.27 0.107 1.09 0.193 2.18 0.275 3.27 0.0576 0.655 0.115 1.31 0.175 1.98-0.249 1.81-0.249 1.81-3.25 4.81 0.33-6.27 0.66-12.5 1-19z" fill="#283538"/>
 <path transform="translate(379,566)" d="m0 0c0.93 0.309 0.93 0.309 2 1 0.633 1.41 0.633 1.41 1.12 3.06 0.168 0.548 0.335 1.1 0.508 1.66 0.0606 0.211 0.0606 0.211 0.367 1.28h2c0.33-1.32 0.66-2.64 1-4v7h-3c-0.672-1.29-1.34-2.58-2-3.88-0.0954-0.182-0.0954-0.182-0.578-1.11-0.18-0.354-0.361-0.709-0.547-1.07-0.168-0.325-0.335-0.649-0.508-0.984-0.367-0.961-0.367-0.961-0.367-2.96z" fill="#384950"/>
 <path transform="translate(931,500)" d="m0 0h3v5c2.64-0.66 5.28-1.32 8-2-1 2-1 2-1.94 2.41-0.186 0.0367-0.186 0.0367-1.13 0.222-0.403 0.0838-0.806 0.168-1.22 0.254-0.421 0.0786-0.842 0.157-1.28 0.238-0.212 0.0432-0.212 0.0432-1.29 0.262-1.05 0.212-2.1 0.414-3.15 0.613-0.33-2.31-0.66-4.62-1-7z" fill="#7D9EB6"/>
 <path transform="translate(1068,805)" d="m0 0c3 2 3 2 3.33 3.25-0.0129 0.216-0.0129 0.216-0.0781 1.31-0.00773 0.217-0.00773 0.217-0.0469 1.32-0.203 1.12-0.203 1.12-1.2 2.12-0.233 1.36-0.418 2.69-0.562 4.06-0.0432 0.377-0.0864 0.754-0.131 1.14-0.106 0.931-0.207 1.86-0.307 2.79h-1v-16z" fill="#181C1E"/>
 <path transform="translate(523,769)" d="m0 0c1.7 2.32 2.72 4.59 3.62 7.31 0.132 0.394 0.264 0.787 0.4 1.19 1.01 3.2 1.33 6.14 0.975 9.49-3.14-5.6-4.27-11.7-5-18z" fill="#69808C"/>
 <path transform="translate(937,550)" d="m0 0c0.118 3.52-0.442 6.82-2 10-1.58 1.14-3.09 1.64-5 2 1.43-4.63 4.12-8.19 7-12z" fill="#3D5057"/>
 <path transform="translate(292,447)" d="m0 0c1.37 3.68 0.634 5.75-0.938 9.25-0.195 0.459-0.391 0.918-0.592 1.39-0.48 1.12-0.971 2.24-1.47 3.36-0.745-2.58-1.15-4.49-0.688-7.19 0.0786-0.509 0.157-1.02 0.238-1.54 0.449-1.27 0.449-1.27 1.45-1.85 0.329-0.139 0.657-0.278 0.996-0.422 0.625-1.56 0.625-1.56 1-3z" fill="#465261"/>
 <path transform="translate(289,644)" d="m0 0c0.768 1.22 1.02 1.84 0.879 3.29-0.104 0.441-0.209 0.882-0.316 1.34-0.102 0.446-0.204 0.892-0.309 1.35-0.0419 0.169-0.0419 0.169-0.254 1.02h-3v3c-0.99 0.33-1.98 0.66-3 1 1.38-4.11 3.5-7.47 6-11z" fill="#34474B"/>
 <path transform="translate(946,606)" d="m0 0h2v4c0.66-0.99 1.32-1.98 2-3 1.32 0.66 2.64 1.32 4 2-0.765 0.508-1.54 1.01-2.31 1.5-0.429 0.278-0.859 0.557-1.3 0.844-1.39 0.656-1.39 0.656-4.39 0.656v-6z" fill="#1F282A"/>
 <path transform="translate(387,569)" d="m0 0h1v9h-6c0.33-1.32 0.66-2.64 1-4 0.66 0.66 1.32 1.32 2 2 0.66-2.31 1.32-4.62 2-7z" fill="#88B9CB"/>
 <path transform="translate(252,561)" d="m0 0h1v8h2c0.33-1.32 0.66-2.64 1-4v8c-1.32-0.66-2.64-1.32-4-2v-10z" fill="#5D7C88"/>
 <path transform="translate(1010,519)" d="m0 0c3.03 0.488 3.03 0.488 4 1 0.33 0.99 0.66 1.98 1 3h-16v-1h12c-0.33-0.99-0.66-1.98-1-3z" fill="#080706"/>
 <path transform="translate(410,445)" d="m0 0h1v11h-2c-0.33 1.32-0.66 2.64-1 4 0.14-1.75 0.288-3.5 0.438-5.25 0.0393-0.491 0.0786-0.982 0.119-1.49 0.247-2.85 0.662-5.5 1.44-8.26z" fill="#8DAACB"/>
 <path transform="translate(1037,431)" d="m0 0c5.96-0.293 11.2 0.504 17 2v1c-6.06 0.22-11.2 0.135-17-2v-1z" fill="#7D93B2"/>
 <path transform="translate(402,496)" d="m0 0c0.66 0.33 1.32 0.66 2 1v2h-2v9c-0.33 0.165-0.33 0.165-2 1-0.254-4.76 0.185-8.57 2-13z" fill="#9BC5E3"/>
 <path transform="translate(950,455)" d="m0 0h1v9h-2v6h-2c0.514-5.21 1.39-10 3-15z" fill="#3A4550"/>
 <path transform="translate(463,419)" d="m0 0h9v5h-2v-3h-6c-0.33-0.66-0.66-1.32-1-2z" fill="#ACC9F2"/>
 <path transform="translate(868,777)" d="m0 0c0 2.62-0.26 4.24-1 6.69-0.186 0.623-0.371 1.25-0.562 1.89-0.144 0.471-0.289 0.941-0.438 1.43-1.32-0.33-2.64-0.66-4-1l6-9z" fill="#39454B"/>
 <path transform="translate(259,554)" d="m0 0h1c0.671 2.36 1.15 4.54 1 7-1.39 1.81-3.02 2.9-5 4 0.309-1.46 0.622-2.92 0.938-4.38 0.087-0.413 0.174-0.825 0.264-1.25 0.087-0.4 0.174-0.799 0.264-1.21 0.0786-0.367 0.157-0.733 0.238-1.11 0.312-1.11 0.753-2.04 1.3-3.05z" fill="#7FAABB"/>
 <path transform="translate(344,804)" d="m0 0c0.33 0.165 0.33 0.165 2 1v2h2c0.33 2.64 0.66 5.28 1 8l-1-2h-2c-0.66-2.97-1.32-5.94-2-9z" fill="#849DAC"/>
 <path transform="translate(929,535)" d="m0 0c0.33 0.66 0.66 1.32 1 2h5c-0.99 0.33-1.98 0.66-3 1v2h-5c0.875-3.88 0.875-3.88 2-5z" fill="#283338"/>
 <path transform="translate(542,741)" d="m0 0c1.99 2.5 2.38 4.54 2.62 7.69 0.0387 0.416 0.0773 0.831 0.117 1.26 0.0935 1.02 0.177 2.03 0.258 3.05-1.88-1.84-3.06-3.35-3.2-6.05-0.0213-1.99 0.0691-3.97 0.199-5.95z" fill="#7797A3"/>
 <path transform="translate(622,735)" d="m0 0h1c0.212 4.74 0.316 8.7-2 13h-1v-8h2v-5z" fill="#566D76"/>
 <path transform="translate(745,675)" d="m0 0h2c0.18 1.36 0.18 1.36 0 3-1.24 1.17-1.24 1.17-2.88 2.19-0.534 0.344-1.07 0.688-1.62 1.04-1.51 0.77-1.51 0.77-3.51 0.77 0.33-0.99 0.66-1.98 1-3h3c0.66-1.32 1.32-2.64 2-4z" fill="#A2DDEC"/>
 <path transform="translate(1037,593)" d="m0 0c0.99 0.66 0.99 0.66 6 4-3.75 2-3.75 2-6 2v-6z" fill="#14191A"/>
 <path transform="translate(1099,462)" d="m0 0c2.22 1.66 3.76 3.09 4.49 5.82 0.235 1.73 0.414 3.44 0.512 5.18-2.22-1.66-3.76-3.09-4.49-5.82-0.235-1.73-0.414-3.44-0.512-5.18z" fill="#6F869E"/>
 <path transform="translate(967,458)" d="m0 0c0.99 0.33 1.98 0.66 3 1v2h2c0.33 1.32 0.66 2.64 1 4-3.37-1.39-5.04-2.94-7-6 0.33-0.33 0.66-0.66 1-1z" fill="#89A6C3"/>
 <path transform="translate(815,824)" d="m0 0c0.99 0.33 1.98 0.66 3 1v8c-0.66-0.33-1.32-0.66-2-1-0.314-1.4-0.507-2.64-0.625-4.06-0.0387-0.377-0.0773-0.754-0.117-1.14-0.0943-0.931-0.177-1.86-0.258-2.79z" fill="#8AA0B0"/>
 <path transform="translate(893,816)" d="m0 0c2.31 0.33 4.62 0.66 7 1-0.505 0.228-0.505 0.228-3.03 1.37-1.14 0.742-1.47 1.38-1.97 2.63h-2v-5z" fill="#C7EAFE"/>
 <path transform="translate(219,782)" d="m0 0h1c0.283 5.17-0.332 9.1-2 14h-1v-9h2v-5z" fill="#A1C3D5"/>
 <path transform="translate(247,725)" d="m0 0v5h-2v-3c-0.619 0.206-1.24 0.413-1.88 0.625-1.1 0.285-1.1 0.285-2.12 0.375-1.25-0.938-1.25-0.938-2-2 2.79-0.796 5.11-1.1 8-1z" fill="#B3EAF9"/>
 <path transform="translate(1038,652)" d="m0 0c2.64 0.33 5.28 0.66 8 1-3.78 2.36-7.66 2.6-12 3 0.33-0.66 0.66-1.32 1-2h3v-2z" fill="#8FC5D3"/>
 <path transform="translate(1e3 507)" d="m0 0c0.99 0.165 0.99 0.165 6 1 0.66 1.98 1.32 3.96 2 6-3.86-1.52-5.55-3.68-8-7z" fill="#7B9DB3"/>
 <path transform="translate(411,433)" d="m0 0h1v6h-2v5h-1v-9h2v-2z" fill="#24292F"/>
 <path transform="translate(307,405)" d="m0 0h7c-0.619 0.289-1.24 0.577-1.88 0.875-3.06 1.57-3.06 1.57-4.12 3.12-0.453 1.65-0.754 3.31-1 5h-1c0.33-2.97 0.66-5.94 1-9z" fill="#B5D2FD"/>
 <path transform="translate(571,796)" d="m0 0c1.28 3.33 0.792 5.39-0.332 8.73-0.738 1.4-1.2 1.75-2.67 2.27 0.64-3.8 1.71-7.37 3-11z" fill="#819AA9"/>
 <path transform="translate(334,783)" d="m0 0c2.91 2.42 4.42 4.24 4.92 8.05 0.0258 0.315 0.0516 0.629 0.0781 0.953-1.62-0.369-2.79-0.847-4-2-0.668-2.31-0.872-4.6-1-7z" fill="#566771"/>
 <path transform="translate(845,731)" d="m0 0c7.48 1.74 7.48 1.74 10 5-0.99 0.33-1.98 0.66-3 1v-2h-3v-2c-1.32-0.33-2.64-0.66-4-1v-1z" fill="#87AEBC"/>
 <path transform="translate(331,608)" d="m0 0c2.91 2.42 4.42 4.24 4.92 8.05 0.0258 0.315 0.0516 0.629 0.0781 0.953-1.62-0.369-2.79-0.847-4-2-0.668-2.31-0.872-4.6-1-7z" fill="#445C62"/>
 <path transform="translate(928,590)" d="m0 0c0.11 2.3-0.232 4.03-1 6.19-0.186 0.53-0.371 1.06-0.562 1.61-0.144 0.398-0.289 0.797-0.438 1.21h-3c1.2-3.44 2.65-6.2 5-9z" fill="#3C5057"/>
 <path transform="translate(1063,436)" d="m0 0c2.75-0.34 5.06-0.553 7.51 0.891 1.22 0.991 2.37 2 3.49 3.11-0.99 0.33-1.98 0.66-3 1v-2h-4v-2c-1.32-0.33-2.64-0.66-4-1z" fill="#8AA4C5"/>
 <path transform="translate(1008,835)" d="m0 0c0.99 0.33 1.98 0.66 3 1l-5 5c-0.33-1.32-0.66-2.64-1-4h3v-2z" fill="#B4D0E5"/>
 <path transform="translate(306,616)" d="m0 0h2c0.33 1.32 0.66 2.64 1 4h-3c-0.33 0.99-0.66 1.98-1 3-1.22-3.53-1.22-3.53-0.188-5.75 0.196-0.206 0.196-0.206 1.19-1.25z" fill="#324449"/>
 <path transform="translate(920,601)" d="m0 0c0.59 0.805 0.59 0.805 1 2-0.559 1.51-0.559 1.51-1.44 3.12-0.287 0.539-0.575 1.08-0.871 1.63-0.228 0.41-0.456 0.82-0.691 1.24h-3c1.37-2.96 2.97-5.45 5-8z" fill="#283538"/>
 <path transform="translate(996,601)" d="m0 0c2.31 0.33 4.62 0.66 7 1v2c0.99 0.33 1.98 0.66 3 1-0.878 0.549-0.878 0.549-2 1-0.961-0.254-0.961-0.254-1.95-0.777-0.354-0.184-0.709-0.367-1.07-0.557-0.365-0.199-0.73-0.398-1.11-0.604-0.373-0.195-0.745-0.391-1.13-0.592-0.919-0.483-1.83-0.976-2.75-1.47v-1z" fill="#516E76"/>
 <path transform="translate(949,500)" d="m0 0c-0.66 1.98-1.32 3.96-2 6-0.33-0.99-0.66-1.98-1-3-0.973-0.512-0.973-0.512-2.06-0.688-0.639-0.103-1.28-0.206-1.94-0.312 0.6-0.341 1.21-0.672 1.81-1 0.336-0.186 0.673-0.371 1.02-0.562 1.17-0.438 1.17-0.438 4.17-0.438z" fill="#7594A9"/>
</svg>
