<?xml version="1.0" encoding="UTF-8"?>
<svg viewBox="0 0 1289 1290" xmlns="http://www.w3.org/2000/svg">
 <defs>
  <clipPath id="k">
   <circle cx="644.5" cy="645" r="601.7"/>
  </clipPath>
 </defs>
 <circle cx="644.5" cy="645" r="643.5" fill="#fff"/>
 <circle cx="644.5" cy="645" r="604.2"/>
 <g clip-path="url(#k)">
  <path transform="translate(713.94 40.859)" d="m0 0c1.508 0.20139 3.017 0.39423 4.526 0.58769 38.034 4.8859 75.229 12.971 203.46 62.49 1.4564 0.75041 2.9164 1.4931 4.3789 2.2314 21.425 10.823 41.949 23.176 61.689 36.832 0.18048 0.12451 0.18048 0.12451 1.0938 0.75458 9.8564 6.8013 19.51 13.821 28.906 21.245 0.22476 0.17727 0.44952 0.35453 0.68109 0.53717 2.7043 2.1331 5.3935 4.2841 8.0699 6.4521 0.85986 0.6965 1.7213 1.391 2.584 2.084 5.4532 4.3825 10.804 8.8455 15.966 13.569 0.37236 0.34061 0.74476 0.68119 1.1172 1.0217 0.19094 0.1747 0.38188 0.3494 0.57861 0.52939 1.5815 1.4395 3.1906 2.8457 4.8044 4.2488 4.3566 3.7885 8.6168 7.6668 12.824 11.62 0.33861 0.31776 0.67722 0.63553 1.0261 0.96292 18.559 17.438 18.559 17.438 26.587 26.932 1.3946 1.6407 2.8397 3.2271 4.3047 4.8047 0.11409 0.12287 0.11409 0.12287 0.69148 0.74469 0.11612 0.12503 0.11612 0.12503 0.70378 0.75775 4.9449 5.3244 9.6701 10.765 14.21 16.437 1.5835 1.9752 3.1939 3.9272 4.8089 5.8767 21.684 26.227 40.598 54.632 97.043 168.42 0.11624 0.30167 0.23249 0.60334 0.35226 0.91415 11.403 29.594 19.887 60.223 26.466 91.232 0.17757 0.83631 0.35614 1.6724 0.53486 2.5085 7.2181 33.861 11.258 68.826 9.6464 176.35-0.03698 0.36358-0.07396 0.72716-0.11206 1.1018-3.985 39.011-11.306 77.318-58.488 209.06-0.37941 0.79861-0.7581 1.5975-1.1366 2.3966-14.122 29.782-31.469 58.246-82.123 124.95-1.4949 1.742-2.9818 3.4905-4.4635 5.2437-9.8896 11.7-9.8896 11.7-14.195 15.803-2.0141 1.9379-3.8415 3.9862-5.6533 6.1123-3.5557 4.113-7.3252 7.9919-11.18 11.822-0.90518 0.89948-1.8057 1.8034-2.7052 2.7086-4.2114 4.234-8.5442 8.2821-13.07 12.181-1.7403 1.5025-3.4347 3.0477-5.1116 4.6204-0.25235 0.23651-0.50471 0.47303-0.76471 0.71671-0.50862 0.4771-1.0171 0.95434-1.5255 1.4317-5.231 4.8999-10.592 9.561-16.194 14.029-1.9815 1.5834-3.9353 3.1988-5.8868 4.819-9.0693 7.5106-18.404 14.544-28.022 21.335-1.8072 1.2769-3.6067 2.564-5.403 3.8563-11.23 8.0773-22.672 15.489-34.634 22.456-2.1625 1.2613-4.3094 2.5472-6.4526 3.8408-4.2604 2.5651-8.5559 5.0653-12.879 7.5234-0.2174 0.12363-0.43481 0.24726-0.6588 0.37464-29.791 16.925-61.1 30.57-223.31 72.368-1.6245 0.20442-3.2477 0.41803-4.8706 0.63483-34.608 4.6038-70.484 3.7347-136.1-0.23654-1.508-0.20139-3.017-0.39423-4.526-0.58769-38.034-4.8859-75.229-12.971-203.46-62.49-1.4564-0.75041-2.9164-1.4931-4.3789-2.2314-21.425-10.823-41.949-23.176-61.689-36.832-0.18048-0.12451-0.18048-0.12451-1.0938-0.75458-9.8564-6.8013-19.51-13.821-28.906-21.245-0.22476-0.17727-0.44952-0.35453-0.68109-0.53717-2.7043-2.1331-5.3935-4.2841-8.0699-6.4521-0.85986-0.6965-1.7213-1.391-2.584-2.084-5.4532-4.3825-10.804-8.8455-15.966-13.569-0.37236-0.34061-0.74476-0.68119-1.1172-1.0217-0.19094-0.1747-0.38188-0.3494-0.57861-0.52939-1.5815-1.4395-3.1906-2.8457-4.8044-4.2488-4.3566-3.7885-8.6168-7.6668-12.824-11.62-0.33861-0.31776-0.67722-0.63553-1.0261-0.96292-18.559-17.438-18.559-17.438-26.587-26.932-1.3946-1.6407-2.8397-3.2271-4.3047-4.8047-0.22819-0.24575-0.45638-0.4915-0.69148-0.74469-0.23225-0.25006-0.4645-0.50012-0.70378-0.75775-4.9449-5.3244-9.6701-10.765-14.21-16.437-1.5835-1.9752-3.1939-3.9272-4.8089-5.8767-21.684-26.227-40.598-54.632-97.043-168.42-0.11624-0.30167-0.23249-0.60334-0.35226-0.91415-11.403-29.594-19.887-60.223-26.466-91.232-0.17757-0.83631-0.35614-1.6724-0.53486-2.5085-7.2181-33.861-11.258-68.826-9.6464-176.35 0.01849-0.18179 0.01849-0.18179 0.11206-1.1018 3.985-39.011 11.306-77.318 58.488-209.06 0.37941-0.79861 0.7581-1.5975 1.1366-2.3966 14.122-29.782 31.469-58.246 82.123-124.95 1.4949-1.742 2.9818-3.4905 4.4635-5.2437 9.8896-11.7 9.8896-11.7 14.195-15.803 2.0141-1.9379 3.8415-3.9862 5.6533-6.1123 3.5557-4.113 7.3252-7.9919 11.18-11.822 0.90518-0.89948 1.8057-1.8034 2.7052-2.7086 4.2114-4.234 8.5442-8.2821 13.07-12.181 1.7403-1.5025 3.4347-3.0477 5.1116-4.6204 0.25235-0.23651 0.50471-0.47303 0.76471-0.71671 0.50862-0.4771 1.0171-0.95434 1.5255-1.4317 5.231-4.8999 10.592-9.561 16.194-14.029 1.9815-1.5834 3.9353-3.1988 5.8868-4.819 9.0693-7.5106 18.404-14.544 28.022-21.335 1.8072-1.2769 3.6067-2.564 5.403-3.8563 11.23-8.0773 22.672-15.489 34.634-22.456 2.1625-1.2613 4.3094-2.5472 6.4526-3.8408 4.2604-2.5651 8.5559-5.0653 12.879-7.5234 0.2174-0.12363 0.43481-0.24726 0.6588-0.37464 29.791-16.925 61.1-30.57 223.31-72.368 1.6245-0.20442 3.2477-0.41803 4.8706-0.63483 34.608-4.6038 70.484-3.7347 136.1 0.23654z"/>
  <path transform="translate(397.56 442.76)" d="m0 0c3.668-0.57342 7.4311-1.0126 10.711 1.0325 1.8511 1.4457 3.4739 3.1351 5.1223 4.802 10.68 10.74 24.863 18.298 38.607 24.406 0.15545 0.069297 0.15545 0.069297 0.94214 0.41998 29.054 12.882 62.087 18.676 171 15.001 0.31766-0.046827 0.63531-0.093655 0.96259-0.1419 1.4827-0.21891 2.9645-0.44204 4.4449-0.67594 1.546-0.23897 3.093-0.43848 4.6486-0.60306 0.25714-0.028383 0.51427-0.056765 0.7792-0.086008 4.2047-0.40891 6.6236 0.54457 9.9044 3.1837 0.86498 0.6554 1.7387 1.2987 2.6128 1.9419 0.1109 0.082473 0.1109 0.082473 0.67214 0.49984 2.3757 1.7506 4.8815 3.2443 7.4416 4.7067 0.11356 0.065112 0.11356 0.065112 0.68824 0.39462 1.6487 0.94316 3.3051 1.8719 4.9641 2.7968 0.24959 0.13945 0.49917 0.2789 0.75632 0.42257 3.4989 1.9543 7.0117 3.882 10.536 5.79 0.59664 0.32366 1.1923 0.6492 1.7878 0.97491 10.392 5.6778 21.413 9.4362 32.607 13.188 0.17757 0.059726 0.17757 0.059726 1.0762 0.36198 9.2928 3.1233 18.555 5.9094 28.174 7.8255 0.28078 0.056597 0.56156 0.11319 0.85085 0.1715 4.7198 0.94922 9.455 1.7746 14.212 2.516 0.1753 0.027461 0.1753 0.027461 1.0624 0.16643 13.637 2.1144 27.152 2.6145 40.938 2.5836 0.46332-1.133e-5 0.92665-2.2659e-5 1.404-3.4332e-5 10.738-9.1617e-4 21.288-0.39675 31.934-1.8605 14.985-2.0526 14.985-2.0526 20.6 1.4231-0.88365 7.9528-4.5362 14.398-8.1537 21.385-2.6142 5.071-5.0744 10.217-7.5338 15.365-0.059755 0.12502-0.059755 0.12502-0.36215 0.7577-6.8818 14.406-6.8818 14.406-9.4474 21.178-0.35105 0.91715-0.70989 1.8259-1.084 2.7334-3.5049 8.5381-5.7051 18.692-2.592 27.738 0.59137 1.3813 1.3233 2.6061 2.1731 3.8423 0.085803 0.13108 0.085803 0.13108 0.52002 0.79443 2.9863 4.4327 6.689 6.972 11.48 9.2056 0.23268 0.11859 0.46535 0.23719 0.70508 0.35938 5.2377 2.6267 11.61 1.9919 17.295 1.6406 0.1733-0.007251 0.1733-0.007251 1.0503-0.043945 1.9456-0.12691 3.5534-0.51494 4.9497-1.9561 2.1597-3.066 3.6425-6.5206 5-10 0.17749-0.4403 0.35498-0.88059 0.53784-1.3342 1.5463-4.1691 2.0667-8.3833 2.6086-12.78 0.99678-7.9428 2.2825-15.816 3.9203-23.65 0.20359-0.97396 0.39898-1.9484 0.59039-2.925 1.5652-7.9255 4.0664-16.521 10.83-21.593 0.39623-0.25757 0.79245-0.51514 1.2007-0.78052 0.21082-0.14193 0.42164-0.28386 0.63885-0.43008 4.2492-2.8158 8.4448-3.6685 13.501-2.7789 6.8131 1.577 11.284 5.6152 15.173 11.271 0.16871 0.24476 0.33741 0.48952 0.51123 0.7417 8.7951 13.415 5.0524 36.841 2.0322 51.549-2.4541 11.33-6.6131 21.756-12.543 31.709-0.1371 0.23461-0.27421 0.46922-0.41547 0.71094-3.8378 6.5117-9.1544 8.6643-15.954 11.145-5.4673 1.9956-10.147 4.3406-14.631 8.1438-0.28666 0.24267-0.57331 0.48533-0.86865 0.73535-5.4492 4.8629-7.4229 11.538-9.7628 18.216-5.1174 14.561-11.165 28.222-18.241 41.912-1.4822 2.8685-2.9386 5.7479-4.3582 8.648-10.435 21.308-22.214 40.74-38.993 57.691-1.5595 1.5757-3.1119 3.1583-4.6634 4.7419-2.983 3.0431-5.9782 6.0739-8.9783 9.1001-0.80779 0.81571-1.6142 1.6328-2.4203 2.4502-5.9046 5.9805-11.891 11.663-18.472 16.895-0.22059 0.1754-0.44118 0.3508-0.66845 0.53151-0.21807 0.1733-0.43614 0.3466-0.66082 0.52516-2.238 1.7909-4.353 3.7075-6.4725 5.6357-4.4201 3.993-9.0855 7.5834-13.864 11.129-0.85743 0.63839-1.7107 1.2822-2.5642 1.9258-13.922 10.489-13.922 10.489-21.825 13.425-0.26983 0.10111-0.53965 0.20222-0.81766 0.3064-19.627 7.2405-41.6 8.5372-62.221 10.993-1.1021 0.13198-2.204 0.26583-3.3058 0.40054-17.198 2.1009-34.2 3.0042-51.531 2.9871-0.22164-1.0008e-4 -0.22164-1.0008e-4 -1.3433-6.0654e-4 -2.5566-0.0022956-5.113-0.013071-7.6696-0.035875-0.77895-0.006824-1.5579-0.012394-2.3369-0.01659-4.106-0.026244-7.9677-0.15133-11.963-1.1969 0.24323-2.8589 0.49226-5.7173 0.74463-8.5754 0.08455-0.96441 0.16795-1.9289 0.25-2.8936 0.12086-1.4182 0.24539-2.836 0.37256-4.2537 0.021885-0.24456 0.04377-0.48911 0.066319-0.74108 0.27699-3.0463 0.62631-6.0732 1.0699-9.1 1.2469-8.5297 1.8973-16.869 1.8741-25.491-0.0026164-1.0297-0.0019309-2.0593-0.0011864-3.089-0.010033-12.104-0.91709-24.074-2.1889-36.106-0.020797-0.20035-0.020797-0.20035-0.12605-1.2143-1.3743-13.231-3.5036-25.731-7.9931-38.29-2.7046-7.598-4.8785-15.188-6.6308-23.058-3.0959-13.756-7.5666-26.423-15.438-38.188-0.26893-0.40799-0.53786-0.81598-0.81494-1.2363-8.4423-12.537-22.537-21.765-36.31-27.576-0.42982-0.18272-0.85964-0.36545-1.3025-0.55371-1.2112-0.481-2.4228-0.91477-3.6593-1.3242-0.64684-0.21925-1.2899-0.44982-1.9299-0.68817-8.7773-3.2189-17.616-3.1182-26.859-3.0674-1.7355 0.0091072-3.4697 0.0024541-5.2051-0.020508-9.581-0.12592-18.747 0.28303-28.138 2.3064-0.38145 0.082047-0.76289 0.16409-1.1559 0.24863-4.954 1.0915-9.7421 2.5441-14.533 4.2061-2.878 0.99039-5.8085 1.8023-8.745 2.6-0.18361 0.050032-0.18361 0.050032-1.1128 0.30322-0.36625 0.099741-0.73251 0.19948-1.1099 0.30225-1.0827 0.29772-2.1652 0.59608-3.2477 0.89454-0.74886 0.2054-1.4981 0.40931-2.2479 0.61116-2.0427 0.5508-4.0748 1.124-6.0993 1.7383-6.1049 1.8168-11.905 2.8091-18.279 3.2223-1.5394 0.099958-3.0773 0.21366-4.6155 0.33084-2.9989 0.22634-5.9988 0.43731-8.9989 0.64558-25.423 1.7668-25.423 1.7668-34.821 3.5182-0.31582 0.057182-0.63163 0.11436-0.95702 0.17328-11.367 2.1059-21.948 9.3877-28.676 18.78-1.6034 2.4296-2.9414 4.9558-4.1836 7.5859-0.18756 0.39316-0.37512 0.78633-0.56836 1.1914-1.4557 3.1848-2.4896 6.446-3.4316 9.8086-0.089791 0.31224-0.17958 0.62447-0.27209 0.94617-4.7046 16.495-4.1664 33.073-3.7279 50.054-0.79121-0.78408-1.5814-1.5691-2.3711-2.3547-0.2212-0.219-0.44239-0.438-0.67029-0.66364-1.9419-1.9344-3.7538-3.9516-5.4791-6.082-0.47143-0.57729-0.95586-1.1439-1.4404-1.7102-5.8871-7.1015-8.9613-16.251-12.119-24.799-3.3273-9.0005-6.9023-17.818-10.971-26.509-3.6524-7.8099-7.0098-15.459-8.9494-23.881-0.070919-0.30658-0.14184-0.61315-0.2149-0.92902-0.53906-2.3514-1.0475-4.7084-1.5351-7.071-0.065571-0.31637-0.13114-0.63275-0.1987-0.95871-0.75936-3.7289-1.2493-7.2218-1.0513-11.041 0.38632-0.034402 0.77263-0.068804 1.1707-0.10425 13.741-1.2806 29.009-4.5494 38.377-15.66 3.5604-4.5906 5.6259-9.7668 7.4519-15.236 0.11859-0.32936 0.23719-0.65871 0.35938-0.99805 3.1371-8.8324 3.0613-20.582-0.91504-29.086-0.14663-0.30212-0.29326-0.60425-0.44434-0.91553-0.12858-0.28279-0.25717-0.56558-0.38965-0.85693-2.4374-5.1509-7.3788-9.0481-12.61-11.143-4.5278-1.4937-9.3008-2.2588-14-3 1.339-4.6244 3.288-8.6778 5.625-12.875 0.32858-0.59871 0.6567-1.1977 0.98438-1.7969 0.79175-1.4456 1.5894-2.8878 2.3906-4.3281h2c0.12939 0.24122 0.25878 0.48243 0.39209 0.73096 5.2061 9.3977 12.293 13.337 22.418 16.656 4.216 1.452 7.7412 3.6359 11.399 6.1514 4.5367 3.1065 9.3026 5.5536 14.931 4.6775 4.9323-1.2408 7.7344-6.2361 10.2-10.296 2.7135-4.5676 4.5991-8.5017 4.6602-13.921-0.28198-0.18587-0.56396-0.37173-0.85449-0.56323-10.253-6.8123-10.253-6.8123-13.146-11.437-0.69959-1.1067-1.4021-2.2111-2.1123-3.311-0.48816-0.76099-0.96643-1.5285-1.4316-2.3037-3.9208-6.1993-9.8793-9.3782-16.427-12.217-4.9449-2.168-7.8851-4.7766-11.029-9.1687 0.58174-3.1428 1.7422-5.5643 3.4062-8.2734 0.24033-0.40025 0.48066-0.80051 0.72827-1.2129 0.64845-1.0767 1.3015-2.1502 1.9577-3.2221 0.41086-0.67166 0.82029-1.3442 1.2293-2.017 1.5077-2.4797 3.023-4.9546 4.5443-7.426 0.80253-1.3051 1.5983-2.6139 2.3881-3.9267 9.9902-16.597 23.328-31.757 38.69-43.617 2.3795-1.849 4.5124-3.7258 6.5212-5.9768 7.5594-8.2837 15.479-9.3145 26.367-10.225 1.976-0.17451 3.9465-0.39698 5.9177-0.61874 0.37675-0.041159 0.7535-0.082319 1.1417-0.12473 1.5612-0.17275 3.1172-0.35124 4.6684-0.59964z" fill="#F2B49D"/>
  <path transform="translate(694.8 232.8)" d="m0 0c1.688 0.010836 3.376 0.010411 5.0641 0.010026 5.3807 1.9066e-4 10.759 0.060042 16.138 0.18559 0.41371 0.0096516 0.82743 0.019303 1.2537 0.029247 2.4691 0.061309 4.9364 0.14328 7.4039 0.25047 0.75904 0.031603 1.5183 0.059065 2.2776 0.081821 11.359 0.35793 19.801 6.9022 28.226 13.998 7.9612 6.6188 15.149 9.436 25.492 8.9173 1.3394-0.059134 2.6793-0.081142 4.0197-0.10601 4.2472-0.085407 8.4921-0.2293 12.737-0.39192 15.542-0.59043 28.004 0.33467 42.515 6.7516 1.6828 0.73589 3.3839 1.4257 5.0839 2.1208 3.3166 1.3699 6.5904 2.8238 9.8527 4.3179 0.91551 0.41874 1.8323 0.83465 2.7493 1.25 13.469 6.1085 26.66 12.392 37.81 22.273 0.5905 0.51872 1.1872 1.0293 1.7864 1.5378 17.254 14.646 29.951 32.76 41.474 52.101 3.2527 5.452 6.5864 10.854 9.9145 16.261 0.52825 0.85834 1.0561 1.7169 1.584 2.5755 3.821 6.2149 7.6571 12.416 11.632 18.534 19.559 30.143 29.744 55.618 26.375 111.56-0.020764 0.13295-0.020764 0.13295-0.12584 0.80573-1.467 9.3312-3.3374 18.895-7.1867 27.569-0.20778 0.47942-0.4152 0.95901-0.62231 1.4387-0.47106 1.0858-0.948 2.1688-1.428 3.2507-0.60023 1.3565-1.1882 2.7178-1.7705 4.082-5.1883 12.147-10.984 23.629-18.054 34.791-0.17811 0.28148-0.35622 0.56296-0.53973 0.85297-2.2314 3.5146-4.5464 6.9669-6.927 10.382-0.55869 0.80155-1.1155 1.6044-1.6724 2.4072-6.2906 9.0491-12.974 17.756-19.861 26.358-1.65-0.33-3.3-0.66-5-1-0.0093457-0.42072-0.018691-0.84144-0.02832-1.2749-0.22091-8.5782-0.94298-16.895-2.7842-25.288-0.07682-0.36623-0.15364-0.73247-0.23279-1.1098-1.7952-8.4294-5.352-17.639-12.772-22.597-7.9906-5.104-16.503-6.3952-25.774-4.4094-2.8747 0.67524-5.6638 1.593-8.4082 2.6792-0.19521-0.28609-0.39042-0.57218-0.59155-0.86694-7.7921-11.316-17.389-23.629-31.545-26.99-2.9998-0.49748-6.1057-0.083526-9.1136 0.16928-0.70696 0.049893-1.414 0.098725-2.1211 0.14648-2.9135 0.20547-5.8209 0.43031-8.7188 0.79932-9.0933 1.1222-18.262 0.98762-27.41 0.9917-0.22717 2.2093e-4 -0.22717 2.2093e-4 -1.3768 0.001339-15.582 0.007932-30.758-0.6109-46.123-3.2513-0.50551-0.08575-1.011-0.17146-1.5165-0.25714-15.219-2.5949-29.931-6.5573-44.483-11.743-0.20767-0.073487-0.20767-0.073487-1.2586-0.44537-21.288-7.5639-41.484-18.159-59.821-31.33-6.4222-4.6009-12.973-8.8645-19.795-12.849-0.12514-0.073302-0.12514-0.073302-0.75843-0.44425-19.084-11.165-39.425-20.234-60.28-27.546-1.0131-0.35869-2.0218-0.72709-3.0294-1.1007-4.6194-1.7058-9.2882-3.064-14.058-4.2842-0.48971-0.12748-0.9794-0.25506-1.4691-0.38275-36.022-9.3427-72.51-6.165-109.08-1.9023-2.4373 0.28381-4.8754 0.56033-7.3138 0.83484-0.39608 0.044616-0.79216 0.089232-1.2002 0.1352-0.79335 0.089361-1.5867 0.17871-2.38 0.26806-4.9084 0.55342-9.8161 1.1126-14.722 1.6844-9.5271 1.1099-19.053 2.1308-28.609 2.9702-2.8984 0.25928-5.7915 0.55392-8.6848 0.86484-15.353 1.6492-30.599 2.8253-46.05 2.8385-1.0972 0.0015019-2.1943 0.0063833-3.2915 0.011848-13.041 0.04876-25.86-1.1041-38.516-4.3853-0.40049-0.10188-0.80097-0.20375-1.2136-0.30872-18.835-4.834-37.278-11.539-54.474-20.629-0.4009-0.21012-0.8018-0.42023-1.2148-0.63672-8.8241-4.6341-17.396-9.4188-24.785-16.176-0.12113-0.1094-0.12113-0.1094-0.7341-0.66302-4.2375-3.8875-7.4832-8.3275-7.7713-14.25-0.014463-0.77993-0.0084815-1.5569 0.0053711-2.3368 0.0020947-0.27485 0.0041895-0.5497 0.0063477-0.83289 0.10686-6.9193 2.1922-13.071 5.4937-19.105 0.13106-0.24035 0.26212-0.4807 0.39716-0.72833 1.9298-3.4492 4.4004-7.1829 8.3209-8.5158 13.961-3.503 31.342 4.7685 44.33 9.25 2.7016 0.9313 5.4131 1.8305 8.1281 2.7218 0.8024 0.26533 1.603 0.53546 2.4035 0.80672 8.2608 2.7793 15.636 4.0006 24.338 3.644 1.8619-0.075998 3.7235-0.11227 5.5866-0.14367 4.9536-0.088652 9.9058-0.21604 14.857-0.38478 4.2201-0.14341 8.4393-0.25202 12.662-0.29058 0.31293-0.0029083 0.62585-0.0058167 0.94826-0.0088131 10.51-0.072163 18.637 1.5584 27.485 7.6254 2.3074 1.5694 4.7956 2.8141 7.2723 4.091 0.7119 0.37211 1.4156 0.75679 2.1185 1.1456 7.4586 4.0544 17.271 2.9479 25.52 2.9178 1.5788-0.0057463 3.1574-0.0023701 4.7362 0.0035725 1.2372 0.0036392 2.4744 0.0024526 3.7116-1.2779e-4 0.582-6.5742e-4 1.164 1.1664e-4 1.746 0.0024796 3.1696 0.010071 6.1261-0.19287 9.2342-0.89151 2.0716-0.42086 4.1613-0.53426 6.2674-0.67447 0.96546-0.071184 1.9309-0.14307 2.8962-0.21558 0.24738-0.018322 0.49476-0.036643 0.74963-0.05552 14.988-1.1165 14.988-1.1165 20.964-2.3332 0.72003-0.1445 1.4446-0.26577 2.1692-0.38544 6.8341-1.5842 11.817-7.6122 15.415-13.293 1.2464-2.0016 2.4511-4.027 3.6483-6.0583 1.2819-2.1612 2.6017-4.2999 3.9144-6.4425 0.48617-0.79417 0.97091-1.5892 1.4556-2.3843 3.8992-6.381 8.192-12.458 12.725-18.403 0.17406-0.22909 0.34813-0.45818 0.52747-0.69421 4.9298-6.477 10.206-12.651 15.786-18.576 0.4731-0.50266 0.9453-1.0062 1.4167-1.5104 9.2662-9.9028 19.222-18.362 30.27-26.219 0.32698-0.23268 0.65396-0.46535 0.99084-0.70508 9.5999-6.8046 19.63-12.762 30.009-18.295 0.32164-0.17231 0.64328-0.34462 0.97467-0.52216 28.883-15.452 60.724-25.495 93.128-30.047 2.2585-0.322 4.482-0.72235 6.7079-1.2269 14.405-3.2218 29.295-3.5178 43.988-3.3992z" fill="#252121"/>
  <path transform="translate(923,618)" d="m0 0c3.654 2.0109 6.6484 4.2901 9.6875 7.125 0.65528 0.6035 1.3117 1.2058 1.968 1.8081 0.44926 0.41257 0.89802 0.82569 1.3463 1.2393 1.4732 1.357 2.9684 2.6844 4.4826 3.9955 5.8865 5.1173 11.165 10.64 16.368 16.445 2.4354 2.7155 4.9114 5.3929 7.3903 8.0686 1.2605 1.3611 2.5187 2.7243 3.7769 4.0874 0.24778 0.26841 0.49555 0.53682 0.75084 0.81337 3.9969 4.3308 7.9833 8.6711 11.957 13.024 0.82536 0.90405 1.6518 1.807 2.4795 2.709 4.5862 5.0003 9.0149 10.092 13.278 15.371 2.0381 2.5212 4.0999 5.017 6.2104 7.478 5.585 6.5139 10.925 13.123 15.993 20.047 1.5012 2.05 3.0144 4.0911 4.5269 6.1328 2.7098 3.66 5.4084 7.328 8.1005 11.001 1.6998 2.3184 3.4075 4.6307 5.1229 6.9376 9.5216 12.821 18.123 26.169 26.562 39.718 0.18223 0.29229 0.36446 0.58458 0.55222 0.88573 8.4537 13.56 16.851 27.043 23.683 41.509 3.9126 8.2549 8.3672 15.303 14.934 21.757 2.9487 2.9019 5.7111 5.8946 8.3306 9.0977 0.19354 0.23644 0.38708 0.47288 0.58649 0.71649 10.286 12.652 14.29 27.02 13.006 43.175-0.43051 3.995-2.1682 7.3953-4.0925 10.859-0.28787 0.52989-0.57563 1.0598-0.86328 1.5898-5.6219 10.262-12.456 19.67-19.404 29.06-1.745 2.3614-3.4659 4.7397-5.1855 7.1196-10.165 14.032-20.886 27.577-32.727 40.238-1.1035 1.1888-2.1739 2.3991-3.2231 3.6361-5.1527 6.0543-10.736 11.649-16.367 17.256-1.3894 1.3837-2.7742 2.7719-4.1579 4.1614-5.3404 5.3592-10.694 10.624-16.451 15.536-2.1647 1.8517-4.1442 3.8529-6.1208 5.9026-3.0179 3.0854-6.1261 5.9848-9.4255 8.7722-1.8604 1.5945-3.6006 3.2426-5.2698 5.0325-4.7039 5.0189-9.5858 9.2245-15.305 13.07-0.29907 0.20501-0.59815 0.41002-0.90628 0.62125-8.3989 5.7126-16.329 8.5354-26.511 8.5045-2.8477-0.0071451-5.6939 0.067663-8.5402 0.15158-0.30235 0.0085898-0.60471 0.01718-0.91622 0.02603-4.8798 0.14926-9.6762 0.61426-14.513 1.263-0.33541 0.044808-0.67083 0.089615-1.0164 0.13578-1.3772 0.18464-2.7541 0.37087-4.1309 0.55832-13.587 1.8494-26.962 2.7609-40.681 2.741-1.2689-0.001488-2.5378 6.1694e-4 -3.8068 0.0031624-23.721 0.01705-23.721 0.01705-28.917-4.6023-2.4001-2.443-4.0665-5.4488-5.7487-8.4024-0.38401-0.65506-0.7688-1.3097-1.1543-1.9639-2.1252-3.63-4.1556-7.3076-6.1465-11.013-4.796-8.9061-9.6306-16.959-16.512-24.398-0.27844-0.31405-0.55687-0.6281-0.84375-0.95166-5.1466-5.7996-11.475-10.345-17.595-15.053-1.7523-1.353-3.4736-2.733-5.1632-4.1634-6.9331-5.8487-14.514-10.376-22.398-14.832-0.40279-0.22814-0.80558-0.45629-1.2206-0.69135-16.441-9.2981-33.274-17.552-50.541-25.207-0.38944-0.17273-0.77889-0.34546-1.1801-0.52342-3.9287-1.7421-7.8588-3.4806-11.796-5.2033-27.354-11.974-27.354-11.974-38.825-19.75-0.70801-0.47038-1.4165-0.94001-2.1255-1.4089-1.428-0.9464-2.8525-1.8977-4.2744-2.8533-1.9135-1.2839-3.8425-2.5426-5.7759-3.7964-9.096-5.9202-17.825-12.304-26.524-18.789-2.7891-2.0783-5.59-4.1399-8.3984-6.1921-0.66271-0.48438-1.3251-0.96913-1.9875-1.454-0.21587-0.15804-0.43173-0.31608-0.65414-0.4789-0.43162-0.31601-0.86323-0.63203-1.2948-0.94806-1.0468-0.7663-2.0943-1.5318-3.1431-2.2954-1.1612-0.84621-2.32-1.6956-3.4784-2.5458-0.33977-0.24629-0.67954-0.49257-1.0296-0.74632-2.1024-1.5487-3.9612-3.2161-5.7516-5.117 0.39675-0.019819 0.79351-0.039639 1.2023-0.060059 20.875-1.0619 41.446-2.9911 62.044-6.4976 1.4781-0.25132 2.9573-0.4963 4.4365-0.74097 10.221-1.7015 20.243-3.7529 30.176-6.7249 0.40487-0.12015 0.80975-0.24031 1.2269-0.3641 13.132-3.9416 24.51-10.297 35.084-18.938 1.2077-0.98197 2.4254-1.9512 3.6423-2.9218 23.661-18.886 23.661-18.886 32.632-28.168 1.7816-1.8409 3.6053-3.5012 5.6174-5.0847 2.6424-2.1072 4.8024-4.5058 6.9873-7.0774 1.7844-2.0976 3.6028-4.1433 5.4893-6.1492 6.3714-6.7833 12.239-13.775 17.735-21.286 0.77258-1.0512 1.5518-2.0973 2.3318-3.1429 9.436-12.687 17.136-25.816 24.008-40.045 0.39308-0.81363 0.78717-1.6268 1.1814-2.4398 5.3998-11.148 10.658-22.356 15.26-33.86 0.061531-0.1534 0.061531-0.1534 0.37292-0.9297 1.1815-2.9474 2.3526-5.8979 3.481-8.8661 3.2791-8.6002 7.1812-17.683 16.091-21.704 2.0924-0.84084 4.2395-1.4768 6.4065-2.0936 11.055-3.2125 17.306-8.4437 22.816-18.464 0.25999-0.48032 0.51913-0.96111 0.77734-1.4424 0.12117-0.22514 0.24234-0.45029 0.36719-0.68225 5.3915-10.107 8.4409-21.284 10.038-32.587 0.066145-0.46285 0.13229-0.92571 0.20044-1.4026 0.053093-0.40315 0.10619-0.80631 0.16089-1.2217 0.24641-1.1669 0.65588-2.0678 1.2336-3.1064z" fill="#F2B49D"/>
  <path transform="translate(713.94 40.859)" d="m0 0c1.508 0.20139 3.017 0.39423 4.526 0.58769 38.034 4.8859 75.229 12.971 203.46 62.49 1.4564 0.75041 2.9164 1.4931 4.3789 2.2314 21.425 10.823 41.949 23.176 61.689 36.832 0.18048 0.12451 0.18048 0.12451 1.0938 0.75458 9.8564 6.8013 19.51 13.821 28.906 21.245 0.22476 0.17727 0.44952 0.35453 0.68109 0.53717 2.7043 2.1331 5.3935 4.2841 8.0699 6.4521 0.85986 0.6965 1.7213 1.391 2.584 2.084 5.4532 4.3825 10.804 8.8455 15.966 13.569 0.37236 0.34061 0.74476 0.68119 1.1172 1.0217 0.19094 0.1747 0.38188 0.3494 0.57861 0.52939 1.5815 1.4395 3.1906 2.8457 4.8044 4.2488 4.3566 3.7885 8.6168 7.6668 12.824 11.62 0.33861 0.31776 0.67722 0.63553 1.0261 0.96292 18.559 17.438 18.559 17.438 26.587 26.932 1.3946 1.6407 2.8397 3.2271 4.3047 4.8047 0.11409 0.12287 0.11409 0.12287 0.69148 0.74469 0.11612 0.12503 0.11612 0.12503 0.70378 0.75775 4.9449 5.3244 9.6701 10.765 14.21 16.437 1.5835 1.9752 3.1939 3.9272 4.8089 5.8767 21.684 26.227 40.598 54.632 97.043 168.42 0.11624 0.30167 0.23249 0.60334 0.35226 0.91415 11.403 29.594 19.887 60.223 26.466 91.232 0.17757 0.83631 0.35614 1.6724 0.53486 2.5085 7.2181 33.861 11.258 68.826 9.6464 176.35-0.03698 0.36358-0.07396 0.72716-0.11206 1.1018-3.985 39.011-11.306 77.318-58.488 209.06-0.37941 0.79861-0.7581 1.5975-1.1366 2.3966-14.122 29.782-31.469 58.246-82.123 124.95-1.4949 1.742-2.9818 3.4905-4.4635 5.2437-9.8896 11.7-9.8896 11.7-14.195 15.803-2.0141 1.9379-3.8415 3.9862-5.6533 6.1123-3.5557 4.113-7.3252 7.9919-11.18 11.822-0.90518 0.89948-1.8057 1.8034-2.7052 2.7086-4.2114 4.234-8.5442 8.2821-13.07 12.181-1.7403 1.5025-3.4347 3.0477-5.1116 4.6204-0.25235 0.23651-0.50471 0.47303-0.76471 0.71671-0.50862 0.4771-1.0171 0.95434-1.5255 1.4317-5.231 4.8999-10.592 9.561-16.194 14.029-1.9815 1.5834-3.9353 3.1988-5.8868 4.819-9.0693 7.5106-18.404 14.544-28.022 21.335-1.8072 1.2769-3.6067 2.564-5.403 3.8563-11.23 8.0773-22.672 15.489-34.634 22.456-2.1625 1.2613-4.3094 2.5472-6.4526 3.8408-4.2604 2.5651-8.5559 5.0653-12.879 7.5234-0.2174 0.12363-0.43481 0.24726-0.6588 0.37464-29.791 16.925-61.1 30.57-223.31 72.368-1.6245 0.20442-3.2477 0.41803-4.8706 0.63483-34.608 4.6038-70.484 3.7347-136.1-0.23654-1.508-0.20139-3.017-0.39423-4.526-0.58769-38.034-4.8859-75.229-12.971-203.46-62.49-1.4564-0.75041-2.9164-1.4931-4.3789-2.2314-21.425-10.823-41.949-23.176-61.689-36.832-0.18048-0.12451-0.18048-0.12451-1.0938-0.75458-9.8564-6.8013-19.51-13.821-28.906-21.245-0.22476-0.17727-0.44952-0.35453-0.68109-0.53717-2.7043-2.1331-5.3935-4.2841-8.0699-6.4521-0.85986-0.6965-1.7213-1.391-2.584-2.084-5.4532-4.3825-10.804-8.8455-15.966-13.569-0.37236-0.34061-0.74476-0.68119-1.1172-1.0217-0.19094-0.1747-0.38188-0.3494-0.57861-0.52939-1.5815-1.4395-3.1906-2.8457-4.8044-4.2488-4.3566-3.7885-8.6168-7.6668-12.824-11.62-0.33861-0.31776-0.67722-0.63553-1.0261-0.96292-18.559-17.438-18.559-17.438-26.587-26.932-1.3946-1.6407-2.8397-3.2271-4.3047-4.8047-0.22819-0.24575-0.45638-0.4915-0.69148-0.74469-0.23225-0.25006-0.4645-0.50012-0.70378-0.75775-4.9449-5.3244-9.6701-10.765-14.21-16.437-1.5835-1.9752-3.1939-3.9272-4.8089-5.8767-21.684-26.227-40.598-54.632-97.043-168.42-0.11624-0.30167-0.23249-0.60334-0.35226-0.91415-11.403-29.594-19.887-60.223-26.466-91.232-0.17757-0.83631-0.35614-1.6724-0.53486-2.5085-7.2181-33.861-11.258-68.826-9.6464-176.35 0.01849-0.18179 0.01849-0.18179 0.11206-1.1018 3.985-39.011 11.306-77.318 58.488-209.06 0.37941-0.79861 0.7581-1.5975 1.1366-2.3966 14.122-29.782 31.469-58.246 82.123-124.95 1.4949-1.742 2.9818-3.4905 4.4635-5.2437 9.8896-11.7 9.8896-11.7 14.195-15.803 2.0141-1.9379 3.8415-3.9862 5.6533-6.1123 3.5557-4.113 7.3252-7.9919 11.18-11.822 0.90518-0.89948 1.8057-1.8034 2.7052-2.7086 4.2114-4.234 8.5442-8.2821 13.07-12.181 1.7403-1.5025 3.4347-3.0477 5.1116-4.6204 0.25235-0.23651 0.50471-0.47303 0.76471-0.71671 0.50862-0.4771 1.0171-0.95434 1.5255-1.4317 5.231-4.8999 10.592-9.561 16.194-14.029 1.9815-1.5834 3.9353-3.1988 5.8868-4.819 9.0693-7.5106 18.404-14.544 28.022-21.335 1.8072-1.2769 3.6067-2.564 5.403-3.8563 11.23-8.0773 22.672-15.489 34.634-22.456 2.1625-1.2613 4.3094-2.5472 6.4526-3.8408 4.2604-2.5651 8.5559-5.0653 12.879-7.5234 0.2174-0.12363 0.43481-0.24726 0.6588-0.37464 29.791-16.925 61.1-30.57 223.31-72.368 1.6245-0.20442 3.2477-0.41803 4.8706-0.63483 34.608-4.6038 70.484-3.7347 136.1 0.23654zm-152.33 4.7008c-1.3428 0.1969-2.6863 0.38917-4.0299 0.58041-14.731 2.1022-29.254 4.7788-43.734 8.1959-2.6775 0.63004-5.3627 1.2172-8.0532 1.7891-0.80723 0.17292-1.6144 0.34593-2.4216 0.51904-1.0768 0.23089-2.1536 0.46142-3.2312 0.68854-7.1451 1.5152-14.137 3.6086-21.14 5.6674-0.28419 0.083472-0.56837 0.16694-0.86117 0.25294-32.322 9.5046-63.636 21.143-142.06 61.485-1.6049 0.97498-3.2133 1.9438-4.8238 2.9095-12.722 7.6344-24.999 15.792-37.032 24.47-1.0185 0.73455-2.0386 1.4669-3.0591 2.1987-11.427 8.1951-22.453 16.779-33.19 25.859-0.95251 0.80498-1.9067 1.6079-2.8615 2.4102-1.5107 1.2703-3.0177 2.5448-4.5216 3.8232-0.53367 0.45363-1.0678 0.9067-1.6026 1.359-11.985 10.159-23.144 21.221-34.228 32.341-1.4643 1.4686-2.9323 2.9335-4.4012 4.3975-1.4528 1.4482-2.9035 2.8983-4.3527 4.3501-0.85025 0.85176-1.7013 1.7027-2.5538 2.5522-4.4197 4.4075-8.6184 8.9546-12.682 13.692-1.0044 1.1686-2.0173 2.3296-3.0311 3.4901-6.6545 7.6271-13.072 15.412-19.232 23.444-1.0372 1.3524-2.08 2.7001-3.127 4.0449-8.1372 10.466-15.752 21.233-23.109 32.26-0.63376 0.94972-1.2686 1.8987-1.9035 2.8477-5.7318 8.577-11.168 17.301-16.409 26.186-0.83326 1.4122-1.6733 2.8201-2.5163 4.2265-18.269 30.54-32.938 62.998-46.006 98.024-0.10145 0.27215-0.20289 0.54429-0.30742 0.82469-2.9153 7.8288-5.5072 15.727-7.8872 23.734-0.24138 0.81139-0.48389 1.6224-0.72669 2.4334-9.3989 31.422-16.565 63.312-24.92 222.01 0.25181 3.2676 0.47995 6.5332 0.65944 9.8057 2.121 38.451 10.018 78.174 23.215 120.91 0.37028 1.1557 0.7381 2.3121 1.1042 3.4691 9.3066 29.406 20.343 57.894 33.71 85.695 0.58468 1.2162 1.1662 2.4338 1.7467 3.652 7.0709 14.831 15.044 29.048 23.531 43.112 0.43337 0.71829 0.86626 1.4369 1.2991 2.1555 7.3103 12.131 14.885 24.053 23.138 35.569 0.13192 0.18424 0.13192 0.18424 0.7995 1.1166 7.6659 10.69 15.621 21.104 24.014 31.236 1.5638 1.8881 3.113 3.7868 4.6479 5.6984 4.1168 5.1179 8.3664 10.073 12.827 14.896 0.38589 0.4175 0.77171 0.83507 1.1575 1.2527 0.1851 0.20005 0.37021 0.40011 0.56092 0.60622 1.1868 1.2911 2.3492 2.5991 3.4912 3.9301 4.1521 4.835 8.5026 9.4153 13.016 13.913 0.93866 0.93606 1.8748 1.8746 2.8114 2.8128 1.5706 1.5724 3.1432 3.1426 4.717 4.7117 1.7963 1.7909 3.589 3.5853 5.3798 5.3817 1.5627 1.5673 3.1274 3.1326 4.6938 4.6963 0.9245 0.92297 1.8484 1.8465 2.7704 2.772 4.5863 4.5978 9.2914 8.9922 14.225 13.215 1.1655 0.99987 2.3224 2.0094 3.4788 3.0198 8.2515 7.201 16.716 14.083 25.409 20.742 0.15191 0.11667 0.15191 0.11667 0.92065 0.70709 17.398 13.36 35.321 25.913 54.079 37.293 0.21858 0.13282 0.43716 0.26563 0.66237 0.40247 26.146 15.886 53.407 30.101 165.19 69.578 2.8132 0.68324 5.6114 1.4002 8.3974 2.187 0.31297 0.08825 0.62594 0.1765 0.94839 0.26743 0.30288 0.085451 0.60576 0.1709 0.91782 0.25894 6.5807 1.8558 13.231 3.2539 19.942 4.5557 0.45252 0.089217 0.90504 0.17843 1.3713 0.27036 4.8887 0.95647 9.5715 1.7987 14.566 1.4796 0.11481-0.20091 0.22961-0.40182 0.3479-0.60883 0.35773-0.62603 0.71546-1.2521 1.0732-1.8781 0.4388-0.76792 0.8776-1.5358 1.3164-2.3038 1.1521-2.0163 2.3044-4.0326 3.4571-6.0486 0.70216-1.228 1.4042-2.4561 2.1062-3.6842 0.072821-0.12739 0.072821-0.12739 0.44134-0.77207 2.266-3.9645 4.5268-7.932 6.7855-11.901 13.326-23.411 13.326-23.411 19.62-33.747 1.6277-2.6769 3.2336-5.3665 4.8375-8.0577 0.95943-1.6093 1.9203-3.2178 2.881-4.8264 0.77906-1.3047 1.5575-2.6097 2.3339-3.916 10.238-17.218 21.17-33.941 32.426-50.504 2.7967-4.1155 5.5892-8.2337 8.3778-12.355 0.15002-0.22169 0.30004-0.44337 0.45461-0.67177 4.2882-6.3382 8.5297-12.704 12.694-19.125 0.22175-0.34079 0.4435-0.68158 0.67197-1.0327 3.7362-5.7498 3.7362-5.7498 5.2939-8.5604 0.17891-0.32246 0.35782-0.64492 0.54215-0.97715 0.33504-0.61095 0.66497-1.2247 0.9887-1.8418 0.88996-1.6334 1.5081-2.551 3.351-3.1896 0.092168 0.23364 0.18434 0.46729 0.2793 0.70801 1.4536 3.2917 3.6895 5.5723 6.2207 8.042 0.21632 0.21388 0.43264 0.42777 0.65552 0.64813 3.2996 3.2565 6.7376 6.3152 10.344 9.2269 0.2131 0.17398 0.4262 0.34797 0.64575 0.52722 0.60306 0.4893 1.2115 0.97068 1.823 1.4493 0.34482 0.27151 0.68965 0.54302 1.0449 0.82275 1.1039 0.64429 1.7303 0.70143 2.9863 0.57568-3.7441 10.681-7.55 21.339-11.392 31.985-0.36289 1.0057-0.72569 2.0114-1.0885 3.0172-0.18372 0.50922-0.3675 1.0184-0.55132 1.5276-1.0311 2.8564-2.0574 5.7145-3.0709 8.5772-3.3815 9.5429-6.8974 19.035-10.419 28.527-6.8653 18.502-13.671 37.022-20.222 55.638-0.34474 0.97914-0.69006 1.9581-1.0354 2.937-1.0554 2.9918-2.1081 5.9846-3.1583 8.9783-0.13843 0.39447-0.27687 0.78895-0.41949 1.1954-0.76139 2.1723-1.5156 4.3469-2.2638 6.5238-0.40525 1.1684-0.82018 2.3331-1.2352 3.4981-0.27874 0.79858-0.55723 1.5972-0.83545 2.396-0.065659 0.18092-0.065659 0.18092-0.39793 1.0965-0.11949 0.34755-0.23897 0.6951-0.36208 1.0532-0.10619 0.30001-0.21238 0.60003-0.32179 0.90913-0.33453 1.6822-0.22679 3.4253-0.22679 5.1404h12c0.34781-1.0789 0.69561-2.1579 1.054-3.2695 1.1597-3.5968 2.3216-7.1928 3.4844-10.789 0.70377-2.1764 1.4069-4.3531 2.1083-6.5303 0.67916-2.1078 1.3602-4.215 2.0425-6.3219 0.25775-0.79701 0.51486-1.5942 0.77127-2.3917 1.5116-4.6995 3.1154-9.3449 4.8821-13.955 0.883-2.3136 1.6569-4.6611 2.4211-7.0161 1.1569-3.5589 2.3369-7.1061 3.6739-10.602 1.3551-3.5475 2.6565-7.1127 3.9375-10.688 0.10591-0.29527 0.21183-0.59053 0.32095-0.89474 1.2522-3.4982 2.4691-7.006 3.6322-10.535 0.10918-0.33082 0.21836-0.66164 0.33084-1.0025 0.52291-1.5875 1.0415-3.1762 1.5534-4.7673 0.95063-2.9246 1.986-5.7496 3.2485-8.5544 1.9669-4.4132 3.2133-9.0469 4.5391-13.684 1.4231-4.9773 2.823-9.8671 4.9522-14.594 1.1238-2.5075 1.9391-5.0548 2.6986-7.6922 1.5141-5.2427 3.2467-10.394 5.0992-15.526 0.11277-0.31245 0.22555-0.62489 0.34174-0.94681 0.63212-1.7484 1.2692-3.4949 1.9083-5.2407 1.6098 1.0215 3.2191 2.0437 4.8281 3.0664 0.12343 0.078452 0.12343 0.078452 0.74805 0.47547 3.3847 2.1521 6.7604 4.3174 10.127 6.498 28.857 18.683 28.857 18.683 45.297 23.96 0.25185 0.0825 0.5037 0.165 0.76318 0.25 7.2658 2.3641 14.36 3.0448 21.987 3.125 0.39415 0.0079459 0.7883 0.015892 1.1944 0.024078 6.209 0.096413 11.297-1.1431 17.056-3.3991 0.6332-0.23703 1.2667-0.47339 1.9004-0.70898 15.337-5.8026 28.702-15.145 42.071-24.464 0.85109-0.59296 1.7041-1.183 2.559-1.7705 4.2975-2.9546 8.4581-5.9402 12.29-9.4937 8.7115-7.9093 8.7115-7.9093 14.794-7.6805 4.4295 0.3788 8.7718 1.3185 13.123 2.2001 5.9906 1.2005 11.92 1.3311 18.013 1.2929 0.2689-8.812e-4 0.5378-0.0017624 0.81485-0.0026703 10.314-0.035703 20.483-1.0179 30.698-2.3958 12.881-1.7058 25.613-2.1375 38.597-2.2063 2.7043-0.014414 5.4085-0.035387 8.1128-0.058429 4.4092-0.037563 8.8184-0.072604 13.228-0.1046 0.26165-0.0019005 0.52329-0.003801 0.79287-0.0057591 3.7139-0.026841 7.4279-0.05074 11.142-0.073385 0.13097-7.9865e-4 0.13097-7.9865e-4 0.79379-0.0048403 0.26162-0.0015935 0.52323-0.0031869 0.79278-0.0048287 4.3985-0.026983 8.797-0.061449 13.195-0.10183 2.4527-0.022256 4.9053-0.040749 7.3581-0.050449 18.474-0.075656 18.474-0.075656 27.33-1.9701 2.5323-0.50421 4.9019-0.36069 7.4569-0.10689 7.5003 0.62063 14.141 0.70618 20.116-4.2952 5.4284-4.7495 10.172-10.246 14.791-15.768 1.5697-1.874 3.1834-3.7092 4.7961-5.5462 0.28496-0.32595 0.56993-0.6519 0.86353-0.98773 2.1811-2.4908 4.4086-4.935 6.6564-7.3654 4.4723-4.8488 8.7039-9.855 12.832-14.998 1.6069-1.998 3.2406-3.973 4.8782-5.9459 8.1249-9.8139 15.696-19.949 23.004-30.383 0.13524-0.19282 0.13524-0.19282 0.81964-1.1686 13.525-19.3 25.901-39.15 37.18-59.831 0.12794-0.23452 0.25588-0.46903 0.3877-0.71066 14.471-26.548 27.124-54.028 47.612-114.29 0.10153-0.32015 0.20305-0.64029 0.30766-0.97014 4.8654-15.35 8.6789-30.838 12.005-46.592 0.083512-0.39418 0.16702-0.78836 0.25307-1.1945 2.4058-11.37 4.4049-22.772 6.135-34.264 0.24759-1.6429 0.50368-3.2842 0.76553-4.9249 0.96143-6.0426 1.7386-12.106 2.4342-18.184 0.067272-0.58689 0.13499-1.1737 0.20311-1.7605 2.6098-22.488 3.1916-44.909 3.2071-67.523 0.0012543-1.719 0.0052112-3.4379 0.0099232-5.1569 0.040254-15.404-0.25368-30.611-1.9506-45.934-0.39858-3.6282-0.68181-7.2622-0.95872-10.901-1.918-25.205-6.6281-50.434-12.756-74.933-0.60803-2.4442-1.169-4.8966-1.71-7.3564-1.9125-8.6456-4.3293-17.036-7.0693-25.456-0.064622-0.19867-0.064622-0.19867-0.39165-1.204-0.1288-0.39588-0.2576-0.79177-0.3903-1.1996-0.78882-2.4434-1.5235-4.8949-2.2034-7.3707-9.4267-34.218-24.296-67.082-57.998-129.61-0.76249-1.2479-1.5211-2.4982-2.2788-3.7491-7.8098-12.893-15.948-25.399-24.965-37.491-1.5971-2.1455-3.168-4.3094-4.735-6.4768-6.3705-8.8071-12.911-17.381-20.052-25.581-1.4077-1.6219-2.7765-3.2699-4.1196-4.9456-0.18098-0.22574-0.36195-0.45148-0.54842-0.68407-0.36304-0.4531-0.72606-0.90622-1.0891-1.3594-4.6891-5.8404-9.7506-11.309-14.869-16.773-1.6128-1.7247-3.2042-3.4665-4.7786-5.2263-5.6544-6.3051-11.538-12.364-17.518-18.359-0.61557-0.61759-1.2303-1.236-1.8448-1.8547-4.6164-4.6435-9.3102-9.121-14.279-13.391-1.6446-1.414-3.2489-2.8651-4.8352-4.344-0.23026-0.21442-0.46052-0.42883-0.69775-0.64975-0.46142-0.42994-0.92273-0.86-1.3839-1.2902-5.2883-4.9194-10.743-9.5688-16.386-14.074-1.3395-1.0709-2.6696-2.153-3.9984-3.2374-25.266-20.61-52.25-38.75-101.79-66.596-0.73423-0.38487-1.468-0.77068-2.2016-1.1567-25.444-13.377-51.818-24.281-78.982-33.645-3.0991-1.0692-6.1834-2.1694-9.2549-3.3161-10.695-3.9729-21.61-6.8543-32.667-9.6064-2.2234-0.5541-4.4413-1.1267-6.6572-1.71-3.9733-1.0405-7.9622-2.0074-11.961-2.9453-0.45534-0.10721-0.91068-0.21443-1.3798-0.32489-25.161-5.9109-50.605-9.7702-76.308-12.425-0.28903-0.029959-0.57805-0.059919-0.87584-0.090786-13.535-1.3977-27.048-2.3206-40.658-2.3265-0.96066-7.3146e-4 -1.9213-0.0029032-2.882-0.0054972-3.4139-0.0091676-6.8278-0.013348-10.242-0.012548-2.7413 5.264e-4 -5.4824-0.0063964-8.2236-0.020508-26.747-0.13416-53.328 0.85953-79.821 4.7655z" fill="#262222"/>
  <path transform="translate(469.6 666.61)" d="m0 0c1.9124-0.020182 3.8228-0.051772 5.7343-0.11472 11.771-0.37766 20.978 1.5939 31.666 6.5076 0.65353 0.29655 1.3071 0.59297 1.9608 0.88925 18.66 8.5081 31.362 19.749 39.039 39.111 2.4768 6.6622 4.1528 13.596 5.8725 20.483 0.3964 1.5852 0.79637 3.1695 1.1982 4.7533 0.20339 0.80326 0.4053 1.6069 0.60577 2.4109 1.0908 4.345 2.2944 8.5312 4.0891 12.642 0.15263 0.35032 0.30526 0.70065 0.46251 1.0616 0.15344 0.35157 0.30689 0.70314 0.46498 1.0654 4.6994 10.779 5.9143 21.372 6.893 32.962 0.26349 3.106 0.59205 6.1917 1.0311 9.2785 3.7893 27.378 2.4803 56.431-3.6172 83.344-6.6856 0.20667-13.201-0.3209-19.828-1.1505-0.81329-0.1016-1.6268-0.20158-2.4403-0.3013-11.371-1.3997-22.642-3.2522-33.898-5.3902-0.86991-0.16491-1.74-0.32887-2.6101-0.49263-14.455-2.722-28.801-5.521-42.913-9.7166-2.8007-0.82316-5.621-1.544-8.4552-2.2417-11.012-2.7239-21.803-5.8575-32.565-9.444-0.95901-0.31934-1.9185-0.63716-2.8781-0.95477-13.241-4.3929-25.807-9.7685-38.287-15.996-0.30582-0.15225-0.61163-0.30449-0.92672-0.46135-9.1104-4.5402-17.744-9.2523-25.704-15.657-1.5947-1.2827-3.2241-2.5168-4.8579-3.749-2.9951-2.2649-5.963-4.5628-8.9172-6.8808-0.68141-0.53464-1.3635-1.0684-2.0457-1.6021-2.919-2.2871-5.8071-4.6102-8.6738-6.9624-0.24921-0.20432-0.49842-0.40863-0.75519-0.61914-3.3489-2.7495-6.6637-5.5335-9.9279-8.3832-1.4301-1.2454-2.8785-2.4541-4.3664-3.6295-6.9405-5.5354-9.5561-12.056-10.69-20.786-1.8663-16.854-2.3765-38.44 6.1636-53.543 0.6258-1.1295 1.1821-2.2826 1.7437-3.4453 4.6517-9.1144 13.988-17.706 23.692-21.232 2.0642-0.65505 4.1594-1.039 6.2927-1.397 0.25196-0.042449 0.50391-0.084898 0.7635-0.12863 6.6647-1.0969 13.389-1.3294 20.127-1.6189 18.249-0.78425 35.317-1.666 52.463-8.4451 6.3382-2.4838 12.736-4.3189 19.334-5.9523 0.77094-0.19141 1.5412-0.38542 2.3113-0.58008 10.836-2.7276 21.311-3.5164 32.448-3.6327z" fill="#8E877D"/>
  <path transform="translate(713.94 40.859)" d="m0 0c1.508 0.20139 3.017 0.39423 4.526 0.58769 38.034 4.8859 75.229 12.971 203.46 62.49 1.4564 0.75041 2.9164 1.4931 4.3789 2.2314 21.425 10.823 41.949 23.176 61.689 36.832 0.18048 0.12451 0.18048 0.12451 1.0938 0.75458 9.8564 6.8013 19.51 13.821 28.906 21.245 0.22476 0.17727 0.44952 0.35453 0.68109 0.53717 2.7043 2.1331 5.3935 4.2841 8.0699 6.4521 0.85986 0.6965 1.7213 1.391 2.584 2.084 5.4532 4.3825 10.804 8.8455 15.966 13.569 0.37236 0.34061 0.74476 0.68119 1.1172 1.0217 0.19094 0.1747 0.38188 0.3494 0.57861 0.52939 1.5815 1.4395 3.1906 2.8457 4.8044 4.2488 4.3566 3.7885 8.6168 7.6668 12.824 11.62 0.33861 0.31776 0.67722 0.63553 1.0261 0.96292 18.559 17.438 18.559 17.438 26.587 26.932 1.3946 1.6407 2.8397 3.2271 4.3047 4.8047 0.11409 0.12287 0.11409 0.12287 0.69148 0.74469 0.11612 0.12503 0.11612 0.12503 0.70378 0.75775 4.9449 5.3244 9.6701 10.765 14.21 16.437 1.5835 1.9752 3.1939 3.9272 4.8089 5.8767 21.684 26.227 40.598 54.632 97.043 168.42 0.11624 0.30167 0.23249 0.60334 0.35226 0.91415 11.403 29.594 19.887 60.223 26.466 91.232 0.17757 0.83631 0.35614 1.6724 0.53486 2.5085 7.2181 33.861 11.258 68.826 9.6464 176.35-0.03698 0.36358-0.07396 0.72716-0.11206 1.1018-3.985 39.011-11.306 77.318-58.488 209.06-0.37941 0.79861-0.7581 1.5975-1.1366 2.3966-14.122 29.782-31.469 58.246-82.123 124.95-1.4949 1.742-2.9818 3.4905-4.4635 5.2437-9.8896 11.7-9.8896 11.7-14.195 15.803-2.0141 1.9379-3.8415 3.9862-5.6533 6.1123-3.5557 4.113-7.3252 7.9919-11.18 11.822-0.90518 0.89948-1.8057 1.8034-2.7052 2.7086-4.2114 4.234-8.5442 8.2821-13.07 12.181-1.7403 1.5025-3.4347 3.0477-5.1116 4.6204-0.25235 0.23651-0.50471 0.47303-0.76471 0.71671-0.50862 0.4771-1.0171 0.95434-1.5255 1.4317-5.231 4.8999-10.592 9.561-16.194 14.029-1.9815 1.5834-3.9353 3.1988-5.8868 4.819-9.0693 7.5106-18.404 14.544-28.022 21.335-1.8072 1.2769-3.6067 2.564-5.403 3.8563-11.23 8.0773-22.672 15.489-34.634 22.456-2.1625 1.2613-4.3094 2.5472-6.4526 3.8408-4.2604 2.5651-8.5559 5.0653-12.879 7.5234-0.2174 0.12363-0.43481 0.24726-0.6588 0.37464-29.791 16.925-61.1 30.57-223.31 72.368-1.6245 0.20442-3.2477 0.41803-4.8706 0.63483-34.608 4.6038-70.484 3.7347-136.1-0.23654-1.508-0.20139-3.017-0.39423-4.526-0.58769-38.034-4.8859-75.229-12.971-203.46-62.49-1.4564-0.75041-2.9164-1.4931-4.3789-2.2314-21.425-10.823-41.949-23.176-61.689-36.832-0.18048-0.12451-0.18048-0.12451-1.0938-0.75458-9.8564-6.8013-19.51-13.821-28.906-21.245-0.22476-0.17727-0.44952-0.35453-0.68109-0.53717-2.7043-2.1331-5.3935-4.2841-8.0699-6.4521-0.85986-0.6965-1.7213-1.391-2.584-2.084-5.4532-4.3825-10.804-8.8455-15.966-13.569-0.37236-0.34061-0.74476-0.68119-1.1172-1.0217-0.19094-0.1747-0.38188-0.3494-0.57861-0.52939-1.5815-1.4395-3.1906-2.8457-4.8044-4.2488-4.3566-3.7885-8.6168-7.6668-12.824-11.62-0.33861-0.31776-0.67722-0.63553-1.0261-0.96292-18.559-17.438-18.559-17.438-26.587-26.932-1.3946-1.6407-2.8397-3.2271-4.3047-4.8047-0.22819-0.24575-0.45638-0.4915-0.69148-0.74469-0.23225-0.25006-0.4645-0.50012-0.70378-0.75775-4.9449-5.3244-9.6701-10.765-14.21-16.437-1.5835-1.9752-3.1939-3.9272-4.8089-5.8767-21.684-26.227-40.598-54.632-97.043-168.42-0.11624-0.30167-0.23249-0.60334-0.35226-0.91415-11.403-29.594-19.887-60.223-26.466-91.232-0.17757-0.83631-0.35614-1.6724-0.53486-2.5085-7.2181-33.861-11.258-68.826-9.6464-176.35 0.01849-0.18179 0.01849-0.18179 0.11206-1.1018 3.985-39.011 11.306-77.318 58.488-209.06 0.37941-0.79861 0.7581-1.5975 1.1366-2.3966 14.122-29.782 31.469-58.246 82.123-124.95 1.4949-1.742 2.9818-3.4905 4.4635-5.2437 9.8896-11.7 9.8896-11.7 14.195-15.803 2.0141-1.9379 3.8415-3.9862 5.6533-6.1123 3.5557-4.113 7.3252-7.9919 11.18-11.822 0.90518-0.89948 1.8057-1.8034 2.7052-2.7086 4.2114-4.234 8.5442-8.2821 13.07-12.181 1.7403-1.5025 3.4347-3.0477 5.1116-4.6204 0.25235-0.23651 0.50471-0.47303 0.76471-0.71671 0.50862-0.4771 1.0171-0.95434 1.5255-1.4317 5.231-4.8999 10.592-9.561 16.194-14.029 1.9815-1.5834 3.9353-3.1988 5.8868-4.819 9.0693-7.5106 18.404-14.544 28.022-21.335 1.8072-1.2769 3.6067-2.564 5.403-3.8563 11.23-8.0773 22.672-15.489 34.634-22.456 2.1625-1.2613 4.3094-2.5472 6.4526-3.8408 4.2604-2.5651 8.5559-5.0653 12.879-7.5234 0.2174-0.12363 0.43481-0.24726 0.6588-0.37464 29.791-16.925 61.1-30.57 223.31-72.368 1.6245-0.20442 3.2477-0.41803 4.8706-0.63483 34.608-4.6038 70.484-3.7347 136.1 0.23654zm-152.33 4.7008c-1.3428 0.1969-2.6863 0.38917-4.0299 0.58041-14.731 2.1022-29.254 4.7788-43.734 8.1959-2.6775 0.63004-5.3627 1.2172-8.0532 1.7891-0.80723 0.17292-1.6144 0.34593-2.4216 0.51904-1.0768 0.23089-2.1536 0.46142-3.2312 0.68854-7.1451 1.5152-14.137 3.6086-21.14 5.6674-0.28419 0.083472-0.56837 0.16694-0.86117 0.25294-32.322 9.5046-63.636 21.143-142.06 61.485-1.6049 0.97498-3.2133 1.9438-4.8238 2.9095-12.722 7.6344-24.999 15.792-37.032 24.47-1.0185 0.73455-2.0386 1.4669-3.0591 2.1987-11.427 8.1951-22.453 16.779-33.19 25.859-0.95251 0.80498-1.9067 1.6079-2.8615 2.4102-1.5107 1.2703-3.0177 2.5448-4.5216 3.8232-0.53367 0.45363-1.0678 0.9067-1.6026 1.359-11.985 10.159-23.144 21.221-34.228 32.341-1.4643 1.4686-2.9323 2.9335-4.4012 4.3975-1.4528 1.4482-2.9035 2.8983-4.3527 4.3501-0.85025 0.85176-1.7013 1.7027-2.5538 2.5522-4.4197 4.4075-8.6184 8.9546-12.682 13.692-1.0044 1.1686-2.0173 2.3296-3.0311 3.4901-6.6545 7.6271-13.072 15.412-19.232 23.444-1.0372 1.3524-2.08 2.7001-3.127 4.0449-8.1372 10.466-15.752 21.233-23.109 32.26-0.63376 0.94972-1.2686 1.8987-1.9035 2.8477-5.7318 8.577-11.168 17.301-16.409 26.186-0.83326 1.4122-1.6733 2.8201-2.5163 4.2265-18.269 30.54-32.938 62.998-46.006 98.024-0.10145 0.27215-0.20289 0.54429-0.30742 0.82469-2.9153 7.8288-5.5072 15.727-7.8872 23.734-0.24138 0.81139-0.48389 1.6224-0.72669 2.4334-9.3989 31.422-16.565 63.312-24.92 222.01 0.25181 3.2676 0.47995 6.5332 0.65944 9.8057 2.121 38.451 10.018 78.174 23.215 120.91 0.37028 1.1557 0.7381 2.3121 1.1042 3.4691 9.3066 29.406 20.343 57.894 33.71 85.695 0.58468 1.2162 1.1662 2.4338 1.7467 3.652 7.0709 14.831 15.044 29.048 23.531 43.112 0.43337 0.71829 0.86626 1.4369 1.2991 2.1555 7.3103 12.131 14.885 24.053 23.138 35.569 0.13192 0.18424 0.13192 0.18424 0.7995 1.1166 7.6659 10.69 15.621 21.104 24.014 31.236 1.5638 1.8881 3.113 3.7868 4.6479 5.6984 4.1168 5.1179 8.3664 10.073 12.827 14.896 0.38589 0.4175 0.77171 0.83507 1.1575 1.2527 0.1851 0.20005 0.37021 0.40011 0.56092 0.60622 1.1868 1.2911 2.3492 2.5991 3.4912 3.9301 4.1521 4.835 8.5026 9.4153 13.016 13.913 0.93866 0.93606 1.8748 1.8746 2.8114 2.8128 1.5706 1.5724 3.1432 3.1426 4.717 4.7117 1.7963 1.7909 3.589 3.5853 5.3798 5.3817 1.5627 1.5673 3.1274 3.1326 4.6938 4.6963 0.9245 0.92297 1.8484 1.8465 2.7704 2.772 4.5863 4.5978 9.2914 8.9922 14.225 13.215 1.1655 0.99987 2.3224 2.0094 3.4788 3.0198 8.2515 7.201 16.716 14.083 25.409 20.742 0.15191 0.11667 0.15191 0.11667 0.92065 0.70709 17.398 13.36 35.321 25.913 54.079 37.293 0.21858 0.13282 0.43716 0.26563 0.66237 0.40247 26.146 15.886 53.407 30.101 165.19 69.578 2.8132 0.68324 5.6114 1.4002 8.3974 2.187 0.31297 0.08825 0.62594 0.1765 0.94839 0.26743 0.30288 0.085451 0.60576 0.1709 0.91782 0.25894 6.5807 1.8558 13.231 3.2539 19.942 4.5557 0.45252 0.089217 0.90504 0.17843 1.3713 0.27036 4.8887 0.95647 9.5715 1.7987 14.566 1.4796 0.11481-0.20091 0.22961-0.40182 0.3479-0.60883 0.35773-0.62603 0.71546-1.2521 1.0732-1.8781 0.4388-0.76792 0.8776-1.5358 1.3164-2.3038 1.1521-2.0163 2.3044-4.0326 3.4571-6.0486 0.70216-1.228 1.4042-2.4561 2.1062-3.6842 0.072821-0.12739 0.072821-0.12739 0.44134-0.77207 2.266-3.9645 4.5268-7.932 6.7855-11.901 13.326-23.411 13.326-23.411 19.62-33.747 1.6277-2.6769 3.2336-5.3665 4.8375-8.0577 0.95943-1.6093 1.9203-3.2178 2.881-4.8264 0.77906-1.3047 1.5575-2.6097 2.3339-3.916 10.238-17.218 21.17-33.941 32.426-50.504 2.7967-4.1155 5.5892-8.2337 8.3778-12.355 0.15002-0.22169 0.30004-0.44337 0.45461-0.67177 4.2882-6.3382 8.5297-12.704 12.694-19.125 0.22175-0.34079 0.4435-0.68158 0.67197-1.0327 3.7362-5.7498 3.7362-5.7498 5.2939-8.5604 0.17891-0.32246 0.35782-0.64492 0.54215-0.97715 0.33504-0.61095 0.66497-1.2247 0.9887-1.8418 0.88996-1.6334 1.5081-2.551 3.351-3.1896 0.092168 0.23364 0.18434 0.46729 0.2793 0.70801 1.4536 3.2917 3.6895 5.5723 6.2207 8.042 0.21632 0.21388 0.43264 0.42777 0.65552 0.64813 3.2996 3.2565 6.7376 6.3152 10.344 9.2269 0.2131 0.17398 0.4262 0.34797 0.64575 0.52722 0.60306 0.4893 1.2115 0.97068 1.823 1.4493 0.34482 0.27151 0.68965 0.54302 1.0449 0.82275 1.1039 0.64429 1.7303 0.70143 2.9863 0.57568-3.7441 10.681-7.55 21.339-11.392 31.985-0.36289 1.0057-0.72569 2.0114-1.0885 3.0172-0.18372 0.50922-0.3675 1.0184-0.55132 1.5276-1.0311 2.8564-2.0574 5.7145-3.0709 8.5772-3.3815 9.5429-6.8974 19.035-10.419 28.527-6.8653 18.502-13.671 37.022-20.222 55.638-0.34474 0.97914-0.69006 1.9581-1.0354 2.937-1.0554 2.9918-2.1081 5.9846-3.1583 8.9783-0.13843 0.39447-0.27687 0.78895-0.41949 1.1954-0.76139 2.1723-1.5156 4.3469-2.2638 6.5238-0.40525 1.1684-0.82018 2.3331-1.2352 3.4981-0.27874 0.79858-0.55723 1.5972-0.83545 2.396-0.065659 0.18092-0.065659 0.18092-0.39793 1.0965-0.11949 0.34755-0.23897 0.6951-0.36208 1.0532-0.10619 0.30001-0.21238 0.60003-0.32179 0.90913-0.33987 1.7091-0.2685 3.4038-0.22679 5.1404 35.466 0.46875 70.784 0.92905 139.1-9.818 1.1769-0.23717 2.3545-0.47129 3.532-0.70525 5.8429-1.1611 11.674-2.3673 17.494-3.6381 2.4403-0.53219 4.8828-1.0471 7.332-1.5366 13.814-2.7633 27.171-6.9347 40.545-11.302 0.16561-0.054005 0.16561-0.054005 1.0037-0.3273 31.471-10.267 61.587-22.424 91.178-37.263 0.79767-0.39955 1.5959-0.79797 2.3943-1.1959 23.495-11.713 45.823-25.309 67.424-40.214 0.33606-0.23163 0.67213-0.46326 1.0184-0.7019 13.889-9.5885 27.351-19.87 40.283-30.713 0.74119-0.62031 1.4842-1.2384 2.2275-1.8562 7.2719-6.0469 14.352-12.263 21.279-18.702 1.6326-1.5154 3.2818-3.0105 4.9426-4.495 6.332-5.6766 12.414-11.588 18.434-17.592 0.61735-0.61533 1.2356-1.2298 1.854-1.8441 4.9439-4.915 9.6717-9.9402 14.215-15.233 1.0775-1.2425 2.185-2.4555 3.302-3.6625 0.19217-0.20801 0.38434-0.41602 0.58234-0.63034 0.38276-0.41418 0.7656-0.82828 1.1485-1.2423 4.4723-4.8488 8.7039-9.855 12.832-14.998 1.6069-1.998 3.2406-3.973 4.8782-5.9459 8.1249-9.8139 15.696-19.949 23.004-30.383 0.13524-0.19282 0.13524-0.19282 0.81964-1.1686 13.525-19.3 25.901-39.15 37.18-59.831 0.12794-0.23452 0.25588-0.46903 0.3877-0.71066 14.471-26.548 27.124-54.028 47.612-114.29 0.10153-0.32015 0.20305-0.64029 0.30766-0.97014 4.8654-15.35 8.6789-30.838 12.005-46.592 0.083512-0.39418 0.16702-0.78836 0.25307-1.1945 2.4058-11.37 4.4049-22.772 6.135-34.264 0.24759-1.6429 0.50368-3.2842 0.76553-4.9249 0.96143-6.0426 1.7386-12.106 2.4342-18.184 0.067272-0.58689 0.13499-1.1737 0.20311-1.7605 2.6098-22.488 3.1916-44.909 3.2071-67.523 0.0012543-1.719 0.0052112-3.4379 0.0099232-5.1569 0.040254-15.404-0.25368-30.611-1.9506-45.934-0.39858-3.6282-0.68181-7.2622-0.95872-10.901-1.918-25.205-6.6281-50.434-12.756-74.933-0.60803-2.4442-1.169-4.8966-1.71-7.3564-1.9125-8.6456-4.3293-17.036-7.0693-25.456-0.064622-0.19867-0.064622-0.19867-0.39165-1.204-0.1288-0.39588-0.2576-0.79177-0.3903-1.1996-0.78882-2.4434-1.5235-4.8949-2.2034-7.3707-9.4267-34.218-24.296-67.082-57.998-129.61-0.76249-1.2479-1.5211-2.4982-2.2788-3.7491-7.8098-12.893-15.948-25.399-24.965-37.491-1.5971-2.1455-3.168-4.3094-4.735-6.4768-6.3705-8.8071-12.911-17.381-20.052-25.581-1.4077-1.6219-2.7765-3.2699-4.1196-4.9456-0.18098-0.22574-0.36195-0.45148-0.54842-0.68407-0.36304-0.4531-0.72606-0.90622-1.0891-1.3594-4.6891-5.8404-9.7506-11.309-14.869-16.773-1.6128-1.7247-3.2042-3.4665-4.7786-5.2263-5.6544-6.3051-11.538-12.364-17.518-18.359-0.61557-0.61759-1.2303-1.236-1.8448-1.8547-4.6164-4.6435-9.3102-9.121-14.279-13.391-1.6446-1.414-3.2489-2.8651-4.8352-4.344-0.23026-0.21442-0.46052-0.42883-0.69775-0.64975-0.46142-0.42994-0.92273-0.86-1.3839-1.2902-5.2883-4.9194-10.743-9.5688-16.386-14.074-1.3395-1.0709-2.6696-2.153-3.9984-3.2374-25.266-20.61-52.25-38.75-101.79-66.596-0.73423-0.38487-1.468-0.77068-2.2016-1.1567-25.444-13.377-51.818-24.281-78.982-33.645-3.0991-1.0692-6.1834-2.1694-9.2549-3.3161-10.695-3.9729-21.61-6.8543-32.667-9.6064-2.2234-0.5541-4.4413-1.1267-6.6572-1.71-3.9733-1.0405-7.9622-2.0074-11.961-2.9453-0.45534-0.10721-0.91068-0.21443-1.3798-0.32489-25.161-5.9109-50.605-9.7702-76.308-12.425-0.28903-0.029959-0.57805-0.059919-0.87584-0.090786-13.535-1.3977-27.048-2.3206-40.658-2.3265-0.96066-7.3146e-4 -1.9213-0.0029032-2.882-0.0054972-3.4139-0.0091676-6.8278-0.013348-10.242-0.012548-2.7413 5.264e-4 -5.4824-0.0063964-8.2236-0.020508-26.747-0.13416-53.328 0.85953-79.821 4.7655z" fill="#F4F4F4"/>
  <path transform="translate(1224,812)" d="m0 0c1.8867 3.9399 0.14767 7.5175-1.1758 11.352-0.2436 0.72966-0.48639 1.4596-0.72842 2.1898-0.65286 1.9589-1.3197 3.9127-1.9906 5.8654-0.41948 1.2235-0.83551 2.4481-1.2505 3.6731-10.22 30.157-22.198 59.485-53.64 117.9-0.89305 1.4859-1.78 2.9752-2.6626 4.4673-17.746 29.996-38.661 57.967-61.539 84.227-1.2797 1.4721-2.5409 2.9565-3.7795 4.4633-0.70187 0.85183-1.4128 1.6957-2.1256 2.5385-0.45788 0.54819-0.90314 1.1068-1.3476 1.666-1.819 2.1285-3.4018 3.0493-6.0874 3.8158-2.6213 0.76489-5.0424 1.8713-7.5169 3.0184-29.697 13.647-59.548 17.48-92.156 16.828 3.1485-3.2641 6.4404-6.345 9.8125-9.375 0.19616-0.17651 0.39232-0.35302 0.59442-0.53488 2.4653-2.2159 4.9525-4.4054 7.4526-6.5818 12.853-11.199 24.952-23.195 37.028-35.217 1.2401-1.2342 2.4827-2.4659 3.7263-3.6967 7.4298-7.3579 14.619-14.718 21.074-22.952 1.8445-2.3414 3.879-4.4841 5.9469-6.6263 6.1455-6.4102 11.456-13.433 16.762-20.54 1.9176-2.5684 3.8554-5.1204 5.8051-7.6644 11.028-14.399 21.893-29.148 30.548-45.125 0.079675-0.1446 0.079675-0.1446 0.48288-0.87637 3.7458-6.866 5.1663-13.839 5.0796-21.624-0.0018228-0.34511-0.0036456-0.69021-0.0055237-1.0458-0.056827-6.4453-1.0501-12.071-3.307-18.142-0.17394-0.48888-0.34727-0.97798-0.52002-1.4673-4.3262-12.13-11.246-20.726-20.505-29.536-3.5471-3.3978-6.4712-6.7607-8.9749-10.997 1.2808-3.265 2.7946-4.9109 5.7539-6.7344 0.37264-0.23918 0.74528-0.47836 1.1292-0.72479 1.2192-0.77583 2.4479-1.5345 3.6794-2.2908 0.42653-0.26498 0.85291-0.5302 1.2791-0.79565 12.175-7.5664 24.716-13.745 38.707-17.096 1.2558-0.31004 2.4852-0.65855 3.7212-1.0381 21.598-6.2974 50.05 1.7995 70.73 8.6797z" fill="#262222"/>
  <path transform="translate(718.59 971.11)" d="m0 0c0.91215 0.41572 1.8246 0.83075 2.7374 1.2449 1.9046 0.86582 3.8062 1.7381 5.7057 2.6152 2.6498 1.2236 5.305 2.4352 7.9613 3.6444 2.0954 0.95446 4.1893 1.9123 6.2831 2.8705 0.21657 0.099106 0.21657 0.099106 1.3125 0.60064 5.5245 2.5327 10.995 5.1517 16.41 7.9111-0.11749 1.584-0.24489 3.167-0.375 4.75-0.030937 0.4241-0.061875 0.8482-0.09375 1.2852-0.21544 2.5493-0.53256 5.0402-1.0056 7.5564-1.329 7.1222-1.8731 14.001-1.8413 21.245 0.0046508 1.1527-0.0023866 2.3044-0.020508 3.457-0.12608 8.1104 0.74101 14.977 3.3362 22.706 0.191 0.60606 0.38114 1.2124 0.57007 1.8191 3.246 10.128 9.031 18.185 18.522 23.215 0.59316 0.30346 1.1875 0.60471 1.783 0.90356 0.13619 0.06899 0.13619 0.06899 0.82541 0.41812 10.856 5.3733 22.898 6.6189 34.743 8.1682 2.0996 0.2763 4.1981 0.56123 6.2967 0.84534 4.0855 0.55185 8.1722 1.0945 12.26 1.6309-0.77311 0.79336-1.5489 1.5838-2.3264 2.3728-0.1076 0.11071-0.1076 0.11071-0.65214 0.67098-1.9229 1.9442-4.0092 3.5292-6.3205 4.9862-0.1325 0.083764-0.1325 0.083764-0.80301 0.50766-0.13784 0.086594-0.13784 0.086594-0.83542 0.52481-0.14393 0.091629-0.14393 0.091629-0.87228 0.55533-11.695 7.4229-24.109 14.211-36.69 20.007-0.24759 0.11452-0.49518 0.22903-0.75027 0.34702-1.5671 0.71844-3.1488 1.3873-4.7497 2.028-0.2302 0.094313-0.4604 0.18863-0.69757 0.2858-4.2003 1.69-8.167 2.1572-12.677 2.1517-0.17169 2.0142e-4 -0.17169 2.0142e-4 -1.0405 0.0012207-14.03-0.093279-26.545-6.3601-38.632-12.924-0.93211-0.50395-1.8676-1.001-2.8045-1.4959-7.1214-3.7721-13.667-7.9376-19.973-12.958-4.2349-3.3708-8.591-6.5336-13.005-9.666-7.8069-5.5521-15.322-11.307-22.431-17.731-0.74231-0.66653-1.4914-1.3247-2.2424-1.9814-7.739-6.8028-12.713-14.073-16.497-23.682-0.095829-0.24183-0.19166-0.48365-0.29039-0.7328-0.69277-1.8875-0.89659-3.6358-0.94789-5.6383-0.0099298-0.31822-0.01986-0.63643-0.03009-0.96429-0.40729-16.513 5.213-28.199 16.457-40.239 6.3212-6.6229 13.501-12.316 20.864-17.728 0.97666-0.71902 1.9492-1.4434 2.9218-2.1679 1.6496-1.2228 3.3162-2.4186 4.9974-3.5974 0.63465-0.44836 1.265-0.90291 1.8904-1.3641 0.87595-0.64218 1.7666-1.2556 2.6654-1.8652 0.24752-0.18894 0.49503-0.37789 0.75005-0.57256 5.6115-3.634 14.175 1.597 19.312 3.9827z" fill="#252121"/>
  <path transform="translate(649,1064)" d="m0 0c1.9111-0.073944 1.9111-0.073944 2.7109 0.59155 0.21914 0.27787 0.43828 0.55575 0.66406 0.84204 0.25781 0.31477 0.51562 0.62955 0.78125 0.95386 0.27844 0.34652 0.55687 0.69303 0.84375 1.05 6.0317 7.1838 13.17 13.403 21 18.562-0.58082 4.9342-2.0486 9.3274-3.7656 13.969-0.27852 0.76484-0.55657 1.5299-0.83417 2.295-0.73002 2.0085-1.4661 4.0147-2.2037 6.0204-0.7317 1.9926-1.4581 3.987-2.1848 5.9814-0.85872 2.3563-1.7179 4.7123-2.5799 7.0674-1.5373 4.2015-3.0584 8.4079-4.5529 12.625-2.1916 6.1823-4.4546 12.337-6.7345 18.487-0.086154 0.23242-0.17231 0.46484-0.26107 0.70431-0.80136 2.1617-1.6031 4.3233-2.4052 6.4847-6.6883 18.025-13.327 36.065-19.714 54.199-0.59274 1.6822-1.1883 3.3633-1.7856 5.0439-0.80696 2.2704-1.6113 4.5417-2.4133 6.8139-0.28152 0.79686-0.56372 1.5935-0.8468 2.3898-2.4527 6.9076-4.5959 13.904-6.7184 20.919-4.9185-0.16934-9.8345-0.38263-14.75-0.625-0.37804-0.018618-0.75608-0.037237-1.1456-0.056419-14.54-0.73006-28.889-2.4092-43.292-4.4436-0.248-0.034994-0.49599-0.069988-0.7515-0.10604-6.3574-0.89759-12.711-1.8205-19.061-2.769 0.076805-0.11046 0.076805-0.11046 0.46548-0.66946 3.7718-5.4574 7.0964-10.997 10.199-16.865 5.6899-10.754 11.846-21.212 18.084-31.653 0.085366-0.14288 0.085366-0.14288 0.51737-0.86594 0.34665-0.58011 0.69338-1.1602 1.0402-1.7402 2.6987-4.5146 5.361-9.0493 8.0025-13.597 13.98-24.064 29.041-47.243 44.662-70.264 5.7747-8.511 11.529-17.031 17.111-25.67 0.10886-0.16844 0.10886-0.16844 0.65973-1.0208 3.1336-4.8554 6.2066-9.7478 9.2582-14.655z" fill="#F2B49D"/>
  <path transform="translate(830,773)" d="m0 0c0.33 1.32 0.66 2.64 1 4h-2c-0.017856 0.20732-0.035711 0.41465-0.054108 0.62825-0.45945 5.0201-1.3795 9.4121-3.3209 14.059-0.062746 0.15366-0.062746 0.15366-0.38028 0.93124-8.9485 21.791-21.918 42.061-35.245 61.381-0.20754 0.301-0.41508 0.60199-0.62891 0.91211-5.5776 8.0737-11.296 16.04-17.781 23.415-0.39767 0.45334-0.79356 0.90825-1.1877 1.3646-18.022 20.865-47.676 29.133-74.065 33.233-3.2071 0.51815-6.1376 1.2615-9.1382 2.5283-0.28555 0.11985-0.57109 0.23971-0.8653 0.36319-2.6104 1.173-4.7568 2.7452-6.0366 5.3634-2.4053 6.6353 0.74712 13.655 3.3354 19.726 0.37443 1.1156 0.39587 1.9295 0.36719 3.094-3.474-1.2699-6.5111-2.7789-9.6328-4.7656-0.43378-0.27265-0.86768-0.54509-1.3017-0.81735-1.1601-0.73013-2.3159-1.4668-3.4702-2.2059-0.72747-0.46567-1.4558-0.92997-2.1842-1.3941-9.7653-6.2323-19.072-12.975-28.302-19.977-2.8773-2.1798-5.766-4.3446-8.6526-6.5121-0.99965-0.7511-1.9985-1.5033-2.9973-2.2556-5.0701-3.813-10.216-7.5024-15.459-11.073v-1c0.19838-0.0099097 0.19838-0.0099097 1.2023-0.060059 20.875-1.0619 41.446-2.9911 62.044-6.4976 1.4781-0.25132 2.9573-0.4963 4.4365-0.74097 10.221-1.7015 20.243-3.7529 30.176-6.7249 0.40487-0.12015 0.80975-0.24031 1.2269-0.3641 13.132-3.9416 24.51-10.297 35.084-18.938 1.2077-0.98197 2.4254-1.9512 3.6423-2.9218 23.661-18.886 23.661-18.886 32.632-28.168 1.7816-1.8409 3.6053-3.5012 5.6174-5.0847 2.6424-2.1072 4.8024-4.5058 6.9873-7.0774 1.7844-2.0976 3.6028-4.1433 5.4893-6.1492 11.136-11.857 20.379-24.801 29.461-38.273z" fill="#DA8578"/>
  <path transform="translate(488.75,433.5)" d="m0 0c0.14415-8.8371e-4 0.14415-8.8371e-4 0.87366-0.0053558 10.785-0.057886 21.162 1.2789 31.751 3.2554 0.34303 0.063476 0.68605 0.12695 1.0395 0.19235 9.4409 1.7531 18.646 4.0528 27.834 6.8317 1.1374 0.34218 2.2773 0.6755 3.4171 1.0092 9.1171 2.6817 17.965 5.5756 26.482 9.812 2.4466 1.2156 4.9141 2.3839 7.3869 3.5451 9.8261 4.6155 19.588 9.3409 29.215 14.36 0.20102 0.10371 0.20102 0.10371 1.2183 0.62854 1.1337 0.58645 2.2629 1.1806 3.3911 1.7777 0.32707 0.16832 0.65414 0.33665 0.99112 0.51007 2.2551 1.212 3.9325 2.6899 5.6495 4.5837-18.869 2.7043-37.468 4.3637-56.548 4.2579-1.5426-0.0085499-3.0851-0.013037-4.6277-0.017349-34.601-0.10674-68.398-2.8457-125.82-26.241-0.28337-0.15253-0.56674-0.30506-0.8587-0.46222-6.0283-3.2597-11.768-6.8429-17.329-10.85-0.23901-0.17112-0.47802-0.34225-0.72427-0.51855-0.67275-0.48469-1.3403-0.97565-2.0062-1.4697-0.37923-0.28013-0.75845-0.56026-1.1492-0.84888-0.98383-0.8968-1.3766-1.658-1.9329-2.8503 0.11254-0.011963 0.11254-0.011963 0.68209-0.0725 5.5461-0.58973 11.092-1.1829 16.637-1.7796 2.682-0.28853 5.3641-0.576 8.0466-0.86076 3.101-0.32933 6.2017-0.66225 9.302-0.99805 0.253-0.027331 0.50599-0.054662 0.76665-0.082822 5.945-0.64286 11.86-1.3469 17.757-2.3391 6.1917-1.0304 12.293-1.3493 18.559-1.3672z" fill="#8E867C"/>
  <path transform="translate(726.34 546.95)" d="m0 0c12.134-0.47214 23.983-0.62431 35.664 3.0528 0.18102 0.055853 0.18102 0.055853 1.0971 0.3385 12.21 3.7748 23.709 8.4978 34.903 14.661 0.12966 0.070788 0.12966 0.070788 0.78583 0.42902 15.698 8.5775 15.698 8.5775 17.214 13.571 0.1063 1.2127 0.094632 2.4089 0.0625 3.625-0.0045117 0.32484-0.0090234 0.64969-0.013672 0.98438-0.01172 0.79696-0.029654 1.5938-0.048828 2.3906-4.8797 4.3056-10.084 5.5136-16.465 5.2617-3.3364-0.25847-6.5192-1.1657-9.7319-2.0535-4.2878-1.1693-8.5602-1.7789-12.966-2.3204-3.5401-0.44398-6.6325-1.0046-9.8998-2.5128-3.4233-1.5411-6.7468-1.6471-10.438-1.625-0.26387 8.6609e-4 -0.52773 0.0017322-0.79959 0.0026245-3.1388 0.02668-6.1921 0.2979-9.2981 0.73956-3.5152 0.48849-7.0122 0.63437-10.555 0.71875-0.55462 0.014367-1.1092 0.028813-1.6638 0.043335-2.2785 0.058046-4.5569 0.11347-6.8359 0.14709-6.8073 0.10609-12.852 0.54604-19.243 3.1521-1.1667 0.47165-2.3421 0.911-3.5233 1.345-2.5774 0.94924-5.1422 1.9297-7.7063 2.9141-0.92064 0.35177-1.8413 0.70349-2.762 1.0552-6.1314 2.3472-12.241 4.7455-18.319 7.2292-1.5925 0.64925-3.1909 1.2817-4.7944 1.9031-0.25209 0.099248-0.50418 0.1985-0.76392 0.30075-3.5511 1.3779-6.7807 2.0479-10.596 2.0149-0.77335-0.0032079-1.543 0.020573-2.3159 0.045654-2.9913 0.041003-5.2324-0.37695-7.5288-2.3909-1.5047-1.8359-2.0274-3.8102-2.5454-6.0955-0.060042-0.25222-0.12008-0.50445-0.18195-0.76431-2.2224-9.5492-3.3716-23.389 1.9319-32.111 1.1053-1.5066 2.2098-2.7518 4.0289-3.3232 1.2282-0.18016 2.4388-0.27452 3.6781-0.34479 0.72081-0.062275 1.4416-0.12461 2.1622-0.18916 0.77516-0.068333 1.5506-0.13159 2.3263-0.19417 10.42-0.86 20.226-2.8809 30.274-5.7365 11.661-3.3085 22.707-5.7845 34.867-6.265z" fill="#020202"/>
  <path transform="translate(773.69 614.85)" d="m0 0c9.6231-0.8053 9.6231-0.8053 12.912 1.3818 2.278 2.0353 2.7004 4.5997 2.9292 7.5447 0.34563 15.237-11.131 28.183-21.026 38.626-4.6062 4.8112-9.3467 9.381-14.505 13.597-0.27995 0.22988-0.5599 0.45975-0.84833 0.69659-12.341 10.099-25.115 20.126-41.843 18.717-8.1917-0.85089-14.411-4.558-19.799-10.78-6.5508-8.1559-8.4696-17.39-7.5096-27.635 1.0563-8.4735 3.9558-17.055 10.815-22.543 2.9964-2.2095 6.5002-3.2905 9.9973-4.4572 0.3732-0.12762 0.74641-0.25523 1.1309-0.38672 7.4845-2.5572 15.037-4.5651 22.746-6.3138 1.4685-0.33541 2.9354-0.67687 4.4023-1.0192 27.514-6.4121 27.514-6.4121 38.11-7.2184 0.82968-0.064261 1.6583-0.13739 2.4872-0.21075z" fill="#050404"/>
  <path transform="translate(362.66 748.79)" d="m0 0c0.96967 0.018439 1.9384 0.020507 2.9082 0.020264 3.172 0.01836 6.0756 0.25115 9.1782 0.96069 2.2517 0.40457 4.518 0.3727 6.7983 0.35522 0.8205-0.0053217 1.6405-3.9368e-5 2.4609 0.0063477 2.7967 0.0035494 5.4847-0.16777 8.2461-0.61328 14.357-2.2605 27.593-1.9053 39.746 6.4766 0.60104 0.44538 1.2014 0.89163 1.8013 1.3386 5.4085 3.8925 9.7713 4.3611 16.324 4.0989 0.93658-0.018838 1.8732-0.0364 2.8098-0.052734 5.4289-0.12724 10.718-0.61319 16.067-1.5233 11.808-1.9928 24.696-2.1915 35.998 2.1385 0.12173 0.046195 0.12173 0.046195 0.73773 0.27997 10.625 4.0953 22.145 12.113 26.949 22.812 0.79254 2.2961 0.71848 4.5322 0.31348 6.9082-1.7048 0.40387-3.321 0.55185-5 0-2.1126-1.3203-3.8077-3.2144-5.5042-5.0171-0.81148-0.86123-1.6405-1.702-2.4744-2.5415-0.5252-0.53928-1.0493-1.0796-1.5723-1.6211-0.2468-0.25216-0.4936-0.50433-0.74788-0.76413-1.666-1.7849-1.666-1.7849-1.8544-3.2325 0.050515-0.27183 0.10103-0.54366 0.15308-0.82373-6.7829 0.32378-12.271 1.9912-18.438 4.75-0.84285 0.36641-1.686 0.73204-2.5295 1.0969-4.6056 2.0061-9.1354 4.1234-13.601 6.4229-6.7511 3.4624-13.622 6.6395-21.119 8.0427-0.40275 0.076296-0.8055 0.15259-1.2205 0.2312-7.5919 1.2022-14.845 0.33309-22.316-1.1956-6.949-1.4167-13.747-2.597-20.839-2.8481-10.949-0.44307-20.307-3.6278-28.938-10.5-0.35433-0.27215-0.70866-0.54431-1.0737-0.82471-6.3566-4.9236-11.965-11.263-13.819-19.329-0.24459-1.9355-0.15422-3.8997-0.10693-5.8462-2.4729 0.06766-4.9442 0.1577-7.4158 0.26245-0.83868 0.033006-1.6776 0.061112-2.5166 0.083984-8.4683 0.23705-8.4683 0.23705-12.027 3.0032-1.863 1.1639-3.9255 0.89345-6.041 0.65039-0.40301-2.6061-0.71706-5.1789 0.86719-7.4414 0.38604-0.44721 0.78479-0.88375 1.1953-1.3086 0.17942-0.19811 0.35884-0.39623 0.5437-0.60034 4.0883-3.7904 10.818-3.9581 16.056-3.8555z" fill="#060404"/>
  <path transform="translate(768,996)" d="m0 0c31.075 11.498 55.969 35.816 70.717 64.899 0.35639 0.69564 0.71372 1.3908 1.072 2.0854 0.17392 0.33833 0.34784 0.67666 0.52702 1.0252 1.454 2.7425 3.1975 5.2111 5.2165 7.5699 0.93918 1.1849 1.4926 1.9195 1.4147 3.4672-0.50727 2.2244-1.1631 3.5259-2.9473 4.9532-13.337-1.102-26.458-3.9863-39.49-6.9243-1.3252-0.29853-2.6516-0.59083-3.9794-0.87756-9.1949-1.9934-19.163-4.1774-25.343-11.948-0.13966-0.16863-0.13966-0.16863-0.84644-1.022-8.2894-10.486-8.6845-23.404-8.6018-36.16 0.011417-1.7772 0.0046232-3.5539-0.0069046-5.3311-0.040912-7.4842 0.068633-14.513 2.2676-21.737z" fill="#252121"/>
  <path transform="translate(470.81 382.85)" d="m0 0c0.37845-0.0062791 0.75689-0.012558 1.1468-0.019028 0.20906-6.0677e-4 0.20906-6.0677e-4 1.267-0.0036774 0.22181-0.0021174 0.22181-0.0021174 1.3443-0.012833 1.4986-0.010117 2.9969-0.010102 4.4956-0.0066986 0.2604 2.6688e-4 0.52079 5.3375e-4 0.78908 8.0872e-4 24.273 0.031127 48.377 1.9798 72.304 6.0433 0.8475 0.1439 1.6952 0.28687 2.5428 0.42979 14.218 2.4052 28.055 5.4571 41.86 9.6731 2.4908 0.76015 4.9883 1.4833 7.5005 2.1694 0.31464 0.086594 0.62928 0.17319 0.95346 0.26241 2.4031 0.66127 2.4031 0.66127 3.4551 0.94099 4.9075 1.3091 9.5495 3.2232 14.245 5.1443 1.6089 0.65395 3.2245 1.2903 4.8409 1.9255 11.247 4.4285 22.258 9.27 33.197 14.41 0.3161 0.14852 0.63221 0.29704 0.95789 0.45007 3.1969 1.5026 6.392 3.0091 9.5862 4.5176 31.512 14.88 31.512 14.88 44.828 19.888 1.243 0.4703 2.4821 0.95046 3.7215 1.4299 8.1526 3.1493 16.37 6.0471 24.691 8.7225 3.7151 1.203 7.3579 2.5075 10.973 3.9844 4.0221 1.6427 8.0803 3.1578 12.167 4.6314 14.521 5.2361 28.954 10.529 42.95 17.064 0.2633 0.12246 0.5266 0.24492 0.79788 0.37109 6.6808 3.1088 13.185 6.4603 19.577 10.129-0.33 1.65-0.66 3.3-1 5-5.1657-0.56835-9.5684-2.254-14.357-4.2253-1.4067-0.57901-2.8163-1.1504-4.2269-1.7199-2.764-1.1172-5.5243-2.2433-8.2841-3.3707-4.1791-1.7068-8.3605-3.4075-12.546-5.0983-0.24202-0.097857-0.48404-0.19571-0.73339-0.29654-9.1152-3.6838-18.325-7.0069-27.633-10.174-2.7624-0.9451-5.4969-1.9537-8.2266-2.9889-3.4987-1.325-7.0234-2.5739-10.549-3.8258-33.082-11.766-33.082-11.766-48.381-18.738-0.28281-0.12882-0.56563-0.25764-0.85701-0.39037-4.4206-2.0176-8.8157-4.0884-13.205-6.1721-0.66974-0.31769-1.3395-0.63538-2.0092-0.95306-1.7648-0.8373-3.5294-1.6751-5.2939-2.5129-2.9087-1.3811-5.8176-2.7615-8.7274-4.1403-0.72827-0.34512-1.4565-0.69034-2.1847-1.0357-14.054-6.6628-28.238-12.849-42.785-18.358-0.12548-0.047556-0.12548-0.047556-0.76048-0.28822-30.039-11.368-61.115-17.812-116.43-23.556-0.26227-0.016846-0.52455-0.033693-0.79477-0.05105-5.2686-0.3379-10.538-0.66168-15.81-0.94314-2.2253-0.11882-4.4501-0.24527-6.6749-0.37365-1.3685-0.075924-2.7373-0.14135-4.1063-0.2065-0.82701-0.047101-1.654-0.094718-2.4809-0.14294-0.37274-0.014588-0.74549-0.029176-1.1295-0.044207-1.6934-0.10945-2.82-0.19571-4.0587-1.4222-0.2487-0.32095-0.4974-0.64189-0.75363-0.97256 0.1414-0.64682 0.28829-1.2924 0.4375-1.9375 0.081211-0.35965 0.16242-0.7193 0.24609-1.0898 0.57851-1.7784 1.3862-2.0977 3.1252-2.1179z" fill="#010101"/>
  <path transform="translate(488.75,433.5)" d="m0 0c0.14415-8.8371e-4 0.14415-8.8371e-4 0.87366-0.0053558 10.785-0.057886 21.162 1.2789 31.751 3.2554 0.34303 0.063476 0.68605 0.12695 1.0395 0.19235 9.6977 1.8008 19.157 4.1704 28.586 7.0576 0.24675 0.075294 0.49349 0.15059 0.74772 0.22816 3.2172 0.98231 6.4239 1.9957 9.6273 3.0218 0.8515 0.27102 1.7031 0.54185 2.5547 0.8125 2.0241 0.64369 4.0475 1.2896 6.0703 1.9375-1.6002 1.9212-1.6002 1.9212-3.3448 2.265-0.52245 0.017332-1.0453 0.023996-1.5681 0.022095-0.28967 0.0068897-0.57934 0.013779-0.87779 0.020878-0.96959 0.020949-1.9388 0.028175-2.9086 0.035763-0.69639 0.012873-1.3928 0.026754-2.0891 0.041565-1.5047 0.03067-3.0094 0.055993-4.5143 0.077454-3.6803 0.054319-7.3597 0.14879-11.039 0.23998-1.2917 0.031932-2.5834 0.063066-3.8751 0.094185-9.0152 0.22028-18.025 0.52305-27.033 0.95306-0.19821 0.0094565-0.19821 0.0094565-1.2013 0.057312-13.628 0.66166-27.138 1.9996-40.674 3.6927-0.43716 0.054075-0.87432 0.10815-1.3247 0.16386-2.5103 0.31075-5.0192 0.63027-7.5266 0.9641-0.75773 0.10043-1.5157 0.19901-2.2739 0.29552-4.1907 0.5381-7.9225 1.2282-11.75 3.0765-8.2536-4.4194-16.319-8.9783-23.938-14.438-0.30222-0.21469-0.60445-0.42938-0.91583-0.65057-0.85401-0.60944-1.7026-1.2256-2.549-1.8455-0.2503-0.17987-0.50061-0.35974-0.7585-0.54506-0.22915-0.17132-0.45829-0.34264-0.69438-0.51915-0.19823-0.14606-0.39646-0.29212-0.60069-0.44261-0.73596-0.75693-1.1081-1.6058-1.5441-2.5596 0.11254-0.011963 0.11254-0.011963 0.68209-0.0725 5.5461-0.58973 11.092-1.1829 16.637-1.7796 2.682-0.28853 5.3641-0.576 8.0466-0.86076 3.101-0.32933 6.2017-0.66225 9.302-0.99805 0.253-0.027331 0.50599-0.054662 0.76665-0.082822 5.945-0.64286 11.86-1.3469 17.757-2.3391 6.1917-1.0304 12.293-1.3493 18.559-1.3672z" fill="#756E66"/>
  <path transform="translate(397.56 442.76)" d="m0 0c3.5935-0.56177 7.5988-1.112 10.759 1.0647 1.8978 1.4729 3.5721 3.1793 5.2498 4.8928 3.8471 3.9145 8.0148 6.9293 12.618 9.9075 0.34027 0.22146 0.68054 0.44291 1.0311 0.67108 1.9191 1.2476 3.846 2.4818 5.7814 3.7039-2.3299 1.8622-4.5498 2.5108-7.4453 3.0781-0.43777 0.091654-0.87555 0.18331-1.3266 0.27774-1.1985 0.25052-2.3979 0.49566-3.5978 0.73943-2.0842 0.42687-4.1643 0.87377-6.245 1.3176-0.54344 0.1159-1.0869 0.2316-1.6304 0.34711-18.79 3.9947-37.421 8.7778-55.905 14-0.86624 0.24457-1.7327 0.48831-2.5992 0.73199-3.5465 0.999-7.0853 2.0212-10.617 3.0699-1.1085 0.32873-2.2185 0.65083-3.3307 0.96667-7.3119 2.0835-13.232 4.8163-19.302 9.4713-0.66-0.33-1.32-0.66-2-1 5.7491-7.4715 11.903-14.49 18.377-21.341 0.57341-0.60695 1.1452-1.2154 1.7168-1.824 4.2509-4.4979 8.7733-8.5248 13.646-12.327 2.4457-1.9233 4.6669-3.8718 6.7402-6.196 7.5492-8.2761 15.478-9.3001 26.352-10.209 1.976-0.17451 3.9465-0.39698 5.9177-0.61874 0.37675-0.041159 0.7535-0.082319 1.1417-0.12473 1.5612-0.17275 3.1172-0.35124 4.6684-0.59964z" fill="#DB8578"/>
  <path transform="translate(424,761)" d="m0 0c1.0365 0.63322 2.0753 1.2622 3.1166 1.8875 1.0471 0.62933 2.0876 1.2646 3.1202 1.9177 6.3278 3.9368 11.592 5.697 19.076 5.5073 0.77816-0.0093994 1.5563-0.018591 2.3345-0.027588 9.3293-0.16357 19.421-0.57916 28.453-3.0864 1.8618-0.41064 3.751-0.3897 5.6499-0.38599 0.21624 4.0283e-4 0.21624 4.0283e-4 1.3105 0.0024414 2.8966 0.054231 5.6254 0.37105 8.4395 1.0601 0.32581 0.078391 0.65162 0.15678 0.9873 0.23755 2.0774 0.57566 3.0437 1.3205 4.5127 2.8875-0.24532 0.10387-0.49065 0.20774-0.74341 0.31476-2.3532 0.99689-4.7053 1.9963-7.0563 2.9984-1.2077 0.51463-2.4157 1.0284-3.6246 1.5399-1.4014 0.59312-2.8016 1.1891-4.2007 1.7876-0.23163 0.098968-0.46327 0.19794-0.70192 0.2999-3.0043 1.2877-5.9347 2.6734-8.8332 4.1845-3.9538 2.0364-7.9993 3.4317-12.277 4.625-0.19056 0.053864-0.19056 0.053864-1.1549 0.32645-5.8711 1.6224-11.506 2.3905-17.595 2.3611-0.17277 2.0142e-5 -0.17277 2.0142e-5 -1.0471 1.2207e-4 -3.4676-0.023676-6.6201-0.29262-9.9178-1.3868-3.3234-1.0922-6.6573-1.4-10.121-1.6914-0.57791-0.051036-1.1558-0.1023-1.7337-0.15379-2.3865-0.21007-4.7727-0.4168-7.1628-0.58107-8.4803-0.59475-14.173-1.9207-20.83-7.6245-0.24333-0.19952-0.48666-0.39905-0.73737-0.60461-1.2933-1.0623-2.4823-2.1855-3.6376-3.3954-0.32742-0.33612-0.65484-0.67225-0.99219-1.0186-2.9827-3.1661-5.7119-6.5298-5.6562-11.07 0.0033838-0.35842 0.0067676-0.71684 0.010254-1.0861 0.0043506-0.27225 0.0087012-0.54451 0.013184-0.82501 31.607-5.0242 31.607-5.0242 41 1z" fill="#E16775"/>
  <path transform="translate(856,543)" d="m0 0c2.7882 1.2028 4.7034 2.4339 6.5781 4.8203 0.2163 0.26352 0.4326 0.52705 0.65546 0.79855 0.67889 0.83015 1.3477 1.6678 2.0164 2.5061 0.46289 0.56954 0.92643 1.1386 1.3906 1.707 1.1273 1.3834 2.2457 2.7736 3.3594 4.168-1.0998 2.8998-2.2935 5.6481-3.7507 8.3853-2.1978 4.1445-3.9696 8.2897-5.4368 12.74-0.15453 0.46608-0.30905 0.93215-0.46826 1.4124-2.1457 6.7178-3.594 13.47-4.6049 20.446-0.86732 5.9087-1.7504 11.84-2.9496 17.692-0.10811 0.54151-0.20902 1.0845-0.30194 1.6288-0.44389 2.567-0.95167 4.554-3.1366 6.147-2.7067 1.6851-5.1712 1.8903-8.2887 1.4245-0.43458-0.055671-0.86915-0.11134-1.3169-0.1687-3.6919-0.54753-6.6959-1.5686-9.7456-3.7063-0.4125-0.26555-0.825-0.53109-1.25-0.80469-1.4387-1.129-2.5518-2.1881-2.911-4.0139-0.070668-0.961-0.0804-1.9016-0.062099-2.8651 0.0045312-0.35257 0.0090625-0.70514 0.013731-1.0684 0.11975-3.7324 0.99385-7.0939 2.1547-10.623 0.10711-0.33582 0.21423-0.67164 0.32459-1.0176 2.7609-8.5757 6.8599-16.492 11.01-24.462 1.7752-3.415 3.5252-6.8429 5.2753-10.271 0.18866-0.36831 0.37733-0.73662 0.57171-1.1161 3.9732-7.7694 7.4904-15.718 10.874-23.759z" fill="#8E867C"/>
  <path transform="translate(310,485)" d="m0 0c0.66 0.33 1.32 0.66 2 1-10.159 19.998-10.159 19.998-15.938 29-3.7608 5.8731-7.3554 11.817-10.812 17.875-0.12383 0.21686-0.24766 0.43371-0.37524 0.65714-4.7078 8.2511-9.2138 16.609-13.691 24.986-4.7421 8.8737-9.6154 17.664-14.61 26.398-2.65 4.6346-5.2838 9.2573-7.5743 14.083h-1c0.50694-18.398 4.0957-36.587 10-54 0.08252-0.24543 0.16504-0.49085 0.25006-0.74371 1.0721-3.1696 2.3376-6.2246 3.7499-9.2563 0.067565-0.14555 0.067565-0.14555 0.40948-0.88214 9.5927-20.587 22.415-31.109 40.699-44.051 2.327-1.65 4.6165-3.345 6.8911-5.0666z" fill="#8D857B"/>
  <path transform="translate(725,635)" d="m0 0c-0.088588 0.2183-0.17718 0.43661-0.26845 0.66153-2.4924 6.3075-3.2587 11.961-3.1691 18.713 8.5602e-4 0.22917 8.5602e-4 0.22917 0.005188 1.3889 0.047937 7.4797 0.91445 13.573 4.4323 20.236 0.37878 0.75853 0.75644 1.5176 1.1328 2.2773 0.28867 0.57441 0.57758 1.1487 0.86719 1.7227-6.666 2.8876-14.947 4.9993-22.135 2.625-2.3857-1.108-4.1108-2.6952-5.8647-4.625-0.25395-0.25749-0.50789-0.51498-0.76953-0.78027-4.5004-4.7601-4.9694-10.304-4.8289-16.562 0.25478-5.8248 1.8615-11.065 5.5984-15.658 2.5474-2.3119 5.2602-3.6853 8.4766-4.8242 0.41132-0.15113 0.82264-0.30225 1.2464-0.45796 0.86103-0.31482 1.7232-0.62641 2.5866-0.93486 1.3216-0.47267 2.639-0.95606 3.9561-1.4412 0.84092-0.30597 1.6821-0.61133 2.5234-0.91602 0.39273-0.14371 0.78546-0.28741 1.1901-0.43547 0.36733-0.13046 0.73466-0.26092 1.1131-0.39534 0.32103-0.11531 0.64205-0.23061 0.97281-0.34941 1.0134-0.26618 1.8916-0.28961 2.9349-0.24556z" fill="#F8F7F8"/>
  <path transform="translate(421.51 742.23)" d="m0 0c4.524 1.8452 8.6557 1.9826 13.508 2.0145 9.5064 0.075605 16.136 2.4343 24.25 7.2782 2.2704 1.3222 4.5753 2.1662 7.0638 2.9894 3.3379 1.1184 3.3379 1.1184 4.616 2.5659 0.48721 0.98304 0.83421 1.8536 1.052 2.9263-11.249 3.0527-26.983 5.3709-37.475-0.48076-2.1837-1.3016-4.2461-2.7596-6.298-4.2575-6.4629-4.699-11.781-5.7152-19.77-5.543-1.4547 0.0312-2.9083 0.040992-4.3633 0.046875-4.2771 0.036059-8.4536 0.17815-12.675 0.88457-3.1152 0.50612-6.2087 0.45993-9.3561 0.41231-0.5944-0.0050386-1.1888-0.0095973-1.7832-0.013672-1.4265-0.010788-2.8529-0.027913-4.2793-0.048828v-1h5c0.66-1.65 1.32-3.3 2-5 0.4009-0.10957 0.8018-0.21914 1.2148-0.33203 0.57423-0.16013 1.1484-0.32029 1.7227-0.48047 0.31719-0.086206 0.63438-0.17241 0.96118-0.26123 1.7218-0.48146 3.3664-1.0154 5.0076-1.7271 9.189-3.8412 20.44-3.7601 29.604 0.02652z" fill="#DD6673"/>
  <path transform="translate(906,586)" d="m0 0c3.1042 3.5338 4.6111 6.6335 4.4646 11.402-0.45372 5.7242-2.2641 11.698-6.5232 15.715-0.18569 0.17603-0.37138 0.35206-0.5627 0.53342-0.18967 0.17927-0.37934 0.35854-0.57475 0.54324-0.39351 0.37233-0.78649 0.74522-1.179 1.1187-0.19784 0.1881-0.39568 0.3762-0.59952 0.57001-4.4741 4.4048-5.6672 9.7304-7.1505 15.68-1.9524 7.8053-3.5844 14.036-9.875 19.438-0.23606 0.2127-0.47212 0.42539-0.71533 0.64453-1.7685 1.5304-3.2892 2.3966-5.7026 2.2969-1.2453-0.22674-2.3813-0.5503-3.582-0.94141 0.40783-3.7759 1.5627-6.1717 3.8961-9.1358 4.4133-5.661 6.4308-11.363 7.8111-18.39 1.0123-5.1068 2.729-8.6382 6.2205-12.5 3.0182-3.4195 4.4166-6.9891 5.8223-11.286 0.22172-0.65201 0.44437-1.3037 0.66797-1.9551 0.53812-1.5741 1.0636-3.1518 1.582-4.7324-4.3579 1.5687-7.656 2.7838-10 7-0.27797 0.45694-0.55803 0.91261-0.83984 1.3672-0.74332 1.1994-1.4481 2.4122-2.1602 3.6328-0.825-0.33-0.825-0.33-5-2-0.75761-4.9245 0.5495-7.7421 3.3845-11.802 5.6209-7.4657 11.897-7.8136 20.615-7.1978z" fill="#080605"/>
  <path transform="translate(264,593)" d="m0 0c7.3165-0.73849 12.147-0.45227 18.125 4.2852 2.5467 2.2258 4.4671 4.641 5.875 7.7148 0.17153 0.36617 0.34305 0.73235 0.51978 1.1096 2.8588 6.5418 2.5944 13.435 0.0896 20.019-0.57212 1.4277-1.1765 2.8387-1.7969 4.2461-0.1459 0.33625-0.29179 0.67251-0.44211 1.019-2.4724 5.6015-5.9111 12.154-11.808 14.731-0.32146 0.1505-0.64292 0.301-0.97412 0.45605-3.4604 1.5223-7.0935 2.5986-10.713 3.6689-0.14775 0.044563-0.14775 0.044563-0.89548 0.27008-3.9533 1.1759-7.8324 2.0449-11.98 1.4799-1-1-1-1-1.1135-1.9397 0.0052368-0.37181 0.010474-0.74363 0.015869-1.1267 0.0032227-0.40283 0.0064453-0.80566 0.0097656-1.2207 0.0083789-0.42088 0.016758-0.84176 0.025391-1.2754 0.0045117-0.42475 0.0090234-0.84949 0.013672-1.2871 0.011801-1.0503 0.028262-2.1003 0.048828-3.1504 0.31115-0.039639 0.62229-0.079277 0.94287-0.12012 7.0942-0.94242 13.448-2.3391 19.991-5.3877 0.71191-0.32857 1.4339-0.63606 2.1641-0.92188 2.437-1.0252 3.4693-2.0502 4.4951-4.4907 0.13438-0.35626 0.26877-0.71253 0.40723-1.0796 0.14212-0.33693 0.28424-0.67386 0.43066-1.021 2.7599-6.7012 4.1894-13.856 1.3818-20.792-1.7704-3.7566-4.1092-6.171-8.0176-7.6406-2.8983-0.97874-5.8325-1.7876-8.7949-2.5469 0.66-1.65 1.32-3.3 2-5z" fill="#F5F4F5"/>
  <path transform="translate(422.12 733.79)" d="m0 0c5.2657 1.9718 10.08 2.6671 15.688 2.8328 10.738 0.35216 18.558 2.6311 27.188 9.375 0.25572 0.19771 0.51144 0.39542 0.7749 0.59912 1.6342 1.3029 3.0275 2.4297 3.4556 4.5337 0.017464 0.99896-0.076372 1.8842-0.23047 2.8672-5.4531 0.59141-8.6513-0.56765-13.28-3.3619-7.3152-4.339-13.522-5.3494-21.926-5.4052-4.7648-0.043405-8.5768-0.47501-12.982-2.2954-9.1125-3.6421-20.002-3.3248-29.043 0.39062-2.2023 0.90122-4.4132 1.2189-6.7695 0.67188-1-1-1-1-1.0977-2.1914 0.011602-0.45246 0.023203-0.90492 0.035156-1.3711 0.0090234-0.45504 0.018047-0.91008 0.027344-1.3789 0.011602-0.34934 0.023203-0.69867 0.035156-1.0586 12.76-7.0832 24.438-9.3862 38.125-4.2078z" fill="#080505"/>
  <path transform="translate(752,532)" d="m0 0c0.42974 0.059277 0.85947 0.11855 1.3022 0.17963 11.995 1.6224 23.823 2.1401 35.921 2.0811 2.3684-0.01141 4.7363-0.004608 7.1047 0.0069008 10.14 0.041476 20.066-0.27634 30.116-1.6826 0.31149-0.043539 0.62297-0.087077 0.9439-0.13194 0.15151-0.021205 0.15151-0.021205 0.91822-0.12852 6.5082-0.86901 12.76-1.2918 18.695 1.6754-0.66 2.97-1.32 5.94-2 9-23.849-0.56729-47.596-1.2607-71.218-4.8109-0.82707-0.12395-1.6544-0.24571-2.4819-0.36722-6.6671-0.98779-12.986-2.4154-19.3-4.8219v-1z" fill="#DA8578"/>
  <path transform="translate(773.96 623.81)" d="m0 0c0.28074-8.0566e-4 0.56148-0.0016113 0.85072-0.0024414 1.6285 0.045313 2.7896 0.34943 4.1844 1.1899 0.21259 7.5321-2.3522 12.004-7.4208 17.393-2.3218 2.4346-4.6872 4.8278-7.1141 7.1578-2.4259 2.3364-4.5464 4.6643-6.4651 7.4495h-2c-0.0093457-0.46785-0.018691-0.9357-0.02832-1.4177-0.39828-17.092-0.39828-17.092-4.7339-23.685-0.38589-1.4556 0.22186-2.5164 0.76221-3.897 2.4328-0.58065 4.8683-1.1488 7.3059-1.709 0.82584-0.19126 1.6511-0.38519 2.4756-0.58203 4.045-0.96391 8.0067-1.8853 12.183-1.8965z" fill="#F6F4F6"/>
  <path transform="translate(671,688)" d="m0 0c5.5887 0.14813 8.8798 1.8135 13.027 5.5005 0.85266 0.75394 1.726 1.4763 2.6055 2.1987 2.9877 2.5322 4.9947 4.357 5.3638 8.4092 0.0011279 0.29423 0.0022559 0.58846 0.003418 0.8916-1.5911 1.5911-3.3184 1.4163-5.4932 1.4575-5.5177-0.23495-11.364-4.0303-15.065-8.0161-1.4987-1.86-2.4156-3.4804-2.4805-5.8945 0.32107-1.9264 0.64512-3.1529 2.0391-4.5469z" fill="#080605"/>
  <path transform="translate(505.19 701.9)" d="m0 0c0.45246 0.011602 0.90492 0.023203 1.3711 0.035156 0.22752 0.0045117 0.22752 0.0045117 1.3789 0.027344 0.34934 0.011602 0.69867 0.023203 1.0586 0.035156 4.1425 6.729 7.2433 12.76 7.3125 20.812 0.0054785 0.46825 0.010957 0.9365 0.016602 1.4189-0.058615 2.7953-0.43194 4.6607-2.3291 6.7686h-3c-2.1322-5.1078-4.1703-10.253-5.9825-15.483-0.17541-0.50284-0.35394-1.0046-0.53589-1.5051-1.3193-3.6454-1.9924-7.135-1.4816-11.012 1-1 1-1 2.1914-1.0977z" fill="#070706"/>
  <path transform="translate(290.81 658.25)" d="m0 0c0.73675 0.22669 1.4697 0.46899 2.1875 0.75 0.7512 1.8453 1.4077 3.7776 0.75146 5.7451-2.1284 4.3594-5.9219 7.4369-9.7515 10.255-0.11614 0.095632-0.11614 0.095632-0.70386 0.57959-2.1058 1.6225-3.8854 1.6676-6.4836 1.5454-0.18401-0.0045117-0.18401-0.0045117-1.1152-0.027344-0.89937-0.02336-1.7984-0.059225-2.6973-0.097656-0.33-1.65-0.66-3.3-1-5 1.4732-1.3529 2.9483-2.7037 4.425-4.0527 0.49986-0.45712 0.99923-0.91479 1.498-1.373 1.678-1.5411 3.3704-3.0646 5.0769-4.5742 0.23031-0.20605 0.46062-0.4121 0.69791-0.62439 0.65613-0.58196 1.3208-1.1521 1.9896-1.7194 0.096224-0.086317 0.096224-0.086317 0.58318-0.52313 1.5502-1.281 2.6142-1.2467 4.5418-0.88312z" fill="#0B0807"/>
  <path transform="translate(895.12 867.62)" d="m0 0c0.30277 0.0016113 0.60554 0.0032227 0.91748 0.0048828 6.0678 0.31561 11.592 4.4245 15.958 8.3701-0.1414 0.64682-0.28829 1.2924-0.4375 1.9375-0.081211 0.35965-0.16242 0.7193-0.24609 1.0898-0.31641 0.97266-0.31641 0.97266-1.3164 1.9727-6.4865 1.47-13.385-0.83289-19-4-0.786-0.62605-1.3582-1.2214-2-2 0.11504-0.79318 0.2425-1.5846 0.375-2.375 0.069609-0.44086 0.13922-0.88172 0.21094-1.3359 0.91428-2.8464 2.6866-3.6801 5.5391-3.6641z" fill="#0D0A09"/>
  <path transform="translate(341.19 698.81)" d="m0 0c0.16005 0.016556 0.16005 0.016556 0.96997 0.10034 0.27803 0.028762 0.55607 0.057524 0.84253 0.087158 1.2182 3.3322 1.3056 5.8477-0.20886 9.1084-0.76582 1.5005-1.5642 2.9778-2.3961 4.4427-0.64502 1.1365-1.2657 2.2837-1.8833 3.4353-0.4036 0.73837-0.8085 1.476-1.2148 2.2129-0.18452 0.33755-0.36903 0.6751-0.55914 1.0229-1.2688 2.2217-2.6757 4.2215-4.7377 5.7779-1.168 0.29297-1.168 0.29297-2.1875 0.1875-0.34418-0.02707-0.68836-0.054141-1.043-0.082031-0.25395-0.034805-0.50789-0.069609-0.76953-0.10547-1.3603-6.472 0.59441-10.9 3.8125-16.375 0.17854-0.30609 0.35707-0.61218 0.54102-0.92755 5.4461-9.2354 5.4461-9.2354 8.834-8.8849z" fill="#070606"/>
  <path transform="translate(472,695)" d="m0 0c1.8412 0.19466 3.439 0.43799 4.7827 1.7842 0.69813 1.0035 1.3097 2.0231 1.9048 3.0908 0.21205 0.35191 0.4241 0.70383 0.64258 1.0664 0.59206 1.0048 1.1415 2.0191 1.6699 3.0586 0.11996 0.23405 0.23993 0.46809 0.36353 0.70923 1.0968 2.6198 0.74221 5.691 0.69897 8.4783-0.0050238 0.56445-0.0095852 1.1289-0.013672 1.6934-0.010083 1.3732-0.029666 2.7459-0.048828 4.1191-1.65 0.33-3.3 0.66-5 1-2.5809-3.032-3.8218-5.7515-4.9353-9.5264-0.25096-0.84447-0.51906-1.682-0.78931-2.5205-1.0945-3.5184-2.0235-7.2711-1.2754-10.953 0.60317-0.79953 1.2263-1.3476 2-2z" fill="#060605"/>
  <path transform="translate(370,701)" d="m0 0c-0.31556 5.6418-1.5437 9.9343-4.3286 14.847-0.55212 0.97521-1.0835 1.9598-1.6128 2.9475-1.704 3.1293-3.3028 5.8739-6.0586 8.2051-1.32-0.33-2.64-0.66-4-1-0.66984-5.1208 0.89734-8.6511 3.2532-13.124 0.56056-1.0661 1.1011-2.1406 1.6394-3.218 0.35369-0.69263 0.70847-1.3847 1.0645-2.0762 0.15951-0.31567 0.31901-0.63135 0.48335-0.95659 2.404-4.5204 4.4611-6.0388 9.5596-5.6254z" fill="#060606"/>
  <path transform="translate(401,695)" d="m0 0c0.81334 0.14106 1.6257 0.28801 2.4375 0.4375 0.45246 0.081211 0.90492 0.16242 1.3711 0.24609 1.1914 0.31641 1.1914 0.31641 2.1914 1.3164 0.23681 1.1624 0.1903 2.3475 0.1875 3.5312-8.0566e-4 0.35477-0.0016113 0.70955-0.0024414 1.0751-0.092197 4.1186-1.1008 7.9424-2.1851 11.894-0.1936 0.73414-0.38632 1.4685-0.57812 2.2031-0.46377 1.7685-0.9393 3.5334-1.4219 5.2969-1.65 0.33-3.3 0.66-5 1-1.4034-1.4034-1.1573-2.4178-1.1899-4.3401 8.0566e-4 -0.46527 0.0016113-0.93054 0.0024414-1.4099 8.0566e-4 -0.4801 0.0016113-0.96019 0.0024414-1.4548 0.047532-3.9934 0.47875-7.9098 1.0601-11.858 0.039206-0.28299 0.078411-0.56598 0.1188-0.85754 0.11482-0.81104 0.24179-1.6191 0.37338-2.4276 0.073315-0.46414 0.14663-0.92829 0.22217-1.4065 0.51908-1.5748 1.1725-2.1704 2.4106-3.2458z" fill="#090808"/>
  <path transform="translate(760,904)" d="m0 0c7.322 0.29656 14.207 1.8193 19.5 7.25 0.51152 0.57326 1.017 1.1526 1.5 1.75-0.33 1.32-0.66 2.64-1 4-4.9562 0.51124-9.1608-0.12255-13.812-1.8125-0.23611-0.082863-0.47222-0.16573-0.71548-0.2511-3.1149-1.1091-5.365-2.3604-7.472-4.9364 0.14106-0.81334 0.28801-1.6257 0.4375-2.4375 0.081211-0.45246 0.16242-0.90492 0.24609-1.3711 0.31641-1.1914 0.31641-1.1914 1.3164-2.1914z" fill="#0E0A09"/>
  <path transform="translate(734.62 911.88)" d="m0 0c0.44602 0.018047 0.89203 0.036094 1.3516 0.054688 0.16887 0.011602 0.16887 0.011602 1.0234 0.070312 3.6031 5.3254 5.2081 11.534 4 18-0.86185 1.5133-1.5266 2.0177-3 3-5-1-5-1-5.6562-1.8906-2.3487-3.6185-2.6537-7.153-2.6562-11.359-0.0032227-0.26784-0.0064453-0.53569-0.0097656-0.81165-0.0057008-0.77708 0.0046304-1.5521 0.021484-2.329 0.0086206-0.45407 0.017241-0.90814 0.026123-1.376 0.60199-2.7034 2.3059-3.4949 4.8997-3.3584z" fill="#080605"/>
  <path transform="translate(529,843)" d="m0 0c2.5933 0.11691 4.7983 0.47805 6.6311 2.4519 2.9594 3.6587 5.6354 8.8255 5.3298 13.618-0.19833 1.6772-0.53714 3.2958-0.96094 4.9297h-5c-2.2732-2.7682-3.7459-5.3493-4.9353-8.7268-0.25224-0.71082-0.5199-1.4144-0.78931-2.1189-1.0908-3.0198-1.7975-5.9324-1.2754-9.1543l1-1z" fill="#070706"/>
  <path transform="translate(431,693)" d="m0 0c5 1 5 1 5.6211 1.8555 2.3821 3.7194 2.8382 7.5261 3.1914 11.832 0.027141 0.28749 0.054282 0.57498 0.082245 0.87119 0.47806 5.2816 0.47806 5.2816-0.88303 7.3358-0.33387 0.3648-0.66773 0.72961-1.0117 1.1055-1.65-0.33-3.3-0.66-5-1-3.8754-15.007-3.8754-15.007-3-21 0.33-0.33 0.66-0.66 1-1z" fill="#080707"/>
  <path transform="translate(502,820)" d="m0 0c1.65 0.33 3.3 0.66 5 1 0.37471 7.4248-0.12234 13.063-3 20-1.65 0.33-3.3 0.66-5 1-1.8515-1.4753-1.8515-1.4753-2.2134-2.7539-0.096166-0.92406-0.11429-1.817-0.099121-2.7461 0.0027393-0.34241 0.0054785-0.68481 0.0083008-1.0376 0.11884-3.0639 0.81309-5.9058 1.6792-8.8374 0.12593-0.42861 0.25185-0.85723 0.38159-1.2988 0.7272-2.2727 1.3539-3.831 3.2434-5.3262z" fill="#090808"/>
  <path transform="translate(740,649)" d="m0 0c1.1468 0.13894 2.2921 0.28733 3.4375 0.4375 0.16274 0.019658 0.16274 0.019658 0.98633 0.11914 0.3126 0.041895 0.6252 0.083789 0.94727 0.12695 0.14401 0.018329 0.14401 0.018329 0.8728 0.11108 0.7561 0.20532 0.7561 0.20532 1.7561 1.2053 0.22815 1.1127 0.18983 2.2413 0.1875 3.375 3.2227e-4 0.15827 3.2227e-4 0.15827 0.0019531 0.95923-0.055624 2.4418-0.48057 3.8501-2.1895 5.6658-1.1256 0.054176-2.2487 0.093713-3.375 0.125-0.15855 0.0083789-0.15855 0.0083789-0.96094 0.050781-1.6767 0.034932-2.4526-0.030701-3.8711-1.0039-0.93101-1.3759-1.1384-2.429-1.1055-4.0469 0.0012891-0.26249 0.0025781-0.52497 0.0039062-0.79541 0.1323-2.7038 1.4342-4.4329 3.3086-6.3296z" fill="#F1F0F1"/>
  <path transform="translate(496,440)" d="m0 0c0.81334 0.14106 1.6257 0.28801 2.4375 0.4375 0.45246 0.081211 0.90492 0.16242 1.3711 0.24609 1.1914 0.31641 1.1914 0.31641 2.1914 1.3164-0.40251 4.8163-1.2194 8.0104-4 12-0.99-0.165-0.99-0.165-6-1-0.52998-4.9759 0.049938-7.9349 3.125-11.934 0.28875-0.35191 0.5775-0.70383 0.875-1.0664z" fill="#080707"/>
  <path transform="translate(896,561)" d="m0 0c0.33 0.66 0.66 1.32 1 2-0.29133-0.0063647-0.58266-0.012729-0.88281-0.019287-6.3662-0.041291-10.76 0.56998-15.531 5.1428-2.6032 2.6843-4.7691 5.6134-6.5859 8.8765h-2c1.0434-4.5317 2.6777-7.3825 6.2539-10.369 0.51062-0.43175 1.0104-0.87663 1.5-1.332 5.0417-4.6743 9.5509-4.9572 16.246-4.2988z" fill="#E0A791"/>
  <path transform="translate(346,466)" d="m0 0c0.66 0.33 1.32 0.66 2 1-4.7593 5.6066-9.7363 10.87-15 16-0.99-0.33-1.98-0.66-3-1l16-16z" fill="#CD7C70"/>
  <path transform="translate(914,588)" d="m0 0h1v16c-0.33-0.99-0.66-1.98-1-3-0.99 0.825-0.99 0.825-6 5 0.66-3.96 1.32-7.92 2-12 0.99-0.33 1.98-0.66 3-1 0.33-1.65 0.66-3.3 1-5z" fill="#D69F8B"/>
  <path transform="translate(830,773)" d="m0 0c0.33 1.32 0.66 2.64 1 4h-2c-0.019819 0.23187-0.039639 0.46374-0.060059 0.70264-0.095749 1.0585-0.2052 2.1152-0.31494 3.1724-0.030938 0.3648-0.061875 0.72961-0.09375 1.1055-0.33163 3.04-0.33163 3.04-1.5078 4.2734-1.1834 0.8627-1.604 0.83481-3.0234 0.74609-0.67537 0.31534-1.3435 0.64712-2 1 0.44476-4.314 2.0263-6.9255 4.5625-10.312 0.33347-0.45841 0.66615-0.9174 0.99805-1.377 0.80431-1.1102 1.6188-2.2124 2.4395-3.3105z" fill="#D28376"/>
  <path transform="translate(325,695)" d="m0 0c0.66 0.33 1.32 0.66 2 1-1.1023 1.2724-2.2072 2.5426-3.3125 3.8125-0.30873 0.35643-0.61746 0.71285-0.93555 1.0801-1.8447 2.1165-3.7331 4.1559-5.752 6.1074-0.99-0.33-1.98-0.66-3-1 3.0964-4.3465 6.8754-7.6422 11-11z" fill="#857E74"/>
  <path transform="translate(294,747)" d="m0 0h1c0.33 6.6 0.66 13.2 1 20-1.32-1.32-2.64-2.64-4-4 0.66-5.28 1.32-10.56 2-16z" fill="#D39D89"/>
  <path transform="translate(752,532)" d="m0 0c4.29 0.33 8.58 0.66 13 1 0.33 0.99 0.66 1.98 1 3-1.5853-0.081982-3.167-0.19467-4.75-0.3125-0.44344-0.022559-0.88688-0.045117-1.3438-0.068359-0.21914-0.017725-0.21914-0.017725-1.3281-0.10742-0.398-0.026184-0.796-0.052368-1.2061-0.079346-1.3721-0.43237-1.3721-0.43237-5.3721-3.4324z" fill="#C97D71"/>
  <path transform="translate(249,584)" d="m0 0h1v8c0.66 0.33 1.32 0.66 2 1-0.99 1.98-1.98 3.96-3 6h-1c0.33-4.95 0.66-9.9 1-15z" fill="#6D675F"/>
  <path transform="translate(279,508)" d="m0 0c0.66 0.33 1.32 0.66 2 1-2.31 2.64-4.62 5.28-7 8-0.66-0.33-1.32-0.66-2-1 2.31-2.64 4.62-5.28 7-8z" fill="#857D74"/>
  <path transform="translate(310,485)" d="m0 0c0.66 0.33 1.32 0.66 2 1-0.66 0.99-0.66 0.99-4 6-1.65-0.33-3.3-0.66-5-1 2.1875-2.2874 4.27-4.362 7-6z" fill="#807970"/>
  <path transform="translate(725,635)" d="m0 0c-0.66 1.98-1.32 3.96-2 6-1.65-0.99-3.3-1.98-5-3 2.2615-2.2615 2.2615-2.2615 3.5-2.625 0.23719-0.074766 0.47438-0.14953 0.71875-0.22656 0.78125-0.14844 0.78125-0.14844 2.7812-0.14844z" fill="#CCCBCC"/>
  <path transform="translate(417,441)" d="m0 0h6v5c-0.81663-0.45201-1.6277-0.911-2.4375-1.375-0.11505-0.063164-0.11505-0.063164-0.69727-0.38281-1.6727-0.9697-1.941-1.3938-2.8652-3.2422z" fill="#67615A"/>
  <path transform="translate(249,642)" d="m0 0h4c-0.33 0.99-0.66 1.98-1 3h-2v6h-1v-9z" fill="#DEDDDE"/>
  <path transform="translate(649,1064)" d="m0 0h2c-0.13955 1.4374-0.37565 2.6914-1 4-1.2922 0.95989-2.4783 1.411-4 2l3-6z" fill="#E4AA94"/>
  <path transform="translate(747,651)" d="m0 0h1c0.34456 6.9869 0.34456 6.9869-1 8.9375-0.33 0.35063-0.66 0.70125-1 1.0625h-2c0.066387-0.10957 0.066387-0.10957 0.40234-0.66406 1.6847-3.025 2.169-5.9516 2.5977-9.3359z" fill="#DADADA"/>
  <path transform="translate(264,593)" d="m0 0h6c-0.33 0.66-0.66 1.32-1 2h-3v2c-0.66-0.33-1.32-0.66-2-1v-3z" fill="#F9F8F9"/>
  <path transform="translate(279,565)" d="m0 0h2v4h-2v2h-2c0.66-1.98 1.32-3.96 2-6z" fill="#D9A28D"/>
  <path transform="translate(280,638)" d="m0 0c0.33 0.99 0.66 1.98 1 3-1.32 0.99-2.64 1.98-4 3-0.1658-1.1606-0.25801-1.8769 0-3 0.88091-1.1436 1.8963-2.0737 3-3z" fill="#DCDCDC"/>
  <path transform="translate(844,533)" d="m0 0c0.99 0.33 1.98 0.66 3 1-0.33 1.98-0.66 3.96-1 6-0.66-0.33-1.32-0.66-2-1v-6z" fill="#BE7368"/>
  <path transform="translate(293,762)" d="m0 0c0.99 0.33 1.98 0.66 3 1-0.33 1.32-0.66 2.64-1 4-1.9281-1.5666-1.9281-1.5666-2.1328-2.8008 0.0069609-0.73438 0.066322-1.4678 0.13281-2.1992z" fill="#C89683"/>
  <path transform="translate(752,628)" d="m0 0h2v4c-0.99-0.33-1.98-0.66-3-1 0.33-0.99 0.66-1.98 1-3z" fill="#E7E6E7"/>
 </g>
</svg>
